<?xml version="1.0" encoding="utf-8" standalone="no"?>
<!DOCTYPE svg PUBLIC "-//W3C//DTD SVG 1.1//EN"
  "http://www.w3.org/Graphics/SVG/1.1/DTD/svg11.dtd">
<svg xmlns:xlink="http://www.w3.org/1999/xlink" width="1000.29875pt" height="424.240625pt" viewBox="0 0 1000.29875 424.240625" xmlns="http://www.w3.org/2000/svg" version="1.1">
 <metadata>
  <rdf:RDF xmlns:dc="http://purl.org/dc/elements/1.1/" xmlns:cc="http://creativecommons.org/ns#" xmlns:rdf="http://www.w3.org/1999/02/22-rdf-syntax-ns#">
   <cc:Work>
    <dc:type rdf:resource="http://purl.org/dc/dcmitype/StillImage"/>
    <dc:date>2026-01-23T06:49:26.252011</dc:date>
    <dc:format>image/svg+xml</dc:format>
    <dc:creator>
     <cc:Agent>
      <dc:title>Matplotlib v3.7.5, https://matplotlib.org/</dc:title>
     </cc:Agent>
    </dc:creator>
   </cc:Work>
  </rdf:RDF>
 </metadata>
 <defs>
  <style type="text/css">*{stroke-linejoin: round; stroke-linecap: butt}</style>
 </defs>
 <g id="figure_1">
  <g id="patch_1">
   <path d="M 0 424.240625 
L 1000.29875 424.240625 
L 1000.29875 0 
L 0 0 
z
" style="fill: #ffffff"/>
  </g>
  <g id="axes_1">
   <g id="patch_2">
    <path d="M 106.37875 355.714375 
L 531.733998 355.714375 
L 531.733998 36.234375 
L 106.37875 36.234375 
z
" style="fill: #ffffff"/>
   </g>
   <g id="patch_3">
    <path d="M 125.713079 355.714375 
L 135.380244 355.714375 
L 135.380244 67.294931 
L 125.713079 67.294931 
z
" clip-path="url(#p6d893f87fe)" style="fill: #004e94; fill-opacity: 0.5; stroke: #000000; stroke-width: 0.807025; stroke-linejoin: miter"/>
   </g>
   <g id="patch_4">
    <path d="M 135.380244 355.714375 
L 145.047409 355.714375 
L 145.047409 284.681532 
L 135.380244 284.681532 
z
" clip-path="url(#p6d893f87fe)" style="fill: #004e94; fill-opacity: 0.5; stroke: #000000; stroke-width: 0.807025; stroke-linejoin: miter"/>
   </g>
   <g id="patch_5">
    <path d="M 145.047409 355.714375 
L 154.714574 355.714375 
L 154.714574 209.360617 
L 145.047409 209.360617 
z
" clip-path="url(#p6d893f87fe)" style="fill: #004e94; fill-opacity: 0.5; stroke: #000000; stroke-width: 0.807025; stroke-linejoin: miter"/>
   </g>
   <g id="patch_6">
    <path d="M 154.714574 355.714375 
L 164.381738 355.714375 
L 164.381738 137.954898 
L 154.714574 137.954898 
z
" clip-path="url(#p6d893f87fe)" style="fill: #004e94; fill-opacity: 0.5; stroke: #000000; stroke-width: 0.807025; stroke-linejoin: miter"/>
   </g>
   <g id="patch_7">
    <path d="M 164.381738 355.714375 
L 174.048903 355.714375 
L 174.048903 74.193133 
L 164.381738 74.193133 
z
" clip-path="url(#p6d893f87fe)" style="fill: #004e94; fill-opacity: 0.5; stroke: #000000; stroke-width: 0.807025; stroke-linejoin: miter"/>
   </g>
   <g id="patch_8">
    <path d="M 174.048903 355.714375 
L 183.716068 355.714375 
L 183.716068 51.447708 
L 174.048903 51.447708 
z
" clip-path="url(#p6d893f87fe)" style="fill: #004e94; fill-opacity: 0.5; stroke: #000000; stroke-width: 0.807025; stroke-linejoin: miter"/>
   </g>
   <g id="patch_9">
    <path d="M 183.716068 355.714375 
L 193.383233 355.714375 
L 193.383233 87.430225 
L 183.716068 87.430225 
z
" clip-path="url(#p6d893f87fe)" style="fill: #004e94; fill-opacity: 0.5; stroke: #000000; stroke-width: 0.807025; stroke-linejoin: miter"/>
   </g>
   <g id="patch_10">
    <path d="M 193.383233 355.714375 
L 203.050397 355.714375 
L 203.050397 157.158002 
L 193.383233 157.158002 
z
" clip-path="url(#p6d893f87fe)" style="fill: #004e94; fill-opacity: 0.5; stroke: #000000; stroke-width: 0.807025; stroke-linejoin: miter"/>
   </g>
   <g id="patch_11">
    <path d="M 203.050397 355.714375 
L 212.717562 355.714375 
L 212.717562 177.293297 
L 203.050397 177.293297 
z
" clip-path="url(#p6d893f87fe)" style="fill: #004e94; fill-opacity: 0.5; stroke: #000000; stroke-width: 0.807025; stroke-linejoin: miter"/>
   </g>
   <g id="patch_12">
    <path d="M 212.717562 355.714375 
L 222.384727 355.714375 
L 222.384727 253.546401 
L 212.717562 253.546401 
z
" clip-path="url(#p6d893f87fe)" style="fill: #004e94; fill-opacity: 0.5; stroke: #000000; stroke-width: 0.807025; stroke-linejoin: miter"/>
   </g>
   <g id="patch_13">
    <path d="M 222.384727 355.714375 
L 232.051891 355.714375 
L 232.051891 273.681695 
L 222.384727 273.681695 
z
" clip-path="url(#p6d893f87fe)" style="fill: #004e94; fill-opacity: 0.5; stroke: #000000; stroke-width: 0.807025; stroke-linejoin: miter"/>
   </g>
   <g id="patch_14">
    <path d="M 232.051891 355.714375 
L 241.719056 355.714375 
L 241.719056 304.071074 
L 232.051891 304.071074 
z
" clip-path="url(#p6d893f87fe)" style="fill: #004e94; fill-opacity: 0.5; stroke: #000000; stroke-width: 0.807025; stroke-linejoin: miter"/>
   </g>
   <g id="patch_15">
    <path d="M 241.719056 355.714375 
L 251.386221 355.714375 
L 251.386221 315.630225 
L 241.719056 315.630225 
z
" clip-path="url(#p6d893f87fe)" style="fill: #004e94; fill-opacity: 0.5; stroke: #000000; stroke-width: 0.807025; stroke-linejoin: miter"/>
   </g>
   <g id="patch_16">
    <path d="M 251.386221 355.714375 
L 261.053386 355.714375 
L 261.053386 313.952283 
L 251.386221 313.952283 
z
" clip-path="url(#p6d893f87fe)" style="fill: #004e94; fill-opacity: 0.5; stroke: #000000; stroke-width: 0.807025; stroke-linejoin: miter"/>
   </g>
   <g id="patch_17">
    <path d="M 261.053386 355.714375 
L 270.72055 355.714375 
L 270.72055 335.019767 
L 261.053386 335.019767 
z
" clip-path="url(#p6d893f87fe)" style="fill: #004e94; fill-opacity: 0.5; stroke: #000000; stroke-width: 0.807025; stroke-linejoin: miter"/>
   </g>
   <g id="patch_18">
    <path d="M 270.72055 355.714375 
L 280.387715 355.714375 
L 280.387715 340.612904 
L 270.72055 340.612904 
z
" clip-path="url(#p6d893f87fe)" style="fill: #004e94; fill-opacity: 0.5; stroke: #000000; stroke-width: 0.807025; stroke-linejoin: miter"/>
   </g>
   <g id="patch_19">
    <path d="M 280.387715 355.714375 
L 290.05488 355.714375 
L 290.05488 343.223035 
L 280.387715 343.223035 
z
" clip-path="url(#p6d893f87fe)" style="fill: #004e94; fill-opacity: 0.5; stroke: #000000; stroke-width: 0.807025; stroke-linejoin: miter"/>
   </g>
   <g id="patch_20">
    <path d="M 290.05488 355.714375 
L 299.722045 355.714375 
L 299.722045 345.833166 
L 290.05488 345.833166 
z
" clip-path="url(#p6d893f87fe)" style="fill: #004e94; fill-opacity: 0.5; stroke: #000000; stroke-width: 0.807025; stroke-linejoin: miter"/>
   </g>
   <g id="patch_21">
    <path d="M 299.722045 355.714375 
L 309.389209 355.714375 
L 309.389209 351.053427 
L 299.722045 351.053427 
z
" clip-path="url(#p6d893f87fe)" style="fill: #004e94; fill-opacity: 0.5; stroke: #000000; stroke-width: 0.807025; stroke-linejoin: miter"/>
   </g>
   <g id="patch_22">
    <path d="M 309.389209 355.714375 
L 319.056374 355.714375 
L 319.056374 350.494114 
L 309.389209 350.494114 
z
" clip-path="url(#p6d893f87fe)" style="fill: #004e94; fill-opacity: 0.5; stroke: #000000; stroke-width: 0.807025; stroke-linejoin: miter"/>
   </g>
   <g id="patch_23">
    <path d="M 319.056374 355.714375 
L 328.723539 355.714375 
L 328.723539 352.172055 
L 319.056374 352.172055 
z
" clip-path="url(#p6d893f87fe)" style="fill: #004e94; fill-opacity: 0.5; stroke: #000000; stroke-width: 0.807025; stroke-linejoin: miter"/>
   </g>
   <g id="patch_24">
    <path d="M 328.723539 355.714375 
L 338.390703 355.714375 
L 338.390703 353.663558 
L 328.723539 353.663558 
z
" clip-path="url(#p6d893f87fe)" style="fill: #004e94; fill-opacity: 0.5; stroke: #000000; stroke-width: 0.807025; stroke-linejoin: miter"/>
   </g>
   <g id="patch_25">
    <path d="M 338.390703 355.714375 
L 348.057868 355.714375 
L 348.057868 354.595748 
L 338.390703 354.595748 
z
" clip-path="url(#p6d893f87fe)" style="fill: #004e94; fill-opacity: 0.5; stroke: #000000; stroke-width: 0.807025; stroke-linejoin: miter"/>
   </g>
   <g id="patch_26">
    <path d="M 348.057868 355.714375 
L 357.725033 355.714375 
L 357.725033 355.527937 
L 348.057868 355.527937 
z
" clip-path="url(#p6d893f87fe)" style="fill: #004e94; fill-opacity: 0.5; stroke: #000000; stroke-width: 0.807025; stroke-linejoin: miter"/>
   </g>
   <g id="patch_27">
    <path d="M 357.725033 355.714375 
L 367.392198 355.714375 
L 367.392198 355.527937 
L 357.725033 355.527937 
z
" clip-path="url(#p6d893f87fe)" style="fill: #004e94; fill-opacity: 0.5; stroke: #000000; stroke-width: 0.807025; stroke-linejoin: miter"/>
   </g>
   <g id="patch_28">
    <path d="M 367.392198 355.714375 
L 377.059362 355.714375 
L 377.059362 355.155061 
L 367.392198 355.155061 
z
" clip-path="url(#p6d893f87fe)" style="fill: #004e94; fill-opacity: 0.5; stroke: #000000; stroke-width: 0.807025; stroke-linejoin: miter"/>
   </g>
   <g id="patch_29">
    <path d="M 377.059362 355.714375 
L 386.726527 355.714375 
L 386.726527 349.9348 
L 377.059362 349.9348 
z
" clip-path="url(#p6d893f87fe)" style="fill: #004e94; fill-opacity: 0.5; stroke: #000000; stroke-width: 0.807025; stroke-linejoin: miter"/>
   </g>
   <g id="patch_30">
    <path d="M 386.726527 355.714375 
L 396.393692 355.714375 
L 396.393692 355.714375 
L 386.726527 355.714375 
z
" clip-path="url(#p6d893f87fe)" style="fill: #004e94; fill-opacity: 0.5; stroke: #000000; stroke-width: 0.807025; stroke-linejoin: miter"/>
   </g>
   <g id="patch_31">
    <path d="M 396.393692 355.714375 
L 406.060856 355.714375 
L 406.060856 355.714375 
L 396.393692 355.714375 
z
" clip-path="url(#p6d893f87fe)" style="fill: #004e94; fill-opacity: 0.5; stroke: #000000; stroke-width: 0.807025; stroke-linejoin: miter"/>
   </g>
   <g id="patch_32">
    <path d="M 406.060856 355.714375 
L 415.728021 355.714375 
L 415.728021 355.714375 
L 406.060856 355.714375 
z
" clip-path="url(#p6d893f87fe)" style="fill: #004e94; fill-opacity: 0.5; stroke: #000000; stroke-width: 0.807025; stroke-linejoin: miter"/>
   </g>
   <g id="patch_33">
    <path d="M 415.728021 355.714375 
L 425.395186 355.714375 
L 425.395186 355.714375 
L 415.728021 355.714375 
z
" clip-path="url(#p6d893f87fe)" style="fill: #004e94; fill-opacity: 0.5; stroke: #000000; stroke-width: 0.807025; stroke-linejoin: miter"/>
   </g>
   <g id="patch_34">
    <path d="M 425.395186 355.714375 
L 435.062351 355.714375 
L 435.062351 355.714375 
L 425.395186 355.714375 
z
" clip-path="url(#p6d893f87fe)" style="fill: #004e94; fill-opacity: 0.5; stroke: #000000; stroke-width: 0.807025; stroke-linejoin: miter"/>
   </g>
   <g id="patch_35">
    <path d="M 435.062351 355.714375 
L 444.729515 355.714375 
L 444.729515 355.714375 
L 435.062351 355.714375 
z
" clip-path="url(#p6d893f87fe)" style="fill: #004e94; fill-opacity: 0.5; stroke: #000000; stroke-width: 0.807025; stroke-linejoin: miter"/>
   </g>
   <g id="patch_36">
    <path d="M 444.729515 355.714375 
L 454.39668 355.714375 
L 454.39668 355.714375 
L 444.729515 355.714375 
z
" clip-path="url(#p6d893f87fe)" style="fill: #004e94; fill-opacity: 0.5; stroke: #000000; stroke-width: 0.807025; stroke-linejoin: miter"/>
   </g>
   <g id="patch_37">
    <path d="M 454.39668 355.714375 
L 464.063845 355.714375 
L 464.063845 355.714375 
L 454.39668 355.714375 
z
" clip-path="url(#p6d893f87fe)" style="fill: #004e94; fill-opacity: 0.5; stroke: #000000; stroke-width: 0.807025; stroke-linejoin: miter"/>
   </g>
   <g id="patch_38">
    <path d="M 464.063845 355.714375 
L 473.73101 355.714375 
L 473.73101 355.714375 
L 464.063845 355.714375 
z
" clip-path="url(#p6d893f87fe)" style="fill: #004e94; fill-opacity: 0.5; stroke: #000000; stroke-width: 0.807025; stroke-linejoin: miter"/>
   </g>
   <g id="patch_39">
    <path d="M 473.73101 355.714375 
L 483.398174 355.714375 
L 483.398174 355.714375 
L 473.73101 355.714375 
z
" clip-path="url(#p6d893f87fe)" style="fill: #004e94; fill-opacity: 0.5; stroke: #000000; stroke-width: 0.807025; stroke-linejoin: miter"/>
   </g>
   <g id="patch_40">
    <path d="M 483.398174 355.714375 
L 493.065339 355.714375 
L 493.065339 355.714375 
L 483.398174 355.714375 
z
" clip-path="url(#p6d893f87fe)" style="fill: #004e94; fill-opacity: 0.5; stroke: #000000; stroke-width: 0.807025; stroke-linejoin: miter"/>
   </g>
   <g id="patch_41">
    <path d="M 493.065339 355.714375 
L 502.732504 355.714375 
L 502.732504 355.714375 
L 493.065339 355.714375 
z
" clip-path="url(#p6d893f87fe)" style="fill: #004e94; fill-opacity: 0.5; stroke: #000000; stroke-width: 0.807025; stroke-linejoin: miter"/>
   </g>
   <g id="patch_42">
    <path d="M 502.732504 355.714375 
L 512.399668 355.714375 
L 512.399668 355.527937 
L 502.732504 355.527937 
z
" clip-path="url(#p6d893f87fe)" style="fill: #004e94; fill-opacity: 0.5; stroke: #000000; stroke-width: 0.807025; stroke-linejoin: miter"/>
   </g>
   <g id="matplotlib.axis_1">
    <g id="xtick_1">
     <g id="line2d_1">
      <defs>
       <path id="m072591ca09" d="M 0 0 
L 0 3.5 
" style="stroke: #000000; stroke-width: 0.8"/>
      </defs>
      <g>
       <use xlink:href="#m072591ca09" x="125.713079" y="355.714375" style="stroke: #000000; stroke-width: 0.8"/>
      </g>
     </g>
     <g id="text_1">
      <!-- 1.0 -->
      <g transform="translate(106.629329 380.950625) scale(0.24 -0.24)">
       <defs>
        <path id="DejaVuSans-31" d="M 794 531 
L 1825 531 
L 1825 4091 
L 703 3866 
L 703 4441 
L 1819 4666 
L 2450 4666 
L 2450 531 
L 3481 531 
L 3481 0 
L 794 0 
L 794 531 
z
" transform="scale(0.015625)"/>
        <path id="DejaVuSans-2e" d="M 684 794 
L 1344 794 
L 1344 0 
L 684 0 
L 684 794 
z
" transform="scale(0.015625)"/>
        <path id="DejaVuSans-30" d="M 2034 4250 
Q 1547 4250 1301 3770 
Q 1056 3291 1056 2328 
Q 1056 1369 1301 889 
Q 1547 409 2034 409 
Q 2525 409 2770 889 
Q 3016 1369 3016 2328 
Q 3016 3291 2770 3770 
Q 2525 4250 2034 4250 
z
M 2034 4750 
Q 2819 4750 3233 4129 
Q 3647 3509 3647 2328 
Q 3647 1150 3233 529 
Q 2819 -91 2034 -91 
Q 1250 -91 836 529 
Q 422 1150 422 2328 
Q 422 3509 836 4129 
Q 1250 4750 2034 4750 
z
" transform="scale(0.015625)"/>
       </defs>
       <use xlink:href="#DejaVuSans-31"/>
       <use xlink:href="#DejaVuSans-2e" x="63.623047"/>
       <use xlink:href="#DejaVuSans-30" x="95.410156"/>
      </g>
     </g>
    </g>
    <g id="xtick_2">
     <g id="line2d_2">
      <g>
       <use xlink:href="#m072591ca09" x="254.608609" y="355.714375" style="stroke: #000000; stroke-width: 0.8"/>
      </g>
     </g>
     <g id="text_2">
      <!-- 1.5 -->
      <g transform="translate(235.524859 380.950625) scale(0.24 -0.24)">
       <defs>
        <path id="DejaVuSans-35" d="M 691 4666 
L 3169 4666 
L 3169 4134 
L 1269 4134 
L 1269 2991 
Q 1406 3038 1543 3061 
Q 1681 3084 1819 3084 
Q 2600 3084 3056 2656 
Q 3513 2228 3513 1497 
Q 3513 744 3044 326 
Q 2575 -91 1722 -91 
Q 1428 -91 1123 -41 
Q 819 9 494 109 
L 494 744 
Q 775 591 1075 516 
Q 1375 441 1709 441 
Q 2250 441 2565 725 
Q 2881 1009 2881 1497 
Q 2881 1984 2565 2268 
Q 2250 2553 1709 2553 
Q 1456 2553 1204 2497 
Q 953 2441 691 2322 
L 691 4666 
z
" transform="scale(0.015625)"/>
       </defs>
       <use xlink:href="#DejaVuSans-31"/>
       <use xlink:href="#DejaVuSans-2e" x="63.623047"/>
       <use xlink:href="#DejaVuSans-35" x="95.410156"/>
      </g>
     </g>
    </g>
    <g id="xtick_3">
     <g id="line2d_3">
      <g>
       <use xlink:href="#m072591ca09" x="383.504139" y="355.714375" style="stroke: #000000; stroke-width: 0.8"/>
      </g>
     </g>
     <g id="text_3">
      <!-- 2.0 -->
      <g transform="translate(364.420389 380.950625) scale(0.24 -0.24)">
       <defs>
        <path id="DejaVuSans-32" d="M 1228 531 
L 3431 531 
L 3431 0 
L 469 0 
L 469 531 
Q 828 903 1448 1529 
Q 2069 2156 2228 2338 
Q 2531 2678 2651 2914 
Q 2772 3150 2772 3378 
Q 2772 3750 2511 3984 
Q 2250 4219 1831 4219 
Q 1534 4219 1204 4116 
Q 875 4013 500 3803 
L 500 4441 
Q 881 4594 1212 4672 
Q 1544 4750 1819 4750 
Q 2544 4750 2975 4387 
Q 3406 4025 3406 3419 
Q 3406 3131 3298 2873 
Q 3191 2616 2906 2266 
Q 2828 2175 2409 1742 
Q 1991 1309 1228 531 
z
" transform="scale(0.015625)"/>
       </defs>
       <use xlink:href="#DejaVuSans-32"/>
       <use xlink:href="#DejaVuSans-2e" x="63.623047"/>
       <use xlink:href="#DejaVuSans-30" x="95.410156"/>
      </g>
     </g>
    </g>
    <g id="xtick_4">
     <g id="line2d_4">
      <g>
       <use xlink:href="#m072591ca09" x="512.399668" y="355.714375" style="stroke: #000000; stroke-width: 0.8"/>
      </g>
     </g>
     <g id="text_4">
      <!-- 2.5 -->
      <g transform="translate(493.315918 380.950625) scale(0.24 -0.24)">
       <use xlink:href="#DejaVuSans-32"/>
       <use xlink:href="#DejaVuSans-2e" x="63.623047"/>
       <use xlink:href="#DejaVuSans-35" x="95.410156"/>
      </g>
     </g>
    </g>
    <g id="text_5">
     <!-- CLAP average length -->
     <g transform="translate(172.305749 411.2175) scale(0.28 -0.28)">
      <defs>
       <path id="DejaVuSans-43" d="M 4122 4306 
L 4122 3641 
Q 3803 3938 3442 4084 
Q 3081 4231 2675 4231 
Q 1875 4231 1450 3742 
Q 1025 3253 1025 2328 
Q 1025 1406 1450 917 
Q 1875 428 2675 428 
Q 3081 428 3442 575 
Q 3803 722 4122 1019 
L 4122 359 
Q 3791 134 3420 21 
Q 3050 -91 2638 -91 
Q 1578 -91 968 557 
Q 359 1206 359 2328 
Q 359 3453 968 4101 
Q 1578 4750 2638 4750 
Q 3056 4750 3426 4639 
Q 3797 4528 4122 4306 
z
" transform="scale(0.015625)"/>
       <path id="DejaVuSans-4c" d="M 628 4666 
L 1259 4666 
L 1259 531 
L 3531 531 
L 3531 0 
L 628 0 
L 628 4666 
z
" transform="scale(0.015625)"/>
       <path id="DejaVuSans-41" d="M 2188 4044 
L 1331 1722 
L 3047 1722 
L 2188 4044 
z
M 1831 4666 
L 2547 4666 
L 4325 0 
L 3669 0 
L 3244 1197 
L 1141 1197 
L 716 0 
L 50 0 
L 1831 4666 
z
" transform="scale(0.015625)"/>
       <path id="DejaVuSans-50" d="M 1259 4147 
L 1259 2394 
L 2053 2394 
Q 2494 2394 2734 2622 
Q 2975 2850 2975 3272 
Q 2975 3691 2734 3919 
Q 2494 4147 2053 4147 
L 1259 4147 
z
M 628 4666 
L 2053 4666 
Q 2838 4666 3239 4311 
Q 3641 3956 3641 3272 
Q 3641 2581 3239 2228 
Q 2838 1875 2053 1875 
L 1259 1875 
L 1259 0 
L 628 0 
L 628 4666 
z
" transform="scale(0.015625)"/>
       <path id="DejaVuSans-20" transform="scale(0.015625)"/>
       <path id="DejaVuSans-61" d="M 2194 1759 
Q 1497 1759 1228 1600 
Q 959 1441 959 1056 
Q 959 750 1161 570 
Q 1363 391 1709 391 
Q 2188 391 2477 730 
Q 2766 1069 2766 1631 
L 2766 1759 
L 2194 1759 
z
M 3341 1997 
L 3341 0 
L 2766 0 
L 2766 531 
Q 2569 213 2275 61 
Q 1981 -91 1556 -91 
Q 1019 -91 701 211 
Q 384 513 384 1019 
Q 384 1609 779 1909 
Q 1175 2209 1959 2209 
L 2766 2209 
L 2766 2266 
Q 2766 2663 2505 2880 
Q 2244 3097 1772 3097 
Q 1472 3097 1187 3025 
Q 903 2953 641 2809 
L 641 3341 
Q 956 3463 1253 3523 
Q 1550 3584 1831 3584 
Q 2591 3584 2966 3190 
Q 3341 2797 3341 1997 
z
" transform="scale(0.015625)"/>
       <path id="DejaVuSans-76" d="M 191 3500 
L 800 3500 
L 1894 563 
L 2988 3500 
L 3597 3500 
L 2284 0 
L 1503 0 
L 191 3500 
z
" transform="scale(0.015625)"/>
       <path id="DejaVuSans-65" d="M 3597 1894 
L 3597 1613 
L 953 1613 
Q 991 1019 1311 708 
Q 1631 397 2203 397 
Q 2534 397 2845 478 
Q 3156 559 3463 722 
L 3463 178 
Q 3153 47 2828 -22 
Q 2503 -91 2169 -91 
Q 1331 -91 842 396 
Q 353 884 353 1716 
Q 353 2575 817 3079 
Q 1281 3584 2069 3584 
Q 2775 3584 3186 3129 
Q 3597 2675 3597 1894 
z
M 3022 2063 
Q 3016 2534 2758 2815 
Q 2500 3097 2075 3097 
Q 1594 3097 1305 2825 
Q 1016 2553 972 2059 
L 3022 2063 
z
" transform="scale(0.015625)"/>
       <path id="DejaVuSans-72" d="M 2631 2963 
Q 2534 3019 2420 3045 
Q 2306 3072 2169 3072 
Q 1681 3072 1420 2755 
Q 1159 2438 1159 1844 
L 1159 0 
L 581 0 
L 581 3500 
L 1159 3500 
L 1159 2956 
Q 1341 3275 1631 3429 
Q 1922 3584 2338 3584 
Q 2397 3584 2469 3576 
Q 2541 3569 2628 3553 
L 2631 2963 
z
" transform="scale(0.015625)"/>
       <path id="DejaVuSans-67" d="M 2906 1791 
Q 2906 2416 2648 2759 
Q 2391 3103 1925 3103 
Q 1463 3103 1205 2759 
Q 947 2416 947 1791 
Q 947 1169 1205 825 
Q 1463 481 1925 481 
Q 2391 481 2648 825 
Q 2906 1169 2906 1791 
z
M 3481 434 
Q 3481 -459 3084 -895 
Q 2688 -1331 1869 -1331 
Q 1566 -1331 1297 -1286 
Q 1028 -1241 775 -1147 
L 775 -588 
Q 1028 -725 1275 -790 
Q 1522 -856 1778 -856 
Q 2344 -856 2625 -561 
Q 2906 -266 2906 331 
L 2906 616 
Q 2728 306 2450 153 
Q 2172 0 1784 0 
Q 1141 0 747 490 
Q 353 981 353 1791 
Q 353 2603 747 3093 
Q 1141 3584 1784 3584 
Q 2172 3584 2450 3431 
Q 2728 3278 2906 2969 
L 2906 3500 
L 3481 3500 
L 3481 434 
z
" transform="scale(0.015625)"/>
       <path id="DejaVuSans-6c" d="M 603 4863 
L 1178 4863 
L 1178 0 
L 603 0 
L 603 4863 
z
" transform="scale(0.015625)"/>
       <path id="DejaVuSans-6e" d="M 3513 2113 
L 3513 0 
L 2938 0 
L 2938 2094 
Q 2938 2591 2744 2837 
Q 2550 3084 2163 3084 
Q 1697 3084 1428 2787 
Q 1159 2491 1159 1978 
L 1159 0 
L 581 0 
L 581 3500 
L 1159 3500 
L 1159 2956 
Q 1366 3272 1645 3428 
Q 1925 3584 2291 3584 
Q 2894 3584 3203 3211 
Q 3513 2838 3513 2113 
z
" transform="scale(0.015625)"/>
       <path id="DejaVuSans-74" d="M 1172 4494 
L 1172 3500 
L 2356 3500 
L 2356 3053 
L 1172 3053 
L 1172 1153 
Q 1172 725 1289 603 
Q 1406 481 1766 481 
L 2356 481 
L 2356 0 
L 1766 0 
Q 1100 0 847 248 
Q 594 497 594 1153 
L 594 3053 
L 172 3053 
L 172 3500 
L 594 3500 
L 594 4494 
L 1172 4494 
z
" transform="scale(0.015625)"/>
       <path id="DejaVuSans-68" d="M 3513 2113 
L 3513 0 
L 2938 0 
L 2938 2094 
Q 2938 2591 2744 2837 
Q 2550 3084 2163 3084 
Q 1697 3084 1428 2787 
Q 1159 2491 1159 1978 
L 1159 0 
L 581 0 
L 581 4863 
L 1159 4863 
L 1159 2956 
Q 1366 3272 1645 3428 
Q 1925 3584 2291 3584 
Q 2894 3584 3203 3211 
Q 3513 2838 3513 2113 
z
" transform="scale(0.015625)"/>
      </defs>
      <use xlink:href="#DejaVuSans-43"/>
      <use xlink:href="#DejaVuSans-4c" x="69.824219"/>
      <use xlink:href="#DejaVuSans-41" x="127.787109"/>
      <use xlink:href="#DejaVuSans-50" x="196.195312"/>
      <use xlink:href="#DejaVuSans-20" x="256.498047"/>
      <use xlink:href="#DejaVuSans-61" x="288.285156"/>
      <use xlink:href="#DejaVuSans-76" x="349.564453"/>
      <use xlink:href="#DejaVuSans-65" x="408.744141"/>
      <use xlink:href="#DejaVuSans-72" x="470.267578"/>
      <use xlink:href="#DejaVuSans-61" x="511.380859"/>
      <use xlink:href="#DejaVuSans-67" x="572.660156"/>
      <use xlink:href="#DejaVuSans-65" x="636.136719"/>
      <use xlink:href="#DejaVuSans-20" x="697.660156"/>
      <use xlink:href="#DejaVuSans-6c" x="729.447266"/>
      <use xlink:href="#DejaVuSans-65" x="757.230469"/>
      <use xlink:href="#DejaVuSans-6e" x="818.753906"/>
      <use xlink:href="#DejaVuSans-67" x="882.132812"/>
      <use xlink:href="#DejaVuSans-74" x="945.609375"/>
      <use xlink:href="#DejaVuSans-68" x="984.818359"/>
     </g>
    </g>
   </g>
   <g id="matplotlib.axis_2">
    <g id="ytick_1">
     <g id="line2d_5">
      <path d="M 106.37875 355.714375 
L 531.733998 355.714375 
" clip-path="url(#p6d893f87fe)" style="fill: none; stroke-dasharray: 2.59,1.12; stroke-dashoffset: 0; stroke: #b0b0b0; stroke-opacity: 0.6; stroke-width: 0.7"/>
     </g>
     <g id="line2d_6">
      <defs>
       <path id="m04e1e7158b" d="M 0 0 
L -3.5 0 
" style="stroke: #000000; stroke-width: 0.8"/>
      </defs>
      <g>
       <use xlink:href="#m04e1e7158b" x="106.37875" y="355.714375" style="stroke: #000000; stroke-width: 0.8"/>
      </g>
     </g>
     <g id="text_6">
      <!-- 0 -->
      <g transform="translate(84.10875 364.8325) scale(0.24 -0.24)">
       <use xlink:href="#DejaVuSans-30"/>
      </g>
     </g>
    </g>
    <g id="ytick_2">
     <g id="line2d_7">
      <path d="M 106.37875 262.495421 
L 531.733998 262.495421 
" clip-path="url(#p6d893f87fe)" style="fill: none; stroke-dasharray: 2.59,1.12; stroke-dashoffset: 0; stroke: #b0b0b0; stroke-opacity: 0.6; stroke-width: 0.7"/>
     </g>
     <g id="line2d_8">
      <g>
       <use xlink:href="#m04e1e7158b" x="106.37875" y="262.495421" style="stroke: #000000; stroke-width: 0.8"/>
      </g>
     </g>
     <g id="text_7">
      <!-- 500 -->
      <g transform="translate(53.56875 271.613546) scale(0.24 -0.24)">
       <use xlink:href="#DejaVuSans-35"/>
       <use xlink:href="#DejaVuSans-30" x="63.623047"/>
       <use xlink:href="#DejaVuSans-30" x="127.246094"/>
      </g>
     </g>
    </g>
    <g id="ytick_3">
     <g id="line2d_9">
      <path d="M 106.37875 169.276467 
L 531.733998 169.276467 
" clip-path="url(#p6d893f87fe)" style="fill: none; stroke-dasharray: 2.59,1.12; stroke-dashoffset: 0; stroke: #b0b0b0; stroke-opacity: 0.6; stroke-width: 0.7"/>
     </g>
     <g id="line2d_10">
      <g>
       <use xlink:href="#m04e1e7158b" x="106.37875" y="169.276467" style="stroke: #000000; stroke-width: 0.8"/>
      </g>
     </g>
     <g id="text_8">
      <!-- 1000 -->
      <g transform="translate(38.29875 178.394592) scale(0.24 -0.24)">
       <use xlink:href="#DejaVuSans-31"/>
       <use xlink:href="#DejaVuSans-30" x="63.623047"/>
       <use xlink:href="#DejaVuSans-30" x="127.246094"/>
       <use xlink:href="#DejaVuSans-30" x="190.869141"/>
      </g>
     </g>
    </g>
    <g id="ytick_4">
     <g id="line2d_11">
      <path d="M 106.37875 76.057512 
L 531.733998 76.057512 
" clip-path="url(#p6d893f87fe)" style="fill: none; stroke-dasharray: 2.59,1.12; stroke-dashoffset: 0; stroke: #b0b0b0; stroke-opacity: 0.6; stroke-width: 0.7"/>
     </g>
     <g id="line2d_12">
      <g>
       <use xlink:href="#m04e1e7158b" x="106.37875" y="76.057512" style="stroke: #000000; stroke-width: 0.8"/>
      </g>
     </g>
     <g id="text_9">
      <!-- 1500 -->
      <g transform="translate(38.29875 85.175637) scale(0.24 -0.24)">
       <use xlink:href="#DejaVuSans-31"/>
       <use xlink:href="#DejaVuSans-35" x="63.623047"/>
       <use xlink:href="#DejaVuSans-30" x="127.246094"/>
       <use xlink:href="#DejaVuSans-30" x="190.869141"/>
      </g>
     </g>
    </g>
    <g id="text_10">
     <!-- Frequency -->
     <g transform="translate(28.475625 268.2975) rotate(-90) scale(0.28 -0.28)">
      <defs>
       <path id="DejaVuSans-46" d="M 628 4666 
L 3309 4666 
L 3309 4134 
L 1259 4134 
L 1259 2759 
L 3109 2759 
L 3109 2228 
L 1259 2228 
L 1259 0 
L 628 0 
L 628 4666 
z
" transform="scale(0.015625)"/>
       <path id="DejaVuSans-71" d="M 947 1747 
Q 947 1113 1208 752 
Q 1469 391 1925 391 
Q 2381 391 2643 752 
Q 2906 1113 2906 1747 
Q 2906 2381 2643 2742 
Q 2381 3103 1925 3103 
Q 1469 3103 1208 2742 
Q 947 2381 947 1747 
z
M 2906 525 
Q 2725 213 2448 61 
Q 2172 -91 1784 -91 
Q 1150 -91 751 415 
Q 353 922 353 1747 
Q 353 2572 751 3078 
Q 1150 3584 1784 3584 
Q 2172 3584 2448 3432 
Q 2725 3281 2906 2969 
L 2906 3500 
L 3481 3500 
L 3481 -1331 
L 2906 -1331 
L 2906 525 
z
" transform="scale(0.015625)"/>
       <path id="DejaVuSans-75" d="M 544 1381 
L 544 3500 
L 1119 3500 
L 1119 1403 
Q 1119 906 1312 657 
Q 1506 409 1894 409 
Q 2359 409 2629 706 
Q 2900 1003 2900 1516 
L 2900 3500 
L 3475 3500 
L 3475 0 
L 2900 0 
L 2900 538 
Q 2691 219 2414 64 
Q 2138 -91 1772 -91 
Q 1169 -91 856 284 
Q 544 659 544 1381 
z
M 1991 3584 
L 1991 3584 
z
" transform="scale(0.015625)"/>
       <path id="DejaVuSans-63" d="M 3122 3366 
L 3122 2828 
Q 2878 2963 2633 3030 
Q 2388 3097 2138 3097 
Q 1578 3097 1268 2742 
Q 959 2388 959 1747 
Q 959 1106 1268 751 
Q 1578 397 2138 397 
Q 2388 397 2633 464 
Q 2878 531 3122 666 
L 3122 134 
Q 2881 22 2623 -34 
Q 2366 -91 2075 -91 
Q 1284 -91 818 406 
Q 353 903 353 1747 
Q 353 2603 823 3093 
Q 1294 3584 2113 3584 
Q 2378 3584 2631 3529 
Q 2884 3475 3122 3366 
z
" transform="scale(0.015625)"/>
       <path id="DejaVuSans-79" d="M 2059 -325 
Q 1816 -950 1584 -1140 
Q 1353 -1331 966 -1331 
L 506 -1331 
L 506 -850 
L 844 -850 
Q 1081 -850 1212 -737 
Q 1344 -625 1503 -206 
L 1606 56 
L 191 3500 
L 800 3500 
L 1894 763 
L 2988 3500 
L 3597 3500 
L 2059 -325 
z
" transform="scale(0.015625)"/>
      </defs>
      <use xlink:href="#DejaVuSans-46"/>
      <use xlink:href="#DejaVuSans-72" x="50.269531"/>
      <use xlink:href="#DejaVuSans-65" x="89.132812"/>
      <use xlink:href="#DejaVuSans-71" x="150.65625"/>
      <use xlink:href="#DejaVuSans-75" x="214.132812"/>
      <use xlink:href="#DejaVuSans-65" x="277.511719"/>
      <use xlink:href="#DejaVuSans-6e" x="339.035156"/>
      <use xlink:href="#DejaVuSans-63" x="402.414062"/>
      <use xlink:href="#DejaVuSans-79" x="457.394531"/>
     </g>
    </g>
   </g>
   <g id="line2d_13">
    <path d="M 125.713079 166.615524 
L 127.656228 172.931957 
L 129.599377 194.477785 
L 131.542526 223.202238 
L 133.485674 250.170272 
L 135.428823 269.027019 
L 137.371972 277.456427 
L 139.31512 276.512876 
L 141.258269 268.912284 
L 143.201418 257.467605 
L 147.087715 230.325245 
L 150.974012 201.520844 
L 154.86031 170.823298 
L 158.746607 139.218206 
L 160.689756 124.260723 
L 162.632905 110.675866 
L 164.576053 98.98881 
L 166.519202 89.50874 
L 168.462351 82.222756 
L 170.405499 76.79696 
L 172.348648 72.74137 
L 174.291797 69.674849 
L 176.234945 67.524246 
L 178.178094 66.527127 
L 180.121243 67.061533 
L 182.064391 69.450032 
L 184.00754 73.862433 
L 185.950689 80.314026 
L 187.893837 88.670324 
L 189.836986 98.609865 
L 197.609581 142.696848 
L 201.495878 161.880117 
L 209.268473 197.534796 
L 213.15477 217.610455 
L 217.041068 238.372241 
L 218.984217 247.757348 
L 220.927365 256.020408 
L 222.870514 263.175746 
L 224.813663 269.454235 
L 228.69996 280.538682 
L 232.586257 290.818679 
L 234.529406 295.686578 
L 236.472555 300.218043 
L 238.415703 304.258987 
L 240.358852 307.680748 
L 242.302001 310.405161 
L 244.245149 312.407145 
L 246.188298 313.719933 
L 248.131447 314.466141 
L 252.017744 315.391463 
L 253.960893 316.350877 
L 255.904042 318.054203 
L 257.84719 320.529244 
L 263.676636 329.727405 
L 265.619785 332.303402 
L 267.562934 334.389508 
L 269.506082 336.036154 
L 271.449231 337.353776 
L 275.335528 339.464812 
L 283.108123 343.312639 
L 285.051272 344.17232 
L 286.994421 344.897071 
L 288.937569 345.458568 
L 292.823867 346.194405 
L 296.710164 346.902257 
L 300.596461 347.996595 
L 304.482759 349.215924 
L 308.369056 350.0981 
L 314.198502 350.881906 
L 321.971097 351.979986 
L 333.629989 353.716738 
L 341.402584 354.585347 
L 347.23203 355.07613 
L 353.061476 355.349665 
L 358.890922 355.430164 
L 364.720368 355.327843 
L 368.606666 355.138294 
L 372.492963 354.686042 
L 374.436112 354.254819 
L 378.322409 352.991421 
L 380.265558 352.37106 
L 382.208706 351.982088 
L 384.151855 351.955696 
L 386.095004 352.31316 
L 389.981301 353.708411 
L 391.92445 354.409151 
L 393.867598 354.95436 
L 395.810747 355.318422 
L 399.697045 355.637438 
L 405.526491 355.71152 
L 498.797628 355.706353 
L 512.399668 355.590738 
L 512.399668 355.590738 
" clip-path="url(#p6d893f87fe)" style="fill: none; stroke: #004e94; stroke-width: 1.5; stroke-linecap: square"/>
   </g>
   <g id="patch_43">
    <path d="M 106.37875 355.714375 
L 106.37875 36.234375 
" style="fill: none; stroke: #000000; stroke-width: 0.8; stroke-linejoin: miter; stroke-linecap: square"/>
   </g>
   <g id="patch_44">
    <path d="M 531.733998 355.714375 
L 531.733998 36.234375 
" style="fill: none; stroke: #000000; stroke-width: 0.8; stroke-linejoin: miter; stroke-linecap: square"/>
   </g>
   <g id="patch_45">
    <path d="M 106.37875 355.714375 
L 531.733998 355.714375 
" style="fill: none; stroke: #000000; stroke-width: 0.8; stroke-linejoin: miter; stroke-linecap: square"/>
   </g>
   <g id="patch_46">
    <path d="M 106.37875 36.234375 
L 531.733998 36.234375 
" style="fill: none; stroke: #000000; stroke-width: 0.8; stroke-linejoin: miter; stroke-linecap: square"/>
   </g>
   <g id="text_11">
    <!-- Synthetic Networks -->
    <g transform="translate(173.026686 29.995313) scale(0.3 -0.3)">
     <defs>
      <path id="DejaVuSans-53" d="M 3425 4513 
L 3425 3897 
Q 3066 4069 2747 4153 
Q 2428 4238 2131 4238 
Q 1616 4238 1336 4038 
Q 1056 3838 1056 3469 
Q 1056 3159 1242 3001 
Q 1428 2844 1947 2747 
L 2328 2669 
Q 3034 2534 3370 2195 
Q 3706 1856 3706 1288 
Q 3706 609 3251 259 
Q 2797 -91 1919 -91 
Q 1588 -91 1214 -16 
Q 841 59 441 206 
L 441 856 
Q 825 641 1194 531 
Q 1563 422 1919 422 
Q 2459 422 2753 634 
Q 3047 847 3047 1241 
Q 3047 1584 2836 1778 
Q 2625 1972 2144 2069 
L 1759 2144 
Q 1053 2284 737 2584 
Q 422 2884 422 3419 
Q 422 4038 858 4394 
Q 1294 4750 2059 4750 
Q 2388 4750 2728 4690 
Q 3069 4631 3425 4513 
z
" transform="scale(0.015625)"/>
      <path id="DejaVuSans-69" d="M 603 3500 
L 1178 3500 
L 1178 0 
L 603 0 
L 603 3500 
z
M 603 4863 
L 1178 4863 
L 1178 4134 
L 603 4134 
L 603 4863 
z
" transform="scale(0.015625)"/>
      <path id="DejaVuSans-4e" d="M 628 4666 
L 1478 4666 
L 3547 763 
L 3547 4666 
L 4159 4666 
L 4159 0 
L 3309 0 
L 1241 3903 
L 1241 0 
L 628 0 
L 628 4666 
z
" transform="scale(0.015625)"/>
      <path id="DejaVuSans-77" d="M 269 3500 
L 844 3500 
L 1563 769 
L 2278 3500 
L 2956 3500 
L 3675 769 
L 4391 3500 
L 4966 3500 
L 4050 0 
L 3372 0 
L 2619 2869 
L 1863 0 
L 1184 0 
L 269 3500 
z
" transform="scale(0.015625)"/>
      <path id="DejaVuSans-6f" d="M 1959 3097 
Q 1497 3097 1228 2736 
Q 959 2375 959 1747 
Q 959 1119 1226 758 
Q 1494 397 1959 397 
Q 2419 397 2687 759 
Q 2956 1122 2956 1747 
Q 2956 2369 2687 2733 
Q 2419 3097 1959 3097 
z
M 1959 3584 
Q 2709 3584 3137 3096 
Q 3566 2609 3566 1747 
Q 3566 888 3137 398 
Q 2709 -91 1959 -91 
Q 1206 -91 779 398 
Q 353 888 353 1747 
Q 353 2609 779 3096 
Q 1206 3584 1959 3584 
z
" transform="scale(0.015625)"/>
      <path id="DejaVuSans-6b" d="M 581 4863 
L 1159 4863 
L 1159 1991 
L 2875 3500 
L 3609 3500 
L 1753 1863 
L 3688 0 
L 2938 0 
L 1159 1709 
L 1159 0 
L 581 0 
L 581 4863 
z
" transform="scale(0.015625)"/>
      <path id="DejaVuSans-73" d="M 2834 3397 
L 2834 2853 
Q 2591 2978 2328 3040 
Q 2066 3103 1784 3103 
Q 1356 3103 1142 2972 
Q 928 2841 928 2578 
Q 928 2378 1081 2264 
Q 1234 2150 1697 2047 
L 1894 2003 
Q 2506 1872 2764 1633 
Q 3022 1394 3022 966 
Q 3022 478 2636 193 
Q 2250 -91 1575 -91 
Q 1294 -91 989 -36 
Q 684 19 347 128 
L 347 722 
Q 666 556 975 473 
Q 1284 391 1588 391 
Q 1994 391 2212 530 
Q 2431 669 2431 922 
Q 2431 1156 2273 1281 
Q 2116 1406 1581 1522 
L 1381 1569 
Q 847 1681 609 1914 
Q 372 2147 372 2553 
Q 372 3047 722 3315 
Q 1072 3584 1716 3584 
Q 2034 3584 2315 3537 
Q 2597 3491 2834 3397 
z
" transform="scale(0.015625)"/>
     </defs>
     <use xlink:href="#DejaVuSans-53"/>
     <use xlink:href="#DejaVuSans-79" x="63.476562"/>
     <use xlink:href="#DejaVuSans-6e" x="122.65625"/>
     <use xlink:href="#DejaVuSans-74" x="186.035156"/>
     <use xlink:href="#DejaVuSans-68" x="225.244141"/>
     <use xlink:href="#DejaVuSans-65" x="288.623047"/>
     <use xlink:href="#DejaVuSans-74" x="350.146484"/>
     <use xlink:href="#DejaVuSans-69" x="389.355469"/>
     <use xlink:href="#DejaVuSans-63" x="417.138672"/>
     <use xlink:href="#DejaVuSans-20" x="472.119141"/>
     <use xlink:href="#DejaVuSans-4e" x="503.90625"/>
     <use xlink:href="#DejaVuSans-65" x="578.710938"/>
     <use xlink:href="#DejaVuSans-74" x="640.234375"/>
     <use xlink:href="#DejaVuSans-77" x="679.443359"/>
     <use xlink:href="#DejaVuSans-6f" x="761.230469"/>
     <use xlink:href="#DejaVuSans-72" x="822.412109"/>
     <use xlink:href="#DejaVuSans-6b" x="863.525391"/>
     <use xlink:href="#DejaVuSans-73" x="921.435547"/>
    </g>
   </g>
  </g>
  <g id="axes_2">
   <g id="patch_47">
    <path d="M 567.743502 355.714375 
L 993.09875 355.714375 
L 993.09875 36.234375 
L 567.743502 36.234375 
z
" style="fill: #ffffff"/>
   </g>
   <g id="patch_48">
    <path d="M 587.077832 355.714375 
L 596.744996 355.714375 
L 596.744996 51.447708 
L 587.077832 51.447708 
z
" clip-path="url(#p7e23f1b17d)" style="fill: #004e94; fill-opacity: 0.5; stroke: #000000; stroke-width: 0.807025; stroke-linejoin: miter"/>
   </g>
   <g id="patch_49">
    <path d="M 596.744996 355.714375 
L 606.412161 355.714375 
L 606.412161 152.869931 
L 596.744996 152.869931 
z
" clip-path="url(#p7e23f1b17d)" style="fill: #004e94; fill-opacity: 0.5; stroke: #000000; stroke-width: 0.807025; stroke-linejoin: miter"/>
   </g>
   <g id="patch_50">
    <path d="M 606.412161 355.714375 
L 616.079326 355.714375 
L 616.079326 152.869931 
L 606.412161 152.869931 
z
" clip-path="url(#p7e23f1b17d)" style="fill: #004e94; fill-opacity: 0.5; stroke: #000000; stroke-width: 0.807025; stroke-linejoin: miter"/>
   </g>
   <g id="patch_51">
    <path d="M 616.079326 355.714375 
L 625.74649 355.714375 
L 625.74649 152.869931 
L 616.079326 152.869931 
z
" clip-path="url(#p7e23f1b17d)" style="fill: #004e94; fill-opacity: 0.5; stroke: #000000; stroke-width: 0.807025; stroke-linejoin: miter"/>
   </g>
   <g id="patch_52">
    <path d="M 625.74649 355.714375 
L 635.413655 355.714375 
L 635.413655 152.869931 
L 625.74649 152.869931 
z
" clip-path="url(#p7e23f1b17d)" style="fill: #004e94; fill-opacity: 0.5; stroke: #000000; stroke-width: 0.807025; stroke-linejoin: miter"/>
   </g>
   <g id="patch_53">
    <path d="M 635.413655 355.714375 
L 645.08082 355.714375 
L 645.08082 254.292153 
L 635.413655 254.292153 
z
" clip-path="url(#p7e23f1b17d)" style="fill: #004e94; fill-opacity: 0.5; stroke: #000000; stroke-width: 0.807025; stroke-linejoin: miter"/>
   </g>
   <g id="patch_54">
    <path d="M 645.08082 355.714375 
L 654.747985 355.714375 
L 654.747985 355.714375 
L 645.08082 355.714375 
z
" clip-path="url(#p7e23f1b17d)" style="fill: #004e94; fill-opacity: 0.5; stroke: #000000; stroke-width: 0.807025; stroke-linejoin: miter"/>
   </g>
   <g id="patch_55">
    <path d="M 654.747985 355.714375 
L 664.415149 355.714375 
L 664.415149 355.714375 
L 654.747985 355.714375 
z
" clip-path="url(#p7e23f1b17d)" style="fill: #004e94; fill-opacity: 0.5; stroke: #000000; stroke-width: 0.807025; stroke-linejoin: miter"/>
   </g>
   <g id="patch_56">
    <path d="M 664.415149 355.714375 
L 674.082314 355.714375 
L 674.082314 355.714375 
L 664.415149 355.714375 
z
" clip-path="url(#p7e23f1b17d)" style="fill: #004e94; fill-opacity: 0.5; stroke: #000000; stroke-width: 0.807025; stroke-linejoin: miter"/>
   </g>
   <g id="patch_57">
    <path d="M 674.082314 355.714375 
L 683.749479 355.714375 
L 683.749479 355.714375 
L 674.082314 355.714375 
z
" clip-path="url(#p7e23f1b17d)" style="fill: #004e94; fill-opacity: 0.5; stroke: #000000; stroke-width: 0.807025; stroke-linejoin: miter"/>
   </g>
   <g id="patch_58">
    <path d="M 683.749479 355.714375 
L 693.416644 355.714375 
L 693.416644 254.292153 
L 683.749479 254.292153 
z
" clip-path="url(#p7e23f1b17d)" style="fill: #004e94; fill-opacity: 0.5; stroke: #000000; stroke-width: 0.807025; stroke-linejoin: miter"/>
   </g>
   <g id="patch_59">
    <path d="M 693.416644 355.714375 
L 703.083808 355.714375 
L 703.083808 355.714375 
L 693.416644 355.714375 
z
" clip-path="url(#p7e23f1b17d)" style="fill: #004e94; fill-opacity: 0.5; stroke: #000000; stroke-width: 0.807025; stroke-linejoin: miter"/>
   </g>
   <g id="patch_60">
    <path d="M 703.083808 355.714375 
L 712.750973 355.714375 
L 712.750973 355.714375 
L 703.083808 355.714375 
z
" clip-path="url(#p7e23f1b17d)" style="fill: #004e94; fill-opacity: 0.5; stroke: #000000; stroke-width: 0.807025; stroke-linejoin: miter"/>
   </g>
   <g id="patch_61">
    <path d="M 712.750973 355.714375 
L 722.418138 355.714375 
L 722.418138 355.714375 
L 712.750973 355.714375 
z
" clip-path="url(#p7e23f1b17d)" style="fill: #004e94; fill-opacity: 0.5; stroke: #000000; stroke-width: 0.807025; stroke-linejoin: miter"/>
   </g>
   <g id="patch_62">
    <path d="M 722.418138 355.714375 
L 732.085302 355.714375 
L 732.085302 355.714375 
L 722.418138 355.714375 
z
" clip-path="url(#p7e23f1b17d)" style="fill: #004e94; fill-opacity: 0.5; stroke: #000000; stroke-width: 0.807025; stroke-linejoin: miter"/>
   </g>
   <g id="patch_63">
    <path d="M 732.085302 355.714375 
L 741.752467 355.714375 
L 741.752467 254.292153 
L 732.085302 254.292153 
z
" clip-path="url(#p7e23f1b17d)" style="fill: #004e94; fill-opacity: 0.5; stroke: #000000; stroke-width: 0.807025; stroke-linejoin: miter"/>
   </g>
   <g id="patch_64">
    <path d="M 741.752467 355.714375 
L 751.419632 355.714375 
L 751.419632 254.292153 
L 741.752467 254.292153 
z
" clip-path="url(#p7e23f1b17d)" style="fill: #004e94; fill-opacity: 0.5; stroke: #000000; stroke-width: 0.807025; stroke-linejoin: miter"/>
   </g>
   <g id="patch_65">
    <path d="M 751.419632 355.714375 
L 761.086797 355.714375 
L 761.086797 355.714375 
L 751.419632 355.714375 
z
" clip-path="url(#p7e23f1b17d)" style="fill: #004e94; fill-opacity: 0.5; stroke: #000000; stroke-width: 0.807025; stroke-linejoin: miter"/>
   </g>
   <g id="patch_66">
    <path d="M 761.086797 355.714375 
L 770.753961 355.714375 
L 770.753961 355.714375 
L 761.086797 355.714375 
z
" clip-path="url(#p7e23f1b17d)" style="fill: #004e94; fill-opacity: 0.5; stroke: #000000; stroke-width: 0.807025; stroke-linejoin: miter"/>
   </g>
   <g id="patch_67">
    <path d="M 770.753961 355.714375 
L 780.421126 355.714375 
L 780.421126 254.292153 
L 770.753961 254.292153 
z
" clip-path="url(#p7e23f1b17d)" style="fill: #004e94; fill-opacity: 0.5; stroke: #000000; stroke-width: 0.807025; stroke-linejoin: miter"/>
   </g>
   <g id="patch_68">
    <path d="M 780.421126 355.714375 
L 790.088291 355.714375 
L 790.088291 355.714375 
L 780.421126 355.714375 
z
" clip-path="url(#p7e23f1b17d)" style="fill: #004e94; fill-opacity: 0.5; stroke: #000000; stroke-width: 0.807025; stroke-linejoin: miter"/>
   </g>
   <g id="patch_69">
    <path d="M 790.088291 355.714375 
L 799.755455 355.714375 
L 799.755455 355.714375 
L 790.088291 355.714375 
z
" clip-path="url(#p7e23f1b17d)" style="fill: #004e94; fill-opacity: 0.5; stroke: #000000; stroke-width: 0.807025; stroke-linejoin: miter"/>
   </g>
   <g id="patch_70">
    <path d="M 799.755455 355.714375 
L 809.42262 355.714375 
L 809.42262 254.292153 
L 799.755455 254.292153 
z
" clip-path="url(#p7e23f1b17d)" style="fill: #004e94; fill-opacity: 0.5; stroke: #000000; stroke-width: 0.807025; stroke-linejoin: miter"/>
   </g>
   <g id="patch_71">
    <path d="M 809.42262 355.714375 
L 819.089785 355.714375 
L 819.089785 355.714375 
L 809.42262 355.714375 
z
" clip-path="url(#p7e23f1b17d)" style="fill: #004e94; fill-opacity: 0.5; stroke: #000000; stroke-width: 0.807025; stroke-linejoin: miter"/>
   </g>
   <g id="patch_72">
    <path d="M 819.089785 355.714375 
L 828.75695 355.714375 
L 828.75695 355.714375 
L 819.089785 355.714375 
z
" clip-path="url(#p7e23f1b17d)" style="fill: #004e94; fill-opacity: 0.5; stroke: #000000; stroke-width: 0.807025; stroke-linejoin: miter"/>
   </g>
   <g id="patch_73">
    <path d="M 828.75695 355.714375 
L 838.424114 355.714375 
L 838.424114 355.714375 
L 828.75695 355.714375 
z
" clip-path="url(#p7e23f1b17d)" style="fill: #004e94; fill-opacity: 0.5; stroke: #000000; stroke-width: 0.807025; stroke-linejoin: miter"/>
   </g>
   <g id="patch_74">
    <path d="M 838.424114 355.714375 
L 848.091279 355.714375 
L 848.091279 355.714375 
L 838.424114 355.714375 
z
" clip-path="url(#p7e23f1b17d)" style="fill: #004e94; fill-opacity: 0.5; stroke: #000000; stroke-width: 0.807025; stroke-linejoin: miter"/>
   </g>
   <g id="patch_75">
    <path d="M 848.091279 355.714375 
L 857.758444 355.714375 
L 857.758444 355.714375 
L 848.091279 355.714375 
z
" clip-path="url(#p7e23f1b17d)" style="fill: #004e94; fill-opacity: 0.5; stroke: #000000; stroke-width: 0.807025; stroke-linejoin: miter"/>
   </g>
   <g id="patch_76">
    <path d="M 857.758444 355.714375 
L 867.425609 355.714375 
L 867.425609 355.714375 
L 857.758444 355.714375 
z
" clip-path="url(#p7e23f1b17d)" style="fill: #004e94; fill-opacity: 0.5; stroke: #000000; stroke-width: 0.807025; stroke-linejoin: miter"/>
   </g>
   <g id="patch_77">
    <path d="M 867.425609 355.714375 
L 877.092773 355.714375 
L 877.092773 355.714375 
L 867.425609 355.714375 
z
" clip-path="url(#p7e23f1b17d)" style="fill: #004e94; fill-opacity: 0.5; stroke: #000000; stroke-width: 0.807025; stroke-linejoin: miter"/>
   </g>
   <g id="patch_78">
    <path d="M 877.092773 355.714375 
L 886.759938 355.714375 
L 886.759938 254.292153 
L 877.092773 254.292153 
z
" clip-path="url(#p7e23f1b17d)" style="fill: #004e94; fill-opacity: 0.5; stroke: #000000; stroke-width: 0.807025; stroke-linejoin: miter"/>
   </g>
   <g id="patch_79">
    <path d="M 886.759938 355.714375 
L 896.427103 355.714375 
L 896.427103 355.714375 
L 886.759938 355.714375 
z
" clip-path="url(#p7e23f1b17d)" style="fill: #004e94; fill-opacity: 0.5; stroke: #000000; stroke-width: 0.807025; stroke-linejoin: miter"/>
   </g>
   <g id="patch_80">
    <path d="M 896.427103 355.714375 
L 906.094267 355.714375 
L 906.094267 355.714375 
L 896.427103 355.714375 
z
" clip-path="url(#p7e23f1b17d)" style="fill: #004e94; fill-opacity: 0.5; stroke: #000000; stroke-width: 0.807025; stroke-linejoin: miter"/>
   </g>
   <g id="patch_81">
    <path d="M 906.094267 355.714375 
L 915.761432 355.714375 
L 915.761432 355.714375 
L 906.094267 355.714375 
z
" clip-path="url(#p7e23f1b17d)" style="fill: #004e94; fill-opacity: 0.5; stroke: #000000; stroke-width: 0.807025; stroke-linejoin: miter"/>
   </g>
   <g id="patch_82">
    <path d="M 915.761432 355.714375 
L 925.428597 355.714375 
L 925.428597 355.714375 
L 915.761432 355.714375 
z
" clip-path="url(#p7e23f1b17d)" style="fill: #004e94; fill-opacity: 0.5; stroke: #000000; stroke-width: 0.807025; stroke-linejoin: miter"/>
   </g>
   <g id="patch_83">
    <path d="M 925.428597 355.714375 
L 935.095762 355.714375 
L 935.095762 355.714375 
L 925.428597 355.714375 
z
" clip-path="url(#p7e23f1b17d)" style="fill: #004e94; fill-opacity: 0.5; stroke: #000000; stroke-width: 0.807025; stroke-linejoin: miter"/>
   </g>
   <g id="patch_84">
    <path d="M 935.095762 355.714375 
L 944.762926 355.714375 
L 944.762926 355.714375 
L 935.095762 355.714375 
z
" clip-path="url(#p7e23f1b17d)" style="fill: #004e94; fill-opacity: 0.5; stroke: #000000; stroke-width: 0.807025; stroke-linejoin: miter"/>
   </g>
   <g id="patch_85">
    <path d="M 944.762926 355.714375 
L 954.430091 355.714375 
L 954.430091 355.714375 
L 944.762926 355.714375 
z
" clip-path="url(#p7e23f1b17d)" style="fill: #004e94; fill-opacity: 0.5; stroke: #000000; stroke-width: 0.807025; stroke-linejoin: miter"/>
   </g>
   <g id="patch_86">
    <path d="M 954.430091 355.714375 
L 964.097256 355.714375 
L 964.097256 355.714375 
L 954.430091 355.714375 
z
" clip-path="url(#p7e23f1b17d)" style="fill: #004e94; fill-opacity: 0.5; stroke: #000000; stroke-width: 0.807025; stroke-linejoin: miter"/>
   </g>
   <g id="patch_87">
    <path d="M 964.097256 355.714375 
L 973.764421 355.714375 
L 973.764421 254.292153 
L 964.097256 254.292153 
z
" clip-path="url(#p7e23f1b17d)" style="fill: #004e94; fill-opacity: 0.5; stroke: #000000; stroke-width: 0.807025; stroke-linejoin: miter"/>
   </g>
   <g id="matplotlib.axis_3">
    <g id="xtick_5">
     <g id="line2d_14">
      <g>
       <use xlink:href="#m072591ca09" x="587.077832" y="355.714375" style="stroke: #000000; stroke-width: 0.8"/>
      </g>
     </g>
     <g id="text_12">
      <!-- 1.0 -->
      <g transform="translate(567.994082 380.950625) scale(0.24 -0.24)">
       <use xlink:href="#DejaVuSans-31"/>
       <use xlink:href="#DejaVuSans-2e" x="63.623047"/>
       <use xlink:href="#DejaVuSans-30" x="95.410156"/>
      </g>
     </g>
    </g>
    <g id="xtick_6">
     <g id="line2d_15">
      <g>
       <use xlink:href="#m072591ca09" x="674.082314" y="355.714375" style="stroke: #000000; stroke-width: 0.8"/>
      </g>
     </g>
     <g id="text_13">
      <!-- 1.1 -->
      <g transform="translate(654.998564 380.950625) scale(0.24 -0.24)">
       <use xlink:href="#DejaVuSans-31"/>
       <use xlink:href="#DejaVuSans-2e" x="63.623047"/>
       <use xlink:href="#DejaVuSans-31" x="95.410156"/>
      </g>
     </g>
    </g>
    <g id="xtick_7">
     <g id="line2d_16">
      <g>
       <use xlink:href="#m072591ca09" x="761.086797" y="355.714375" style="stroke: #000000; stroke-width: 0.8"/>
      </g>
     </g>
     <g id="text_14">
      <!-- 1.2 -->
      <g transform="translate(742.003047 380.950625) scale(0.24 -0.24)">
       <use xlink:href="#DejaVuSans-31"/>
       <use xlink:href="#DejaVuSans-2e" x="63.623047"/>
       <use xlink:href="#DejaVuSans-32" x="95.410156"/>
      </g>
     </g>
    </g>
    <g id="xtick_8">
     <g id="line2d_17">
      <g>
       <use xlink:href="#m072591ca09" x="848.091279" y="355.714375" style="stroke: #000000; stroke-width: 0.8"/>
      </g>
     </g>
     <g id="text_15">
      <!-- 1.3 -->
      <g transform="translate(829.007529 380.950625) scale(0.24 -0.24)">
       <defs>
        <path id="DejaVuSans-33" d="M 2597 2516 
Q 3050 2419 3304 2112 
Q 3559 1806 3559 1356 
Q 3559 666 3084 287 
Q 2609 -91 1734 -91 
Q 1441 -91 1130 -33 
Q 819 25 488 141 
L 488 750 
Q 750 597 1062 519 
Q 1375 441 1716 441 
Q 2309 441 2620 675 
Q 2931 909 2931 1356 
Q 2931 1769 2642 2001 
Q 2353 2234 1838 2234 
L 1294 2234 
L 1294 2753 
L 1863 2753 
Q 2328 2753 2575 2939 
Q 2822 3125 2822 3475 
Q 2822 3834 2567 4026 
Q 2313 4219 1838 4219 
Q 1578 4219 1281 4162 
Q 984 4106 628 3988 
L 628 4550 
Q 988 4650 1302 4700 
Q 1616 4750 1894 4750 
Q 2613 4750 3031 4423 
Q 3450 4097 3450 3541 
Q 3450 3153 3228 2886 
Q 3006 2619 2597 2516 
z
" transform="scale(0.015625)"/>
       </defs>
       <use xlink:href="#DejaVuSans-31"/>
       <use xlink:href="#DejaVuSans-2e" x="63.623047"/>
       <use xlink:href="#DejaVuSans-33" x="95.410156"/>
      </g>
     </g>
    </g>
    <g id="xtick_9">
     <g id="line2d_18">
      <g>
       <use xlink:href="#m072591ca09" x="935.095762" y="355.714375" style="stroke: #000000; stroke-width: 0.8"/>
      </g>
     </g>
     <g id="text_16">
      <!-- 1.4 -->
      <g transform="translate(916.012012 380.950625) scale(0.24 -0.24)">
       <defs>
        <path id="DejaVuSans-34" d="M 2419 4116 
L 825 1625 
L 2419 1625 
L 2419 4116 
z
M 2253 4666 
L 3047 4666 
L 3047 1625 
L 3713 1625 
L 3713 1100 
L 3047 1100 
L 3047 0 
L 2419 0 
L 2419 1100 
L 313 1100 
L 313 1709 
L 2253 4666 
z
" transform="scale(0.015625)"/>
       </defs>
       <use xlink:href="#DejaVuSans-31"/>
       <use xlink:href="#DejaVuSans-2e" x="63.623047"/>
       <use xlink:href="#DejaVuSans-34" x="95.410156"/>
      </g>
     </g>
    </g>
    <g id="text_17">
     <!-- CLAP average length -->
     <g transform="translate(633.670501 411.2175) scale(0.28 -0.28)">
      <use xlink:href="#DejaVuSans-43"/>
      <use xlink:href="#DejaVuSans-4c" x="69.824219"/>
      <use xlink:href="#DejaVuSans-41" x="127.787109"/>
      <use xlink:href="#DejaVuSans-50" x="196.195312"/>
      <use xlink:href="#DejaVuSans-20" x="256.498047"/>
      <use xlink:href="#DejaVuSans-61" x="288.285156"/>
      <use xlink:href="#DejaVuSans-76" x="349.564453"/>
      <use xlink:href="#DejaVuSans-65" x="408.744141"/>
      <use xlink:href="#DejaVuSans-72" x="470.267578"/>
      <use xlink:href="#DejaVuSans-61" x="511.380859"/>
      <use xlink:href="#DejaVuSans-67" x="572.660156"/>
      <use xlink:href="#DejaVuSans-65" x="636.136719"/>
      <use xlink:href="#DejaVuSans-20" x="697.660156"/>
      <use xlink:href="#DejaVuSans-6c" x="729.447266"/>
      <use xlink:href="#DejaVuSans-65" x="757.230469"/>
      <use xlink:href="#DejaVuSans-6e" x="818.753906"/>
      <use xlink:href="#DejaVuSans-67" x="882.132812"/>
      <use xlink:href="#DejaVuSans-74" x="945.609375"/>
      <use xlink:href="#DejaVuSans-68" x="984.818359"/>
     </g>
    </g>
   </g>
   <g id="matplotlib.axis_4">
    <g id="ytick_5">
     <g id="line2d_19">
      <path d="M 567.743502 355.714375 
L 993.09875 355.714375 
" clip-path="url(#p7e23f1b17d)" style="fill: none; stroke-dasharray: 2.59,1.12; stroke-dashoffset: 0; stroke: #b0b0b0; stroke-opacity: 0.6; stroke-width: 0.7"/>
     </g>
     <g id="line2d_20">
      <g>
       <use xlink:href="#m04e1e7158b" x="567.743502" y="355.714375" style="stroke: #000000; stroke-width: 0.8"/>
      </g>
     </g>
     <g id="text_18">
      <!-- 0 -->
      <g transform="translate(545.473502 364.8325) scale(0.24 -0.24)">
       <use xlink:href="#DejaVuSans-30"/>
      </g>
     </g>
    </g>
    <g id="ytick_6">
     <g id="line2d_21">
      <path d="M 567.743502 254.292153 
L 993.09875 254.292153 
" clip-path="url(#p7e23f1b17d)" style="fill: none; stroke-dasharray: 2.59,1.12; stroke-dashoffset: 0; stroke: #b0b0b0; stroke-opacity: 0.6; stroke-width: 0.7"/>
     </g>
     <g id="line2d_22">
      <g>
       <use xlink:href="#m04e1e7158b" x="567.743502" y="254.292153" style="stroke: #000000; stroke-width: 0.8"/>
      </g>
     </g>
     <g id="text_19">
      <!-- 1 -->
      <g transform="translate(545.473502 263.410278) scale(0.24 -0.24)">
       <use xlink:href="#DejaVuSans-31"/>
      </g>
     </g>
    </g>
    <g id="ytick_7">
     <g id="line2d_23">
      <path d="M 567.743502 152.869931 
L 993.09875 152.869931 
" clip-path="url(#p7e23f1b17d)" style="fill: none; stroke-dasharray: 2.59,1.12; stroke-dashoffset: 0; stroke: #b0b0b0; stroke-opacity: 0.6; stroke-width: 0.7"/>
     </g>
     <g id="line2d_24">
      <g>
       <use xlink:href="#m04e1e7158b" x="567.743502" y="152.869931" style="stroke: #000000; stroke-width: 0.8"/>
      </g>
     </g>
     <g id="text_20">
      <!-- 2 -->
      <g transform="translate(545.473502 161.988056) scale(0.24 -0.24)">
       <use xlink:href="#DejaVuSans-32"/>
      </g>
     </g>
    </g>
    <g id="ytick_8">
     <g id="line2d_25">
      <path d="M 567.743502 51.447708 
L 993.09875 51.447708 
" clip-path="url(#p7e23f1b17d)" style="fill: none; stroke-dasharray: 2.59,1.12; stroke-dashoffset: 0; stroke: #b0b0b0; stroke-opacity: 0.6; stroke-width: 0.7"/>
     </g>
     <g id="line2d_26">
      <g>
       <use xlink:href="#m04e1e7158b" x="567.743502" y="51.447708" style="stroke: #000000; stroke-width: 0.8"/>
      </g>
     </g>
     <g id="text_21">
      <!-- 3 -->
      <g transform="translate(545.473502 60.565833) scale(0.24 -0.24)">
       <use xlink:href="#DejaVuSans-33"/>
      </g>
     </g>
    </g>
   </g>
   <g id="line2d_27">
    <path d="M 587.077832 284.327992 
L 590.964129 282.589895 
L 594.850426 281.063773 
L 598.736724 279.76168 
L 602.623021 278.69315 
L 606.509318 277.865017 
L 610.395616 277.281302 
L 614.281913 276.943139 
L 618.168211 276.848766 
L 622.054508 276.993568 
L 625.940805 277.370181 
L 629.827103 277.968641 
L 633.7134 278.776589 
L 637.599697 279.779519 
L 641.485995 280.961064 
L 647.315441 283.028756 
L 653.144887 285.392566 
L 658.974333 287.983926 
L 666.746928 291.673582 
L 690.064712 302.941239 
L 697.837307 306.372279 
L 705.609902 309.51558 
L 711.439348 311.664934 
L 717.268794 313.632221 
L 725.041388 315.981502 
L 732.813983 318.044855 
L 740.586578 319.86409 
L 750.302321 321.869912 
L 761.961213 324.012204 
L 781.3927 327.301695 
L 837.744012 336.593336 
L 851.346053 338.556724 
L 864.948094 340.282105 
L 876.606986 341.551366 
L 890.209027 342.788409 
L 903.811068 343.786839 
L 919.356257 344.694462 
L 942.674042 345.790693 
L 971.821272 347.195998 
L 973.764421 347.30362 
L 973.764421 347.30362 
" clip-path="url(#p7e23f1b17d)" style="fill: none; stroke: #004e94; stroke-width: 1.5; stroke-linecap: square"/>
   </g>
   <g id="patch_88">
    <path d="M 567.743502 355.714375 
L 567.743502 36.234375 
" style="fill: none; stroke: #000000; stroke-width: 0.8; stroke-linejoin: miter; stroke-linecap: square"/>
   </g>
   <g id="patch_89">
    <path d="M 993.09875 355.714375 
L 993.09875 36.234375 
" style="fill: none; stroke: #000000; stroke-width: 0.8; stroke-linejoin: miter; stroke-linecap: square"/>
   </g>
   <g id="patch_90">
    <path d="M 567.743502 355.714375 
L 993.09875 355.714375 
" style="fill: none; stroke: #000000; stroke-width: 0.8; stroke-linejoin: miter; stroke-linecap: square"/>
   </g>
   <g id="patch_91">
    <path d="M 567.743502 36.234375 
L 993.09875 36.234375 
" style="fill: none; stroke: #000000; stroke-width: 0.8; stroke-linejoin: miter; stroke-linecap: square"/>
   </g>
   <g id="text_22">
    <!-- Real Networks -->
    <g transform="translate(672.87347 29.995313) scale(0.3 -0.3)">
     <defs>
      <path id="DejaVuSans-52" d="M 2841 2188 
Q 3044 2119 3236 1894 
Q 3428 1669 3622 1275 
L 4263 0 
L 3584 0 
L 2988 1197 
Q 2756 1666 2539 1819 
Q 2322 1972 1947 1972 
L 1259 1972 
L 1259 0 
L 628 0 
L 628 4666 
L 2053 4666 
Q 2853 4666 3247 4331 
Q 3641 3997 3641 3322 
Q 3641 2881 3436 2590 
Q 3231 2300 2841 2188 
z
M 1259 4147 
L 1259 2491 
L 2053 2491 
Q 2509 2491 2742 2702 
Q 2975 2913 2975 3322 
Q 2975 3731 2742 3939 
Q 2509 4147 2053 4147 
L 1259 4147 
z
" transform="scale(0.015625)"/>
     </defs>
     <use xlink:href="#DejaVuSans-52"/>
     <use xlink:href="#DejaVuSans-65" x="64.982422"/>
     <use xlink:href="#DejaVuSans-61" x="126.505859"/>
     <use xlink:href="#DejaVuSans-6c" x="187.785156"/>
     <use xlink:href="#DejaVuSans-20" x="215.568359"/>
     <use xlink:href="#DejaVuSans-4e" x="247.355469"/>
     <use xlink:href="#DejaVuSans-65" x="322.160156"/>
     <use xlink:href="#DejaVuSans-74" x="383.683594"/>
     <use xlink:href="#DejaVuSans-77" x="422.892578"/>
     <use xlink:href="#DejaVuSans-6f" x="504.679688"/>
     <use xlink:href="#DejaVuSans-72" x="565.861328"/>
     <use xlink:href="#DejaVuSans-6b" x="606.974609"/>
     <use xlink:href="#DejaVuSans-73" x="664.884766"/>
    </g>
   </g>
  </g>
 </g>
 <defs>
  <clipPath id="p6d893f87fe">
   <rect x="106.37875" y="36.234375" width="425.355248" height="319.48"/>
  </clipPath>
  <clipPath id="p7e23f1b17d">
   <rect x="567.743502" y="36.234375" width="425.355248" height="319.48"/>
  </clipPath>
 </defs>
</svg>
