<?xml version="1.0" encoding="utf-8" standalone="no"?>
<!DOCTYPE svg PUBLIC "-//W3C//DTD SVG 1.1//EN"
  "http://www.w3.org/Graphics/SVG/1.1/DTD/svg11.dtd">
<svg xmlns:xlink="http://www.w3.org/1999/xlink" width="504pt" height="360pt" viewBox="0 0 504 360" xmlns="http://www.w3.org/2000/svg" version="1.1">
 <metadata>
  <rdf:RDF xmlns:dc="http://purl.org/dc/elements/1.1/" xmlns:cc="http://creativecommons.org/ns#" xmlns:rdf="http://www.w3.org/1999/02/22-rdf-syntax-ns#">
   <cc:Work>
    <dc:type rdf:resource="http://purl.org/dc/dcmitype/StillImage"/>
    <dc:date>2026-01-23T13:19:39.845193</dc:date>
    <dc:format>image/svg+xml</dc:format>
    <dc:creator>
     <cc:Agent>
      <dc:title>Matplotlib v3.7.5, https://matplotlib.org/</dc:title>
     </cc:Agent>
    </dc:creator>
   </cc:Work>
  </rdf:RDF>
 </metadata>
 <defs>
  <style type="text/css">*{stroke-linejoin: round; stroke-linecap: butt}</style>
 </defs>
 <g id="figure_1">
  <g id="patch_1">
   <path d="M 0 360 
L 504 360 
L 504 0 
L 0 0 
z
" style="fill: #ffffff"/>
  </g>
  <g id="axes_1">
   <g id="patch_2">
    <path d="M 59.6 303.64 
L 493.2 303.64 
L 493.2 34.08 
L 59.6 34.08 
z
" style="fill: #ffffff"/>
   </g>
   <g id="PolyCollection_1">
    <defs>
     <path id="m3570a01730" d="M 79.309091 -63.491217 
L 79.309091 -56.36 
L 99.018182 -56.36 
L 99.018182 -56.36 
L 118.727273 -56.36 
L 118.727273 -56.36 
L 138.436364 -56.36 
L 138.436364 -56.36 
L 158.145455 -56.36 
L 158.145455 -56.36 
L 177.854545 -56.36 
L 177.854545 -56.36 
L 197.563636 -56.36 
L 197.563636 -56.36 
L 217.272727 -56.36 
L 217.272727 -56.36 
L 236.981818 -56.36 
L 236.981818 -56.36 
L 256.690909 -56.36 
L 256.690909 -56.36 
L 276.4 -56.36 
L 276.4 -56.36 
L 296.109091 -56.36 
L 296.109091 -56.36 
L 315.818182 -56.36 
L 315.818182 -56.36 
L 335.527273 -56.36 
L 335.527273 -56.36 
L 355.236364 -56.36 
L 355.236364 -56.36 
L 374.945455 -56.36 
L 374.945455 -56.36 
L 394.654545 -56.36 
L 394.654545 -56.36 
L 414.363636 -56.36 
L 414.363636 -56.36 
L 434.072727 -56.36 
L 434.072727 -56.36 
L 453.781818 -56.36 
L 453.781818 -56.36 
L 473.490909 -56.36 
L 473.490909 -56.36 
L 473.490909 -59.925608 
L 473.490909 -59.925608 
L 473.490909 -59.925608 
L 453.781818 -59.925608 
L 453.781818 -56.36 
L 434.072727 -56.36 
L 434.072727 -56.36 
L 414.363636 -56.36 
L 414.363636 -56.36 
L 394.654545 -56.36 
L 394.654545 -59.925608 
L 374.945455 -59.925608 
L 374.945455 -63.491217 
L 355.236364 -63.491217 
L 355.236364 -81.319259 
L 335.527273 -81.319259 
L 335.527273 -67.056825 
L 315.818182 -67.056825 
L 315.818182 -84.884868 
L 296.109091 -84.884868 
L 296.109091 -92.016085 
L 276.4 -92.016085 
L 276.4 -99.147302 
L 256.690909 -99.147302 
L 256.690909 -141.934603 
L 236.981818 -141.934603 
L 236.981818 -170.459471 
L 217.272727 -170.459471 
L 217.272727 -259.599683 
L 197.563636 -259.599683 
L 197.563636 -120.540952 
L 177.854545 -120.540952 
L 177.854545 -102.71291 
L 158.145455 -102.71291 
L 158.145455 -70.622434 
L 138.436364 -70.622434 
L 138.436364 -67.056825 
L 118.727273 -67.056825 
L 118.727273 -67.056825 
L 99.018182 -67.056825 
L 99.018182 -63.491217 
L 79.309091 -63.491217 
z
" style="stroke: #ff7f0e"/>
    </defs>
    <g clip-path="url(#p2063e16bb7)">
     <use xlink:href="#m3570a01730" x="0" y="360" style="fill: #ff7f0e; fill-opacity: 0.3; stroke: #ff7f0e"/>
    </g>
   </g>
   <g id="PolyCollection_2">
    <defs>
     <path id="m94f0b17c52" d="M 79.309091 -56.36 
L 79.309091 -56.36 
L 99.018182 -56.36 
L 99.018182 -56.36 
L 118.727273 -56.36 
L 118.727273 -56.36 
L 138.436364 -56.36 
L 138.436364 -56.36 
L 158.145455 -56.36 
L 158.145455 -56.36 
L 177.854545 -56.36 
L 177.854545 -56.36 
L 197.563636 -56.36 
L 197.563636 -56.36 
L 217.272727 -56.36 
L 217.272727 -56.36 
L 236.981818 -56.36 
L 236.981818 -56.36 
L 256.690909 -56.36 
L 256.690909 -56.36 
L 276.4 -56.36 
L 276.4 -56.36 
L 296.109091 -56.36 
L 296.109091 -56.36 
L 315.818182 -56.36 
L 315.818182 -56.36 
L 335.527273 -56.36 
L 335.527273 -56.36 
L 355.236364 -56.36 
L 355.236364 -56.36 
L 374.945455 -56.36 
L 374.945455 -56.36 
L 394.654545 -56.36 
L 394.654545 -56.36 
L 414.363636 -56.36 
L 414.363636 -56.36 
L 434.072727 -56.36 
L 434.072727 -56.36 
L 453.781818 -56.36 
L 453.781818 -56.36 
L 473.490909 -56.36 
L 473.490909 -56.36 
L 473.490909 -56.36 
L 473.490909 -56.36 
L 473.490909 -56.36 
L 453.781818 -56.36 
L 453.781818 -56.36 
L 434.072727 -56.36 
L 434.072727 -59.925608 
L 414.363636 -59.925608 
L 414.363636 -59.925608 
L 394.654545 -59.925608 
L 394.654545 -59.925608 
L 374.945455 -59.925608 
L 374.945455 -63.491217 
L 355.236364 -63.491217 
L 355.236364 -77.753651 
L 335.527273 -77.753651 
L 335.527273 -63.491217 
L 315.818182 -63.491217 
L 315.818182 -70.622434 
L 296.109091 -70.622434 
L 296.109091 -84.884868 
L 276.4 -84.884868 
L 276.4 -109.844127 
L 256.690909 -109.844127 
L 256.690909 -149.06582 
L 236.981818 -149.06582 
L 236.981818 -159.762646 
L 217.272727 -159.762646 
L 217.272727 -313.08381 
L 197.563636 -313.08381 
L 197.563636 -138.368995 
L 177.854545 -138.368995 
L 177.854545 -77.753651 
L 158.145455 -77.753651 
L 158.145455 -63.491217 
L 138.436364 -63.491217 
L 138.436364 -59.925608 
L 118.727273 -59.925608 
L 118.727273 -59.925608 
L 99.018182 -59.925608 
L 99.018182 -56.36 
L 79.309091 -56.36 
z
" style="stroke: #1f77b4"/>
    </defs>
    <g clip-path="url(#p2063e16bb7)">
     <use xlink:href="#m94f0b17c52" x="0" y="360" style="fill: #1f77b4; fill-opacity: 0.3; stroke: #1f77b4"/>
    </g>
   </g>
   <g id="matplotlib.axis_1">
    <g id="xtick_1">
     <g id="line2d_1">
      <defs>
       <path id="md436371d8c" d="M 0 0 
L 0 3.5 
" style="stroke: #000000; stroke-width: 0.8"/>
      </defs>
      <g>
       <use xlink:href="#md436371d8c" x="115.507654" y="303.64" style="stroke: #000000; stroke-width: 0.8"/>
      </g>
     </g>
     <g id="text_1">
      <!-- −2 -->
      <g transform="translate(103.713904 322.7975) scale(0.16 -0.16)">
       <defs>
        <path id="DejaVuSans-2212" d="M 678 2272 
L 4684 2272 
L 4684 1741 
L 678 1741 
L 678 2272 
z
" transform="scale(0.015625)"/>
        <path id="DejaVuSans-32" d="M 1228 531 
L 3431 531 
L 3431 0 
L 469 0 
L 469 531 
Q 828 903 1448 1529 
Q 2069 2156 2228 2338 
Q 2531 2678 2651 2914 
Q 2772 3150 2772 3378 
Q 2772 3750 2511 3984 
Q 2250 4219 1831 4219 
Q 1534 4219 1204 4116 
Q 875 4013 500 3803 
L 500 4441 
Q 881 4594 1212 4672 
Q 1544 4750 1819 4750 
Q 2544 4750 2975 4387 
Q 3406 4025 3406 3419 
Q 3406 3131 3298 2873 
Q 3191 2616 2906 2266 
Q 2828 2175 2409 1742 
Q 1991 1309 1228 531 
z
" transform="scale(0.015625)"/>
       </defs>
       <use xlink:href="#DejaVuSans-2212"/>
       <use xlink:href="#DejaVuSans-32" x="83.789062"/>
      </g>
     </g>
    </g>
    <g id="xtick_2">
     <g id="line2d_2">
      <g>
       <use xlink:href="#md436371d8c" x="201.951983" y="303.64" style="stroke: #000000; stroke-width: 0.8"/>
      </g>
     </g>
     <g id="text_2">
      <!-- 0 -->
      <g transform="translate(196.861983 322.7975) scale(0.16 -0.16)">
       <defs>
        <path id="DejaVuSans-30" d="M 2034 4250 
Q 1547 4250 1301 3770 
Q 1056 3291 1056 2328 
Q 1056 1369 1301 889 
Q 1547 409 2034 409 
Q 2525 409 2770 889 
Q 3016 1369 3016 2328 
Q 3016 3291 2770 3770 
Q 2525 4250 2034 4250 
z
M 2034 4750 
Q 2819 4750 3233 4129 
Q 3647 3509 3647 2328 
Q 3647 1150 3233 529 
Q 2819 -91 2034 -91 
Q 1250 -91 836 529 
Q 422 1150 422 2328 
Q 422 3509 836 4129 
Q 1250 4750 2034 4750 
z
" transform="scale(0.015625)"/>
       </defs>
       <use xlink:href="#DejaVuSans-30"/>
      </g>
     </g>
    </g>
    <g id="xtick_3">
     <g id="line2d_3">
      <g>
       <use xlink:href="#md436371d8c" x="288.396312" y="303.64" style="stroke: #000000; stroke-width: 0.8"/>
      </g>
     </g>
     <g id="text_3">
      <!-- 2 -->
      <g transform="translate(283.306312 322.7975) scale(0.16 -0.16)">
       <use xlink:href="#DejaVuSans-32"/>
      </g>
     </g>
    </g>
    <g id="xtick_4">
     <g id="line2d_4">
      <g>
       <use xlink:href="#md436371d8c" x="374.840641" y="303.64" style="stroke: #000000; stroke-width: 0.8"/>
      </g>
     </g>
     <g id="text_4">
      <!-- 4 -->
      <g transform="translate(369.750641 322.7975) scale(0.16 -0.16)">
       <defs>
        <path id="DejaVuSans-34" d="M 2419 4116 
L 825 1625 
L 2419 1625 
L 2419 4116 
z
M 2253 4666 
L 3047 4666 
L 3047 1625 
L 3713 1625 
L 3713 1100 
L 3047 1100 
L 3047 0 
L 2419 0 
L 2419 1100 
L 313 1100 
L 313 1709 
L 2253 4666 
z
" transform="scale(0.015625)"/>
       </defs>
       <use xlink:href="#DejaVuSans-34"/>
      </g>
     </g>
    </g>
    <g id="xtick_5">
     <g id="line2d_5">
      <g>
       <use xlink:href="#md436371d8c" x="461.28497" y="303.64" style="stroke: #000000; stroke-width: 0.8"/>
      </g>
     </g>
     <g id="text_5">
      <!-- 6 -->
      <g transform="translate(456.19497 322.7975) scale(0.16 -0.16)">
       <defs>
        <path id="DejaVuSans-36" d="M 2113 2584 
Q 1688 2584 1439 2293 
Q 1191 2003 1191 1497 
Q 1191 994 1439 701 
Q 1688 409 2113 409 
Q 2538 409 2786 701 
Q 3034 994 3034 1497 
Q 3034 2003 2786 2293 
Q 2538 2584 2113 2584 
z
M 3366 4563 
L 3366 3988 
Q 3128 4100 2886 4159 
Q 2644 4219 2406 4219 
Q 1781 4219 1451 3797 
Q 1122 3375 1075 2522 
Q 1259 2794 1537 2939 
Q 1816 3084 2150 3084 
Q 2853 3084 3261 2657 
Q 3669 2231 3669 1497 
Q 3669 778 3244 343 
Q 2819 -91 2113 -91 
Q 1303 -91 875 529 
Q 447 1150 447 2328 
Q 447 3434 972 4092 
Q 1497 4750 2381 4750 
Q 2619 4750 2861 4703 
Q 3103 4656 3366 4563 
z
" transform="scale(0.015625)"/>
       </defs>
       <use xlink:href="#DejaVuSans-36"/>
      </g>
     </g>
    </g>
    <g id="text_6">
     <!-- $\Delta \log_{10} E = \log E_{CLAP-S} - \log E_{RSU}$ -->
     <g transform="translate(135.91 343.805) scale(0.18 -0.18)">
      <defs>
       <path id="DejaVuSans-394" d="M 2188 4044 
L 906 525 
L 3472 525 
L 2188 4044 
z
M 50 0 
L 1831 4666 
L 2547 4666 
L 4325 0 
L 50 0 
z
" transform="scale(0.015625)"/>
       <path id="DejaVuSans-6c" d="M 603 4863 
L 1178 4863 
L 1178 0 
L 603 0 
L 603 4863 
z
" transform="scale(0.015625)"/>
       <path id="DejaVuSans-6f" d="M 1959 3097 
Q 1497 3097 1228 2736 
Q 959 2375 959 1747 
Q 959 1119 1226 758 
Q 1494 397 1959 397 
Q 2419 397 2687 759 
Q 2956 1122 2956 1747 
Q 2956 2369 2687 2733 
Q 2419 3097 1959 3097 
z
M 1959 3584 
Q 2709 3584 3137 3096 
Q 3566 2609 3566 1747 
Q 3566 888 3137 398 
Q 2709 -91 1959 -91 
Q 1206 -91 779 398 
Q 353 888 353 1747 
Q 353 2609 779 3096 
Q 1206 3584 1959 3584 
z
" transform="scale(0.015625)"/>
       <path id="DejaVuSans-67" d="M 2906 1791 
Q 2906 2416 2648 2759 
Q 2391 3103 1925 3103 
Q 1463 3103 1205 2759 
Q 947 2416 947 1791 
Q 947 1169 1205 825 
Q 1463 481 1925 481 
Q 2391 481 2648 825 
Q 2906 1169 2906 1791 
z
M 3481 434 
Q 3481 -459 3084 -895 
Q 2688 -1331 1869 -1331 
Q 1566 -1331 1297 -1286 
Q 1028 -1241 775 -1147 
L 775 -588 
Q 1028 -725 1275 -790 
Q 1522 -856 1778 -856 
Q 2344 -856 2625 -561 
Q 2906 -266 2906 331 
L 2906 616 
Q 2728 306 2450 153 
Q 2172 0 1784 0 
Q 1141 0 747 490 
Q 353 981 353 1791 
Q 353 2603 747 3093 
Q 1141 3584 1784 3584 
Q 2172 3584 2450 3431 
Q 2728 3278 2906 2969 
L 2906 3500 
L 3481 3500 
L 3481 434 
z
" transform="scale(0.015625)"/>
       <path id="DejaVuSans-31" d="M 794 531 
L 1825 531 
L 1825 4091 
L 703 3866 
L 703 4441 
L 1819 4666 
L 2450 4666 
L 2450 531 
L 3481 531 
L 3481 0 
L 794 0 
L 794 531 
z
" transform="scale(0.015625)"/>
       <path id="DejaVuSans-Oblique-45" d="M 1081 4666 
L 4031 4666 
L 3928 4134 
L 1606 4134 
L 1338 2753 
L 3566 2753 
L 3463 2222 
L 1234 2222 
L 909 531 
L 3284 531 
L 3181 0 
L 172 0 
L 1081 4666 
z
" transform="scale(0.015625)"/>
       <path id="DejaVuSans-3d" d="M 678 2906 
L 4684 2906 
L 4684 2381 
L 678 2381 
L 678 2906 
z
M 678 1631 
L 4684 1631 
L 4684 1100 
L 678 1100 
L 678 1631 
z
" transform="scale(0.015625)"/>
       <path id="DejaVuSans-Oblique-43" d="M 4447 4306 
L 4319 3641 
Q 4019 3944 3683 4091 
Q 3347 4238 2956 4238 
Q 2422 4238 2017 3981 
Q 1613 3725 1319 3200 
Q 1131 2863 1032 2486 
Q 934 2109 934 1728 
Q 934 1091 1264 756 
Q 1594 422 2222 422 
Q 2656 422 3056 561 
Q 3456 700 3834 978 
L 3688 231 
Q 3316 72 2936 -9 
Q 2556 -91 2175 -91 
Q 1278 -91 773 396 
Q 269 884 269 1753 
Q 269 2309 461 2846 
Q 653 3384 1013 3828 
Q 1394 4300 1883 4525 
Q 2372 4750 3022 4750 
Q 3422 4750 3780 4639 
Q 4138 4528 4447 4306 
z
" transform="scale(0.015625)"/>
       <path id="DejaVuSans-Oblique-4c" d="M 1075 4666 
L 1709 4666 
L 909 525 
L 3181 525 
L 3078 0 
L 172 0 
L 1075 4666 
z
" transform="scale(0.015625)"/>
       <path id="DejaVuSans-Oblique-41" d="M 2356 4666 
L 3072 4666 
L 3938 0 
L 3278 0 
L 3084 1197 
L 984 1197 
L 325 0 
L -341 0 
L 2356 4666 
z
M 2584 4044 
L 1275 1722 
L 2988 1722 
L 2584 4044 
z
" transform="scale(0.015625)"/>
       <path id="DejaVuSans-Oblique-50" d="M 1081 4666 
L 2541 4666 
Q 3178 4666 3512 4369 
Q 3847 4072 3847 3500 
Q 3847 2731 3353 2303 
Q 2859 1875 1966 1875 
L 1172 1875 
L 806 0 
L 172 0 
L 1081 4666 
z
M 1613 4147 
L 1275 2394 
L 2069 2394 
Q 2606 2394 2893 2669 
Q 3181 2944 3181 3456 
Q 3181 3784 2986 3965 
Q 2791 4147 2438 4147 
L 1613 4147 
z
" transform="scale(0.015625)"/>
       <path id="DejaVuSans-Oblique-53" d="M 3859 4513 
L 3738 3897 
Q 3422 4066 3111 4152 
Q 2800 4238 2509 4238 
Q 1944 4238 1609 3991 
Q 1275 3744 1275 3334 
Q 1275 3109 1398 2989 
Q 1522 2869 2034 2731 
L 2413 2638 
Q 3053 2472 3303 2217 
Q 3553 1963 3553 1503 
Q 3553 797 2998 353 
Q 2444 -91 1538 -91 
Q 1166 -91 791 -17 
Q 416 56 38 206 
L 166 856 
Q 513 641 861 531 
Q 1209 422 1556 422 
Q 2147 422 2503 684 
Q 2859 947 2859 1369 
Q 2859 1650 2717 1795 
Q 2575 1941 2106 2059 
L 1728 2156 
Q 1081 2325 845 2545 
Q 609 2766 609 3163 
Q 609 3859 1145 4304 
Q 1681 4750 2541 4750 
Q 2875 4750 3203 4690 
Q 3531 4631 3859 4513 
z
" transform="scale(0.015625)"/>
       <path id="DejaVuSans-Oblique-52" d="M 1613 4147 
L 1294 2491 
L 2106 2491 
Q 2584 2491 2879 2755 
Q 3175 3019 3175 3444 
Q 3175 3784 2976 3965 
Q 2778 4147 2406 4147 
L 1613 4147 
z
M 2772 2241 
Q 2972 2194 3105 2009 
Q 3238 1825 3413 1275 
L 3809 0 
L 3144 0 
L 2778 1197 
Q 2638 1659 2453 1815 
Q 2269 1972 1888 1972 
L 1191 1972 
L 806 0 
L 172 0 
L 1081 4666 
L 2503 4666 
Q 3150 4666 3495 4373 
Q 3841 4081 3841 3531 
Q 3841 3044 3547 2687 
Q 3253 2331 2772 2241 
z
" transform="scale(0.015625)"/>
       <path id="DejaVuSans-Oblique-55" d="M 991 4666 
L 1625 4666 
L 1075 1831 
Q 1041 1641 1027 1517 
Q 1013 1394 1013 1300 
Q 1013 869 1253 645 
Q 1494 422 1959 422 
Q 2563 422 2898 753 
Q 3234 1084 3378 1831 
L 3928 4666 
L 4563 4666 
L 4000 1753 
Q 3816 809 3300 359 
Q 2784 -91 1888 -91 
Q 1188 -91 780 261 
Q 372 613 372 1216 
Q 372 1325 387 1461 
Q 403 1597 434 1753 
L 991 4666 
z
" transform="scale(0.015625)"/>
      </defs>
      <use xlink:href="#DejaVuSans-394" transform="translate(0 0.015625)"/>
      <use xlink:href="#DejaVuSans-6c" transform="translate(68.408203 0.015625)"/>
      <use xlink:href="#DejaVuSans-6f" transform="translate(96.191406 0.015625)"/>
      <use xlink:href="#DejaVuSans-67" transform="translate(157.373047 0.015625)"/>
      <use xlink:href="#DejaVuSans-31" transform="translate(221.806641 -16.390625) scale(0.7)"/>
      <use xlink:href="#DejaVuSans-30" transform="translate(266.342773 -16.390625) scale(0.7)"/>
      <use xlink:href="#DejaVuSans-Oblique-45" transform="translate(329.848958 0.015625)"/>
      <use xlink:href="#DejaVuSans-3d" transform="translate(412.514973 0.015625)"/>
      <use xlink:href="#DejaVuSans-6c" transform="translate(515.786458 0.015625)"/>
      <use xlink:href="#DejaVuSans-6f" transform="translate(543.569661 0.015625)"/>
      <use xlink:href="#DejaVuSans-67" transform="translate(604.751301 0.015625)"/>
      <use xlink:href="#DejaVuSans-Oblique-45" transform="translate(684.46354 0.015625)"/>
      <use xlink:href="#DejaVuSans-Oblique-43" transform="translate(747.647134 -16.390625) scale(0.7)"/>
      <use xlink:href="#DejaVuSans-Oblique-4c" transform="translate(796.524087 -16.390625) scale(0.7)"/>
      <use xlink:href="#DejaVuSans-Oblique-41" transform="translate(835.52311 -16.390625) scale(0.7)"/>
      <use xlink:href="#DejaVuSans-Oblique-50" transform="translate(883.408853 -16.390625) scale(0.7)"/>
      <use xlink:href="#DejaVuSans-2212" transform="translate(939.258462 -16.390625) scale(0.7)"/>
      <use xlink:href="#DejaVuSans-Oblique-53" transform="translate(1011.548501 -16.390625) scale(0.7)"/>
      <use xlink:href="#DejaVuSans-2212" transform="translate(1078.198892 0.015625)"/>
      <use xlink:href="#DejaVuSans-6c" transform="translate(1181.470376 0.015625)"/>
      <use xlink:href="#DejaVuSans-6f" transform="translate(1209.253579 0.015625)"/>
      <use xlink:href="#DejaVuSans-67" transform="translate(1270.43522 0.015625)"/>
      <use xlink:href="#DejaVuSans-Oblique-45" transform="translate(1350.147458 0.015625)"/>
      <use xlink:href="#DejaVuSans-Oblique-52" transform="translate(1413.331052 -16.390625) scale(0.7)"/>
      <use xlink:href="#DejaVuSans-Oblique-53" transform="translate(1461.968748 -16.390625) scale(0.7)"/>
      <use xlink:href="#DejaVuSans-Oblique-55" transform="translate(1506.402341 -16.390625) scale(0.7)"/>
     </g>
    </g>
   </g>
   <g id="matplotlib.axis_2">
    <g id="ytick_1">
     <g id="line2d_6">
      <path d="M 59.6 303.64 
L 493.2 303.64 
" clip-path="url(#p2063e16bb7)" style="fill: none; stroke-dasharray: 2.59,1.12; stroke-dashoffset: 0; stroke: #b0b0b0; stroke-opacity: 0.6; stroke-width: 0.7"/>
     </g>
     <g id="line2d_7">
      <defs>
       <path id="m3443c02d3d" d="M 0 0 
L -3.5 0 
" style="stroke: #000000; stroke-width: 0.8"/>
      </defs>
      <g>
       <use xlink:href="#m3443c02d3d" x="59.6" y="303.64" style="stroke: #000000; stroke-width: 0.8"/>
      </g>
     </g>
     <g id="text_7">
      <!-- 0 -->
      <g transform="translate(42.42 309.71875) scale(0.16 -0.16)">
       <use xlink:href="#DejaVuSans-30"/>
      </g>
     </g>
    </g>
    <g id="ytick_2">
     <g id="line2d_8">
      <path d="M 59.6 267.983915 
L 493.2 267.983915 
" clip-path="url(#p2063e16bb7)" style="fill: none; stroke-dasharray: 2.59,1.12; stroke-dashoffset: 0; stroke: #b0b0b0; stroke-opacity: 0.6; stroke-width: 0.7"/>
     </g>
     <g id="line2d_9">
      <g>
       <use xlink:href="#m3443c02d3d" x="59.6" y="267.983915" style="stroke: #000000; stroke-width: 0.8"/>
      </g>
     </g>
     <g id="text_8">
      <!-- 10 -->
      <g transform="translate(32.24 274.062665) scale(0.16 -0.16)">
       <use xlink:href="#DejaVuSans-31"/>
       <use xlink:href="#DejaVuSans-30" x="63.623047"/>
      </g>
     </g>
    </g>
    <g id="ytick_3">
     <g id="line2d_10">
      <path d="M 59.6 232.327831 
L 493.2 232.327831 
" clip-path="url(#p2063e16bb7)" style="fill: none; stroke-dasharray: 2.59,1.12; stroke-dashoffset: 0; stroke: #b0b0b0; stroke-opacity: 0.6; stroke-width: 0.7"/>
     </g>
     <g id="line2d_11">
      <g>
       <use xlink:href="#m3443c02d3d" x="59.6" y="232.327831" style="stroke: #000000; stroke-width: 0.8"/>
      </g>
     </g>
     <g id="text_9">
      <!-- 20 -->
      <g transform="translate(32.24 238.406581) scale(0.16 -0.16)">
       <use xlink:href="#DejaVuSans-32"/>
       <use xlink:href="#DejaVuSans-30" x="63.623047"/>
      </g>
     </g>
    </g>
    <g id="ytick_4">
     <g id="line2d_12">
      <path d="M 59.6 196.671746 
L 493.2 196.671746 
" clip-path="url(#p2063e16bb7)" style="fill: none; stroke-dasharray: 2.59,1.12; stroke-dashoffset: 0; stroke: #b0b0b0; stroke-opacity: 0.6; stroke-width: 0.7"/>
     </g>
     <g id="line2d_13">
      <g>
       <use xlink:href="#m3443c02d3d" x="59.6" y="196.671746" style="stroke: #000000; stroke-width: 0.8"/>
      </g>
     </g>
     <g id="text_10">
      <!-- 30 -->
      <g transform="translate(32.24 202.750496) scale(0.16 -0.16)">
       <defs>
        <path id="DejaVuSans-33" d="M 2597 2516 
Q 3050 2419 3304 2112 
Q 3559 1806 3559 1356 
Q 3559 666 3084 287 
Q 2609 -91 1734 -91 
Q 1441 -91 1130 -33 
Q 819 25 488 141 
L 488 750 
Q 750 597 1062 519 
Q 1375 441 1716 441 
Q 2309 441 2620 675 
Q 2931 909 2931 1356 
Q 2931 1769 2642 2001 
Q 2353 2234 1838 2234 
L 1294 2234 
L 1294 2753 
L 1863 2753 
Q 2328 2753 2575 2939 
Q 2822 3125 2822 3475 
Q 2822 3834 2567 4026 
Q 2313 4219 1838 4219 
Q 1578 4219 1281 4162 
Q 984 4106 628 3988 
L 628 4550 
Q 988 4650 1302 4700 
Q 1616 4750 1894 4750 
Q 2613 4750 3031 4423 
Q 3450 4097 3450 3541 
Q 3450 3153 3228 2886 
Q 3006 2619 2597 2516 
z
" transform="scale(0.015625)"/>
       </defs>
       <use xlink:href="#DejaVuSans-33"/>
       <use xlink:href="#DejaVuSans-30" x="63.623047"/>
      </g>
     </g>
    </g>
    <g id="ytick_5">
     <g id="line2d_14">
      <path d="M 59.6 161.015661 
L 493.2 161.015661 
" clip-path="url(#p2063e16bb7)" style="fill: none; stroke-dasharray: 2.59,1.12; stroke-dashoffset: 0; stroke: #b0b0b0; stroke-opacity: 0.6; stroke-width: 0.7"/>
     </g>
     <g id="line2d_15">
      <g>
       <use xlink:href="#m3443c02d3d" x="59.6" y="161.015661" style="stroke: #000000; stroke-width: 0.8"/>
      </g>
     </g>
     <g id="text_11">
      <!-- 40 -->
      <g transform="translate(32.24 167.094411) scale(0.16 -0.16)">
       <use xlink:href="#DejaVuSans-34"/>
       <use xlink:href="#DejaVuSans-30" x="63.623047"/>
      </g>
     </g>
    </g>
    <g id="ytick_6">
     <g id="line2d_16">
      <path d="M 59.6 125.359577 
L 493.2 125.359577 
" clip-path="url(#p2063e16bb7)" style="fill: none; stroke-dasharray: 2.59,1.12; stroke-dashoffset: 0; stroke: #b0b0b0; stroke-opacity: 0.6; stroke-width: 0.7"/>
     </g>
     <g id="line2d_17">
      <g>
       <use xlink:href="#m3443c02d3d" x="59.6" y="125.359577" style="stroke: #000000; stroke-width: 0.8"/>
      </g>
     </g>
     <g id="text_12">
      <!-- 50 -->
      <g transform="translate(32.24 131.438327) scale(0.16 -0.16)">
       <defs>
        <path id="DejaVuSans-35" d="M 691 4666 
L 3169 4666 
L 3169 4134 
L 1269 4134 
L 1269 2991 
Q 1406 3038 1543 3061 
Q 1681 3084 1819 3084 
Q 2600 3084 3056 2656 
Q 3513 2228 3513 1497 
Q 3513 744 3044 326 
Q 2575 -91 1722 -91 
Q 1428 -91 1123 -41 
Q 819 9 494 109 
L 494 744 
Q 775 591 1075 516 
Q 1375 441 1709 441 
Q 2250 441 2565 725 
Q 2881 1009 2881 1497 
Q 2881 1984 2565 2268 
Q 2250 2553 1709 2553 
Q 1456 2553 1204 2497 
Q 953 2441 691 2322 
L 691 4666 
z
" transform="scale(0.015625)"/>
       </defs>
       <use xlink:href="#DejaVuSans-35"/>
       <use xlink:href="#DejaVuSans-30" x="63.623047"/>
      </g>
     </g>
    </g>
    <g id="ytick_7">
     <g id="line2d_18">
      <path d="M 59.6 89.703492 
L 493.2 89.703492 
" clip-path="url(#p2063e16bb7)" style="fill: none; stroke-dasharray: 2.59,1.12; stroke-dashoffset: 0; stroke: #b0b0b0; stroke-opacity: 0.6; stroke-width: 0.7"/>
     </g>
     <g id="line2d_19">
      <g>
       <use xlink:href="#m3443c02d3d" x="59.6" y="89.703492" style="stroke: #000000; stroke-width: 0.8"/>
      </g>
     </g>
     <g id="text_13">
      <!-- 60 -->
      <g transform="translate(32.24 95.782242) scale(0.16 -0.16)">
       <use xlink:href="#DejaVuSans-36"/>
       <use xlink:href="#DejaVuSans-30" x="63.623047"/>
      </g>
     </g>
    </g>
    <g id="ytick_8">
     <g id="line2d_20">
      <path d="M 59.6 54.047407 
L 493.2 54.047407 
" clip-path="url(#p2063e16bb7)" style="fill: none; stroke-dasharray: 2.59,1.12; stroke-dashoffset: 0; stroke: #b0b0b0; stroke-opacity: 0.6; stroke-width: 0.7"/>
     </g>
     <g id="line2d_21">
      <g>
       <use xlink:href="#m3443c02d3d" x="59.6" y="54.047407" style="stroke: #000000; stroke-width: 0.8"/>
      </g>
     </g>
     <g id="text_14">
      <!-- 70 -->
      <g transform="translate(32.24 60.126157) scale(0.16 -0.16)">
       <defs>
        <path id="DejaVuSans-37" d="M 525 4666 
L 3525 4666 
L 3525 4397 
L 1831 0 
L 1172 0 
L 2766 4134 
L 525 4134 
L 525 4666 
z
" transform="scale(0.015625)"/>
       </defs>
       <use xlink:href="#DejaVuSans-37"/>
       <use xlink:href="#DejaVuSans-30" x="63.623047"/>
      </g>
     </g>
    </g>
    <g id="text_15">
     <!-- Count -->
     <g transform="translate(24.496563 195.587188) rotate(-90) scale(0.18 -0.18)">
      <defs>
       <path id="DejaVuSans-43" d="M 4122 4306 
L 4122 3641 
Q 3803 3938 3442 4084 
Q 3081 4231 2675 4231 
Q 1875 4231 1450 3742 
Q 1025 3253 1025 2328 
Q 1025 1406 1450 917 
Q 1875 428 2675 428 
Q 3081 428 3442 575 
Q 3803 722 4122 1019 
L 4122 359 
Q 3791 134 3420 21 
Q 3050 -91 2638 -91 
Q 1578 -91 968 557 
Q 359 1206 359 2328 
Q 359 3453 968 4101 
Q 1578 4750 2638 4750 
Q 3056 4750 3426 4639 
Q 3797 4528 4122 4306 
z
" transform="scale(0.015625)"/>
       <path id="DejaVuSans-75" d="M 544 1381 
L 544 3500 
L 1119 3500 
L 1119 1403 
Q 1119 906 1312 657 
Q 1506 409 1894 409 
Q 2359 409 2629 706 
Q 2900 1003 2900 1516 
L 2900 3500 
L 3475 3500 
L 3475 0 
L 2900 0 
L 2900 538 
Q 2691 219 2414 64 
Q 2138 -91 1772 -91 
Q 1169 -91 856 284 
Q 544 659 544 1381 
z
M 1991 3584 
L 1991 3584 
z
" transform="scale(0.015625)"/>
       <path id="DejaVuSans-6e" d="M 3513 2113 
L 3513 0 
L 2938 0 
L 2938 2094 
Q 2938 2591 2744 2837 
Q 2550 3084 2163 3084 
Q 1697 3084 1428 2787 
Q 1159 2491 1159 1978 
L 1159 0 
L 581 0 
L 581 3500 
L 1159 3500 
L 1159 2956 
Q 1366 3272 1645 3428 
Q 1925 3584 2291 3584 
Q 2894 3584 3203 3211 
Q 3513 2838 3513 2113 
z
" transform="scale(0.015625)"/>
       <path id="DejaVuSans-74" d="M 1172 4494 
L 1172 3500 
L 2356 3500 
L 2356 3053 
L 1172 3053 
L 1172 1153 
Q 1172 725 1289 603 
Q 1406 481 1766 481 
L 2356 481 
L 2356 0 
L 1766 0 
Q 1100 0 847 248 
Q 594 497 594 1153 
L 594 3053 
L 172 3053 
L 172 3500 
L 594 3500 
L 594 4494 
L 1172 4494 
z
" transform="scale(0.015625)"/>
      </defs>
      <use xlink:href="#DejaVuSans-43"/>
      <use xlink:href="#DejaVuSans-6f" x="69.824219"/>
      <use xlink:href="#DejaVuSans-75" x="131.005859"/>
      <use xlink:href="#DejaVuSans-6e" x="194.384766"/>
      <use xlink:href="#DejaVuSans-74" x="257.763672"/>
     </g>
    </g>
   </g>
   <g id="line2d_22">
    <path d="M 79.309091 299.367043 
L 93.174783 296.999384 
L 101.098036 295.85702 
L 116.944541 293.727851 
L 120.906167 292.993584 
L 124.867794 292.067969 
L 128.82942 290.898616 
L 132.791046 289.442866 
L 136.752672 287.669679 
L 140.714299 285.55758 
L 144.675925 283.087967 
L 148.637551 280.234078 
L 152.599178 276.94738 
L 156.560804 273.144849 
L 158.541617 271.012871 
L 160.52243 268.702117 
L 162.503243 266.191322 
L 164.484057 263.45806 
L 166.46487 260.479789 
L 168.445683 257.235165 
L 170.426496 253.705569 
L 172.407309 249.876789 
L 174.388122 245.740777 
L 176.368936 241.297363 
L 180.330562 231.536161 
L 184.292188 220.801192 
L 194.196254 192.720401 
L 196.177067 187.533338 
L 198.15788 182.699464 
L 200.138693 178.30561 
L 202.119507 174.431113 
L 204.10032 171.144766 
L 206.081133 168.502192 
L 208.061946 166.543755 
L 210.042759 165.293149 
L 212.023572 164.756729 
L 214.004386 164.923623 
L 215.985199 165.766597 
L 217.966012 167.243633 
L 219.946825 169.300091 
L 221.927638 171.87134 
L 223.908451 174.885683 
L 225.889265 178.267411 
L 229.850891 185.827904 
L 235.79333 198.11163 
L 241.73577 210.225005 
L 245.697396 217.763064 
L 249.659022 224.738079 
L 253.620649 231.129469 
L 257.582275 236.960228 
L 261.543901 242.269554 
L 265.505528 247.097584 
L 269.467154 251.480658 
L 273.42878 255.452663 
L 277.390407 259.047781 
L 281.352033 262.301701 
L 285.313659 265.250651 
L 289.275286 267.929172 
L 293.236912 270.367901 
L 297.198538 272.592129 
L 301.160164 274.621136 
L 305.121791 276.468042 
L 309.083417 278.140218 
L 313.045043 279.640755 
L 317.00667 280.97164 
L 320.968296 282.138666 
L 326.910735 283.618922 
L 334.833988 285.276247 
L 342.757241 286.946128 
L 348.69968 288.416157 
L 354.64212 290.112092 
L 374.450251 296.045348 
L 380.392691 297.515166 
L 386.33513 298.798562 
L 394.258383 300.257414 
L 402.181635 301.446266 
L 410.104888 302.348049 
L 416.047328 302.826798 
L 423.97058 303.214339 
L 431.893833 303.351255 
L 439.817085 303.277928 
L 449.721151 302.952832 
L 469.529283 302.199215 
L 473.490909 302.167858 
L 473.490909 302.167858 
" clip-path="url(#p2063e16bb7)" style="fill: none; stroke: #ff7f0e; stroke-width: 1.5; stroke-linecap: square"/>
   </g>
   <g id="line2d_23">
    <path d="M 79.309091 303.405333 
L 87.232344 303.057773 
L 95.155596 302.469506 
L 107.040475 301.277534 
L 128.82942 298.927038 
L 134.771859 297.953997 
L 138.733486 297.086251 
L 142.695112 295.965416 
L 146.656738 294.486637 
L 148.637551 293.56424 
L 150.618365 292.483707 
L 152.599178 291.21023 
L 154.579991 289.702173 
L 156.560804 287.910907 
L 158.541617 285.781111 
L 160.52243 283.251665 
L 162.503243 280.257232 
L 164.484057 276.730626 
L 166.46487 272.605991 
L 168.445683 267.82277 
L 170.426496 262.330363 
L 172.407309 256.093273 
L 174.388122 249.096461 
L 176.368936 241.350523 
L 178.349749 232.896244 
L 180.330562 223.808022 
L 184.292188 204.204347 
L 190.234628 173.864337 
L 192.215441 164.371345 
L 194.196254 155.579894 
L 196.177067 147.713187 
L 198.15788 140.970011 
L 200.138693 135.513764 
L 202.119507 131.463318 
L 204.10032 128.886508 
L 206.081133 127.79676 
L 208.061946 128.153165 
L 210.042759 129.863963 
L 212.023572 132.793113 
L 214.004386 136.769386 
L 215.985199 141.597195 
L 217.966012 147.0683 
L 221.927638 159.113239 
L 225.889265 171.400947 
L 229.850891 182.827436 
L 231.831704 188.012823 
L 233.812517 192.801346 
L 235.79333 197.194557 
L 237.774143 201.216695 
L 239.754957 204.90923 
L 243.716583 211.523787 
L 247.678209 217.507183 
L 255.601462 229.160847 
L 261.543901 238.388464 
L 271.447967 254.152092 
L 275.409593 260.060353 
L 279.37122 265.483515 
L 283.332846 270.322804 
L 287.294472 274.543946 
L 291.256099 278.164738 
L 295.217725 281.233041 
L 299.179351 283.803137 
L 303.140978 285.917499 
L 307.102604 287.598592 
L 311.06423 288.852124 
L 315.025857 289.679981 
L 318.987483 290.098396 
L 322.949109 290.155181 
L 326.910735 289.939606 
L 336.814801 289.106418 
L 340.776428 289.047039 
L 344.738054 289.317086 
L 348.69968 289.960008 
L 352.661307 290.956719 
L 356.622933 292.233264 
L 372.469438 297.790775 
L 376.431064 298.774892 
L 380.392691 299.496372 
L 384.354317 299.967418 
L 388.315943 300.223992 
L 394.258383 300.310881 
L 402.181635 300.11896 
L 412.085701 299.86395 
L 418.028141 299.934436 
L 423.97058 300.270284 
L 429.91302 300.848899 
L 447.740338 302.8188 
L 453.682778 303.20918 
L 461.60603 303.489688 
L 473.490909 303.619688 
L 473.490909 303.619688 
" clip-path="url(#p2063e16bb7)" style="fill: none; stroke: #1f77b4; stroke-width: 1.5; stroke-linecap: square"/>
   </g>
   <g id="line2d_24">
    <path d="M 201.951983 303.64 
L 201.951983 34.08 
" clip-path="url(#p2063e16bb7)" style="fill: none; stroke-dasharray: 5.55,2.4; stroke-dashoffset: 0; stroke: #000000; stroke-width: 1.5"/>
   </g>
   <g id="patch_3">
    <path d="M 59.6 303.64 
L 59.6 34.08 
" style="fill: none; stroke: #000000; stroke-width: 0.8; stroke-linejoin: miter; stroke-linecap: square"/>
   </g>
   <g id="patch_4">
    <path d="M 493.2 303.64 
L 493.2 34.08 
" style="fill: none; stroke: #000000; stroke-width: 0.8; stroke-linejoin: miter; stroke-linecap: square"/>
   </g>
   <g id="patch_5">
    <path d="M 59.6 303.64 
L 493.2 303.64 
" style="fill: none; stroke: #000000; stroke-width: 0.8; stroke-linejoin: miter; stroke-linecap: square"/>
   </g>
   <g id="patch_6">
    <path d="M 59.6 34.08 
L 493.2 34.08 
" style="fill: none; stroke: #000000; stroke-width: 0.8; stroke-linejoin: miter; stroke-linecap: square"/>
   </g>
   <g id="text_16">
    <g id="patch_7">
     <path d="M 77.22 68.007563 
L 276.356875 68.007563 
L 276.356875 46.338188 
L 77.22 46.338188 
z
" style="fill: #ffffff; opacity: 0.8; stroke: #000000; stroke-linejoin: miter"/>
    </g>
    <!-- Comparable Energy Region -->
    <g style="fill: #008000" transform="translate(81.28 61.036) scale(0.14 -0.14)">
     <defs>
      <path id="DejaVuSans-6d" d="M 3328 2828 
Q 3544 3216 3844 3400 
Q 4144 3584 4550 3584 
Q 5097 3584 5394 3201 
Q 5691 2819 5691 2113 
L 5691 0 
L 5113 0 
L 5113 2094 
Q 5113 2597 4934 2840 
Q 4756 3084 4391 3084 
Q 3944 3084 3684 2787 
Q 3425 2491 3425 1978 
L 3425 0 
L 2847 0 
L 2847 2094 
Q 2847 2600 2669 2842 
Q 2491 3084 2119 3084 
Q 1678 3084 1418 2786 
Q 1159 2488 1159 1978 
L 1159 0 
L 581 0 
L 581 3500 
L 1159 3500 
L 1159 2956 
Q 1356 3278 1631 3431 
Q 1906 3584 2284 3584 
Q 2666 3584 2933 3390 
Q 3200 3197 3328 2828 
z
" transform="scale(0.015625)"/>
      <path id="DejaVuSans-70" d="M 1159 525 
L 1159 -1331 
L 581 -1331 
L 581 3500 
L 1159 3500 
L 1159 2969 
Q 1341 3281 1617 3432 
Q 1894 3584 2278 3584 
Q 2916 3584 3314 3078 
Q 3713 2572 3713 1747 
Q 3713 922 3314 415 
Q 2916 -91 2278 -91 
Q 1894 -91 1617 61 
Q 1341 213 1159 525 
z
M 3116 1747 
Q 3116 2381 2855 2742 
Q 2594 3103 2138 3103 
Q 1681 3103 1420 2742 
Q 1159 2381 1159 1747 
Q 1159 1113 1420 752 
Q 1681 391 2138 391 
Q 2594 391 2855 752 
Q 3116 1113 3116 1747 
z
" transform="scale(0.015625)"/>
      <path id="DejaVuSans-61" d="M 2194 1759 
Q 1497 1759 1228 1600 
Q 959 1441 959 1056 
Q 959 750 1161 570 
Q 1363 391 1709 391 
Q 2188 391 2477 730 
Q 2766 1069 2766 1631 
L 2766 1759 
L 2194 1759 
z
M 3341 1997 
L 3341 0 
L 2766 0 
L 2766 531 
Q 2569 213 2275 61 
Q 1981 -91 1556 -91 
Q 1019 -91 701 211 
Q 384 513 384 1019 
Q 384 1609 779 1909 
Q 1175 2209 1959 2209 
L 2766 2209 
L 2766 2266 
Q 2766 2663 2505 2880 
Q 2244 3097 1772 3097 
Q 1472 3097 1187 3025 
Q 903 2953 641 2809 
L 641 3341 
Q 956 3463 1253 3523 
Q 1550 3584 1831 3584 
Q 2591 3584 2966 3190 
Q 3341 2797 3341 1997 
z
" transform="scale(0.015625)"/>
      <path id="DejaVuSans-72" d="M 2631 2963 
Q 2534 3019 2420 3045 
Q 2306 3072 2169 3072 
Q 1681 3072 1420 2755 
Q 1159 2438 1159 1844 
L 1159 0 
L 581 0 
L 581 3500 
L 1159 3500 
L 1159 2956 
Q 1341 3275 1631 3429 
Q 1922 3584 2338 3584 
Q 2397 3584 2469 3576 
Q 2541 3569 2628 3553 
L 2631 2963 
z
" transform="scale(0.015625)"/>
      <path id="DejaVuSans-62" d="M 3116 1747 
Q 3116 2381 2855 2742 
Q 2594 3103 2138 3103 
Q 1681 3103 1420 2742 
Q 1159 2381 1159 1747 
Q 1159 1113 1420 752 
Q 1681 391 2138 391 
Q 2594 391 2855 752 
Q 3116 1113 3116 1747 
z
M 1159 2969 
Q 1341 3281 1617 3432 
Q 1894 3584 2278 3584 
Q 2916 3584 3314 3078 
Q 3713 2572 3713 1747 
Q 3713 922 3314 415 
Q 2916 -91 2278 -91 
Q 1894 -91 1617 61 
Q 1341 213 1159 525 
L 1159 0 
L 581 0 
L 581 4863 
L 1159 4863 
L 1159 2969 
z
" transform="scale(0.015625)"/>
      <path id="DejaVuSans-65" d="M 3597 1894 
L 3597 1613 
L 953 1613 
Q 991 1019 1311 708 
Q 1631 397 2203 397 
Q 2534 397 2845 478 
Q 3156 559 3463 722 
L 3463 178 
Q 3153 47 2828 -22 
Q 2503 -91 2169 -91 
Q 1331 -91 842 396 
Q 353 884 353 1716 
Q 353 2575 817 3079 
Q 1281 3584 2069 3584 
Q 2775 3584 3186 3129 
Q 3597 2675 3597 1894 
z
M 3022 2063 
Q 3016 2534 2758 2815 
Q 2500 3097 2075 3097 
Q 1594 3097 1305 2825 
Q 1016 2553 972 2059 
L 3022 2063 
z
" transform="scale(0.015625)"/>
      <path id="DejaVuSans-20" transform="scale(0.015625)"/>
      <path id="DejaVuSans-45" d="M 628 4666 
L 3578 4666 
L 3578 4134 
L 1259 4134 
L 1259 2753 
L 3481 2753 
L 3481 2222 
L 1259 2222 
L 1259 531 
L 3634 531 
L 3634 0 
L 628 0 
L 628 4666 
z
" transform="scale(0.015625)"/>
      <path id="DejaVuSans-79" d="M 2059 -325 
Q 1816 -950 1584 -1140 
Q 1353 -1331 966 -1331 
L 506 -1331 
L 506 -850 
L 844 -850 
Q 1081 -850 1212 -737 
Q 1344 -625 1503 -206 
L 1606 56 
L 191 3500 
L 800 3500 
L 1894 763 
L 2988 3500 
L 3597 3500 
L 2059 -325 
z
" transform="scale(0.015625)"/>
      <path id="DejaVuSans-52" d="M 2841 2188 
Q 3044 2119 3236 1894 
Q 3428 1669 3622 1275 
L 4263 0 
L 3584 0 
L 2988 1197 
Q 2756 1666 2539 1819 
Q 2322 1972 1947 1972 
L 1259 1972 
L 1259 0 
L 628 0 
L 628 4666 
L 2053 4666 
Q 2853 4666 3247 4331 
Q 3641 3997 3641 3322 
Q 3641 2881 3436 2590 
Q 3231 2300 2841 2188 
z
M 1259 4147 
L 1259 2491 
L 2053 2491 
Q 2509 2491 2742 2702 
Q 2975 2913 2975 3322 
Q 2975 3731 2742 3939 
Q 2509 4147 2053 4147 
L 1259 4147 
z
" transform="scale(0.015625)"/>
      <path id="DejaVuSans-69" d="M 603 3500 
L 1178 3500 
L 1178 0 
L 603 0 
L 603 3500 
z
M 603 4863 
L 1178 4863 
L 1178 4134 
L 603 4134 
L 603 4863 
z
" transform="scale(0.015625)"/>
     </defs>
     <use xlink:href="#DejaVuSans-43"/>
     <use xlink:href="#DejaVuSans-6f" x="69.824219"/>
     <use xlink:href="#DejaVuSans-6d" x="131.005859"/>
     <use xlink:href="#DejaVuSans-70" x="228.417969"/>
     <use xlink:href="#DejaVuSans-61" x="291.894531"/>
     <use xlink:href="#DejaVuSans-72" x="353.173828"/>
     <use xlink:href="#DejaVuSans-61" x="394.287109"/>
     <use xlink:href="#DejaVuSans-62" x="455.566406"/>
     <use xlink:href="#DejaVuSans-6c" x="519.042969"/>
     <use xlink:href="#DejaVuSans-65" x="546.826172"/>
     <use xlink:href="#DejaVuSans-20" x="608.349609"/>
     <use xlink:href="#DejaVuSans-45" x="640.136719"/>
     <use xlink:href="#DejaVuSans-6e" x="703.320312"/>
     <use xlink:href="#DejaVuSans-65" x="766.699219"/>
     <use xlink:href="#DejaVuSans-72" x="828.222656"/>
     <use xlink:href="#DejaVuSans-67" x="867.585938"/>
     <use xlink:href="#DejaVuSans-79" x="931.0625"/>
     <use xlink:href="#DejaVuSans-20" x="990.242188"/>
     <use xlink:href="#DejaVuSans-52" x="1022.029297"/>
     <use xlink:href="#DejaVuSans-65" x="1087.011719"/>
     <use xlink:href="#DejaVuSans-67" x="1148.535156"/>
     <use xlink:href="#DejaVuSans-69" x="1212.011719"/>
     <use xlink:href="#DejaVuSans-6f" x="1239.794922"/>
     <use xlink:href="#DejaVuSans-6e" x="1300.976562"/>
    </g>
   </g>
   <g id="text_17">
    <!-- Distribution of Energy Cost ($\Delta E$) -->
    <g transform="translate(117.3 28.08) scale(0.2 -0.2)">
     <defs>
      <path id="DejaVuSans-44" d="M 1259 4147 
L 1259 519 
L 2022 519 
Q 2988 519 3436 956 
Q 3884 1394 3884 2338 
Q 3884 3275 3436 3711 
Q 2988 4147 2022 4147 
L 1259 4147 
z
M 628 4666 
L 1925 4666 
Q 3281 4666 3915 4102 
Q 4550 3538 4550 2338 
Q 4550 1131 3912 565 
Q 3275 0 1925 0 
L 628 0 
L 628 4666 
z
" transform="scale(0.015625)"/>
      <path id="DejaVuSans-73" d="M 2834 3397 
L 2834 2853 
Q 2591 2978 2328 3040 
Q 2066 3103 1784 3103 
Q 1356 3103 1142 2972 
Q 928 2841 928 2578 
Q 928 2378 1081 2264 
Q 1234 2150 1697 2047 
L 1894 2003 
Q 2506 1872 2764 1633 
Q 3022 1394 3022 966 
Q 3022 478 2636 193 
Q 2250 -91 1575 -91 
Q 1294 -91 989 -36 
Q 684 19 347 128 
L 347 722 
Q 666 556 975 473 
Q 1284 391 1588 391 
Q 1994 391 2212 530 
Q 2431 669 2431 922 
Q 2431 1156 2273 1281 
Q 2116 1406 1581 1522 
L 1381 1569 
Q 847 1681 609 1914 
Q 372 2147 372 2553 
Q 372 3047 722 3315 
Q 1072 3584 1716 3584 
Q 2034 3584 2315 3537 
Q 2597 3491 2834 3397 
z
" transform="scale(0.015625)"/>
      <path id="DejaVuSans-66" d="M 2375 4863 
L 2375 4384 
L 1825 4384 
Q 1516 4384 1395 4259 
Q 1275 4134 1275 3809 
L 1275 3500 
L 2222 3500 
L 2222 3053 
L 1275 3053 
L 1275 0 
L 697 0 
L 697 3053 
L 147 3053 
L 147 3500 
L 697 3500 
L 697 3744 
Q 697 4328 969 4595 
Q 1241 4863 1831 4863 
L 2375 4863 
z
" transform="scale(0.015625)"/>
      <path id="DejaVuSans-28" d="M 1984 4856 
Q 1566 4138 1362 3434 
Q 1159 2731 1159 2009 
Q 1159 1288 1364 580 
Q 1569 -128 1984 -844 
L 1484 -844 
Q 1016 -109 783 600 
Q 550 1309 550 2009 
Q 550 2706 781 3412 
Q 1013 4119 1484 4856 
L 1984 4856 
z
" transform="scale(0.015625)"/>
      <path id="DejaVuSans-29" d="M 513 4856 
L 1013 4856 
Q 1481 4119 1714 3412 
Q 1947 2706 1947 2009 
Q 1947 1309 1714 600 
Q 1481 -109 1013 -844 
L 513 -844 
Q 928 -128 1133 580 
Q 1338 1288 1338 2009 
Q 1338 2731 1133 3434 
Q 928 4138 513 4856 
z
" transform="scale(0.015625)"/>
     </defs>
     <use xlink:href="#DejaVuSans-44" transform="translate(0 0.015625)"/>
     <use xlink:href="#DejaVuSans-69" transform="translate(77.001953 0.015625)"/>
     <use xlink:href="#DejaVuSans-73" transform="translate(104.785156 0.015625)"/>
     <use xlink:href="#DejaVuSans-74" transform="translate(156.884766 0.015625)"/>
     <use xlink:href="#DejaVuSans-72" transform="translate(196.09375 0.015625)"/>
     <use xlink:href="#DejaVuSans-69" transform="translate(237.207031 0.015625)"/>
     <use xlink:href="#DejaVuSans-62" transform="translate(264.990234 0.015625)"/>
     <use xlink:href="#DejaVuSans-75" transform="translate(328.466797 0.015625)"/>
     <use xlink:href="#DejaVuSans-74" transform="translate(391.845703 0.015625)"/>
     <use xlink:href="#DejaVuSans-69" transform="translate(431.054688 0.015625)"/>
     <use xlink:href="#DejaVuSans-6f" transform="translate(458.837891 0.015625)"/>
     <use xlink:href="#DejaVuSans-6e" transform="translate(520.019531 0.015625)"/>
     <use xlink:href="#DejaVuSans-20" transform="translate(583.398438 0.015625)"/>
     <use xlink:href="#DejaVuSans-6f" transform="translate(615.185547 0.015625)"/>
     <use xlink:href="#DejaVuSans-66" transform="translate(676.367188 0.015625)"/>
     <use xlink:href="#DejaVuSans-20" transform="translate(711.572266 0.015625)"/>
     <use xlink:href="#DejaVuSans-45" transform="translate(743.359375 0.015625)"/>
     <use xlink:href="#DejaVuSans-6e" transform="translate(806.542969 0.015625)"/>
     <use xlink:href="#DejaVuSans-65" transform="translate(869.921875 0.015625)"/>
     <use xlink:href="#DejaVuSans-72" transform="translate(931.445312 0.015625)"/>
     <use xlink:href="#DejaVuSans-67" transform="translate(972.558594 0.015625)"/>
     <use xlink:href="#DejaVuSans-79" transform="translate(1036.035156 0.015625)"/>
     <use xlink:href="#DejaVuSans-20" transform="translate(1095.214844 0.015625)"/>
     <use xlink:href="#DejaVuSans-43" transform="translate(1127.001953 0.015625)"/>
     <use xlink:href="#DejaVuSans-6f" transform="translate(1196.826172 0.015625)"/>
     <use xlink:href="#DejaVuSans-73" transform="translate(1258.007812 0.015625)"/>
     <use xlink:href="#DejaVuSans-74" transform="translate(1310.107422 0.015625)"/>
     <use xlink:href="#DejaVuSans-20" transform="translate(1349.316406 0.015625)"/>
     <use xlink:href="#DejaVuSans-28" transform="translate(1381.103516 0.015625)"/>
     <use xlink:href="#DejaVuSans-394" transform="translate(1420.117188 0.015625)"/>
     <use xlink:href="#DejaVuSans-Oblique-45" transform="translate(1488.525391 0.015625)"/>
     <use xlink:href="#DejaVuSans-29" transform="translate(1551.708984 0.015625)"/>
    </g>
   </g>
   <g id="legend_1">
    <g id="patch_8">
     <path d="M 440.446875 86.114375 
L 486.2 86.114375 
Q 488.2 86.114375 488.2 84.114375 
L 488.2 41.08 
Q 488.2 39.08 486.2 39.08 
L 440.446875 39.08 
Q 438.446875 39.08 438.446875 41.08 
L 438.446875 84.114375 
Q 438.446875 86.114375 440.446875 86.114375 
z
" style="fill: #ffffff; opacity: 0.8; stroke: #cccccc; stroke-linejoin: miter"/>
    </g>
    <g id="text_18">
     <!-- Network -->
     <g transform="translate(442.446875 50.678437) scale(0.1 -0.1)">
      <defs>
       <path id="DejaVuSans-4e" d="M 628 4666 
L 1478 4666 
L 3547 763 
L 3547 4666 
L 4159 4666 
L 4159 0 
L 3309 0 
L 1241 3903 
L 1241 0 
L 628 0 
L 628 4666 
z
" transform="scale(0.015625)"/>
       <path id="DejaVuSans-77" d="M 269 3500 
L 844 3500 
L 1563 769 
L 2278 3500 
L 2956 3500 
L 3675 769 
L 4391 3500 
L 4966 3500 
L 4050 0 
L 3372 0 
L 2619 2869 
L 1863 0 
L 1184 0 
L 269 3500 
z
" transform="scale(0.015625)"/>
       <path id="DejaVuSans-6b" d="M 581 4863 
L 1159 4863 
L 1159 1991 
L 2875 3500 
L 3609 3500 
L 1753 1863 
L 3688 0 
L 2938 0 
L 1159 1709 
L 1159 0 
L 581 0 
L 581 4863 
z
" transform="scale(0.015625)"/>
      </defs>
      <use xlink:href="#DejaVuSans-4e"/>
      <use xlink:href="#DejaVuSans-65" x="74.804688"/>
      <use xlink:href="#DejaVuSans-74" x="136.328125"/>
      <use xlink:href="#DejaVuSans-77" x="175.537109"/>
      <use xlink:href="#DejaVuSans-6f" x="257.324219"/>
      <use xlink:href="#DejaVuSans-72" x="318.505859"/>
      <use xlink:href="#DejaVuSans-6b" x="359.619141"/>
     </g>
    </g>
    <g id="patch_9">
     <path d="M 442.472656 65.356562 
L 462.472656 65.356562 
L 462.472656 58.356562 
L 442.472656 58.356562 
z
" style="fill: #1f77b4; fill-opacity: 0.3; stroke: #1f77b4; stroke-linejoin: miter"/>
    </g>
    <g id="text_19">
     <!-- ER -->
     <g transform="translate(470.472656 65.356562) scale(0.1 -0.1)">
      <use xlink:href="#DejaVuSans-45"/>
      <use xlink:href="#DejaVuSans-52" x="63.183594"/>
     </g>
    </g>
    <g id="patch_10">
     <path d="M 442.472656 80.034688 
L 462.472656 80.034688 
L 462.472656 73.034688 
L 442.472656 73.034688 
z
" style="fill: #ff7f0e; fill-opacity: 0.3; stroke: #ff7f0e; stroke-linejoin: miter"/>
    </g>
    <g id="text_20">
     <!-- BA -->
     <g transform="translate(470.472656 80.034688) scale(0.1 -0.1)">
      <defs>
       <path id="DejaVuSans-42" d="M 1259 2228 
L 1259 519 
L 2272 519 
Q 2781 519 3026 730 
Q 3272 941 3272 1375 
Q 3272 1813 3026 2020 
Q 2781 2228 2272 2228 
L 1259 2228 
z
M 1259 4147 
L 1259 2741 
L 2194 2741 
Q 2656 2741 2882 2914 
Q 3109 3088 3109 3444 
Q 3109 3797 2882 3972 
Q 2656 4147 2194 4147 
L 1259 4147 
z
M 628 4666 
L 2241 4666 
Q 2963 4666 3353 4366 
Q 3744 4066 3744 3513 
Q 3744 3084 3544 2831 
Q 3344 2578 2956 2516 
Q 3422 2416 3680 2098 
Q 3938 1781 3938 1306 
Q 3938 681 3513 340 
Q 3088 0 2303 0 
L 628 0 
L 628 4666 
z
" transform="scale(0.015625)"/>
       <path id="DejaVuSans-41" d="M 2188 4044 
L 1331 1722 
L 3047 1722 
L 2188 4044 
z
M 1831 4666 
L 2547 4666 
L 4325 0 
L 3669 0 
L 3244 1197 
L 1141 1197 
L 716 0 
L 50 0 
L 1831 4666 
z
" transform="scale(0.015625)"/>
      </defs>
      <use xlink:href="#DejaVuSans-42"/>
      <use xlink:href="#DejaVuSans-41" x="68.603516"/>
     </g>
    </g>
   </g>
  </g>
 </g>
 <defs>
  <clipPath id="p2063e16bb7">
   <rect x="59.6" y="34.08" width="433.6" height="269.56"/>
  </clipPath>
 </defs>
</svg>
