<?xml version="1.0" encoding="utf-8" standalone="no"?>
<!DOCTYPE svg PUBLIC "-//W3C//DTD SVG 1.1//EN"
  "http://www.w3.org/Graphics/SVG/1.1/DTD/svg11.dtd">
<svg xmlns:xlink="http://www.w3.org/1999/xlink" width="675.45475pt" height="610.70212pt" viewBox="0 0 675.45475 610.70212" xmlns="http://www.w3.org/2000/svg" version="1.1">
 <metadata>
  <rdf:RDF xmlns:dc="http://purl.org/dc/elements/1.1/" xmlns:cc="http://creativecommons.org/ns#" xmlns:rdf="http://www.w3.org/1999/02/22-rdf-syntax-ns#">
   <cc:Work>
    <dc:type rdf:resource="http://purl.org/dc/dcmitype/StillImage"/>
    <dc:date>2026-01-27T09:01:38.617217</dc:date>
    <dc:format>image/svg+xml</dc:format>
    <dc:creator>
     <cc:Agent>
      <dc:title>Matplotlib v3.7.5, https://matplotlib.org/</dc:title>
     </cc:Agent>
    </dc:creator>
   </cc:Work>
  </rdf:RDF>
 </metadata>
 <defs>
  <style type="text/css">*{stroke-linejoin: round; stroke-linecap: butt}</style>
 </defs>
 <g id="figure_1">
  <g id="patch_1">
   <path d="M 0 610.70212 
L 675.45475 610.70212 
L 675.45475 0 
L 0 0 
z
" style="fill: #ffffff"/>
  </g>
  <g id="axes_1">
   <g id="patch_2">
    <path d="M 75.83875 230.034783 
L 668.25475 230.034783 
L 668.25475 37.2 
L 75.83875 37.2 
z
" style="fill: #ffffff"/>
   </g>
   <g id="matplotlib.axis_1">
    <g id="xtick_1">
     <g id="line2d_1">
      <defs>
       <path id="m6bd402a21f" d="M 0 0 
L 0 3.5 
" style="stroke: #000000; stroke-width: 0.8"/>
      </defs>
      <g>
       <use xlink:href="#m6bd402a21f" x="130.385212" y="230.034783" style="stroke: #000000; stroke-width: 0.8"/>
      </g>
     </g>
    </g>
    <g id="xtick_2">
     <g id="line2d_2">
      <g>
       <use xlink:href="#m6bd402a21f" x="199.431365" y="230.034783" style="stroke: #000000; stroke-width: 0.8"/>
      </g>
     </g>
    </g>
    <g id="xtick_3">
     <g id="line2d_3">
      <g>
       <use xlink:href="#m6bd402a21f" x="268.477519" y="230.034783" style="stroke: #000000; stroke-width: 0.8"/>
      </g>
     </g>
    </g>
    <g id="xtick_4">
     <g id="line2d_4">
      <g>
       <use xlink:href="#m6bd402a21f" x="337.523673" y="230.034783" style="stroke: #000000; stroke-width: 0.8"/>
      </g>
     </g>
    </g>
    <g id="xtick_5">
     <g id="line2d_5">
      <g>
       <use xlink:href="#m6bd402a21f" x="406.569827" y="230.034783" style="stroke: #000000; stroke-width: 0.8"/>
      </g>
     </g>
    </g>
    <g id="xtick_6">
     <g id="line2d_6">
      <g>
       <use xlink:href="#m6bd402a21f" x="475.615981" y="230.034783" style="stroke: #000000; stroke-width: 0.8"/>
      </g>
     </g>
    </g>
    <g id="xtick_7">
     <g id="line2d_7">
      <g>
       <use xlink:href="#m6bd402a21f" x="544.662135" y="230.034783" style="stroke: #000000; stroke-width: 0.8"/>
      </g>
     </g>
    </g>
    <g id="xtick_8">
     <g id="line2d_8">
      <g>
       <use xlink:href="#m6bd402a21f" x="613.708288" y="230.034783" style="stroke: #000000; stroke-width: 0.8"/>
      </g>
     </g>
    </g>
   </g>
   <g id="matplotlib.axis_2">
    <g id="ytick_1">
     <g id="line2d_9">
      <path d="M 75.83875 179.893384 
L 668.25475 179.893384 
" clip-path="url(#p46d43a8514)" style="fill: none; stroke-dasharray: 2.59,1.12; stroke-dashoffset: 0; stroke: #b0b0b0; stroke-opacity: 0.6; stroke-width: 0.7"/>
     </g>
     <g id="line2d_10">
      <defs>
       <path id="mb1301756e0" d="M 0 0 
L -3.5 0 
" style="stroke: #000000; stroke-width: 0.8"/>
      </defs>
      <g>
       <use xlink:href="#mb1301756e0" x="75.83875" y="179.893384" style="stroke: #000000; stroke-width: 0.8"/>
      </g>
     </g>
     <g id="text_1">
      <!-- 20 -->
      <g transform="translate(38.29875 189.011509) scale(0.24 -0.24)">
       <defs>
        <path id="DejaVuSans-32" d="M 1228 531 
L 3431 531 
L 3431 0 
L 469 0 
L 469 531 
Q 828 903 1448 1529 
Q 2069 2156 2228 2338 
Q 2531 2678 2651 2914 
Q 2772 3150 2772 3378 
Q 2772 3750 2511 3984 
Q 2250 4219 1831 4219 
Q 1534 4219 1204 4116 
Q 875 4013 500 3803 
L 500 4441 
Q 881 4594 1212 4672 
Q 1544 4750 1819 4750 
Q 2544 4750 2975 4387 
Q 3406 4025 3406 3419 
Q 3406 3131 3298 2873 
Q 3191 2616 2906 2266 
Q 2828 2175 2409 1742 
Q 1991 1309 1228 531 
z
" transform="scale(0.015625)"/>
        <path id="DejaVuSans-30" d="M 2034 4250 
Q 1547 4250 1301 3770 
Q 1056 3291 1056 2328 
Q 1056 1369 1301 889 
Q 1547 409 2034 409 
Q 2525 409 2770 889 
Q 3016 1369 3016 2328 
Q 3016 3291 2770 3770 
Q 2525 4250 2034 4250 
z
M 2034 4750 
Q 2819 4750 3233 4129 
Q 3647 3509 3647 2328 
Q 3647 1150 3233 529 
Q 2819 -91 2034 -91 
Q 1250 -91 836 529 
Q 422 1150 422 2328 
Q 422 3509 836 4129 
Q 1250 4750 2034 4750 
z
" transform="scale(0.015625)"/>
       </defs>
       <use xlink:href="#DejaVuSans-32"/>
       <use xlink:href="#DejaVuSans-30" x="63.623047"/>
      </g>
     </g>
    </g>
    <g id="ytick_2">
     <g id="line2d_11">
      <path d="M 75.83875 107.303592 
L 668.25475 107.303592 
" clip-path="url(#p46d43a8514)" style="fill: none; stroke-dasharray: 2.59,1.12; stroke-dashoffset: 0; stroke: #b0b0b0; stroke-opacity: 0.6; stroke-width: 0.7"/>
     </g>
     <g id="line2d_12">
      <g>
       <use xlink:href="#mb1301756e0" x="75.83875" y="107.303592" style="stroke: #000000; stroke-width: 0.8"/>
      </g>
     </g>
     <g id="text_2">
      <!-- 40 -->
      <g transform="translate(38.29875 116.421717) scale(0.24 -0.24)">
       <defs>
        <path id="DejaVuSans-34" d="M 2419 4116 
L 825 1625 
L 2419 1625 
L 2419 4116 
z
M 2253 4666 
L 3047 4666 
L 3047 1625 
L 3713 1625 
L 3713 1100 
L 3047 1100 
L 3047 0 
L 2419 0 
L 2419 1100 
L 313 1100 
L 313 1709 
L 2253 4666 
z
" transform="scale(0.015625)"/>
       </defs>
       <use xlink:href="#DejaVuSans-34"/>
       <use xlink:href="#DejaVuSans-30" x="63.623047"/>
      </g>
     </g>
    </g>
    <g id="text_3">
     <!-- $\Delta N_{D}$ -->
     <g transform="translate(28.475625 161.617391) rotate(-90) scale(0.28 -0.28)">
      <defs>
       <path id="DejaVuSans-394" d="M 2188 4044 
L 906 525 
L 3472 525 
L 2188 4044 
z
M 50 0 
L 1831 4666 
L 2547 4666 
L 4325 0 
L 50 0 
z
" transform="scale(0.015625)"/>
       <path id="DejaVuSans-Oblique-4e" d="M 1081 4666 
L 1931 4666 
L 3219 666 
L 4000 4666 
L 4616 4666 
L 3706 0 
L 2853 0 
L 1569 4025 
L 788 0 
L 172 0 
L 1081 4666 
z
" transform="scale(0.015625)"/>
       <path id="DejaVuSans-Oblique-44" d="M 1081 4666 
L 2438 4666 
Q 3519 4666 4070 4208 
Q 4622 3750 4622 2847 
Q 4622 2250 4412 1698 
Q 4203 1147 3834 769 
Q 3463 381 2891 190 
Q 2319 0 1538 0 
L 172 0 
L 1081 4666 
z
M 1613 4147 
L 909 519 
L 1734 519 
Q 2794 519 3375 1128 
Q 3956 1738 3956 2847 
Q 3956 3519 3581 3833 
Q 3206 4147 2406 4147 
L 1613 4147 
z
" transform="scale(0.015625)"/>
      </defs>
      <use xlink:href="#DejaVuSans-394" transform="translate(0 0.09375)"/>
      <use xlink:href="#DejaVuSans-Oblique-4e" transform="translate(68.408203 0.09375)"/>
      <use xlink:href="#DejaVuSans-Oblique-44" transform="translate(143.212891 -16.3125) scale(0.7)"/>
     </g>
    </g>
   </g>
   <g id="patch_3">
    <path d="M 102.76675 105.488847 
L 158.003673 105.488847 
L 158.003673 72.82344 
L 102.76675 72.82344 
L 102.76675 105.488847 
z
" clip-path="url(#p46d43a8514)" style="fill: #124d82; stroke: #000000; stroke-linejoin: miter"/>
   </g>
   <g id="line2d_13">
    <path d="M 130.385212 105.488847 
L 130.385212 107.303592 
" clip-path="url(#p46d43a8514)" style="fill: none; stroke: #000000"/>
   </g>
   <g id="line2d_14">
    <path d="M 130.385212 72.82344 
L 130.385212 60.120227 
" clip-path="url(#p46d43a8514)" style="fill: none; stroke: #000000"/>
   </g>
   <g id="line2d_15">
    <path d="M 116.575981 107.303592 
L 144.194442 107.303592 
" clip-path="url(#p46d43a8514)" style="fill: none; stroke: #000000; stroke-linecap: square"/>
   </g>
   <g id="line2d_16">
    <path d="M 116.575981 60.120227 
L 144.194442 60.120227 
" clip-path="url(#p46d43a8514)" style="fill: none; stroke: #000000; stroke-linecap: square"/>
   </g>
   <g id="line2d_17"/>
   <g id="patch_4">
    <path d="M 171.812904 103.674102 
L 227.049827 103.674102 
L 227.049827 82.804537 
L 171.812904 82.804537 
L 171.812904 103.674102 
z
" clip-path="url(#p46d43a8514)" style="fill: #124d82; stroke: #000000; stroke-linejoin: miter"/>
   </g>
   <g id="line2d_18">
    <path d="M 199.431365 103.674102 
L 199.431365 114.562571 
" clip-path="url(#p46d43a8514)" style="fill: none; stroke: #000000"/>
   </g>
   <g id="line2d_19">
    <path d="M 199.431365 82.804537 
L 199.431365 63.749716 
" clip-path="url(#p46d43a8514)" style="fill: none; stroke: #000000"/>
   </g>
   <g id="line2d_20">
    <path d="M 185.622135 114.562571 
L 213.240596 114.562571 
" clip-path="url(#p46d43a8514)" style="fill: none; stroke: #000000; stroke-linecap: square"/>
   </g>
   <g id="line2d_21">
    <path d="M 185.622135 63.749716 
L 213.240596 63.749716 
" clip-path="url(#p46d43a8514)" style="fill: none; stroke: #000000; stroke-linecap: square"/>
   </g>
   <g id="line2d_22"/>
   <g id="patch_5">
    <path d="M 240.859058 102.76673 
L 296.095981 102.76673 
L 296.095981 82.804537 
L 240.859058 82.804537 
L 240.859058 102.76673 
z
" clip-path="url(#p46d43a8514)" style="fill: #124d82; stroke: #000000; stroke-linejoin: miter"/>
   </g>
   <g id="line2d_23">
    <path d="M 268.477519 102.76673 
L 268.477519 121.82155 
" clip-path="url(#p46d43a8514)" style="fill: none; stroke: #000000"/>
   </g>
   <g id="line2d_24">
    <path d="M 268.477519 82.804537 
L 268.477519 60.120227 
" clip-path="url(#p46d43a8514)" style="fill: none; stroke: #000000"/>
   </g>
   <g id="line2d_25">
    <path d="M 254.668288 121.82155 
L 282.28675 121.82155 
" clip-path="url(#p46d43a8514)" style="fill: none; stroke: #000000; stroke-linecap: square"/>
   </g>
   <g id="line2d_26">
    <path d="M 254.668288 60.120227 
L 282.28675 60.120227 
" clip-path="url(#p46d43a8514)" style="fill: none; stroke: #000000; stroke-linecap: square"/>
   </g>
   <g id="line2d_27"/>
   <g id="patch_6">
    <path d="M 309.905212 96.415123 
L 365.142135 96.415123 
L 365.142135 82.804537 
L 309.905212 82.804537 
L 309.905212 96.415123 
z
" clip-path="url(#p46d43a8514)" style="fill: #124d82; stroke: #000000; stroke-linejoin: miter"/>
   </g>
   <g id="line2d_28">
    <path d="M 337.523673 96.415123 
L 337.523673 103.674102 
" clip-path="url(#p46d43a8514)" style="fill: none; stroke: #000000"/>
   </g>
   <g id="line2d_29">
    <path d="M 337.523673 82.804537 
L 337.523673 63.749716 
" clip-path="url(#p46d43a8514)" style="fill: none; stroke: #000000"/>
   </g>
   <g id="line2d_30">
    <path d="M 323.714442 103.674102 
L 351.332904 103.674102 
" clip-path="url(#p46d43a8514)" style="fill: none; stroke: #000000; stroke-linecap: square"/>
   </g>
   <g id="line2d_31">
    <path d="M 323.714442 63.749716 
L 351.332904 63.749716 
" clip-path="url(#p46d43a8514)" style="fill: none; stroke: #000000; stroke-linecap: square"/>
   </g>
   <g id="line2d_32"/>
   <g id="patch_7">
    <path d="M 378.951365 105.488847 
L 434.188288 105.488847 
L 434.188288 85.526654 
L 378.951365 85.526654 
L 378.951365 105.488847 
z
" clip-path="url(#p46d43a8514)" style="fill: #124d82; stroke: #000000; stroke-linejoin: miter"/>
   </g>
   <g id="line2d_33">
    <path d="M 406.569827 105.488847 
L 406.569827 132.710019 
" clip-path="url(#p46d43a8514)" style="fill: none; stroke: #000000"/>
   </g>
   <g id="line2d_34">
    <path d="M 406.569827 85.526654 
L 406.569827 74.638185 
" clip-path="url(#p46d43a8514)" style="fill: none; stroke: #000000"/>
   </g>
   <g id="line2d_35">
    <path d="M 392.760596 132.710019 
L 420.379058 132.710019 
" clip-path="url(#p46d43a8514)" style="fill: none; stroke: #000000; stroke-linecap: square"/>
   </g>
   <g id="line2d_36">
    <path d="M 392.760596 74.638185 
L 420.379058 74.638185 
" clip-path="url(#p46d43a8514)" style="fill: none; stroke: #000000; stroke-linecap: square"/>
   </g>
   <g id="line2d_37"/>
   <g id="patch_8">
    <path d="M 447.997519 92.785633 
L 503.234442 92.785633 
L 503.234442 82.804537 
L 447.997519 82.804537 
L 447.997519 92.785633 
z
" clip-path="url(#p46d43a8514)" style="fill: #124d82; stroke: #000000; stroke-linejoin: miter"/>
   </g>
   <g id="line2d_38">
    <path d="M 475.615981 92.785633 
L 475.615981 100.044612 
" clip-path="url(#p46d43a8514)" style="fill: none; stroke: #000000"/>
   </g>
   <g id="line2d_39">
    <path d="M 475.615981 82.804537 
L 475.615981 71.008696 
" clip-path="url(#p46d43a8514)" style="fill: none; stroke: #000000"/>
   </g>
   <g id="line2d_40">
    <path d="M 461.80675 100.044612 
L 489.425212 100.044612 
" clip-path="url(#p46d43a8514)" style="fill: none; stroke: #000000; stroke-linecap: square"/>
   </g>
   <g id="line2d_41">
    <path d="M 461.80675 71.008696 
L 489.425212 71.008696 
" clip-path="url(#p46d43a8514)" style="fill: none; stroke: #000000; stroke-linecap: square"/>
   </g>
   <g id="line2d_42"/>
   <g id="patch_9">
    <path d="M 517.043673 101.859357 
L 572.280596 101.859357 
L 572.280596 77.360302 
L 517.043673 77.360302 
L 517.043673 101.859357 
z
" clip-path="url(#p46d43a8514)" style="fill: #124d82; stroke: #000000; stroke-linejoin: miter"/>
   </g>
   <g id="line2d_43">
    <path d="M 544.662135 101.859357 
L 544.662135 114.562571 
" clip-path="url(#p46d43a8514)" style="fill: none; stroke: #000000"/>
   </g>
   <g id="line2d_44">
    <path d="M 544.662135 77.360302 
L 544.662135 63.749716 
" clip-path="url(#p46d43a8514)" style="fill: none; stroke: #000000"/>
   </g>
   <g id="line2d_45">
    <path d="M 530.852904 114.562571 
L 558.471365 114.562571 
" clip-path="url(#p46d43a8514)" style="fill: none; stroke: #000000; stroke-linecap: square"/>
   </g>
   <g id="line2d_46">
    <path d="M 530.852904 63.749716 
L 558.471365 63.749716 
" clip-path="url(#p46d43a8514)" style="fill: none; stroke: #000000; stroke-linecap: square"/>
   </g>
   <g id="line2d_47"/>
   <g id="patch_10">
    <path d="M 586.089827 112.747826 
L 641.32675 112.747826 
L 641.32675 90.970888 
L 586.089827 90.970888 
L 586.089827 112.747826 
z
" clip-path="url(#p46d43a8514)" style="fill: #124d82; stroke: #000000; stroke-linejoin: miter"/>
   </g>
   <g id="line2d_48">
    <path d="M 613.708288 112.747826 
L 613.708288 129.080529 
" clip-path="url(#p46d43a8514)" style="fill: none; stroke: #000000"/>
   </g>
   <g id="line2d_49">
    <path d="M 613.708288 90.970888 
L 613.708288 85.526654 
" clip-path="url(#p46d43a8514)" style="fill: none; stroke: #000000"/>
   </g>
   <g id="line2d_50">
    <path d="M 599.899058 129.080529 
L 627.517519 129.080529 
" clip-path="url(#p46d43a8514)" style="fill: none; stroke: #000000; stroke-linecap: square"/>
   </g>
   <g id="line2d_51">
    <path d="M 599.899058 85.526654 
L 627.517519 85.526654 
" clip-path="url(#p46d43a8514)" style="fill: none; stroke: #000000; stroke-linecap: square"/>
   </g>
   <g id="line2d_52"/>
   <g id="line2d_53">
    <path d="M 102.76675 87.341399 
L 158.003673 87.341399 
" clip-path="url(#p46d43a8514)" style="fill: none; stroke: #c80723; stroke-width: 2"/>
   </g>
   <g id="line2d_54">
    <path d="M 171.812904 100.044612 
L 227.049827 100.044612 
" clip-path="url(#p46d43a8514)" style="fill: none; stroke: #c80723; stroke-width: 2"/>
   </g>
   <g id="line2d_55">
    <path d="M 240.859058 96.415123 
L 296.095981 96.415123 
" clip-path="url(#p46d43a8514)" style="fill: none; stroke: #c80723; stroke-width: 2"/>
   </g>
   <g id="line2d_56">
    <path d="M 309.905212 89.156144 
L 365.142135 89.156144 
" clip-path="url(#p46d43a8514)" style="fill: none; stroke: #c80723; stroke-width: 2"/>
   </g>
   <g id="line2d_57">
    <path d="M 378.951365 98.229868 
L 434.188288 98.229868 
" clip-path="url(#p46d43a8514)" style="fill: none; stroke: #c80723; stroke-width: 2"/>
   </g>
   <g id="line2d_58">
    <path d="M 447.997519 90.970888 
L 503.234442 90.970888 
" clip-path="url(#p46d43a8514)" style="fill: none; stroke: #c80723; stroke-width: 2"/>
   </g>
   <g id="line2d_59">
    <path d="M 517.043673 92.785633 
L 572.280596 92.785633 
" clip-path="url(#p46d43a8514)" style="fill: none; stroke: #c80723; stroke-width: 2"/>
   </g>
   <g id="line2d_60">
    <path d="M 586.089827 96.415123 
L 641.32675 96.415123 
" clip-path="url(#p46d43a8514)" style="fill: none; stroke: #c80723; stroke-width: 2"/>
   </g>
   <g id="patch_11">
    <path d="M 75.83875 230.034783 
L 75.83875 37.2 
" style="fill: none; stroke: #000000; stroke-linejoin: miter; stroke-linecap: square"/>
   </g>
   <g id="patch_12">
    <path d="M 668.25475 230.034783 
L 668.25475 37.2 
" style="fill: none; stroke: #000000; stroke-linejoin: miter; stroke-linecap: square"/>
   </g>
   <g id="patch_13">
    <path d="M 75.83875 230.034783 
L 668.25475 230.034783 
" style="fill: none; stroke: #000000; stroke-linejoin: miter; stroke-linecap: square"/>
   </g>
   <g id="patch_14">
    <path d="M 75.83875 37.2 
L 668.25475 37.2 
" style="fill: none; stroke: #000000; stroke-linejoin: miter; stroke-linecap: square"/>
   </g>
   <g id="text_4">
    <!-- ER Network | N=1000 | &lt;k&gt;=4 -->
    <g transform="translate(137.669406 30.126563) scale(0.3 -0.3)">
     <defs>
      <path id="DejaVuSans-45" d="M 628 4666 
L 3578 4666 
L 3578 4134 
L 1259 4134 
L 1259 2753 
L 3481 2753 
L 3481 2222 
L 1259 2222 
L 1259 531 
L 3634 531 
L 3634 0 
L 628 0 
L 628 4666 
z
" transform="scale(0.015625)"/>
      <path id="DejaVuSans-52" d="M 2841 2188 
Q 3044 2119 3236 1894 
Q 3428 1669 3622 1275 
L 4263 0 
L 3584 0 
L 2988 1197 
Q 2756 1666 2539 1819 
Q 2322 1972 1947 1972 
L 1259 1972 
L 1259 0 
L 628 0 
L 628 4666 
L 2053 4666 
Q 2853 4666 3247 4331 
Q 3641 3997 3641 3322 
Q 3641 2881 3436 2590 
Q 3231 2300 2841 2188 
z
M 1259 4147 
L 1259 2491 
L 2053 2491 
Q 2509 2491 2742 2702 
Q 2975 2913 2975 3322 
Q 2975 3731 2742 3939 
Q 2509 4147 2053 4147 
L 1259 4147 
z
" transform="scale(0.015625)"/>
      <path id="DejaVuSans-20" transform="scale(0.015625)"/>
      <path id="DejaVuSans-4e" d="M 628 4666 
L 1478 4666 
L 3547 763 
L 3547 4666 
L 4159 4666 
L 4159 0 
L 3309 0 
L 1241 3903 
L 1241 0 
L 628 0 
L 628 4666 
z
" transform="scale(0.015625)"/>
      <path id="DejaVuSans-65" d="M 3597 1894 
L 3597 1613 
L 953 1613 
Q 991 1019 1311 708 
Q 1631 397 2203 397 
Q 2534 397 2845 478 
Q 3156 559 3463 722 
L 3463 178 
Q 3153 47 2828 -22 
Q 2503 -91 2169 -91 
Q 1331 -91 842 396 
Q 353 884 353 1716 
Q 353 2575 817 3079 
Q 1281 3584 2069 3584 
Q 2775 3584 3186 3129 
Q 3597 2675 3597 1894 
z
M 3022 2063 
Q 3016 2534 2758 2815 
Q 2500 3097 2075 3097 
Q 1594 3097 1305 2825 
Q 1016 2553 972 2059 
L 3022 2063 
z
" transform="scale(0.015625)"/>
      <path id="DejaVuSans-74" d="M 1172 4494 
L 1172 3500 
L 2356 3500 
L 2356 3053 
L 1172 3053 
L 1172 1153 
Q 1172 725 1289 603 
Q 1406 481 1766 481 
L 2356 481 
L 2356 0 
L 1766 0 
Q 1100 0 847 248 
Q 594 497 594 1153 
L 594 3053 
L 172 3053 
L 172 3500 
L 594 3500 
L 594 4494 
L 1172 4494 
z
" transform="scale(0.015625)"/>
      <path id="DejaVuSans-77" d="M 269 3500 
L 844 3500 
L 1563 769 
L 2278 3500 
L 2956 3500 
L 3675 769 
L 4391 3500 
L 4966 3500 
L 4050 0 
L 3372 0 
L 2619 2869 
L 1863 0 
L 1184 0 
L 269 3500 
z
" transform="scale(0.015625)"/>
      <path id="DejaVuSans-6f" d="M 1959 3097 
Q 1497 3097 1228 2736 
Q 959 2375 959 1747 
Q 959 1119 1226 758 
Q 1494 397 1959 397 
Q 2419 397 2687 759 
Q 2956 1122 2956 1747 
Q 2956 2369 2687 2733 
Q 2419 3097 1959 3097 
z
M 1959 3584 
Q 2709 3584 3137 3096 
Q 3566 2609 3566 1747 
Q 3566 888 3137 398 
Q 2709 -91 1959 -91 
Q 1206 -91 779 398 
Q 353 888 353 1747 
Q 353 2609 779 3096 
Q 1206 3584 1959 3584 
z
" transform="scale(0.015625)"/>
      <path id="DejaVuSans-72" d="M 2631 2963 
Q 2534 3019 2420 3045 
Q 2306 3072 2169 3072 
Q 1681 3072 1420 2755 
Q 1159 2438 1159 1844 
L 1159 0 
L 581 0 
L 581 3500 
L 1159 3500 
L 1159 2956 
Q 1341 3275 1631 3429 
Q 1922 3584 2338 3584 
Q 2397 3584 2469 3576 
Q 2541 3569 2628 3553 
L 2631 2963 
z
" transform="scale(0.015625)"/>
      <path id="DejaVuSans-6b" d="M 581 4863 
L 1159 4863 
L 1159 1991 
L 2875 3500 
L 3609 3500 
L 1753 1863 
L 3688 0 
L 2938 0 
L 1159 1709 
L 1159 0 
L 581 0 
L 581 4863 
z
" transform="scale(0.015625)"/>
      <path id="DejaVuSans-7c" d="M 1344 4891 
L 1344 -1509 
L 813 -1509 
L 813 4891 
L 1344 4891 
z
" transform="scale(0.015625)"/>
      <path id="DejaVuSans-3d" d="M 678 2906 
L 4684 2906 
L 4684 2381 
L 678 2381 
L 678 2906 
z
M 678 1631 
L 4684 1631 
L 4684 1100 
L 678 1100 
L 678 1631 
z
" transform="scale(0.015625)"/>
      <path id="DejaVuSans-31" d="M 794 531 
L 1825 531 
L 1825 4091 
L 703 3866 
L 703 4441 
L 1819 4666 
L 2450 4666 
L 2450 531 
L 3481 531 
L 3481 0 
L 794 0 
L 794 531 
z
" transform="scale(0.015625)"/>
      <path id="DejaVuSans-3c" d="M 4684 3150 
L 1459 2003 
L 4684 863 
L 4684 294 
L 678 1747 
L 678 2266 
L 4684 3719 
L 4684 3150 
z
" transform="scale(0.015625)"/>
      <path id="DejaVuSans-3e" d="M 678 3150 
L 678 3719 
L 4684 2266 
L 4684 1747 
L 678 294 
L 678 863 
L 3897 2003 
L 678 3150 
z
" transform="scale(0.015625)"/>
     </defs>
     <use xlink:href="#DejaVuSans-45"/>
     <use xlink:href="#DejaVuSans-52" x="63.183594"/>
     <use xlink:href="#DejaVuSans-20" x="132.666016"/>
     <use xlink:href="#DejaVuSans-4e" x="164.453125"/>
     <use xlink:href="#DejaVuSans-65" x="239.257812"/>
     <use xlink:href="#DejaVuSans-74" x="300.78125"/>
     <use xlink:href="#DejaVuSans-77" x="339.990234"/>
     <use xlink:href="#DejaVuSans-6f" x="421.777344"/>
     <use xlink:href="#DejaVuSans-72" x="482.958984"/>
     <use xlink:href="#DejaVuSans-6b" x="524.072266"/>
     <use xlink:href="#DejaVuSans-20" x="581.982422"/>
     <use xlink:href="#DejaVuSans-7c" x="613.769531"/>
     <use xlink:href="#DejaVuSans-20" x="647.460938"/>
     <use xlink:href="#DejaVuSans-4e" x="679.248047"/>
     <use xlink:href="#DejaVuSans-3d" x="754.052734"/>
     <use xlink:href="#DejaVuSans-31" x="837.841797"/>
     <use xlink:href="#DejaVuSans-30" x="901.464844"/>
     <use xlink:href="#DejaVuSans-30" x="965.087891"/>
     <use xlink:href="#DejaVuSans-30" x="1028.710938"/>
     <use xlink:href="#DejaVuSans-20" x="1092.333984"/>
     <use xlink:href="#DejaVuSans-7c" x="1124.121094"/>
     <use xlink:href="#DejaVuSans-20" x="1157.8125"/>
     <use xlink:href="#DejaVuSans-3c" x="1189.599609"/>
     <use xlink:href="#DejaVuSans-6b" x="1273.388672"/>
     <use xlink:href="#DejaVuSans-3e" x="1331.298828"/>
     <use xlink:href="#DejaVuSans-3d" x="1415.087891"/>
     <use xlink:href="#DejaVuSans-34" x="1498.876953"/>
    </g>
   </g>
   <g id="line2d_61">
    <path d="M 130.385212 221.269565 
L 199.431365 210.744045 
L 268.477519 205.299811 
L 337.523673 220.180718 
L 406.569827 207.840454 
L 475.615981 212.921739 
L 544.662135 212.195841 
L 613.708288 212.55879 
" clip-path="url(#p46d43a8514)" style="fill: none; stroke: #ffbd00; stroke-width: 1.5; stroke-linecap: square"/>
    <defs>
     <path id="ma4e8eddcb5" d="M -4 4 
L 4 4 
L 4 -4 
L -4 -4 
z
" style="stroke: #ffbd00; stroke-linejoin: miter"/>
    </defs>
    <g clip-path="url(#p46d43a8514)">
     <use xlink:href="#ma4e8eddcb5" x="130.385212" y="221.269565" style="fill: #ffbd00; stroke: #ffbd00; stroke-linejoin: miter"/>
     <use xlink:href="#ma4e8eddcb5" x="199.431365" y="210.744045" style="fill: #ffbd00; stroke: #ffbd00; stroke-linejoin: miter"/>
     <use xlink:href="#ma4e8eddcb5" x="268.477519" y="205.299811" style="fill: #ffbd00; stroke: #ffbd00; stroke-linejoin: miter"/>
     <use xlink:href="#ma4e8eddcb5" x="337.523673" y="220.180718" style="fill: #ffbd00; stroke: #ffbd00; stroke-linejoin: miter"/>
     <use xlink:href="#ma4e8eddcb5" x="406.569827" y="207.840454" style="fill: #ffbd00; stroke: #ffbd00; stroke-linejoin: miter"/>
     <use xlink:href="#ma4e8eddcb5" x="475.615981" y="212.921739" style="fill: #ffbd00; stroke: #ffbd00; stroke-linejoin: miter"/>
     <use xlink:href="#ma4e8eddcb5" x="544.662135" y="212.195841" style="fill: #ffbd00; stroke: #ffbd00; stroke-linejoin: miter"/>
     <use xlink:href="#ma4e8eddcb5" x="613.708288" y="212.55879" style="fill: #ffbd00; stroke: #ffbd00; stroke-linejoin: miter"/>
    </g>
   </g>
   <g id="legend_1">
    <g id="patch_15">
     <path d="M 45.45475 88.8 
L 654.25475 88.8 
Q 658.25475 88.8 658.25475 84.8 
L 658.25475 51.2 
Q 658.25475 47.2 654.25475 47.2 
L 45.45475 47.2 
Q 41.45475 47.2 41.45475 51.2 
L 41.45475 84.8 
Q 41.45475 88.8 45.45475 88.8 
z
" style="fill: #ffffff; opacity: 0.8; stroke: #000000; stroke-linejoin: miter"/>
    </g>
    <g id="patch_16">
     <path d="M 49.45475 75.2 
L 89.45475 75.2 
L 89.45475 61.2 
L 49.45475 61.2 
z
" style="fill: #004e94; stroke: #000000; stroke-linejoin: miter"/>
    </g>
    <g id="text_5">
     <!-- $\Delta N_{D}^{opt}$ -->
     <g transform="translate(105.45475 75.2) scale(0.2 -0.2)">
      <defs>
       <path id="DejaVuSans-Oblique-6f" d="M 1625 -91 
Q 1009 -91 651 289 
Q 294 669 294 1325 
Q 294 1706 417 2101 
Q 541 2497 738 2766 
Q 1047 3184 1428 3384 
Q 1809 3584 2291 3584 
Q 2888 3584 3255 3212 
Q 3622 2841 3622 2241 
Q 3622 1825 3500 1412 
Q 3378 1000 3181 728 
Q 2875 309 2494 109 
Q 2113 -91 1625 -91 
z
M 891 1344 
Q 891 869 1089 633 
Q 1288 397 1691 397 
Q 2269 397 2648 901 
Q 3028 1406 3028 2181 
Q 3028 2634 2825 2865 
Q 2622 3097 2228 3097 
Q 1903 3097 1650 2945 
Q 1397 2794 1197 2484 
Q 1050 2253 970 1956 
Q 891 1659 891 1344 
z
" transform="scale(0.015625)"/>
       <path id="DejaVuSans-Oblique-70" d="M 3175 2156 
Q 3175 2616 2975 2859 
Q 2775 3103 2400 3103 
Q 2144 3103 1911 2972 
Q 1678 2841 1497 2591 
Q 1319 2344 1212 1994 
Q 1106 1644 1106 1300 
Q 1106 863 1306 627 
Q 1506 391 1875 391 
Q 2147 391 2380 519 
Q 2613 647 2778 891 
Q 2956 1147 3065 1494 
Q 3175 1841 3175 2156 
z
M 1394 2969 
Q 1625 3272 1939 3428 
Q 2253 3584 2638 3584 
Q 3175 3584 3472 3232 
Q 3769 2881 3769 2247 
Q 3769 1728 3584 1258 
Q 3400 788 3053 416 
Q 2822 169 2531 39 
Q 2241 -91 1919 -91 
Q 1547 -91 1294 64 
Q 1041 219 916 525 
L 556 -1331 
L -19 -1331 
L 922 3500 
L 1497 3500 
L 1394 2969 
z
" transform="scale(0.015625)"/>
       <path id="DejaVuSans-Oblique-74" d="M 2706 3500 
L 2619 3053 
L 1472 3053 
L 1100 1153 
Q 1081 1047 1072 975 
Q 1063 903 1063 863 
Q 1063 663 1183 572 
Q 1303 481 1569 481 
L 2150 481 
L 2053 0 
L 1503 0 
Q 991 0 739 200 
Q 488 400 488 806 
Q 488 878 497 964 
Q 506 1050 525 1153 
L 897 3053 
L 409 3053 
L 500 3500 
L 978 3500 
L 1172 4494 
L 1747 4494 
L 1556 3500 
L 2706 3500 
z
" transform="scale(0.015625)"/>
      </defs>
      <use xlink:href="#DejaVuSans-394" transform="translate(0 0.098438)"/>
      <use xlink:href="#DejaVuSans-Oblique-4e" transform="translate(68.408203 0.098438)"/>
      <use xlink:href="#DejaVuSans-Oblique-6f" transform="translate(150.229661 50.846875) scale(0.7)"/>
      <use xlink:href="#DejaVuSans-Oblique-70" transform="translate(193.05681 50.846875) scale(0.7)"/>
      <use xlink:href="#DejaVuSans-Oblique-74" transform="translate(237.490404 50.846875) scale(0.7)"/>
      <use xlink:href="#DejaVuSans-Oblique-44" transform="translate(143.212891 -27.245312) scale(0.7)"/>
     </g>
    </g>
    <g id="line2d_62">
     <path d="M 199.05475 68.2 
L 219.05475 68.2 
L 239.05475 68.2 
" style="fill: none; stroke: #d55b00; stroke-width: 1.5; stroke-linecap: square"/>
     <defs>
      <path id="m54eb4e1a5e" d="M 0 -3 
L -3 3 
L 3 3 
z
" style="stroke: #d55b00; stroke-linejoin: miter"/>
     </defs>
     <g>
      <use xlink:href="#m54eb4e1a5e" x="219.05475" y="68.2" style="fill: #d55b00; stroke: #d55b00; stroke-linejoin: miter"/>
     </g>
    </g>
    <g id="text_6">
     <!-- $\Delta N_D(CLAP-S \mid \mathcal{I})$ -->
     <g transform="translate(255.05475 75.2) scale(0.2 -0.2)">
      <defs>
       <path id="DejaVuSans-28" d="M 1984 4856 
Q 1566 4138 1362 3434 
Q 1159 2731 1159 2009 
Q 1159 1288 1364 580 
Q 1569 -128 1984 -844 
L 1484 -844 
Q 1016 -109 783 600 
Q 550 1309 550 2009 
Q 550 2706 781 3412 
Q 1013 4119 1484 4856 
L 1984 4856 
z
" transform="scale(0.015625)"/>
       <path id="DejaVuSans-Oblique-43" d="M 4447 4306 
L 4319 3641 
Q 4019 3944 3683 4091 
Q 3347 4238 2956 4238 
Q 2422 4238 2017 3981 
Q 1613 3725 1319 3200 
Q 1131 2863 1032 2486 
Q 934 2109 934 1728 
Q 934 1091 1264 756 
Q 1594 422 2222 422 
Q 2656 422 3056 561 
Q 3456 700 3834 978 
L 3688 231 
Q 3316 72 2936 -9 
Q 2556 -91 2175 -91 
Q 1278 -91 773 396 
Q 269 884 269 1753 
Q 269 2309 461 2846 
Q 653 3384 1013 3828 
Q 1394 4300 1883 4525 
Q 2372 4750 3022 4750 
Q 3422 4750 3780 4639 
Q 4138 4528 4447 4306 
z
" transform="scale(0.015625)"/>
       <path id="DejaVuSans-Oblique-4c" d="M 1075 4666 
L 1709 4666 
L 909 525 
L 3181 525 
L 3078 0 
L 172 0 
L 1075 4666 
z
" transform="scale(0.015625)"/>
       <path id="DejaVuSans-Oblique-41" d="M 2356 4666 
L 3072 4666 
L 3938 0 
L 3278 0 
L 3084 1197 
L 984 1197 
L 325 0 
L -341 0 
L 2356 4666 
z
M 2584 4044 
L 1275 1722 
L 2988 1722 
L 2584 4044 
z
" transform="scale(0.015625)"/>
       <path id="DejaVuSans-Oblique-50" d="M 1081 4666 
L 2541 4666 
Q 3178 4666 3512 4369 
Q 3847 4072 3847 3500 
Q 3847 2731 3353 2303 
Q 2859 1875 1966 1875 
L 1172 1875 
L 806 0 
L 172 0 
L 1081 4666 
z
M 1613 4147 
L 1275 2394 
L 2069 2394 
Q 2606 2394 2893 2669 
Q 3181 2944 3181 3456 
Q 3181 3784 2986 3965 
Q 2791 4147 2438 4147 
L 1613 4147 
z
" transform="scale(0.015625)"/>
       <path id="DejaVuSans-2212" d="M 678 2272 
L 4684 2272 
L 4684 1741 
L 678 1741 
L 678 2272 
z
" transform="scale(0.015625)"/>
       <path id="DejaVuSans-Oblique-53" d="M 3859 4513 
L 3738 3897 
Q 3422 4066 3111 4152 
Q 2800 4238 2509 4238 
Q 1944 4238 1609 3991 
Q 1275 3744 1275 3334 
Q 1275 3109 1398 2989 
Q 1522 2869 2034 2731 
L 2413 2638 
Q 3053 2472 3303 2217 
Q 3553 1963 3553 1503 
Q 3553 797 2998 353 
Q 2444 -91 1538 -91 
Q 1166 -91 791 -17 
Q 416 56 38 206 
L 166 856 
Q 513 641 861 531 
Q 1209 422 1556 422 
Q 2147 422 2503 684 
Q 2859 947 2859 1369 
Q 2859 1650 2717 1795 
Q 2575 1941 2106 2059 
L 1728 2156 
Q 1081 2325 845 2545 
Q 609 2766 609 3163 
Q 609 3859 1145 4304 
Q 1681 4750 2541 4750 
Q 2875 4750 3203 4690 
Q 3531 4631 3859 4513 
z
" transform="scale(0.015625)"/>
       <path id="DejaVuSans-2223" d="M 1350 4934 
L 1850 4934 
L 1850 -1369 
L 1350 -1369 
L 1350 4934 
z
" transform="scale(0.015625)"/>
       <path id="STIXNonUnicode-Italic-e235" d="M 3782 4237 
L 3744 4083 
Q 3482 4083 3347 4067 
Q 3213 4051 3069 3977 
Q 2925 3904 2838 3753 
Q 2752 3603 2675 3334 
L 1920 710 
Q 1901 634 1901 557 
Q 1901 352 2208 352 
Q 2790 352 3283 819 
L 3398 698 
Q 3008 320 2566 160 
Q 2125 0 1549 0 
L 243 0 
L 282 154 
Q 467 154 556 160 
Q 646 166 777 201 
Q 909 237 982 310 
Q 1056 384 1139 521 
Q 1222 659 1280 870 
L 1946 3187 
Q 2061 3590 2061 3674 
Q 2061 3878 1754 3878 
Q 1523 3878 1203 3750 
Q 883 3622 678 3411 
L 570 3533 
Q 947 3904 1385 4070 
Q 1824 4237 2579 4237 
L 3782 4237 
z
" transform="scale(0.015625)"/>
       <path id="DejaVuSans-29" d="M 513 4856 
L 1013 4856 
Q 1481 4119 1714 3412 
Q 1947 2706 1947 2009 
Q 1947 1309 1714 600 
Q 1481 -109 1013 -844 
L 513 -844 
Q 928 -128 1133 580 
Q 1338 1288 1338 2009 
Q 1338 2731 1133 3434 
Q 928 4138 513 4856 
z
" transform="scale(0.015625)"/>
      </defs>
      <use xlink:href="#DejaVuSans-394" transform="translate(0 0.90625)"/>
      <use xlink:href="#DejaVuSans-Oblique-4e" transform="translate(68.408203 0.90625)"/>
      <use xlink:href="#DejaVuSans-Oblique-44" transform="translate(143.212891 -15.5) scale(0.7)"/>
      <use xlink:href="#DejaVuSans-28" transform="translate(199.848633 0.90625)"/>
      <use xlink:href="#DejaVuSans-Oblique-43" transform="translate(238.862305 0.90625)"/>
      <use xlink:href="#DejaVuSans-Oblique-4c" transform="translate(308.686523 0.90625)"/>
      <use xlink:href="#DejaVuSans-Oblique-41" transform="translate(364.399414 0.90625)"/>
      <use xlink:href="#DejaVuSans-Oblique-50" transform="translate(432.807617 0.90625)"/>
      <use xlink:href="#DejaVuSans-2212" transform="translate(512.592773 0.90625)"/>
      <use xlink:href="#DejaVuSans-Oblique-53" transform="translate(615.864258 0.90625)"/>
      <use xlink:href="#DejaVuSans-2223" transform="translate(698.823242 0.90625)"/>
      <use xlink:href="#STIXNonUnicode-Italic-e235" transform="translate(768.305664 0.90625)"/>
      <use xlink:href="#DejaVuSans-29" transform="translate(825.805649 0.90625)"/>
     </g>
    </g>
    <g id="line2d_63">
     <path d="M 468.05475 68.2 
L 488.05475 68.2 
L 508.05475 68.2 
" style="fill: none; stroke: #ffbd00; stroke-width: 1.5; stroke-linecap: square"/>
     <defs>
      <path id="m238401c56b" d="M -3 3 
L 3 3 
L 3 -3 
L -3 -3 
z
" style="stroke: #ffbd00; stroke-linejoin: miter"/>
     </defs>
     <g>
      <use xlink:href="#m238401c56b" x="488.05475" y="68.2" style="fill: #ffbd00; stroke: #ffbd00; stroke-linejoin: miter"/>
     </g>
    </g>
    <g id="text_7">
     <!-- $\Delta N_D(RSU \mid \mathcal{I})$ -->
     <g transform="translate(524.05475 75.2) scale(0.2 -0.2)">
      <defs>
       <path id="DejaVuSans-Oblique-52" d="M 1613 4147 
L 1294 2491 
L 2106 2491 
Q 2584 2491 2879 2755 
Q 3175 3019 3175 3444 
Q 3175 3784 2976 3965 
Q 2778 4147 2406 4147 
L 1613 4147 
z
M 2772 2241 
Q 2972 2194 3105 2009 
Q 3238 1825 3413 1275 
L 3809 0 
L 3144 0 
L 2778 1197 
Q 2638 1659 2453 1815 
Q 2269 1972 1888 1972 
L 1191 1972 
L 806 0 
L 172 0 
L 1081 4666 
L 2503 4666 
Q 3150 4666 3495 4373 
Q 3841 4081 3841 3531 
Q 3841 3044 3547 2687 
Q 3253 2331 2772 2241 
z
" transform="scale(0.015625)"/>
       <path id="DejaVuSans-Oblique-55" d="M 991 4666 
L 1625 4666 
L 1075 1831 
Q 1041 1641 1027 1517 
Q 1013 1394 1013 1300 
Q 1013 869 1253 645 
Q 1494 422 1959 422 
Q 2563 422 2898 753 
Q 3234 1084 3378 1831 
L 3928 4666 
L 4563 4666 
L 4000 1753 
Q 3816 809 3300 359 
Q 2784 -91 1888 -91 
Q 1188 -91 780 261 
Q 372 613 372 1216 
Q 372 1325 387 1461 
Q 403 1597 434 1753 
L 991 4666 
z
" transform="scale(0.015625)"/>
      </defs>
      <use xlink:href="#DejaVuSans-394" transform="translate(0 0.90625)"/>
      <use xlink:href="#DejaVuSans-Oblique-4e" transform="translate(68.408203 0.90625)"/>
      <use xlink:href="#DejaVuSans-Oblique-44" transform="translate(143.212891 -15.5) scale(0.7)"/>
      <use xlink:href="#DejaVuSans-28" transform="translate(199.848633 0.90625)"/>
      <use xlink:href="#DejaVuSans-Oblique-52" transform="translate(238.862305 0.90625)"/>
      <use xlink:href="#DejaVuSans-Oblique-53" transform="translate(308.344727 0.90625)"/>
      <use xlink:href="#DejaVuSans-Oblique-55" transform="translate(371.821289 0.90625)"/>
      <use xlink:href="#DejaVuSans-2223" transform="translate(464.49707 0.90625)"/>
      <use xlink:href="#STIXNonUnicode-Italic-e235" transform="translate(533.979492 0.90625)"/>
      <use xlink:href="#DejaVuSans-29" transform="translate(591.479477 0.90625)"/>
     </g>
    </g>
   </g>
   <g id="line2d_64">
    <path d="M 130.385212 56.490737 
L 199.431365 51.772401 
L 268.477519 45.965217 
L 337.523673 55.038941 
L 406.569827 53.224197 
L 475.615981 48.142911 
L 544.662135 49.957656 
L 613.708288 61.769995 
" clip-path="url(#p46d43a8514)" style="fill: none; stroke: #d55b00; stroke-width: 1.5; stroke-linecap: square"/>
    <defs>
     <path id="m1ff04027c3" d="M 0 -4 
L -4 4 
L 4 4 
z
" style="stroke: #d55b00; stroke-linejoin: miter"/>
    </defs>
    <g clip-path="url(#p46d43a8514)">
     <use xlink:href="#m1ff04027c3" x="130.385212" y="56.490737" style="fill: #d55b00; stroke: #d55b00; stroke-linejoin: miter"/>
     <use xlink:href="#m1ff04027c3" x="199.431365" y="51.772401" style="fill: #d55b00; stroke: #d55b00; stroke-linejoin: miter"/>
     <use xlink:href="#m1ff04027c3" x="268.477519" y="45.965217" style="fill: #d55b00; stroke: #d55b00; stroke-linejoin: miter"/>
     <use xlink:href="#m1ff04027c3" x="337.523673" y="55.038941" style="fill: #d55b00; stroke: #d55b00; stroke-linejoin: miter"/>
     <use xlink:href="#m1ff04027c3" x="406.569827" y="53.224197" style="fill: #d55b00; stroke: #d55b00; stroke-linejoin: miter"/>
     <use xlink:href="#m1ff04027c3" x="475.615981" y="48.142911" style="fill: #d55b00; stroke: #d55b00; stroke-linejoin: miter"/>
     <use xlink:href="#m1ff04027c3" x="544.662135" y="49.957656" style="fill: #d55b00; stroke: #d55b00; stroke-linejoin: miter"/>
     <use xlink:href="#m1ff04027c3" x="613.708288" y="61.769995" style="fill: #d55b00; stroke: #d55b00; stroke-linejoin: miter"/>
    </g>
   </g>
  </g>
  <g id="axes_2">
   <g id="patch_17">
    <path d="M 75.83875 480.72 
L 668.25475 480.72 
L 668.25475 287.885217 
L 75.83875 287.885217 
z
" style="fill: #ffffff"/>
   </g>
   <g id="matplotlib.axis_3">
    <g id="xtick_9">
     <g id="line2d_65">
      <g>
       <use xlink:href="#m6bd402a21f" x="130.385212" y="480.72" style="stroke: #000000; stroke-width: 0.8"/>
      </g>
     </g>
     <g id="text_8">
      <!-- 0.1~0.2 -->
      <g transform="translate(100.969127 568.812773) rotate(-45) scale(0.24 -0.24)">
       <defs>
        <path id="DejaVuSans-2e" d="M 684 794 
L 1344 794 
L 1344 0 
L 684 0 
L 684 794 
z
" transform="scale(0.015625)"/>
        <path id="DejaVuSans-7e" d="M 4684 2553 
L 4684 1997 
Q 4356 1750 4076 1644 
Q 3797 1538 3494 1538 
Q 3150 1538 2694 1722 
Q 2659 1734 2644 1741 
Q 2622 1750 2575 1766 
Q 2091 1959 1797 1959 
Q 1522 1959 1253 1839 
Q 984 1719 678 1459 
L 678 2016 
Q 1006 2263 1286 2370 
Q 1566 2478 1869 2478 
Q 2213 2478 2672 2291 
Q 2703 2278 2719 2272 
Q 2744 2263 2788 2247 
Q 3272 2053 3566 2053 
Q 3834 2053 4098 2172 
Q 4363 2291 4684 2553 
z
" transform="scale(0.015625)"/>
       </defs>
       <use xlink:href="#DejaVuSans-30"/>
       <use xlink:href="#DejaVuSans-2e" x="63.623047"/>
       <use xlink:href="#DejaVuSans-31" x="95.410156"/>
       <use xlink:href="#DejaVuSans-7e" x="159.033203"/>
       <use xlink:href="#DejaVuSans-30" x="242.822266"/>
       <use xlink:href="#DejaVuSans-2e" x="306.445312"/>
       <use xlink:href="#DejaVuSans-32" x="338.232422"/>
      </g>
     </g>
    </g>
    <g id="xtick_10">
     <g id="line2d_66">
      <g>
       <use xlink:href="#m6bd402a21f" x="199.431365" y="480.72" style="stroke: #000000; stroke-width: 0.8"/>
      </g>
     </g>
     <g id="text_9">
      <!-- 0.2~0.3 -->
      <g transform="translate(170.015281 568.812773) rotate(-45) scale(0.24 -0.24)">
       <defs>
        <path id="DejaVuSans-33" d="M 2597 2516 
Q 3050 2419 3304 2112 
Q 3559 1806 3559 1356 
Q 3559 666 3084 287 
Q 2609 -91 1734 -91 
Q 1441 -91 1130 -33 
Q 819 25 488 141 
L 488 750 
Q 750 597 1062 519 
Q 1375 441 1716 441 
Q 2309 441 2620 675 
Q 2931 909 2931 1356 
Q 2931 1769 2642 2001 
Q 2353 2234 1838 2234 
L 1294 2234 
L 1294 2753 
L 1863 2753 
Q 2328 2753 2575 2939 
Q 2822 3125 2822 3475 
Q 2822 3834 2567 4026 
Q 2313 4219 1838 4219 
Q 1578 4219 1281 4162 
Q 984 4106 628 3988 
L 628 4550 
Q 988 4650 1302 4700 
Q 1616 4750 1894 4750 
Q 2613 4750 3031 4423 
Q 3450 4097 3450 3541 
Q 3450 3153 3228 2886 
Q 3006 2619 2597 2516 
z
" transform="scale(0.015625)"/>
       </defs>
       <use xlink:href="#DejaVuSans-30"/>
       <use xlink:href="#DejaVuSans-2e" x="63.623047"/>
       <use xlink:href="#DejaVuSans-32" x="95.410156"/>
       <use xlink:href="#DejaVuSans-7e" x="159.033203"/>
       <use xlink:href="#DejaVuSans-30" x="242.822266"/>
       <use xlink:href="#DejaVuSans-2e" x="306.445312"/>
       <use xlink:href="#DejaVuSans-33" x="338.232422"/>
      </g>
     </g>
    </g>
    <g id="xtick_11">
     <g id="line2d_67">
      <g>
       <use xlink:href="#m6bd402a21f" x="268.477519" y="480.72" style="stroke: #000000; stroke-width: 0.8"/>
      </g>
     </g>
     <g id="text_10">
      <!-- 0.3~0.4 -->
      <g transform="translate(239.061435 568.812773) rotate(-45) scale(0.24 -0.24)">
       <use xlink:href="#DejaVuSans-30"/>
       <use xlink:href="#DejaVuSans-2e" x="63.623047"/>
       <use xlink:href="#DejaVuSans-33" x="95.410156"/>
       <use xlink:href="#DejaVuSans-7e" x="159.033203"/>
       <use xlink:href="#DejaVuSans-30" x="242.822266"/>
       <use xlink:href="#DejaVuSans-2e" x="306.445312"/>
       <use xlink:href="#DejaVuSans-34" x="338.232422"/>
      </g>
     </g>
    </g>
    <g id="xtick_12">
     <g id="line2d_68">
      <g>
       <use xlink:href="#m6bd402a21f" x="337.523673" y="480.72" style="stroke: #000000; stroke-width: 0.8"/>
      </g>
     </g>
     <g id="text_11">
      <!-- 0.4~0.5 -->
      <g transform="translate(308.107589 568.812773) rotate(-45) scale(0.24 -0.24)">
       <defs>
        <path id="DejaVuSans-35" d="M 691 4666 
L 3169 4666 
L 3169 4134 
L 1269 4134 
L 1269 2991 
Q 1406 3038 1543 3061 
Q 1681 3084 1819 3084 
Q 2600 3084 3056 2656 
Q 3513 2228 3513 1497 
Q 3513 744 3044 326 
Q 2575 -91 1722 -91 
Q 1428 -91 1123 -41 
Q 819 9 494 109 
L 494 744 
Q 775 591 1075 516 
Q 1375 441 1709 441 
Q 2250 441 2565 725 
Q 2881 1009 2881 1497 
Q 2881 1984 2565 2268 
Q 2250 2553 1709 2553 
Q 1456 2553 1204 2497 
Q 953 2441 691 2322 
L 691 4666 
z
" transform="scale(0.015625)"/>
       </defs>
       <use xlink:href="#DejaVuSans-30"/>
       <use xlink:href="#DejaVuSans-2e" x="63.623047"/>
       <use xlink:href="#DejaVuSans-34" x="95.410156"/>
       <use xlink:href="#DejaVuSans-7e" x="159.033203"/>
       <use xlink:href="#DejaVuSans-30" x="242.822266"/>
       <use xlink:href="#DejaVuSans-2e" x="306.445312"/>
       <use xlink:href="#DejaVuSans-35" x="338.232422"/>
      </g>
     </g>
    </g>
    <g id="xtick_13">
     <g id="line2d_69">
      <g>
       <use xlink:href="#m6bd402a21f" x="406.569827" y="480.72" style="stroke: #000000; stroke-width: 0.8"/>
      </g>
     </g>
     <g id="text_12">
      <!-- 0.5~0.6 -->
      <g transform="translate(377.153743 568.812773) rotate(-45) scale(0.24 -0.24)">
       <defs>
        <path id="DejaVuSans-36" d="M 2113 2584 
Q 1688 2584 1439 2293 
Q 1191 2003 1191 1497 
Q 1191 994 1439 701 
Q 1688 409 2113 409 
Q 2538 409 2786 701 
Q 3034 994 3034 1497 
Q 3034 2003 2786 2293 
Q 2538 2584 2113 2584 
z
M 3366 4563 
L 3366 3988 
Q 3128 4100 2886 4159 
Q 2644 4219 2406 4219 
Q 1781 4219 1451 3797 
Q 1122 3375 1075 2522 
Q 1259 2794 1537 2939 
Q 1816 3084 2150 3084 
Q 2853 3084 3261 2657 
Q 3669 2231 3669 1497 
Q 3669 778 3244 343 
Q 2819 -91 2113 -91 
Q 1303 -91 875 529 
Q 447 1150 447 2328 
Q 447 3434 972 4092 
Q 1497 4750 2381 4750 
Q 2619 4750 2861 4703 
Q 3103 4656 3366 4563 
z
" transform="scale(0.015625)"/>
       </defs>
       <use xlink:href="#DejaVuSans-30"/>
       <use xlink:href="#DejaVuSans-2e" x="63.623047"/>
       <use xlink:href="#DejaVuSans-35" x="95.410156"/>
       <use xlink:href="#DejaVuSans-7e" x="159.033203"/>
       <use xlink:href="#DejaVuSans-30" x="242.822266"/>
       <use xlink:href="#DejaVuSans-2e" x="306.445312"/>
       <use xlink:href="#DejaVuSans-36" x="338.232422"/>
      </g>
     </g>
    </g>
    <g id="xtick_14">
     <g id="line2d_70">
      <g>
       <use xlink:href="#m6bd402a21f" x="475.615981" y="480.72" style="stroke: #000000; stroke-width: 0.8"/>
      </g>
     </g>
     <g id="text_13">
      <!-- 0.6~0.7 -->
      <g transform="translate(446.199897 568.812773) rotate(-45) scale(0.24 -0.24)">
       <defs>
        <path id="DejaVuSans-37" d="M 525 4666 
L 3525 4666 
L 3525 4397 
L 1831 0 
L 1172 0 
L 2766 4134 
L 525 4134 
L 525 4666 
z
" transform="scale(0.015625)"/>
       </defs>
       <use xlink:href="#DejaVuSans-30"/>
       <use xlink:href="#DejaVuSans-2e" x="63.623047"/>
       <use xlink:href="#DejaVuSans-36" x="95.410156"/>
       <use xlink:href="#DejaVuSans-7e" x="159.033203"/>
       <use xlink:href="#DejaVuSans-30" x="242.822266"/>
       <use xlink:href="#DejaVuSans-2e" x="306.445312"/>
       <use xlink:href="#DejaVuSans-37" x="338.232422"/>
      </g>
     </g>
    </g>
    <g id="xtick_15">
     <g id="line2d_71">
      <g>
       <use xlink:href="#m6bd402a21f" x="544.662135" y="480.72" style="stroke: #000000; stroke-width: 0.8"/>
      </g>
     </g>
     <g id="text_14">
      <!-- 0.7~0.8 -->
      <g transform="translate(515.246051 568.812773) rotate(-45) scale(0.24 -0.24)">
       <defs>
        <path id="DejaVuSans-38" d="M 2034 2216 
Q 1584 2216 1326 1975 
Q 1069 1734 1069 1313 
Q 1069 891 1326 650 
Q 1584 409 2034 409 
Q 2484 409 2743 651 
Q 3003 894 3003 1313 
Q 3003 1734 2745 1975 
Q 2488 2216 2034 2216 
z
M 1403 2484 
Q 997 2584 770 2862 
Q 544 3141 544 3541 
Q 544 4100 942 4425 
Q 1341 4750 2034 4750 
Q 2731 4750 3128 4425 
Q 3525 4100 3525 3541 
Q 3525 3141 3298 2862 
Q 3072 2584 2669 2484 
Q 3125 2378 3379 2068 
Q 3634 1759 3634 1313 
Q 3634 634 3220 271 
Q 2806 -91 2034 -91 
Q 1263 -91 848 271 
Q 434 634 434 1313 
Q 434 1759 690 2068 
Q 947 2378 1403 2484 
z
M 1172 3481 
Q 1172 3119 1398 2916 
Q 1625 2713 2034 2713 
Q 2441 2713 2670 2916 
Q 2900 3119 2900 3481 
Q 2900 3844 2670 4047 
Q 2441 4250 2034 4250 
Q 1625 4250 1398 4047 
Q 1172 3844 1172 3481 
z
" transform="scale(0.015625)"/>
       </defs>
       <use xlink:href="#DejaVuSans-30"/>
       <use xlink:href="#DejaVuSans-2e" x="63.623047"/>
       <use xlink:href="#DejaVuSans-37" x="95.410156"/>
       <use xlink:href="#DejaVuSans-7e" x="159.033203"/>
       <use xlink:href="#DejaVuSans-30" x="242.822266"/>
       <use xlink:href="#DejaVuSans-2e" x="306.445312"/>
       <use xlink:href="#DejaVuSans-38" x="338.232422"/>
      </g>
     </g>
    </g>
    <g id="xtick_16">
     <g id="line2d_72">
      <g>
       <use xlink:href="#m6bd402a21f" x="613.708288" y="480.72" style="stroke: #000000; stroke-width: 0.8"/>
      </g>
     </g>
     <g id="text_15">
      <!-- 0.8~0.9 -->
      <g transform="translate(584.292204 568.812773) rotate(-45) scale(0.24 -0.24)">
       <defs>
        <path id="DejaVuSans-39" d="M 703 97 
L 703 672 
Q 941 559 1184 500 
Q 1428 441 1663 441 
Q 2288 441 2617 861 
Q 2947 1281 2994 2138 
Q 2813 1869 2534 1725 
Q 2256 1581 1919 1581 
Q 1219 1581 811 2004 
Q 403 2428 403 3163 
Q 403 3881 828 4315 
Q 1253 4750 1959 4750 
Q 2769 4750 3195 4129 
Q 3622 3509 3622 2328 
Q 3622 1225 3098 567 
Q 2575 -91 1691 -91 
Q 1453 -91 1209 -44 
Q 966 3 703 97 
z
M 1959 2075 
Q 2384 2075 2632 2365 
Q 2881 2656 2881 3163 
Q 2881 3666 2632 3958 
Q 2384 4250 1959 4250 
Q 1534 4250 1286 3958 
Q 1038 3666 1038 3163 
Q 1038 2656 1286 2365 
Q 1534 2075 1959 2075 
z
" transform="scale(0.015625)"/>
       </defs>
       <use xlink:href="#DejaVuSans-30"/>
       <use xlink:href="#DejaVuSans-2e" x="63.623047"/>
       <use xlink:href="#DejaVuSans-38" x="95.410156"/>
       <use xlink:href="#DejaVuSans-7e" x="159.033203"/>
       <use xlink:href="#DejaVuSans-30" x="242.822266"/>
       <use xlink:href="#DejaVuSans-2e" x="306.445312"/>
       <use xlink:href="#DejaVuSans-39" x="338.232422"/>
      </g>
     </g>
    </g>
    <g id="text_16">
     <!-- Network Overlap Ratio $\rho$ Group -->
     <g transform="translate(152.66675 597.62212) scale(0.28 -0.28)">
      <defs>
       <path id="DejaVuSans-4f" d="M 2522 4238 
Q 1834 4238 1429 3725 
Q 1025 3213 1025 2328 
Q 1025 1447 1429 934 
Q 1834 422 2522 422 
Q 3209 422 3611 934 
Q 4013 1447 4013 2328 
Q 4013 3213 3611 3725 
Q 3209 4238 2522 4238 
z
M 2522 4750 
Q 3503 4750 4090 4092 
Q 4678 3434 4678 2328 
Q 4678 1225 4090 567 
Q 3503 -91 2522 -91 
Q 1538 -91 948 565 
Q 359 1222 359 2328 
Q 359 3434 948 4092 
Q 1538 4750 2522 4750 
z
" transform="scale(0.015625)"/>
       <path id="DejaVuSans-76" d="M 191 3500 
L 800 3500 
L 1894 563 
L 2988 3500 
L 3597 3500 
L 2284 0 
L 1503 0 
L 191 3500 
z
" transform="scale(0.015625)"/>
       <path id="DejaVuSans-6c" d="M 603 4863 
L 1178 4863 
L 1178 0 
L 603 0 
L 603 4863 
z
" transform="scale(0.015625)"/>
       <path id="DejaVuSans-61" d="M 2194 1759 
Q 1497 1759 1228 1600 
Q 959 1441 959 1056 
Q 959 750 1161 570 
Q 1363 391 1709 391 
Q 2188 391 2477 730 
Q 2766 1069 2766 1631 
L 2766 1759 
L 2194 1759 
z
M 3341 1997 
L 3341 0 
L 2766 0 
L 2766 531 
Q 2569 213 2275 61 
Q 1981 -91 1556 -91 
Q 1019 -91 701 211 
Q 384 513 384 1019 
Q 384 1609 779 1909 
Q 1175 2209 1959 2209 
L 2766 2209 
L 2766 2266 
Q 2766 2663 2505 2880 
Q 2244 3097 1772 3097 
Q 1472 3097 1187 3025 
Q 903 2953 641 2809 
L 641 3341 
Q 956 3463 1253 3523 
Q 1550 3584 1831 3584 
Q 2591 3584 2966 3190 
Q 3341 2797 3341 1997 
z
" transform="scale(0.015625)"/>
       <path id="DejaVuSans-70" d="M 1159 525 
L 1159 -1331 
L 581 -1331 
L 581 3500 
L 1159 3500 
L 1159 2969 
Q 1341 3281 1617 3432 
Q 1894 3584 2278 3584 
Q 2916 3584 3314 3078 
Q 3713 2572 3713 1747 
Q 3713 922 3314 415 
Q 2916 -91 2278 -91 
Q 1894 -91 1617 61 
Q 1341 213 1159 525 
z
M 3116 1747 
Q 3116 2381 2855 2742 
Q 2594 3103 2138 3103 
Q 1681 3103 1420 2742 
Q 1159 2381 1159 1747 
Q 1159 1113 1420 752 
Q 1681 391 2138 391 
Q 2594 391 2855 752 
Q 3116 1113 3116 1747 
z
" transform="scale(0.015625)"/>
       <path id="DejaVuSans-69" d="M 603 3500 
L 1178 3500 
L 1178 0 
L 603 0 
L 603 3500 
z
M 603 4863 
L 1178 4863 
L 1178 4134 
L 603 4134 
L 603 4863 
z
" transform="scale(0.015625)"/>
       <path id="DejaVuSans-Oblique-3c1" d="M 1203 2875 
Q 1453 3194 1981 3475 
Q 2188 3584 2756 3584 
Q 3394 3584 3694 3078 
Q 3994 2572 3834 1747 
Q 3672 922 3175 415 
Q 2678 -91 2041 -91 
Q 1656 -91 1409 63 
Q 1163 213 1044 525 
L 681 -1331 
L 103 -1331 
L 697 1716 
Q 838 2438 1203 2875 
z
M 3238 1747 
Q 3359 2381 3169 2744 
Q 2978 3103 2522 3103 
Q 2066 3103 1734 2744 
Q 1403 2381 1281 1747 
Q 1156 1113 1347 750 
Q 1538 391 1994 391 
Q 2450 391 2781 750 
Q 3113 1113 3238 1747 
z
" transform="scale(0.015625)"/>
       <path id="DejaVuSans-47" d="M 3809 666 
L 3809 1919 
L 2778 1919 
L 2778 2438 
L 4434 2438 
L 4434 434 
Q 4069 175 3628 42 
Q 3188 -91 2688 -91 
Q 1594 -91 976 548 
Q 359 1188 359 2328 
Q 359 3472 976 4111 
Q 1594 4750 2688 4750 
Q 3144 4750 3555 4637 
Q 3966 4525 4313 4306 
L 4313 3634 
Q 3963 3931 3569 4081 
Q 3175 4231 2741 4231 
Q 1884 4231 1454 3753 
Q 1025 3275 1025 2328 
Q 1025 1384 1454 906 
Q 1884 428 2741 428 
Q 3075 428 3337 486 
Q 3600 544 3809 666 
z
" transform="scale(0.015625)"/>
       <path id="DejaVuSans-75" d="M 544 1381 
L 544 3500 
L 1119 3500 
L 1119 1403 
Q 1119 906 1312 657 
Q 1506 409 1894 409 
Q 2359 409 2629 706 
Q 2900 1003 2900 1516 
L 2900 3500 
L 3475 3500 
L 3475 0 
L 2900 0 
L 2900 538 
Q 2691 219 2414 64 
Q 2138 -91 1772 -91 
Q 1169 -91 856 284 
Q 544 659 544 1381 
z
M 1991 3584 
L 1991 3584 
z
" transform="scale(0.015625)"/>
      </defs>
      <use xlink:href="#DejaVuSans-4e" transform="translate(0 0.015625)"/>
      <use xlink:href="#DejaVuSans-65" transform="translate(74.804688 0.015625)"/>
      <use xlink:href="#DejaVuSans-74" transform="translate(136.328125 0.015625)"/>
      <use xlink:href="#DejaVuSans-77" transform="translate(175.537109 0.015625)"/>
      <use xlink:href="#DejaVuSans-6f" transform="translate(257.324219 0.015625)"/>
      <use xlink:href="#DejaVuSans-72" transform="translate(318.505859 0.015625)"/>
      <use xlink:href="#DejaVuSans-6b" transform="translate(359.619141 0.015625)"/>
      <use xlink:href="#DejaVuSans-20" transform="translate(417.529297 0.015625)"/>
      <use xlink:href="#DejaVuSans-4f" transform="translate(449.316406 0.015625)"/>
      <use xlink:href="#DejaVuSans-76" transform="translate(528.027344 0.015625)"/>
      <use xlink:href="#DejaVuSans-65" transform="translate(587.207031 0.015625)"/>
      <use xlink:href="#DejaVuSans-72" transform="translate(648.730469 0.015625)"/>
      <use xlink:href="#DejaVuSans-6c" transform="translate(689.84375 0.015625)"/>
      <use xlink:href="#DejaVuSans-61" transform="translate(717.626953 0.015625)"/>
      <use xlink:href="#DejaVuSans-70" transform="translate(778.90625 0.015625)"/>
      <use xlink:href="#DejaVuSans-20" transform="translate(842.382812 0.015625)"/>
      <use xlink:href="#DejaVuSans-52" transform="translate(874.169922 0.015625)"/>
      <use xlink:href="#DejaVuSans-61" transform="translate(943.652344 0.015625)"/>
      <use xlink:href="#DejaVuSans-74" transform="translate(1004.931641 0.015625)"/>
      <use xlink:href="#DejaVuSans-69" transform="translate(1044.140625 0.015625)"/>
      <use xlink:href="#DejaVuSans-6f" transform="translate(1071.923828 0.015625)"/>
      <use xlink:href="#DejaVuSans-20" transform="translate(1133.105469 0.015625)"/>
      <use xlink:href="#DejaVuSans-Oblique-3c1" transform="translate(1164.892578 0.015625)"/>
      <use xlink:href="#DejaVuSans-20" transform="translate(1228.369141 0.015625)"/>
      <use xlink:href="#DejaVuSans-47" transform="translate(1260.15625 0.015625)"/>
      <use xlink:href="#DejaVuSans-72" transform="translate(1337.646484 0.015625)"/>
      <use xlink:href="#DejaVuSans-6f" transform="translate(1378.759766 0.015625)"/>
      <use xlink:href="#DejaVuSans-75" transform="translate(1439.941406 0.015625)"/>
      <use xlink:href="#DejaVuSans-70" transform="translate(1503.320312 0.015625)"/>
     </g>
    </g>
   </g>
   <g id="matplotlib.axis_4">
    <g id="ytick_3">
     <g id="line2d_73">
      <path d="M 75.83875 449.353561 
L 668.25475 449.353561 
" clip-path="url(#pdb1ff06208)" style="fill: none; stroke-dasharray: 2.59,1.12; stroke-dashoffset: 0; stroke: #b0b0b0; stroke-opacity: 0.6; stroke-width: 0.7"/>
     </g>
     <g id="line2d_74">
      <g>
       <use xlink:href="#mb1301756e0" x="75.83875" y="449.353561" style="stroke: #000000; stroke-width: 0.8"/>
      </g>
     </g>
     <g id="text_17">
      <!-- 20 -->
      <g transform="translate(38.29875 458.471686) scale(0.24 -0.24)">
       <use xlink:href="#DejaVuSans-32"/>
       <use xlink:href="#DejaVuSans-30" x="63.623047"/>
      </g>
     </g>
    </g>
    <g id="ytick_4">
     <g id="line2d_75">
      <path d="M 75.83875 391.40171 
L 668.25475 391.40171 
" clip-path="url(#pdb1ff06208)" style="fill: none; stroke-dasharray: 2.59,1.12; stroke-dashoffset: 0; stroke: #b0b0b0; stroke-opacity: 0.6; stroke-width: 0.7"/>
     </g>
     <g id="line2d_76">
      <g>
       <use xlink:href="#mb1301756e0" x="75.83875" y="391.40171" style="stroke: #000000; stroke-width: 0.8"/>
      </g>
     </g>
     <g id="text_18">
      <!-- 40 -->
      <g transform="translate(38.29875 400.519835) scale(0.24 -0.24)">
       <use xlink:href="#DejaVuSans-34"/>
       <use xlink:href="#DejaVuSans-30" x="63.623047"/>
      </g>
     </g>
    </g>
    <g id="ytick_5">
     <g id="line2d_77">
      <path d="M 75.83875 333.44986 
L 668.25475 333.44986 
" clip-path="url(#pdb1ff06208)" style="fill: none; stroke-dasharray: 2.59,1.12; stroke-dashoffset: 0; stroke: #b0b0b0; stroke-opacity: 0.6; stroke-width: 0.7"/>
     </g>
     <g id="line2d_78">
      <g>
       <use xlink:href="#mb1301756e0" x="75.83875" y="333.44986" style="stroke: #000000; stroke-width: 0.8"/>
      </g>
     </g>
     <g id="text_19">
      <!-- 60 -->
      <g transform="translate(38.29875 342.567985) scale(0.24 -0.24)">
       <use xlink:href="#DejaVuSans-36"/>
       <use xlink:href="#DejaVuSans-30" x="63.623047"/>
      </g>
     </g>
    </g>
    <g id="text_20">
     <!-- $\Delta N_{D}$ -->
     <g transform="translate(28.475625 412.302609) rotate(-90) scale(0.28 -0.28)">
      <use xlink:href="#DejaVuSans-394" transform="translate(0 0.09375)"/>
      <use xlink:href="#DejaVuSans-Oblique-4e" transform="translate(68.408203 0.09375)"/>
      <use xlink:href="#DejaVuSans-Oblique-44" transform="translate(143.212891 -16.3125) scale(0.7)"/>
     </g>
    </g>
   </g>
   <g id="patch_18">
    <path d="M 102.76675 350.835415 
L 158.003673 350.835415 
L 158.003673 331.276665 
L 102.76675 331.276665 
L 102.76675 350.835415 
z
" clip-path="url(#pdb1ff06208)" style="fill: #124d82; stroke: #000000; stroke-linejoin: miter"/>
   </g>
   <g id="line2d_79">
    <path d="M 130.385212 350.835415 
L 130.385212 356.6306 
" clip-path="url(#pdb1ff06208)" style="fill: none; stroke: #000000"/>
   </g>
   <g id="line2d_80">
    <path d="M 130.385212 331.276665 
L 130.385212 327.654675 
" clip-path="url(#pdb1ff06208)" style="fill: none; stroke: #000000"/>
   </g>
   <g id="line2d_81">
    <path d="M 116.575981 356.6306 
L 144.194442 356.6306 
" clip-path="url(#pdb1ff06208)" style="fill: none; stroke: #000000; stroke-linecap: square"/>
   </g>
   <g id="line2d_82">
    <path d="M 116.575981 327.654675 
L 144.194442 327.654675 
" clip-path="url(#pdb1ff06208)" style="fill: none; stroke: #000000; stroke-linecap: square"/>
   </g>
   <g id="line2d_83"/>
   <g id="patch_19">
    <path d="M 171.812904 346.489026 
L 227.049827 346.489026 
L 227.049827 330.552267 
L 171.812904 330.552267 
L 171.812904 346.489026 
z
" clip-path="url(#pdb1ff06208)" style="fill: #124d82; stroke: #000000; stroke-linejoin: miter"/>
   </g>
   <g id="line2d_84">
    <path d="M 199.431365 346.489026 
L 199.431365 362.425785 
" clip-path="url(#pdb1ff06208)" style="fill: none; stroke: #000000"/>
   </g>
   <g id="line2d_85">
    <path d="M 199.431365 330.552267 
L 199.431365 313.166712 
" clip-path="url(#pdb1ff06208)" style="fill: none; stroke: #000000"/>
   </g>
   <g id="line2d_86">
    <path d="M 185.622135 362.425785 
L 213.240596 362.425785 
" clip-path="url(#pdb1ff06208)" style="fill: none; stroke: #000000; stroke-linecap: square"/>
   </g>
   <g id="line2d_87">
    <path d="M 185.622135 313.166712 
L 213.240596 313.166712 
" clip-path="url(#pdb1ff06208)" style="fill: none; stroke: #000000; stroke-linecap: square"/>
   </g>
   <g id="line2d_88"/>
   <g id="patch_20">
    <path d="M 240.859058 344.315832 
L 296.095981 344.315832 
L 296.095981 333.44986 
L 240.859058 333.44986 
L 240.859058 344.315832 
z
" clip-path="url(#pdb1ff06208)" style="fill: #124d82; stroke: #000000; stroke-linejoin: miter"/>
   </g>
   <g id="line2d_89">
    <path d="M 268.477519 344.315832 
L 268.477519 347.937822 
" clip-path="url(#pdb1ff06208)" style="fill: none; stroke: #000000"/>
   </g>
   <g id="line2d_90">
    <path d="M 268.477519 333.44986 
L 268.477519 324.757082 
" clip-path="url(#pdb1ff06208)" style="fill: none; stroke: #000000"/>
   </g>
   <g id="line2d_91">
    <path d="M 254.668288 347.937822 
L 282.28675 347.937822 
" clip-path="url(#pdb1ff06208)" style="fill: none; stroke: #000000; stroke-linecap: square"/>
   </g>
   <g id="line2d_92">
    <path d="M 254.668288 324.757082 
L 282.28675 324.757082 
" clip-path="url(#pdb1ff06208)" style="fill: none; stroke: #000000; stroke-linecap: square"/>
   </g>
   <g id="line2d_93"/>
   <g id="patch_21">
    <path d="M 309.905212 347.937822 
L 365.142135 347.937822 
L 365.142135 331.276665 
L 309.905212 331.276665 
L 309.905212 347.937822 
z
" clip-path="url(#pdb1ff06208)" style="fill: #124d82; stroke: #000000; stroke-linejoin: miter"/>
   </g>
   <g id="line2d_94">
    <path d="M 337.523673 347.937822 
L 337.523673 359.528193 
" clip-path="url(#pdb1ff06208)" style="fill: none; stroke: #000000"/>
   </g>
   <g id="line2d_95">
    <path d="M 337.523673 331.276665 
L 337.523673 318.961897 
" clip-path="url(#pdb1ff06208)" style="fill: none; stroke: #000000"/>
   </g>
   <g id="line2d_96">
    <path d="M 323.714442 359.528193 
L 351.332904 359.528193 
" clip-path="url(#pdb1ff06208)" style="fill: none; stroke: #000000; stroke-linecap: square"/>
   </g>
   <g id="line2d_97">
    <path d="M 323.714442 318.961897 
L 351.332904 318.961897 
" clip-path="url(#pdb1ff06208)" style="fill: none; stroke: #000000; stroke-linecap: square"/>
   </g>
   <g id="line2d_98"/>
   <g id="patch_22">
    <path d="M 378.951365 344.315832 
L 434.188288 344.315832 
L 434.188288 331.276665 
L 378.951365 331.276665 
L 378.951365 344.315832 
z
" clip-path="url(#pdb1ff06208)" style="fill: #124d82; stroke: #000000; stroke-linejoin: miter"/>
   </g>
   <g id="line2d_99">
    <path d="M 406.569827 344.315832 
L 406.569827 362.425785 
" clip-path="url(#pdb1ff06208)" style="fill: none; stroke: #000000"/>
   </g>
   <g id="line2d_100">
    <path d="M 406.569827 331.276665 
L 406.569827 327.654675 
" clip-path="url(#pdb1ff06208)" style="fill: none; stroke: #000000"/>
   </g>
   <g id="line2d_101">
    <path d="M 392.760596 362.425785 
L 420.379058 362.425785 
" clip-path="url(#pdb1ff06208)" style="fill: none; stroke: #000000; stroke-linecap: square"/>
   </g>
   <g id="line2d_102">
    <path d="M 392.760596 327.654675 
L 420.379058 327.654675 
" clip-path="url(#pdb1ff06208)" style="fill: none; stroke: #000000; stroke-linecap: square"/>
   </g>
   <g id="line2d_103">
    <defs>
     <path id="ma1edbac28e" d="M 0 1 
C 0.265203 1 0.51958 0.894634 0.707107 0.707107 
C 0.894634 0.51958 1 0.265203 1 0 
C 1 -0.265203 0.894634 -0.51958 0.707107 -0.707107 
C 0.51958 -0.894634 0.265203 -1 0 -1 
C -0.265203 -1 -0.51958 -0.894634 -0.707107 -0.707107 
C -0.894634 -0.51958 -1 -0.265203 -1 0 
C -1 0.265203 -0.894634 0.51958 -0.707107 0.707107 
C -0.51958 0.894634 -0.265203 1 0 1 
z
" style="stroke: #000000"/>
    </defs>
    <g clip-path="url(#pdb1ff06208)">
     <use xlink:href="#ma1edbac28e" x="406.569827" y="365.323378" style="stroke: #000000"/>
    </g>
   </g>
   <g id="patch_23">
    <path d="M 447.997519 347.937822 
L 503.234442 347.937822 
L 503.234442 342.142637 
L 447.997519 342.142637 
L 447.997519 347.937822 
z
" clip-path="url(#pdb1ff06208)" style="fill: #124d82; stroke: #000000; stroke-linejoin: miter"/>
   </g>
   <g id="line2d_104">
    <path d="M 475.615981 347.937822 
L 475.615981 353.733008 
" clip-path="url(#pdb1ff06208)" style="fill: none; stroke: #000000"/>
   </g>
   <g id="line2d_105">
    <path d="M 475.615981 342.142637 
L 475.615981 333.44986 
" clip-path="url(#pdb1ff06208)" style="fill: none; stroke: #000000"/>
   </g>
   <g id="line2d_106">
    <path d="M 461.80675 353.733008 
L 489.425212 353.733008 
" clip-path="url(#pdb1ff06208)" style="fill: none; stroke: #000000; stroke-linecap: square"/>
   </g>
   <g id="line2d_107">
    <path d="M 461.80675 333.44986 
L 489.425212 333.44986 
" clip-path="url(#pdb1ff06208)" style="fill: none; stroke: #000000; stroke-linecap: square"/>
   </g>
   <g id="line2d_108">
    <g clip-path="url(#pdb1ff06208)">
     <use xlink:href="#ma1edbac28e" x="475.615981" y="330.552267" style="stroke: #000000"/>
    </g>
   </g>
   <g id="patch_24">
    <path d="M 517.043673 359.528193 
L 572.280596 359.528193 
L 572.280596 354.457406 
L 517.043673 354.457406 
L 517.043673 359.528193 
z
" clip-path="url(#pdb1ff06208)" style="fill: #124d82; stroke: #000000; stroke-linejoin: miter"/>
   </g>
   <g id="line2d_109">
    <path d="M 544.662135 359.528193 
L 544.662135 362.425785 
" clip-path="url(#pdb1ff06208)" style="fill: none; stroke: #000000"/>
   </g>
   <g id="line2d_110">
    <path d="M 544.662135 354.457406 
L 544.662135 347.937822 
" clip-path="url(#pdb1ff06208)" style="fill: none; stroke: #000000"/>
   </g>
   <g id="line2d_111">
    <path d="M 530.852904 362.425785 
L 558.471365 362.425785 
" clip-path="url(#pdb1ff06208)" style="fill: none; stroke: #000000; stroke-linecap: square"/>
   </g>
   <g id="line2d_112">
    <path d="M 530.852904 347.937822 
L 558.471365 347.937822 
" clip-path="url(#pdb1ff06208)" style="fill: none; stroke: #000000; stroke-linecap: square"/>
   </g>
   <g id="line2d_113"/>
   <g id="patch_25">
    <path d="M 586.089827 368.22097 
L 641.32675 368.22097 
L 641.32675 355.181804 
L 586.089827 355.181804 
L 586.089827 368.22097 
z
" clip-path="url(#pdb1ff06208)" style="fill: #124d82; stroke: #000000; stroke-linejoin: miter"/>
   </g>
   <g id="line2d_114">
    <path d="M 613.708288 368.22097 
L 613.708288 376.913748 
" clip-path="url(#pdb1ff06208)" style="fill: none; stroke: #000000"/>
   </g>
   <g id="line2d_115">
    <path d="M 613.708288 355.181804 
L 613.708288 347.937822 
" clip-path="url(#pdb1ff06208)" style="fill: none; stroke: #000000"/>
   </g>
   <g id="line2d_116">
    <path d="M 599.899058 376.913748 
L 627.517519 376.913748 
" clip-path="url(#pdb1ff06208)" style="fill: none; stroke: #000000; stroke-linecap: square"/>
   </g>
   <g id="line2d_117">
    <path d="M 599.899058 347.937822 
L 627.517519 347.937822 
" clip-path="url(#pdb1ff06208)" style="fill: none; stroke: #000000; stroke-linecap: square"/>
   </g>
   <g id="line2d_118"/>
   <g id="line2d_119">
    <path d="M 102.76675 337.796249 
L 158.003673 337.796249 
" clip-path="url(#pdb1ff06208)" style="fill: none; stroke: #c80723; stroke-width: 2"/>
   </g>
   <g id="line2d_120">
    <path d="M 171.812904 337.796249 
L 227.049827 337.796249 
" clip-path="url(#pdb1ff06208)" style="fill: none; stroke: #c80723; stroke-width: 2"/>
   </g>
   <g id="line2d_121">
    <path d="M 240.859058 337.796249 
L 296.095981 337.796249 
" clip-path="url(#pdb1ff06208)" style="fill: none; stroke: #c80723; stroke-width: 2"/>
   </g>
   <g id="line2d_122">
    <path d="M 309.905212 336.347452 
L 365.142135 336.347452 
" clip-path="url(#pdb1ff06208)" style="fill: none; stroke: #c80723; stroke-width: 2"/>
   </g>
   <g id="line2d_123">
    <path d="M 378.951365 337.796249 
L 434.188288 337.796249 
" clip-path="url(#pdb1ff06208)" style="fill: none; stroke: #c80723; stroke-width: 2"/>
   </g>
   <g id="line2d_124">
    <path d="M 447.997519 343.591434 
L 503.234442 343.591434 
" clip-path="url(#pdb1ff06208)" style="fill: none; stroke: #c80723; stroke-width: 2"/>
   </g>
   <g id="line2d_125">
    <path d="M 517.043673 358.079396 
L 572.280596 358.079396 
" clip-path="url(#pdb1ff06208)" style="fill: none; stroke: #c80723; stroke-width: 2"/>
   </g>
   <g id="line2d_126">
    <path d="M 586.089827 356.6306 
L 641.32675 356.6306 
" clip-path="url(#pdb1ff06208)" style="fill: none; stroke: #c80723; stroke-width: 2"/>
   </g>
   <g id="patch_26">
    <path d="M 75.83875 480.72 
L 75.83875 287.885217 
" style="fill: none; stroke: #000000; stroke-linejoin: miter; stroke-linecap: square"/>
   </g>
   <g id="patch_27">
    <path d="M 668.25475 480.72 
L 668.25475 287.885217 
" style="fill: none; stroke: #000000; stroke-linejoin: miter; stroke-linecap: square"/>
   </g>
   <g id="patch_28">
    <path d="M 75.83875 480.72 
L 668.25475 480.72 
" style="fill: none; stroke: #000000; stroke-linejoin: miter; stroke-linecap: square"/>
   </g>
   <g id="patch_29">
    <path d="M 75.83875 287.885217 
L 668.25475 287.885217 
" style="fill: none; stroke: #000000; stroke-linejoin: miter; stroke-linecap: square"/>
   </g>
   <g id="text_21">
    <!-- BA Network | N=1000 | &lt;k&gt;=4 -->
    <g transform="translate(137.017844 280.81178) scale(0.3 -0.3)">
     <defs>
      <path id="DejaVuSans-42" d="M 1259 2228 
L 1259 519 
L 2272 519 
Q 2781 519 3026 730 
Q 3272 941 3272 1375 
Q 3272 1813 3026 2020 
Q 2781 2228 2272 2228 
L 1259 2228 
z
M 1259 4147 
L 1259 2741 
L 2194 2741 
Q 2656 2741 2882 2914 
Q 3109 3088 3109 3444 
Q 3109 3797 2882 3972 
Q 2656 4147 2194 4147 
L 1259 4147 
z
M 628 4666 
L 2241 4666 
Q 2963 4666 3353 4366 
Q 3744 4066 3744 3513 
Q 3744 3084 3544 2831 
Q 3344 2578 2956 2516 
Q 3422 2416 3680 2098 
Q 3938 1781 3938 1306 
Q 3938 681 3513 340 
Q 3088 0 2303 0 
L 628 0 
L 628 4666 
z
" transform="scale(0.015625)"/>
      <path id="DejaVuSans-41" d="M 2188 4044 
L 1331 1722 
L 3047 1722 
L 2188 4044 
z
M 1831 4666 
L 2547 4666 
L 4325 0 
L 3669 0 
L 3244 1197 
L 1141 1197 
L 716 0 
L 50 0 
L 1831 4666 
z
" transform="scale(0.015625)"/>
     </defs>
     <use xlink:href="#DejaVuSans-42"/>
     <use xlink:href="#DejaVuSans-41" x="68.603516"/>
     <use xlink:href="#DejaVuSans-20" x="137.011719"/>
     <use xlink:href="#DejaVuSans-4e" x="168.798828"/>
     <use xlink:href="#DejaVuSans-65" x="243.603516"/>
     <use xlink:href="#DejaVuSans-74" x="305.126953"/>
     <use xlink:href="#DejaVuSans-77" x="344.335938"/>
     <use xlink:href="#DejaVuSans-6f" x="426.123047"/>
     <use xlink:href="#DejaVuSans-72" x="487.304688"/>
     <use xlink:href="#DejaVuSans-6b" x="528.417969"/>
     <use xlink:href="#DejaVuSans-20" x="586.328125"/>
     <use xlink:href="#DejaVuSans-7c" x="618.115234"/>
     <use xlink:href="#DejaVuSans-20" x="651.806641"/>
     <use xlink:href="#DejaVuSans-4e" x="683.59375"/>
     <use xlink:href="#DejaVuSans-3d" x="758.398438"/>
     <use xlink:href="#DejaVuSans-31" x="842.1875"/>
     <use xlink:href="#DejaVuSans-30" x="905.810547"/>
     <use xlink:href="#DejaVuSans-30" x="969.433594"/>
     <use xlink:href="#DejaVuSans-30" x="1033.056641"/>
     <use xlink:href="#DejaVuSans-20" x="1096.679688"/>
     <use xlink:href="#DejaVuSans-7c" x="1128.466797"/>
     <use xlink:href="#DejaVuSans-20" x="1162.158203"/>
     <use xlink:href="#DejaVuSans-3c" x="1193.945312"/>
     <use xlink:href="#DejaVuSans-6b" x="1277.734375"/>
     <use xlink:href="#DejaVuSans-3e" x="1335.644531"/>
     <use xlink:href="#DejaVuSans-3d" x="1419.433594"/>
     <use xlink:href="#DejaVuSans-34" x="1503.222656"/>
    </g>
   </g>
   <g id="line2d_127">
    <path d="M 130.385212 469.05719 
L 199.431365 468.477672 
L 268.477519 467.608394 
L 337.523673 471.954783 
L 406.569827 462.682487 
L 475.615981 470.795746 
L 544.662135 466.449357 
L 613.708288 467.792786 
" clip-path="url(#pdb1ff06208)" style="fill: none; stroke: #ffbd00; stroke-width: 1.5; stroke-linecap: square"/>
    <g clip-path="url(#pdb1ff06208)">
     <use xlink:href="#ma4e8eddcb5" x="130.385212" y="469.05719" style="fill: #ffbd00; stroke: #ffbd00; stroke-linejoin: miter"/>
     <use xlink:href="#ma4e8eddcb5" x="199.431365" y="468.477672" style="fill: #ffbd00; stroke: #ffbd00; stroke-linejoin: miter"/>
     <use xlink:href="#ma4e8eddcb5" x="268.477519" y="467.608394" style="fill: #ffbd00; stroke: #ffbd00; stroke-linejoin: miter"/>
     <use xlink:href="#ma4e8eddcb5" x="337.523673" y="471.954783" style="fill: #ffbd00; stroke: #ffbd00; stroke-linejoin: miter"/>
     <use xlink:href="#ma4e8eddcb5" x="406.569827" y="462.682487" style="fill: #ffbd00; stroke: #ffbd00; stroke-linejoin: miter"/>
     <use xlink:href="#ma4e8eddcb5" x="475.615981" y="470.795746" style="fill: #ffbd00; stroke: #ffbd00; stroke-linejoin: miter"/>
     <use xlink:href="#ma4e8eddcb5" x="544.662135" y="466.449357" style="fill: #ffbd00; stroke: #ffbd00; stroke-linejoin: miter"/>
     <use xlink:href="#ma4e8eddcb5" x="613.708288" y="467.792786" style="fill: #ffbd00; stroke: #ffbd00; stroke-linejoin: miter"/>
    </g>
   </g>
   <g id="line2d_128">
    <path d="M 130.385212 302.155861 
L 199.431365 299.548027 
L 268.477519 298.38899 
L 337.523673 304.184175 
L 406.569827 296.650435 
L 475.615981 307.081768 
L 544.662135 316.064305 
L 613.708288 321.069237 
" clip-path="url(#pdb1ff06208)" style="fill: none; stroke: #d55b00; stroke-width: 1.5; stroke-linecap: square"/>
    <g clip-path="url(#pdb1ff06208)">
     <use xlink:href="#m1ff04027c3" x="130.385212" y="302.155861" style="fill: #d55b00; stroke: #d55b00; stroke-linejoin: miter"/>
     <use xlink:href="#m1ff04027c3" x="199.431365" y="299.548027" style="fill: #d55b00; stroke: #d55b00; stroke-linejoin: miter"/>
     <use xlink:href="#m1ff04027c3" x="268.477519" y="298.38899" style="fill: #d55b00; stroke: #d55b00; stroke-linejoin: miter"/>
     <use xlink:href="#m1ff04027c3" x="337.523673" y="304.184175" style="fill: #d55b00; stroke: #d55b00; stroke-linejoin: miter"/>
     <use xlink:href="#m1ff04027c3" x="406.569827" y="296.650435" style="fill: #d55b00; stroke: #d55b00; stroke-linejoin: miter"/>
     <use xlink:href="#m1ff04027c3" x="475.615981" y="307.081768" style="fill: #d55b00; stroke: #d55b00; stroke-linejoin: miter"/>
     <use xlink:href="#m1ff04027c3" x="544.662135" y="316.064305" style="fill: #d55b00; stroke: #d55b00; stroke-linejoin: miter"/>
     <use xlink:href="#m1ff04027c3" x="613.708288" y="321.069237" style="fill: #d55b00; stroke: #d55b00; stroke-linejoin: miter"/>
    </g>
   </g>
  </g>
 </g>
 <defs>
  <clipPath id="p46d43a8514">
   <rect x="75.83875" y="37.2" width="592.416" height="192.834783"/>
  </clipPath>
  <clipPath id="pdb1ff06208">
   <rect x="75.83875" y="287.885217" width="592.416" height="192.834783"/>
  </clipPath>
 </defs>
</svg>
