<?xml version="1.0" encoding="utf-8" standalone="no"?>
<!DOCTYPE svg PUBLIC "-//W3C//DTD SVG 1.1//EN"
  "http://www.w3.org/Graphics/SVG/1.1/DTD/svg11.dtd">
<svg xmlns:xlink="http://www.w3.org/1999/xlink" width="1267.87075pt" height="388.94212pt" viewBox="0 0 1267.87075 388.94212" xmlns="http://www.w3.org/2000/svg" version="1.1">
 <metadata>
  <rdf:RDF xmlns:dc="http://purl.org/dc/elements/1.1/" xmlns:cc="http://creativecommons.org/ns#" xmlns:rdf="http://www.w3.org/1999/02/22-rdf-syntax-ns#">
   <cc:Work>
    <dc:type rdf:resource="http://purl.org/dc/dcmitype/StillImage"/>
    <dc:date>2026-01-21T16:58:42.818620</dc:date>
    <dc:format>image/svg+xml</dc:format>
    <dc:creator>
     <cc:Agent>
      <dc:title>Matplotlib v3.7.5, https://matplotlib.org/</dc:title>
     </cc:Agent>
    </dc:creator>
   </cc:Work>
  </rdf:RDF>
 </metadata>
 <defs>
  <style type="text/css">*{stroke-linejoin: round; stroke-linecap: butt}</style>
 </defs>
 <g id="figure_1">
  <g id="patch_1">
   <path d="M 0 388.94212 
L 1267.87075 388.94212 
L 1267.87075 0 
L 0 0 
z
" style="fill: #ffffff"/>
  </g>
  <g id="axes_1">
   <g id="patch_2">
    <path d="M 75.83875 258.96 
L 653.805579 258.96 
L 653.805579 37.2 
L 75.83875 37.2 
z
" style="fill: #ffffff"/>
   </g>
   <g id="matplotlib.axis_1">
    <g id="xtick_1">
     <g id="line2d_1">
      <defs>
       <path id="mdea667ae7b" d="M 0 0 
L 0 3.5 
" style="stroke: #000000; stroke-width: 0.8"/>
      </defs>
      <g>
       <use xlink:href="#mdea667ae7b" x="129.05481" y="258.96" style="stroke: #000000; stroke-width: 0.8"/>
      </g>
     </g>
     <g id="text_1">
      <!-- 0.1~0.2 -->
      <g transform="translate(99.638726 347.052773) rotate(-45) scale(0.24 -0.24)">
       <defs>
        <path id="DejaVuSans-30" d="M 2034 4250 
Q 1547 4250 1301 3770 
Q 1056 3291 1056 2328 
Q 1056 1369 1301 889 
Q 1547 409 2034 409 
Q 2525 409 2770 889 
Q 3016 1369 3016 2328 
Q 3016 3291 2770 3770 
Q 2525 4250 2034 4250 
z
M 2034 4750 
Q 2819 4750 3233 4129 
Q 3647 3509 3647 2328 
Q 3647 1150 3233 529 
Q 2819 -91 2034 -91 
Q 1250 -91 836 529 
Q 422 1150 422 2328 
Q 422 3509 836 4129 
Q 1250 4750 2034 4750 
z
" transform="scale(0.015625)"/>
        <path id="DejaVuSans-2e" d="M 684 794 
L 1344 794 
L 1344 0 
L 684 0 
L 684 794 
z
" transform="scale(0.015625)"/>
        <path id="DejaVuSans-31" d="M 794 531 
L 1825 531 
L 1825 4091 
L 703 3866 
L 703 4441 
L 1819 4666 
L 2450 4666 
L 2450 531 
L 3481 531 
L 3481 0 
L 794 0 
L 794 531 
z
" transform="scale(0.015625)"/>
        <path id="DejaVuSans-7e" d="M 4684 2553 
L 4684 1997 
Q 4356 1750 4076 1644 
Q 3797 1538 3494 1538 
Q 3150 1538 2694 1722 
Q 2659 1734 2644 1741 
Q 2622 1750 2575 1766 
Q 2091 1959 1797 1959 
Q 1522 1959 1253 1839 
Q 984 1719 678 1459 
L 678 2016 
Q 1006 2263 1286 2370 
Q 1566 2478 1869 2478 
Q 2213 2478 2672 2291 
Q 2703 2278 2719 2272 
Q 2744 2263 2788 2247 
Q 3272 2053 3566 2053 
Q 3834 2053 4098 2172 
Q 4363 2291 4684 2553 
z
" transform="scale(0.015625)"/>
        <path id="DejaVuSans-32" d="M 1228 531 
L 3431 531 
L 3431 0 
L 469 0 
L 469 531 
Q 828 903 1448 1529 
Q 2069 2156 2228 2338 
Q 2531 2678 2651 2914 
Q 2772 3150 2772 3378 
Q 2772 3750 2511 3984 
Q 2250 4219 1831 4219 
Q 1534 4219 1204 4116 
Q 875 4013 500 3803 
L 500 4441 
Q 881 4594 1212 4672 
Q 1544 4750 1819 4750 
Q 2544 4750 2975 4387 
Q 3406 4025 3406 3419 
Q 3406 3131 3298 2873 
Q 3191 2616 2906 2266 
Q 2828 2175 2409 1742 
Q 1991 1309 1228 531 
z
" transform="scale(0.015625)"/>
       </defs>
       <use xlink:href="#DejaVuSans-30"/>
       <use xlink:href="#DejaVuSans-2e" x="63.623047"/>
       <use xlink:href="#DejaVuSans-31" x="95.410156"/>
       <use xlink:href="#DejaVuSans-7e" x="159.033203"/>
       <use xlink:href="#DejaVuSans-30" x="242.822266"/>
       <use xlink:href="#DejaVuSans-2e" x="306.445312"/>
       <use xlink:href="#DejaVuSans-32" x="338.232422"/>
      </g>
     </g>
    </g>
    <g id="xtick_2">
     <g id="line2d_2">
      <g>
       <use xlink:href="#mdea667ae7b" x="196.416911" y="258.96" style="stroke: #000000; stroke-width: 0.8"/>
      </g>
     </g>
     <g id="text_2">
      <!-- 0.2~0.3 -->
      <g transform="translate(167.000827 347.052773) rotate(-45) scale(0.24 -0.24)">
       <defs>
        <path id="DejaVuSans-33" d="M 2597 2516 
Q 3050 2419 3304 2112 
Q 3559 1806 3559 1356 
Q 3559 666 3084 287 
Q 2609 -91 1734 -91 
Q 1441 -91 1130 -33 
Q 819 25 488 141 
L 488 750 
Q 750 597 1062 519 
Q 1375 441 1716 441 
Q 2309 441 2620 675 
Q 2931 909 2931 1356 
Q 2931 1769 2642 2001 
Q 2353 2234 1838 2234 
L 1294 2234 
L 1294 2753 
L 1863 2753 
Q 2328 2753 2575 2939 
Q 2822 3125 2822 3475 
Q 2822 3834 2567 4026 
Q 2313 4219 1838 4219 
Q 1578 4219 1281 4162 
Q 984 4106 628 3988 
L 628 4550 
Q 988 4650 1302 4700 
Q 1616 4750 1894 4750 
Q 2613 4750 3031 4423 
Q 3450 4097 3450 3541 
Q 3450 3153 3228 2886 
Q 3006 2619 2597 2516 
z
" transform="scale(0.015625)"/>
       </defs>
       <use xlink:href="#DejaVuSans-30"/>
       <use xlink:href="#DejaVuSans-2e" x="63.623047"/>
       <use xlink:href="#DejaVuSans-32" x="95.410156"/>
       <use xlink:href="#DejaVuSans-7e" x="159.033203"/>
       <use xlink:href="#DejaVuSans-30" x="242.822266"/>
       <use xlink:href="#DejaVuSans-2e" x="306.445312"/>
       <use xlink:href="#DejaVuSans-33" x="338.232422"/>
      </g>
     </g>
    </g>
    <g id="xtick_3">
     <g id="line2d_3">
      <g>
       <use xlink:href="#mdea667ae7b" x="263.779013" y="258.96" style="stroke: #000000; stroke-width: 0.8"/>
      </g>
     </g>
     <g id="text_3">
      <!-- 0.3~0.4 -->
      <g transform="translate(234.362929 347.052773) rotate(-45) scale(0.24 -0.24)">
       <defs>
        <path id="DejaVuSans-34" d="M 2419 4116 
L 825 1625 
L 2419 1625 
L 2419 4116 
z
M 2253 4666 
L 3047 4666 
L 3047 1625 
L 3713 1625 
L 3713 1100 
L 3047 1100 
L 3047 0 
L 2419 0 
L 2419 1100 
L 313 1100 
L 313 1709 
L 2253 4666 
z
" transform="scale(0.015625)"/>
       </defs>
       <use xlink:href="#DejaVuSans-30"/>
       <use xlink:href="#DejaVuSans-2e" x="63.623047"/>
       <use xlink:href="#DejaVuSans-33" x="95.410156"/>
       <use xlink:href="#DejaVuSans-7e" x="159.033203"/>
       <use xlink:href="#DejaVuSans-30" x="242.822266"/>
       <use xlink:href="#DejaVuSans-2e" x="306.445312"/>
       <use xlink:href="#DejaVuSans-34" x="338.232422"/>
      </g>
     </g>
    </g>
    <g id="xtick_4">
     <g id="line2d_4">
      <g>
       <use xlink:href="#mdea667ae7b" x="331.141114" y="258.96" style="stroke: #000000; stroke-width: 0.8"/>
      </g>
     </g>
     <g id="text_4">
      <!-- 0.4~0.5 -->
      <g transform="translate(301.72503 347.052773) rotate(-45) scale(0.24 -0.24)">
       <defs>
        <path id="DejaVuSans-35" d="M 691 4666 
L 3169 4666 
L 3169 4134 
L 1269 4134 
L 1269 2991 
Q 1406 3038 1543 3061 
Q 1681 3084 1819 3084 
Q 2600 3084 3056 2656 
Q 3513 2228 3513 1497 
Q 3513 744 3044 326 
Q 2575 -91 1722 -91 
Q 1428 -91 1123 -41 
Q 819 9 494 109 
L 494 744 
Q 775 591 1075 516 
Q 1375 441 1709 441 
Q 2250 441 2565 725 
Q 2881 1009 2881 1497 
Q 2881 1984 2565 2268 
Q 2250 2553 1709 2553 
Q 1456 2553 1204 2497 
Q 953 2441 691 2322 
L 691 4666 
z
" transform="scale(0.015625)"/>
       </defs>
       <use xlink:href="#DejaVuSans-30"/>
       <use xlink:href="#DejaVuSans-2e" x="63.623047"/>
       <use xlink:href="#DejaVuSans-34" x="95.410156"/>
       <use xlink:href="#DejaVuSans-7e" x="159.033203"/>
       <use xlink:href="#DejaVuSans-30" x="242.822266"/>
       <use xlink:href="#DejaVuSans-2e" x="306.445312"/>
       <use xlink:href="#DejaVuSans-35" x="338.232422"/>
      </g>
     </g>
    </g>
    <g id="xtick_5">
     <g id="line2d_5">
      <g>
       <use xlink:href="#mdea667ae7b" x="398.503215" y="258.96" style="stroke: #000000; stroke-width: 0.8"/>
      </g>
     </g>
     <g id="text_5">
      <!-- 0.5~0.6 -->
      <g transform="translate(369.087131 347.052773) rotate(-45) scale(0.24 -0.24)">
       <defs>
        <path id="DejaVuSans-36" d="M 2113 2584 
Q 1688 2584 1439 2293 
Q 1191 2003 1191 1497 
Q 1191 994 1439 701 
Q 1688 409 2113 409 
Q 2538 409 2786 701 
Q 3034 994 3034 1497 
Q 3034 2003 2786 2293 
Q 2538 2584 2113 2584 
z
M 3366 4563 
L 3366 3988 
Q 3128 4100 2886 4159 
Q 2644 4219 2406 4219 
Q 1781 4219 1451 3797 
Q 1122 3375 1075 2522 
Q 1259 2794 1537 2939 
Q 1816 3084 2150 3084 
Q 2853 3084 3261 2657 
Q 3669 2231 3669 1497 
Q 3669 778 3244 343 
Q 2819 -91 2113 -91 
Q 1303 -91 875 529 
Q 447 1150 447 2328 
Q 447 3434 972 4092 
Q 1497 4750 2381 4750 
Q 2619 4750 2861 4703 
Q 3103 4656 3366 4563 
z
" transform="scale(0.015625)"/>
       </defs>
       <use xlink:href="#DejaVuSans-30"/>
       <use xlink:href="#DejaVuSans-2e" x="63.623047"/>
       <use xlink:href="#DejaVuSans-35" x="95.410156"/>
       <use xlink:href="#DejaVuSans-7e" x="159.033203"/>
       <use xlink:href="#DejaVuSans-30" x="242.822266"/>
       <use xlink:href="#DejaVuSans-2e" x="306.445312"/>
       <use xlink:href="#DejaVuSans-36" x="338.232422"/>
      </g>
     </g>
    </g>
    <g id="xtick_6">
     <g id="line2d_6">
      <g>
       <use xlink:href="#mdea667ae7b" x="465.865317" y="258.96" style="stroke: #000000; stroke-width: 0.8"/>
      </g>
     </g>
     <g id="text_6">
      <!-- 0.6~0.7 -->
      <g transform="translate(436.449233 347.052773) rotate(-45) scale(0.24 -0.24)">
       <defs>
        <path id="DejaVuSans-37" d="M 525 4666 
L 3525 4666 
L 3525 4397 
L 1831 0 
L 1172 0 
L 2766 4134 
L 525 4134 
L 525 4666 
z
" transform="scale(0.015625)"/>
       </defs>
       <use xlink:href="#DejaVuSans-30"/>
       <use xlink:href="#DejaVuSans-2e" x="63.623047"/>
       <use xlink:href="#DejaVuSans-36" x="95.410156"/>
       <use xlink:href="#DejaVuSans-7e" x="159.033203"/>
       <use xlink:href="#DejaVuSans-30" x="242.822266"/>
       <use xlink:href="#DejaVuSans-2e" x="306.445312"/>
       <use xlink:href="#DejaVuSans-37" x="338.232422"/>
      </g>
     </g>
    </g>
    <g id="xtick_7">
     <g id="line2d_7">
      <g>
       <use xlink:href="#mdea667ae7b" x="533.227418" y="258.96" style="stroke: #000000; stroke-width: 0.8"/>
      </g>
     </g>
     <g id="text_7">
      <!-- 0.7~0.8 -->
      <g transform="translate(503.811334 347.052773) rotate(-45) scale(0.24 -0.24)">
       <defs>
        <path id="DejaVuSans-38" d="M 2034 2216 
Q 1584 2216 1326 1975 
Q 1069 1734 1069 1313 
Q 1069 891 1326 650 
Q 1584 409 2034 409 
Q 2484 409 2743 651 
Q 3003 894 3003 1313 
Q 3003 1734 2745 1975 
Q 2488 2216 2034 2216 
z
M 1403 2484 
Q 997 2584 770 2862 
Q 544 3141 544 3541 
Q 544 4100 942 4425 
Q 1341 4750 2034 4750 
Q 2731 4750 3128 4425 
Q 3525 4100 3525 3541 
Q 3525 3141 3298 2862 
Q 3072 2584 2669 2484 
Q 3125 2378 3379 2068 
Q 3634 1759 3634 1313 
Q 3634 634 3220 271 
Q 2806 -91 2034 -91 
Q 1263 -91 848 271 
Q 434 634 434 1313 
Q 434 1759 690 2068 
Q 947 2378 1403 2484 
z
M 1172 3481 
Q 1172 3119 1398 2916 
Q 1625 2713 2034 2713 
Q 2441 2713 2670 2916 
Q 2900 3119 2900 3481 
Q 2900 3844 2670 4047 
Q 2441 4250 2034 4250 
Q 1625 4250 1398 4047 
Q 1172 3844 1172 3481 
z
" transform="scale(0.015625)"/>
       </defs>
       <use xlink:href="#DejaVuSans-30"/>
       <use xlink:href="#DejaVuSans-2e" x="63.623047"/>
       <use xlink:href="#DejaVuSans-37" x="95.410156"/>
       <use xlink:href="#DejaVuSans-7e" x="159.033203"/>
       <use xlink:href="#DejaVuSans-30" x="242.822266"/>
       <use xlink:href="#DejaVuSans-2e" x="306.445312"/>
       <use xlink:href="#DejaVuSans-38" x="338.232422"/>
      </g>
     </g>
    </g>
    <g id="xtick_8">
     <g id="line2d_8">
      <g>
       <use xlink:href="#mdea667ae7b" x="600.589519" y="258.96" style="stroke: #000000; stroke-width: 0.8"/>
      </g>
     </g>
     <g id="text_8">
      <!-- 0.8~0.9 -->
      <g transform="translate(571.173435 347.052773) rotate(-45) scale(0.24 -0.24)">
       <defs>
        <path id="DejaVuSans-39" d="M 703 97 
L 703 672 
Q 941 559 1184 500 
Q 1428 441 1663 441 
Q 2288 441 2617 861 
Q 2947 1281 2994 2138 
Q 2813 1869 2534 1725 
Q 2256 1581 1919 1581 
Q 1219 1581 811 2004 
Q 403 2428 403 3163 
Q 403 3881 828 4315 
Q 1253 4750 1959 4750 
Q 2769 4750 3195 4129 
Q 3622 3509 3622 2328 
Q 3622 1225 3098 567 
Q 2575 -91 1691 -91 
Q 1453 -91 1209 -44 
Q 966 3 703 97 
z
M 1959 2075 
Q 2384 2075 2632 2365 
Q 2881 2656 2881 3163 
Q 2881 3666 2632 3958 
Q 2384 4250 1959 4250 
Q 1534 4250 1286 3958 
Q 1038 3666 1038 3163 
Q 1038 2656 1286 2365 
Q 1534 2075 1959 2075 
z
" transform="scale(0.015625)"/>
       </defs>
       <use xlink:href="#DejaVuSans-30"/>
       <use xlink:href="#DejaVuSans-2e" x="63.623047"/>
       <use xlink:href="#DejaVuSans-38" x="95.410156"/>
       <use xlink:href="#DejaVuSans-7e" x="159.033203"/>
       <use xlink:href="#DejaVuSans-30" x="242.822266"/>
       <use xlink:href="#DejaVuSans-2e" x="306.445312"/>
       <use xlink:href="#DejaVuSans-39" x="338.232422"/>
      </g>
     </g>
    </g>
    <g id="text_9">
     <!-- Network Overlap Ratio $\rho$ Group -->
     <g transform="translate(145.442165 375.86212) scale(0.28 -0.28)">
      <defs>
       <path id="DejaVuSans-4e" d="M 628 4666 
L 1478 4666 
L 3547 763 
L 3547 4666 
L 4159 4666 
L 4159 0 
L 3309 0 
L 1241 3903 
L 1241 0 
L 628 0 
L 628 4666 
z
" transform="scale(0.015625)"/>
       <path id="DejaVuSans-65" d="M 3597 1894 
L 3597 1613 
L 953 1613 
Q 991 1019 1311 708 
Q 1631 397 2203 397 
Q 2534 397 2845 478 
Q 3156 559 3463 722 
L 3463 178 
Q 3153 47 2828 -22 
Q 2503 -91 2169 -91 
Q 1331 -91 842 396 
Q 353 884 353 1716 
Q 353 2575 817 3079 
Q 1281 3584 2069 3584 
Q 2775 3584 3186 3129 
Q 3597 2675 3597 1894 
z
M 3022 2063 
Q 3016 2534 2758 2815 
Q 2500 3097 2075 3097 
Q 1594 3097 1305 2825 
Q 1016 2553 972 2059 
L 3022 2063 
z
" transform="scale(0.015625)"/>
       <path id="DejaVuSans-74" d="M 1172 4494 
L 1172 3500 
L 2356 3500 
L 2356 3053 
L 1172 3053 
L 1172 1153 
Q 1172 725 1289 603 
Q 1406 481 1766 481 
L 2356 481 
L 2356 0 
L 1766 0 
Q 1100 0 847 248 
Q 594 497 594 1153 
L 594 3053 
L 172 3053 
L 172 3500 
L 594 3500 
L 594 4494 
L 1172 4494 
z
" transform="scale(0.015625)"/>
       <path id="DejaVuSans-77" d="M 269 3500 
L 844 3500 
L 1563 769 
L 2278 3500 
L 2956 3500 
L 3675 769 
L 4391 3500 
L 4966 3500 
L 4050 0 
L 3372 0 
L 2619 2869 
L 1863 0 
L 1184 0 
L 269 3500 
z
" transform="scale(0.015625)"/>
       <path id="DejaVuSans-6f" d="M 1959 3097 
Q 1497 3097 1228 2736 
Q 959 2375 959 1747 
Q 959 1119 1226 758 
Q 1494 397 1959 397 
Q 2419 397 2687 759 
Q 2956 1122 2956 1747 
Q 2956 2369 2687 2733 
Q 2419 3097 1959 3097 
z
M 1959 3584 
Q 2709 3584 3137 3096 
Q 3566 2609 3566 1747 
Q 3566 888 3137 398 
Q 2709 -91 1959 -91 
Q 1206 -91 779 398 
Q 353 888 353 1747 
Q 353 2609 779 3096 
Q 1206 3584 1959 3584 
z
" transform="scale(0.015625)"/>
       <path id="DejaVuSans-72" d="M 2631 2963 
Q 2534 3019 2420 3045 
Q 2306 3072 2169 3072 
Q 1681 3072 1420 2755 
Q 1159 2438 1159 1844 
L 1159 0 
L 581 0 
L 581 3500 
L 1159 3500 
L 1159 2956 
Q 1341 3275 1631 3429 
Q 1922 3584 2338 3584 
Q 2397 3584 2469 3576 
Q 2541 3569 2628 3553 
L 2631 2963 
z
" transform="scale(0.015625)"/>
       <path id="DejaVuSans-6b" d="M 581 4863 
L 1159 4863 
L 1159 1991 
L 2875 3500 
L 3609 3500 
L 1753 1863 
L 3688 0 
L 2938 0 
L 1159 1709 
L 1159 0 
L 581 0 
L 581 4863 
z
" transform="scale(0.015625)"/>
       <path id="DejaVuSans-20" transform="scale(0.015625)"/>
       <path id="DejaVuSans-4f" d="M 2522 4238 
Q 1834 4238 1429 3725 
Q 1025 3213 1025 2328 
Q 1025 1447 1429 934 
Q 1834 422 2522 422 
Q 3209 422 3611 934 
Q 4013 1447 4013 2328 
Q 4013 3213 3611 3725 
Q 3209 4238 2522 4238 
z
M 2522 4750 
Q 3503 4750 4090 4092 
Q 4678 3434 4678 2328 
Q 4678 1225 4090 567 
Q 3503 -91 2522 -91 
Q 1538 -91 948 565 
Q 359 1222 359 2328 
Q 359 3434 948 4092 
Q 1538 4750 2522 4750 
z
" transform="scale(0.015625)"/>
       <path id="DejaVuSans-76" d="M 191 3500 
L 800 3500 
L 1894 563 
L 2988 3500 
L 3597 3500 
L 2284 0 
L 1503 0 
L 191 3500 
z
" transform="scale(0.015625)"/>
       <path id="DejaVuSans-6c" d="M 603 4863 
L 1178 4863 
L 1178 0 
L 603 0 
L 603 4863 
z
" transform="scale(0.015625)"/>
       <path id="DejaVuSans-61" d="M 2194 1759 
Q 1497 1759 1228 1600 
Q 959 1441 959 1056 
Q 959 750 1161 570 
Q 1363 391 1709 391 
Q 2188 391 2477 730 
Q 2766 1069 2766 1631 
L 2766 1759 
L 2194 1759 
z
M 3341 1997 
L 3341 0 
L 2766 0 
L 2766 531 
Q 2569 213 2275 61 
Q 1981 -91 1556 -91 
Q 1019 -91 701 211 
Q 384 513 384 1019 
Q 384 1609 779 1909 
Q 1175 2209 1959 2209 
L 2766 2209 
L 2766 2266 
Q 2766 2663 2505 2880 
Q 2244 3097 1772 3097 
Q 1472 3097 1187 3025 
Q 903 2953 641 2809 
L 641 3341 
Q 956 3463 1253 3523 
Q 1550 3584 1831 3584 
Q 2591 3584 2966 3190 
Q 3341 2797 3341 1997 
z
" transform="scale(0.015625)"/>
       <path id="DejaVuSans-70" d="M 1159 525 
L 1159 -1331 
L 581 -1331 
L 581 3500 
L 1159 3500 
L 1159 2969 
Q 1341 3281 1617 3432 
Q 1894 3584 2278 3584 
Q 2916 3584 3314 3078 
Q 3713 2572 3713 1747 
Q 3713 922 3314 415 
Q 2916 -91 2278 -91 
Q 1894 -91 1617 61 
Q 1341 213 1159 525 
z
M 3116 1747 
Q 3116 2381 2855 2742 
Q 2594 3103 2138 3103 
Q 1681 3103 1420 2742 
Q 1159 2381 1159 1747 
Q 1159 1113 1420 752 
Q 1681 391 2138 391 
Q 2594 391 2855 752 
Q 3116 1113 3116 1747 
z
" transform="scale(0.015625)"/>
       <path id="DejaVuSans-52" d="M 2841 2188 
Q 3044 2119 3236 1894 
Q 3428 1669 3622 1275 
L 4263 0 
L 3584 0 
L 2988 1197 
Q 2756 1666 2539 1819 
Q 2322 1972 1947 1972 
L 1259 1972 
L 1259 0 
L 628 0 
L 628 4666 
L 2053 4666 
Q 2853 4666 3247 4331 
Q 3641 3997 3641 3322 
Q 3641 2881 3436 2590 
Q 3231 2300 2841 2188 
z
M 1259 4147 
L 1259 2491 
L 2053 2491 
Q 2509 2491 2742 2702 
Q 2975 2913 2975 3322 
Q 2975 3731 2742 3939 
Q 2509 4147 2053 4147 
L 1259 4147 
z
" transform="scale(0.015625)"/>
       <path id="DejaVuSans-69" d="M 603 3500 
L 1178 3500 
L 1178 0 
L 603 0 
L 603 3500 
z
M 603 4863 
L 1178 4863 
L 1178 4134 
L 603 4134 
L 603 4863 
z
" transform="scale(0.015625)"/>
       <path id="DejaVuSans-Oblique-3c1" d="M 1203 2875 
Q 1453 3194 1981 3475 
Q 2188 3584 2756 3584 
Q 3394 3584 3694 3078 
Q 3994 2572 3834 1747 
Q 3672 922 3175 415 
Q 2678 -91 2041 -91 
Q 1656 -91 1409 63 
Q 1163 213 1044 525 
L 681 -1331 
L 103 -1331 
L 697 1716 
Q 838 2438 1203 2875 
z
M 3238 1747 
Q 3359 2381 3169 2744 
Q 2978 3103 2522 3103 
Q 2066 3103 1734 2744 
Q 1403 2381 1281 1747 
Q 1156 1113 1347 750 
Q 1538 391 1994 391 
Q 2450 391 2781 750 
Q 3113 1113 3238 1747 
z
" transform="scale(0.015625)"/>
       <path id="DejaVuSans-47" d="M 3809 666 
L 3809 1919 
L 2778 1919 
L 2778 2438 
L 4434 2438 
L 4434 434 
Q 4069 175 3628 42 
Q 3188 -91 2688 -91 
Q 1594 -91 976 548 
Q 359 1188 359 2328 
Q 359 3472 976 4111 
Q 1594 4750 2688 4750 
Q 3144 4750 3555 4637 
Q 3966 4525 4313 4306 
L 4313 3634 
Q 3963 3931 3569 4081 
Q 3175 4231 2741 4231 
Q 1884 4231 1454 3753 
Q 1025 3275 1025 2328 
Q 1025 1384 1454 906 
Q 1884 428 2741 428 
Q 3075 428 3337 486 
Q 3600 544 3809 666 
z
" transform="scale(0.015625)"/>
       <path id="DejaVuSans-75" d="M 544 1381 
L 544 3500 
L 1119 3500 
L 1119 1403 
Q 1119 906 1312 657 
Q 1506 409 1894 409 
Q 2359 409 2629 706 
Q 2900 1003 2900 1516 
L 2900 3500 
L 3475 3500 
L 3475 0 
L 2900 0 
L 2900 538 
Q 2691 219 2414 64 
Q 2138 -91 1772 -91 
Q 1169 -91 856 284 
Q 544 659 544 1381 
z
M 1991 3584 
L 1991 3584 
z
" transform="scale(0.015625)"/>
      </defs>
      <use xlink:href="#DejaVuSans-4e" transform="translate(0 0.015625)"/>
      <use xlink:href="#DejaVuSans-65" transform="translate(74.804688 0.015625)"/>
      <use xlink:href="#DejaVuSans-74" transform="translate(136.328125 0.015625)"/>
      <use xlink:href="#DejaVuSans-77" transform="translate(175.537109 0.015625)"/>
      <use xlink:href="#DejaVuSans-6f" transform="translate(257.324219 0.015625)"/>
      <use xlink:href="#DejaVuSans-72" transform="translate(318.505859 0.015625)"/>
      <use xlink:href="#DejaVuSans-6b" transform="translate(359.619141 0.015625)"/>
      <use xlink:href="#DejaVuSans-20" transform="translate(417.529297 0.015625)"/>
      <use xlink:href="#DejaVuSans-4f" transform="translate(449.316406 0.015625)"/>
      <use xlink:href="#DejaVuSans-76" transform="translate(528.027344 0.015625)"/>
      <use xlink:href="#DejaVuSans-65" transform="translate(587.207031 0.015625)"/>
      <use xlink:href="#DejaVuSans-72" transform="translate(648.730469 0.015625)"/>
      <use xlink:href="#DejaVuSans-6c" transform="translate(689.84375 0.015625)"/>
      <use xlink:href="#DejaVuSans-61" transform="translate(717.626953 0.015625)"/>
      <use xlink:href="#DejaVuSans-70" transform="translate(778.90625 0.015625)"/>
      <use xlink:href="#DejaVuSans-20" transform="translate(842.382812 0.015625)"/>
      <use xlink:href="#DejaVuSans-52" transform="translate(874.169922 0.015625)"/>
      <use xlink:href="#DejaVuSans-61" transform="translate(943.652344 0.015625)"/>
      <use xlink:href="#DejaVuSans-74" transform="translate(1004.931641 0.015625)"/>
      <use xlink:href="#DejaVuSans-69" transform="translate(1044.140625 0.015625)"/>
      <use xlink:href="#DejaVuSans-6f" transform="translate(1071.923828 0.015625)"/>
      <use xlink:href="#DejaVuSans-20" transform="translate(1133.105469 0.015625)"/>
      <use xlink:href="#DejaVuSans-Oblique-3c1" transform="translate(1164.892578 0.015625)"/>
      <use xlink:href="#DejaVuSans-20" transform="translate(1228.369141 0.015625)"/>
      <use xlink:href="#DejaVuSans-47" transform="translate(1260.15625 0.015625)"/>
      <use xlink:href="#DejaVuSans-72" transform="translate(1337.646484 0.015625)"/>
      <use xlink:href="#DejaVuSans-6f" transform="translate(1378.759766 0.015625)"/>
      <use xlink:href="#DejaVuSans-75" transform="translate(1439.941406 0.015625)"/>
      <use xlink:href="#DejaVuSans-70" transform="translate(1503.320312 0.015625)"/>
     </g>
    </g>
   </g>
   <g id="matplotlib.axis_2">
    <g id="ytick_1">
     <g id="line2d_9">
      <path d="M 75.83875 207.975652 
L 653.805579 207.975652 
" clip-path="url(#p2dfdcfb41f)" style="fill: none; stroke-dasharray: 2.59,1.12; stroke-dashoffset: 0; stroke: #b0b0b0; stroke-opacity: 0.6; stroke-width: 0.7"/>
     </g>
     <g id="line2d_10">
      <defs>
       <path id="m3c29d97012" d="M 0 0 
L -3.5 0 
" style="stroke: #000000; stroke-width: 0.8"/>
      </defs>
      <g>
       <use xlink:href="#m3c29d97012" x="75.83875" y="207.975652" style="stroke: #000000; stroke-width: 0.8"/>
      </g>
     </g>
     <g id="text_10">
      <!-- 20 -->
      <g transform="translate(38.29875 217.093777) scale(0.24 -0.24)">
       <use xlink:href="#DejaVuSans-32"/>
       <use xlink:href="#DejaVuSans-30" x="63.623047"/>
      </g>
     </g>
    </g>
    <g id="ytick_2">
     <g id="line2d_11">
      <path d="M 75.83875 149.54087 
L 653.805579 149.54087 
" clip-path="url(#p2dfdcfb41f)" style="fill: none; stroke-dasharray: 2.59,1.12; stroke-dashoffset: 0; stroke: #b0b0b0; stroke-opacity: 0.6; stroke-width: 0.7"/>
     </g>
     <g id="line2d_12">
      <g>
       <use xlink:href="#m3c29d97012" x="75.83875" y="149.54087" style="stroke: #000000; stroke-width: 0.8"/>
      </g>
     </g>
     <g id="text_11">
      <!-- 40 -->
      <g transform="translate(38.29875 158.658995) scale(0.24 -0.24)">
       <use xlink:href="#DejaVuSans-34"/>
       <use xlink:href="#DejaVuSans-30" x="63.623047"/>
      </g>
     </g>
    </g>
    <g id="ytick_3">
     <g id="line2d_13">
      <path d="M 75.83875 91.106087 
L 653.805579 91.106087 
" clip-path="url(#p2dfdcfb41f)" style="fill: none; stroke-dasharray: 2.59,1.12; stroke-dashoffset: 0; stroke: #b0b0b0; stroke-opacity: 0.6; stroke-width: 0.7"/>
     </g>
     <g id="line2d_14">
      <g>
       <use xlink:href="#m3c29d97012" x="75.83875" y="91.106087" style="stroke: #000000; stroke-width: 0.8"/>
      </g>
     </g>
     <g id="text_12">
      <!-- 60 -->
      <g transform="translate(38.29875 100.224212) scale(0.24 -0.24)">
       <use xlink:href="#DejaVuSans-36"/>
       <use xlink:href="#DejaVuSans-30" x="63.623047"/>
      </g>
     </g>
    </g>
    <g id="text_13">
     <!-- UDS Optimization Count -->
     <g transform="translate(28.475625 318.024688) rotate(-90) scale(0.28 -0.28)">
      <defs>
       <path id="DejaVuSans-55" d="M 556 4666 
L 1191 4666 
L 1191 1831 
Q 1191 1081 1462 751 
Q 1734 422 2344 422 
Q 2950 422 3222 751 
Q 3494 1081 3494 1831 
L 3494 4666 
L 4128 4666 
L 4128 1753 
Q 4128 841 3676 375 
Q 3225 -91 2344 -91 
Q 1459 -91 1007 375 
Q 556 841 556 1753 
L 556 4666 
z
" transform="scale(0.015625)"/>
       <path id="DejaVuSans-44" d="M 1259 4147 
L 1259 519 
L 2022 519 
Q 2988 519 3436 956 
Q 3884 1394 3884 2338 
Q 3884 3275 3436 3711 
Q 2988 4147 2022 4147 
L 1259 4147 
z
M 628 4666 
L 1925 4666 
Q 3281 4666 3915 4102 
Q 4550 3538 4550 2338 
Q 4550 1131 3912 565 
Q 3275 0 1925 0 
L 628 0 
L 628 4666 
z
" transform="scale(0.015625)"/>
       <path id="DejaVuSans-53" d="M 3425 4513 
L 3425 3897 
Q 3066 4069 2747 4153 
Q 2428 4238 2131 4238 
Q 1616 4238 1336 4038 
Q 1056 3838 1056 3469 
Q 1056 3159 1242 3001 
Q 1428 2844 1947 2747 
L 2328 2669 
Q 3034 2534 3370 2195 
Q 3706 1856 3706 1288 
Q 3706 609 3251 259 
Q 2797 -91 1919 -91 
Q 1588 -91 1214 -16 
Q 841 59 441 206 
L 441 856 
Q 825 641 1194 531 
Q 1563 422 1919 422 
Q 2459 422 2753 634 
Q 3047 847 3047 1241 
Q 3047 1584 2836 1778 
Q 2625 1972 2144 2069 
L 1759 2144 
Q 1053 2284 737 2584 
Q 422 2884 422 3419 
Q 422 4038 858 4394 
Q 1294 4750 2059 4750 
Q 2388 4750 2728 4690 
Q 3069 4631 3425 4513 
z
" transform="scale(0.015625)"/>
       <path id="DejaVuSans-6d" d="M 3328 2828 
Q 3544 3216 3844 3400 
Q 4144 3584 4550 3584 
Q 5097 3584 5394 3201 
Q 5691 2819 5691 2113 
L 5691 0 
L 5113 0 
L 5113 2094 
Q 5113 2597 4934 2840 
Q 4756 3084 4391 3084 
Q 3944 3084 3684 2787 
Q 3425 2491 3425 1978 
L 3425 0 
L 2847 0 
L 2847 2094 
Q 2847 2600 2669 2842 
Q 2491 3084 2119 3084 
Q 1678 3084 1418 2786 
Q 1159 2488 1159 1978 
L 1159 0 
L 581 0 
L 581 3500 
L 1159 3500 
L 1159 2956 
Q 1356 3278 1631 3431 
Q 1906 3584 2284 3584 
Q 2666 3584 2933 3390 
Q 3200 3197 3328 2828 
z
" transform="scale(0.015625)"/>
       <path id="DejaVuSans-7a" d="M 353 3500 
L 3084 3500 
L 3084 2975 
L 922 459 
L 3084 459 
L 3084 0 
L 275 0 
L 275 525 
L 2438 3041 
L 353 3041 
L 353 3500 
z
" transform="scale(0.015625)"/>
       <path id="DejaVuSans-6e" d="M 3513 2113 
L 3513 0 
L 2938 0 
L 2938 2094 
Q 2938 2591 2744 2837 
Q 2550 3084 2163 3084 
Q 1697 3084 1428 2787 
Q 1159 2491 1159 1978 
L 1159 0 
L 581 0 
L 581 3500 
L 1159 3500 
L 1159 2956 
Q 1366 3272 1645 3428 
Q 1925 3584 2291 3584 
Q 2894 3584 3203 3211 
Q 3513 2838 3513 2113 
z
" transform="scale(0.015625)"/>
       <path id="DejaVuSans-43" d="M 4122 4306 
L 4122 3641 
Q 3803 3938 3442 4084 
Q 3081 4231 2675 4231 
Q 1875 4231 1450 3742 
Q 1025 3253 1025 2328 
Q 1025 1406 1450 917 
Q 1875 428 2675 428 
Q 3081 428 3442 575 
Q 3803 722 4122 1019 
L 4122 359 
Q 3791 134 3420 21 
Q 3050 -91 2638 -91 
Q 1578 -91 968 557 
Q 359 1206 359 2328 
Q 359 3453 968 4101 
Q 1578 4750 2638 4750 
Q 3056 4750 3426 4639 
Q 3797 4528 4122 4306 
z
" transform="scale(0.015625)"/>
      </defs>
      <use xlink:href="#DejaVuSans-55"/>
      <use xlink:href="#DejaVuSans-44" x="73.193359"/>
      <use xlink:href="#DejaVuSans-53" x="150.195312"/>
      <use xlink:href="#DejaVuSans-20" x="213.671875"/>
      <use xlink:href="#DejaVuSans-4f" x="245.458984"/>
      <use xlink:href="#DejaVuSans-70" x="324.169922"/>
      <use xlink:href="#DejaVuSans-74" x="387.646484"/>
      <use xlink:href="#DejaVuSans-69" x="426.855469"/>
      <use xlink:href="#DejaVuSans-6d" x="454.638672"/>
      <use xlink:href="#DejaVuSans-69" x="552.050781"/>
      <use xlink:href="#DejaVuSans-7a" x="579.833984"/>
      <use xlink:href="#DejaVuSans-61" x="632.324219"/>
      <use xlink:href="#DejaVuSans-74" x="693.603516"/>
      <use xlink:href="#DejaVuSans-69" x="732.8125"/>
      <use xlink:href="#DejaVuSans-6f" x="760.595703"/>
      <use xlink:href="#DejaVuSans-6e" x="821.777344"/>
      <use xlink:href="#DejaVuSans-20" x="885.15625"/>
      <use xlink:href="#DejaVuSans-43" x="916.943359"/>
      <use xlink:href="#DejaVuSans-6f" x="986.767578"/>
      <use xlink:href="#DejaVuSans-75" x="1047.949219"/>
      <use xlink:href="#DejaVuSans-6e" x="1111.328125"/>
      <use xlink:href="#DejaVuSans-74" x="1174.707031"/>
     </g>
    </g>
   </g>
   <g id="patch_3">
    <path d="M 102.10997 189.714783 
L 155.999651 189.714783 
L 155.999651 155.384348 
L 102.10997 155.384348 
L 102.10997 189.714783 
z
" clip-path="url(#p2dfdcfb41f)" style="fill: #124d82; stroke: #000000; stroke-linejoin: miter"/>
   </g>
   <g id="line2d_15">
    <path d="M 129.05481 189.714783 
L 129.05481 231.349565 
" clip-path="url(#p2dfdcfb41f)" style="fill: none; stroke: #000000"/>
   </g>
   <g id="line2d_16">
    <path d="M 129.05481 155.384348 
L 129.05481 123.245217 
" clip-path="url(#p2dfdcfb41f)" style="fill: none; stroke: #000000"/>
   </g>
   <g id="line2d_17">
    <path d="M 115.58239 231.349565 
L 142.52723 231.349565 
" clip-path="url(#p2dfdcfb41f)" style="fill: none; stroke: #000000; stroke-linecap: square"/>
   </g>
   <g id="line2d_18">
    <path d="M 115.58239 123.245217 
L 142.52723 123.245217 
" clip-path="url(#p2dfdcfb41f)" style="fill: none; stroke: #000000; stroke-linecap: square"/>
   </g>
   <g id="line2d_19">
    <defs>
     <path id="m4f1a9973a2" d="M 0 1 
C 0.265203 1 0.51958 0.894634 0.707107 0.707107 
C 0.894634 0.51958 1 0.265203 1 0 
C 1 -0.265203 0.894634 -0.51958 0.707107 -0.707107 
C 0.51958 -0.894634 0.265203 -1 0 -1 
C -0.265203 -1 -0.51958 -0.894634 -0.707107 -0.707107 
C -0.894634 -0.51958 -1 -0.265203 -1 0 
C -1 0.265203 -0.894634 0.51958 -0.707107 0.707107 
C -0.51958 0.894634 -0.265203 1 0 1 
z
" style="stroke: #000000"/>
    </defs>
    <g clip-path="url(#p2dfdcfb41f)">
     <use xlink:href="#m4f1a9973a2" x="129.05481" y="248.88" style="stroke: #000000"/>
     <use xlink:href="#m4f1a9973a2" x="129.05481" y="243.036522" style="stroke: #000000"/>
    </g>
   </g>
   <g id="patch_4">
    <path d="M 169.472071 186.793043 
L 223.361752 186.793043 
L 223.361752 152.462609 
L 169.472071 152.462609 
L 169.472071 186.793043 
z
" clip-path="url(#p2dfdcfb41f)" style="fill: #124d82; stroke: #000000; stroke-linejoin: miter"/>
   </g>
   <g id="line2d_20">
    <path d="M 196.416911 186.793043 
L 196.416911 234.271304 
" clip-path="url(#p2dfdcfb41f)" style="fill: none; stroke: #000000"/>
   </g>
   <g id="line2d_21">
    <path d="M 196.416911 152.462609 
L 196.416911 111.558261 
" clip-path="url(#p2dfdcfb41f)" style="fill: none; stroke: #000000"/>
   </g>
   <g id="line2d_22">
    <path d="M 182.944491 234.271304 
L 209.889332 234.271304 
" clip-path="url(#p2dfdcfb41f)" style="fill: none; stroke: #000000; stroke-linecap: square"/>
   </g>
   <g id="line2d_23">
    <path d="M 182.944491 111.558261 
L 209.889332 111.558261 
" clip-path="url(#p2dfdcfb41f)" style="fill: none; stroke: #000000; stroke-linecap: square"/>
   </g>
   <g id="line2d_24">
    <g clip-path="url(#p2dfdcfb41f)">
     <use xlink:href="#m4f1a9973a2" x="196.416911" y="243.036522" style="stroke: #000000"/>
    </g>
   </g>
   <g id="patch_5">
    <path d="M 236.834172 187.523478 
L 290.723853 187.523478 
L 290.723853 149.54087 
L 236.834172 149.54087 
L 236.834172 187.523478 
z
" clip-path="url(#p2dfdcfb41f)" style="fill: #124d82; stroke: #000000; stroke-linejoin: miter"/>
   </g>
   <g id="line2d_25">
    <path d="M 263.779013 187.523478 
L 263.779013 240.114783 
" clip-path="url(#p2dfdcfb41f)" style="fill: none; stroke: #000000"/>
   </g>
   <g id="line2d_26">
    <path d="M 263.779013 149.54087 
L 263.779013 123.245217 
" clip-path="url(#p2dfdcfb41f)" style="fill: none; stroke: #000000"/>
   </g>
   <g id="line2d_27">
    <path d="M 250.306592 240.114783 
L 277.251433 240.114783 
" clip-path="url(#p2dfdcfb41f)" style="fill: none; stroke: #000000; stroke-linecap: square"/>
   </g>
   <g id="line2d_28">
    <path d="M 250.306592 123.245217 
L 277.251433 123.245217 
" clip-path="url(#p2dfdcfb41f)" style="fill: none; stroke: #000000; stroke-linecap: square"/>
   </g>
   <g id="line2d_29"/>
   <g id="patch_6">
    <path d="M 304.196273 187.523478 
L 358.085955 187.523478 
L 358.085955 150.271304 
L 304.196273 150.271304 
L 304.196273 187.523478 
z
" clip-path="url(#p2dfdcfb41f)" style="fill: #124d82; stroke: #000000; stroke-linejoin: miter"/>
   </g>
   <g id="line2d_30">
    <path d="M 331.141114 187.523478 
L 331.141114 237.193043 
" clip-path="url(#p2dfdcfb41f)" style="fill: none; stroke: #000000"/>
   </g>
   <g id="line2d_31">
    <path d="M 331.141114 150.271304 
L 331.141114 105.714783 
" clip-path="url(#p2dfdcfb41f)" style="fill: none; stroke: #000000"/>
   </g>
   <g id="line2d_32">
    <path d="M 317.668694 237.193043 
L 344.613534 237.193043 
" clip-path="url(#p2dfdcfb41f)" style="fill: none; stroke: #000000; stroke-linecap: square"/>
   </g>
   <g id="line2d_33">
    <path d="M 317.668694 105.714783 
L 344.613534 105.714783 
" clip-path="url(#p2dfdcfb41f)" style="fill: none; stroke: #000000; stroke-linecap: square"/>
   </g>
   <g id="line2d_34"/>
   <g id="patch_7">
    <path d="M 371.558375 180.949565 
L 425.448056 180.949565 
L 425.448056 149.54087 
L 371.558375 149.54087 
L 371.558375 180.949565 
z
" clip-path="url(#p2dfdcfb41f)" style="fill: #124d82; stroke: #000000; stroke-linejoin: miter"/>
   </g>
   <g id="line2d_35">
    <path d="M 398.503215 180.949565 
L 398.503215 222.584348 
" clip-path="url(#p2dfdcfb41f)" style="fill: none; stroke: #000000"/>
   </g>
   <g id="line2d_36">
    <path d="M 398.503215 149.54087 
L 398.503215 129.088696 
" clip-path="url(#p2dfdcfb41f)" style="fill: none; stroke: #000000"/>
   </g>
   <g id="line2d_37">
    <path d="M 385.030795 222.584348 
L 411.975636 222.584348 
" clip-path="url(#p2dfdcfb41f)" style="fill: none; stroke: #000000; stroke-linecap: square"/>
   </g>
   <g id="line2d_38">
    <path d="M 385.030795 129.088696 
L 411.975636 129.088696 
" clip-path="url(#p2dfdcfb41f)" style="fill: none; stroke: #000000; stroke-linecap: square"/>
   </g>
   <g id="line2d_39">
    <g clip-path="url(#p2dfdcfb41f)">
     <use xlink:href="#m4f1a9973a2" x="398.503215" y="228.427826" style="stroke: #000000"/>
     <use xlink:href="#m4f1a9973a2" x="398.503215" y="228.427826" style="stroke: #000000"/>
     <use xlink:href="#m4f1a9973a2" x="398.503215" y="231.349565" style="stroke: #000000"/>
     <use xlink:href="#m4f1a9973a2" x="398.503215" y="228.427826" style="stroke: #000000"/>
     <use xlink:href="#m4f1a9973a2" x="398.503215" y="228.427826" style="stroke: #000000"/>
     <use xlink:href="#m4f1a9973a2" x="398.503215" y="234.271304" style="stroke: #000000"/>
    </g>
   </g>
   <g id="patch_8">
    <path d="M 438.920476 183.871304 
L 492.810157 183.871304 
L 492.810157 149.54087 
L 438.920476 149.54087 
L 438.920476 183.871304 
z
" clip-path="url(#p2dfdcfb41f)" style="fill: #124d82; stroke: #000000; stroke-linejoin: miter"/>
   </g>
   <g id="line2d_40">
    <path d="M 465.865317 183.871304 
L 465.865317 231.349565 
" clip-path="url(#p2dfdcfb41f)" style="fill: none; stroke: #000000"/>
   </g>
   <g id="line2d_41">
    <path d="M 465.865317 149.54087 
L 465.865317 117.401739 
" clip-path="url(#p2dfdcfb41f)" style="fill: none; stroke: #000000"/>
   </g>
   <g id="line2d_42">
    <path d="M 452.392896 231.349565 
L 479.337737 231.349565 
" clip-path="url(#p2dfdcfb41f)" style="fill: none; stroke: #000000; stroke-linecap: square"/>
   </g>
   <g id="line2d_43">
    <path d="M 452.392896 117.401739 
L 479.337737 117.401739 
" clip-path="url(#p2dfdcfb41f)" style="fill: none; stroke: #000000; stroke-linecap: square"/>
   </g>
   <g id="line2d_44"/>
   <g id="patch_9">
    <path d="M 506.282577 184.601739 
L 560.172258 184.601739 
L 560.172258 146.61913 
L 506.282577 146.61913 
L 506.282577 184.601739 
z
" clip-path="url(#p2dfdcfb41f)" style="fill: #124d82; stroke: #000000; stroke-linejoin: miter"/>
   </g>
   <g id="line2d_45">
    <path d="M 533.227418 184.601739 
L 533.227418 240.114783 
" clip-path="url(#p2dfdcfb41f)" style="fill: none; stroke: #000000"/>
   </g>
   <g id="line2d_46">
    <path d="M 533.227418 146.61913 
L 533.227418 117.401739 
" clip-path="url(#p2dfdcfb41f)" style="fill: none; stroke: #000000"/>
   </g>
   <g id="line2d_47">
    <path d="M 519.754998 240.114783 
L 546.699838 240.114783 
" clip-path="url(#p2dfdcfb41f)" style="fill: none; stroke: #000000; stroke-linecap: square"/>
   </g>
   <g id="line2d_48">
    <path d="M 519.754998 117.401739 
L 546.699838 117.401739 
" clip-path="url(#p2dfdcfb41f)" style="fill: none; stroke: #000000; stroke-linecap: square"/>
   </g>
   <g id="line2d_49">
    <g clip-path="url(#p2dfdcfb41f)">
     <use xlink:href="#m4f1a9973a2" x="533.227418" y="248.88" style="stroke: #000000"/>
    </g>
   </g>
   <g id="patch_10">
    <path d="M 573.644679 184.601739 
L 627.53436 184.601739 
L 627.53436 155.384348 
L 573.644679 155.384348 
L 573.644679 184.601739 
z
" clip-path="url(#p2dfdcfb41f)" style="fill: #124d82; stroke: #000000; stroke-linejoin: miter"/>
   </g>
   <g id="line2d_50">
    <path d="M 600.589519 184.601739 
L 600.589519 228.427826 
" clip-path="url(#p2dfdcfb41f)" style="fill: none; stroke: #000000"/>
   </g>
   <g id="line2d_51">
    <path d="M 600.589519 155.384348 
L 600.589519 123.245217 
" clip-path="url(#p2dfdcfb41f)" style="fill: none; stroke: #000000"/>
   </g>
   <g id="line2d_52">
    <path d="M 587.117099 228.427826 
L 614.061939 228.427826 
" clip-path="url(#p2dfdcfb41f)" style="fill: none; stroke: #000000; stroke-linecap: square"/>
   </g>
   <g id="line2d_53">
    <path d="M 587.117099 123.245217 
L 614.061939 123.245217 
" clip-path="url(#p2dfdcfb41f)" style="fill: none; stroke: #000000; stroke-linecap: square"/>
   </g>
   <g id="line2d_54">
    <g clip-path="url(#p2dfdcfb41f)">
     <use xlink:href="#m4f1a9973a2" x="600.589519" y="234.271304" style="stroke: #000000"/>
     <use xlink:href="#m4f1a9973a2" x="600.589519" y="240.114783" style="stroke: #000000"/>
     <use xlink:href="#m4f1a9973a2" x="600.589519" y="231.349565" style="stroke: #000000"/>
     <use xlink:href="#m4f1a9973a2" x="600.589519" y="240.114783" style="stroke: #000000"/>
     <use xlink:href="#m4f1a9973a2" x="600.589519" y="237.193043" style="stroke: #000000"/>
     <use xlink:href="#m4f1a9973a2" x="600.589519" y="231.349565" style="stroke: #000000"/>
    </g>
   </g>
   <g id="line2d_55">
    <path d="M 102.10997 171.453913 
L 155.999651 171.453913 
" clip-path="url(#p2dfdcfb41f)" style="fill: none; stroke: #c80723; stroke-width: 2"/>
   </g>
   <g id="line2d_56">
    <path d="M 169.472071 164.149565 
L 223.361752 164.149565 
" clip-path="url(#p2dfdcfb41f)" style="fill: none; stroke: #c80723; stroke-width: 2"/>
   </g>
   <g id="line2d_57">
    <path d="M 236.834172 162.688696 
L 290.723853 162.688696 
" clip-path="url(#p2dfdcfb41f)" style="fill: none; stroke: #c80723; stroke-width: 2"/>
   </g>
   <g id="line2d_58">
    <path d="M 304.196273 169.993043 
L 358.085955 169.993043 
" clip-path="url(#p2dfdcfb41f)" style="fill: none; stroke: #c80723; stroke-width: 2"/>
   </g>
   <g id="line2d_59">
    <path d="M 371.558375 165.610435 
L 425.448056 165.610435 
" clip-path="url(#p2dfdcfb41f)" style="fill: none; stroke: #c80723; stroke-width: 2"/>
   </g>
   <g id="line2d_60">
    <path d="M 438.920476 164.149565 
L 492.810157 164.149565 
" clip-path="url(#p2dfdcfb41f)" style="fill: none; stroke: #c80723; stroke-width: 2"/>
   </g>
   <g id="line2d_61">
    <path d="M 506.282577 164.149565 
L 560.172258 164.149565 
" clip-path="url(#p2dfdcfb41f)" style="fill: none; stroke: #c80723; stroke-width: 2"/>
   </g>
   <g id="line2d_62">
    <path d="M 573.644679 167.071304 
L 627.53436 167.071304 
" clip-path="url(#p2dfdcfb41f)" style="fill: none; stroke: #c80723; stroke-width: 2"/>
   </g>
   <g id="patch_11">
    <path d="M 75.83875 258.96 
L 75.83875 37.2 
" style="fill: none; stroke: #000000; stroke-width: 0.8; stroke-linejoin: miter; stroke-linecap: square"/>
   </g>
   <g id="patch_12">
    <path d="M 75.83875 258.96 
L 653.805579 258.96 
" style="fill: none; stroke: #000000; stroke-width: 0.8; stroke-linejoin: miter; stroke-linecap: square"/>
   </g>
   <g id="text_14">
    <!-- ER Network | N=1000 -->
    <g transform="translate(200.970602 30.126563) scale(0.3 -0.3)">
     <defs>
      <path id="DejaVuSans-45" d="M 628 4666 
L 3578 4666 
L 3578 4134 
L 1259 4134 
L 1259 2753 
L 3481 2753 
L 3481 2222 
L 1259 2222 
L 1259 531 
L 3634 531 
L 3634 0 
L 628 0 
L 628 4666 
z
" transform="scale(0.015625)"/>
      <path id="DejaVuSans-7c" d="M 1344 4891 
L 1344 -1509 
L 813 -1509 
L 813 4891 
L 1344 4891 
z
" transform="scale(0.015625)"/>
      <path id="DejaVuSans-3d" d="M 678 2906 
L 4684 2906 
L 4684 2381 
L 678 2381 
L 678 2906 
z
M 678 1631 
L 4684 1631 
L 4684 1100 
L 678 1100 
L 678 1631 
z
" transform="scale(0.015625)"/>
     </defs>
     <use xlink:href="#DejaVuSans-45"/>
     <use xlink:href="#DejaVuSans-52" x="63.183594"/>
     <use xlink:href="#DejaVuSans-20" x="132.666016"/>
     <use xlink:href="#DejaVuSans-4e" x="164.453125"/>
     <use xlink:href="#DejaVuSans-65" x="239.257812"/>
     <use xlink:href="#DejaVuSans-74" x="300.78125"/>
     <use xlink:href="#DejaVuSans-77" x="339.990234"/>
     <use xlink:href="#DejaVuSans-6f" x="421.777344"/>
     <use xlink:href="#DejaVuSans-72" x="482.958984"/>
     <use xlink:href="#DejaVuSans-6b" x="524.072266"/>
     <use xlink:href="#DejaVuSans-20" x="581.982422"/>
     <use xlink:href="#DejaVuSans-7c" x="613.769531"/>
     <use xlink:href="#DejaVuSans-20" x="647.460938"/>
     <use xlink:href="#DejaVuSans-4e" x="679.248047"/>
     <use xlink:href="#DejaVuSans-3d" x="754.052734"/>
     <use xlink:href="#DejaVuSans-31" x="837.841797"/>
     <use xlink:href="#DejaVuSans-30" x="901.464844"/>
     <use xlink:href="#DejaVuSans-30" x="965.087891"/>
     <use xlink:href="#DejaVuSans-30" x="1028.710938"/>
    </g>
   </g>
   <g id="line2d_63">
    <path d="M 129.05481 243.886482 
L 196.416911 242.691225 
L 263.779013 243.275573 
L 331.141114 242.664664 
L 398.503215 243.275573 
L 465.865317 240.938182 
L 533.227418 240.406957 
L 600.589519 241.346259 
" clip-path="url(#p2dfdcfb41f)" style="fill: none; stroke: #ffbd00; stroke-width: 1.5; stroke-linecap: square"/>
    <defs>
     <path id="mb6c37ce390" d="M -4 4 
L 4 4 
L 4 -4 
L -4 -4 
z
" style="stroke: #ffbd00; stroke-linejoin: miter"/>
    </defs>
    <g clip-path="url(#p2dfdcfb41f)">
     <use xlink:href="#mb6c37ce390" x="129.05481" y="243.886482" style="fill: #ffbd00; stroke: #ffbd00; stroke-linejoin: miter"/>
     <use xlink:href="#mb6c37ce390" x="196.416911" y="242.691225" style="fill: #ffbd00; stroke: #ffbd00; stroke-linejoin: miter"/>
     <use xlink:href="#mb6c37ce390" x="263.779013" y="243.275573" style="fill: #ffbd00; stroke: #ffbd00; stroke-linejoin: miter"/>
     <use xlink:href="#mb6c37ce390" x="331.141114" y="242.664664" style="fill: #ffbd00; stroke: #ffbd00; stroke-linejoin: miter"/>
     <use xlink:href="#mb6c37ce390" x="398.503215" y="243.275573" style="fill: #ffbd00; stroke: #ffbd00; stroke-linejoin: miter"/>
     <use xlink:href="#mb6c37ce390" x="465.865317" y="240.938182" style="fill: #ffbd00; stroke: #ffbd00; stroke-linejoin: miter"/>
     <use xlink:href="#mb6c37ce390" x="533.227418" y="240.406957" style="fill: #ffbd00; stroke: #ffbd00; stroke-linejoin: miter"/>
     <use xlink:href="#mb6c37ce390" x="600.589519" y="241.346259" style="fill: #ffbd00; stroke: #ffbd00; stroke-linejoin: miter"/>
    </g>
   </g>
   <g id="line2d_64">
    <path d="M 129.05481 151.692332 
L 196.416911 146.778498 
L 263.779013 146.672253 
L 331.141114 148.637787 
L 398.503215 145.742609 
L 465.865317 143.059921 
L 533.227418 143.086482 
L 600.589519 147.246942 
" clip-path="url(#p2dfdcfb41f)" style="fill: none; stroke: #d55b00; stroke-width: 1.5; stroke-linecap: square"/>
    <defs>
     <path id="m55da2c4dc0" d="M 0 -4 
L -4 4 
L 4 4 
z
" style="stroke: #d55b00; stroke-linejoin: miter"/>
    </defs>
    <g clip-path="url(#p2dfdcfb41f)">
     <use xlink:href="#m55da2c4dc0" x="129.05481" y="151.692332" style="fill: #d55b00; stroke: #d55b00; stroke-linejoin: miter"/>
     <use xlink:href="#m55da2c4dc0" x="196.416911" y="146.778498" style="fill: #d55b00; stroke: #d55b00; stroke-linejoin: miter"/>
     <use xlink:href="#m55da2c4dc0" x="263.779013" y="146.672253" style="fill: #d55b00; stroke: #d55b00; stroke-linejoin: miter"/>
     <use xlink:href="#m55da2c4dc0" x="331.141114" y="148.637787" style="fill: #d55b00; stroke: #d55b00; stroke-linejoin: miter"/>
     <use xlink:href="#m55da2c4dc0" x="398.503215" y="145.742609" style="fill: #d55b00; stroke: #d55b00; stroke-linejoin: miter"/>
     <use xlink:href="#m55da2c4dc0" x="465.865317" y="143.059921" style="fill: #d55b00; stroke: #d55b00; stroke-linejoin: miter"/>
     <use xlink:href="#m55da2c4dc0" x="533.227418" y="143.086482" style="fill: #d55b00; stroke: #d55b00; stroke-linejoin: miter"/>
     <use xlink:href="#m55da2c4dc0" x="600.589519" y="147.246942" style="fill: #d55b00; stroke: #d55b00; stroke-linejoin: miter"/>
    </g>
   </g>
  </g>
  <g id="axes_2">
   <g id="patch_13">
    <path d="M 682.703921 258.96 
L 1260.67075 258.96 
L 1260.67075 37.2 
L 682.703921 37.2 
z
" style="fill: #ffffff"/>
   </g>
   <g id="matplotlib.axis_3">
    <g id="xtick_9">
     <g id="line2d_65">
      <g>
       <use xlink:href="#mdea667ae7b" x="735.919981" y="258.96" style="stroke: #000000; stroke-width: 0.8"/>
      </g>
     </g>
     <g id="text_15">
      <!-- 0.1~0.2 -->
      <g transform="translate(706.503897 347.052773) rotate(-45) scale(0.24 -0.24)">
       <use xlink:href="#DejaVuSans-30"/>
       <use xlink:href="#DejaVuSans-2e" x="63.623047"/>
       <use xlink:href="#DejaVuSans-31" x="95.410156"/>
       <use xlink:href="#DejaVuSans-7e" x="159.033203"/>
       <use xlink:href="#DejaVuSans-30" x="242.822266"/>
       <use xlink:href="#DejaVuSans-2e" x="306.445312"/>
       <use xlink:href="#DejaVuSans-32" x="338.232422"/>
      </g>
     </g>
    </g>
    <g id="xtick_10">
     <g id="line2d_66">
      <g>
       <use xlink:href="#mdea667ae7b" x="803.282082" y="258.96" style="stroke: #000000; stroke-width: 0.8"/>
      </g>
     </g>
     <g id="text_16">
      <!-- 0.2~0.3 -->
      <g transform="translate(773.865998 347.052773) rotate(-45) scale(0.24 -0.24)">
       <use xlink:href="#DejaVuSans-30"/>
       <use xlink:href="#DejaVuSans-2e" x="63.623047"/>
       <use xlink:href="#DejaVuSans-32" x="95.410156"/>
       <use xlink:href="#DejaVuSans-7e" x="159.033203"/>
       <use xlink:href="#DejaVuSans-30" x="242.822266"/>
       <use xlink:href="#DejaVuSans-2e" x="306.445312"/>
       <use xlink:href="#DejaVuSans-33" x="338.232422"/>
      </g>
     </g>
    </g>
    <g id="xtick_11">
     <g id="line2d_67">
      <g>
       <use xlink:href="#mdea667ae7b" x="870.644183" y="258.96" style="stroke: #000000; stroke-width: 0.8"/>
      </g>
     </g>
     <g id="text_17">
      <!-- 0.3~0.4 -->
      <g transform="translate(841.228099 347.052773) rotate(-45) scale(0.24 -0.24)">
       <use xlink:href="#DejaVuSans-30"/>
       <use xlink:href="#DejaVuSans-2e" x="63.623047"/>
       <use xlink:href="#DejaVuSans-33" x="95.410156"/>
       <use xlink:href="#DejaVuSans-7e" x="159.033203"/>
       <use xlink:href="#DejaVuSans-30" x="242.822266"/>
       <use xlink:href="#DejaVuSans-2e" x="306.445312"/>
       <use xlink:href="#DejaVuSans-34" x="338.232422"/>
      </g>
     </g>
    </g>
    <g id="xtick_12">
     <g id="line2d_68">
      <g>
       <use xlink:href="#mdea667ae7b" x="938.006285" y="258.96" style="stroke: #000000; stroke-width: 0.8"/>
      </g>
     </g>
     <g id="text_18">
      <!-- 0.4~0.5 -->
      <g transform="translate(908.590201 347.052773) rotate(-45) scale(0.24 -0.24)">
       <use xlink:href="#DejaVuSans-30"/>
       <use xlink:href="#DejaVuSans-2e" x="63.623047"/>
       <use xlink:href="#DejaVuSans-34" x="95.410156"/>
       <use xlink:href="#DejaVuSans-7e" x="159.033203"/>
       <use xlink:href="#DejaVuSans-30" x="242.822266"/>
       <use xlink:href="#DejaVuSans-2e" x="306.445312"/>
       <use xlink:href="#DejaVuSans-35" x="338.232422"/>
      </g>
     </g>
    </g>
    <g id="xtick_13">
     <g id="line2d_69">
      <g>
       <use xlink:href="#mdea667ae7b" x="1005.368386" y="258.96" style="stroke: #000000; stroke-width: 0.8"/>
      </g>
     </g>
     <g id="text_19">
      <!-- 0.5~0.6 -->
      <g transform="translate(975.952302 347.052773) rotate(-45) scale(0.24 -0.24)">
       <use xlink:href="#DejaVuSans-30"/>
       <use xlink:href="#DejaVuSans-2e" x="63.623047"/>
       <use xlink:href="#DejaVuSans-35" x="95.410156"/>
       <use xlink:href="#DejaVuSans-7e" x="159.033203"/>
       <use xlink:href="#DejaVuSans-30" x="242.822266"/>
       <use xlink:href="#DejaVuSans-2e" x="306.445312"/>
       <use xlink:href="#DejaVuSans-36" x="338.232422"/>
      </g>
     </g>
    </g>
    <g id="xtick_14">
     <g id="line2d_70">
      <g>
       <use xlink:href="#mdea667ae7b" x="1072.730487" y="258.96" style="stroke: #000000; stroke-width: 0.8"/>
      </g>
     </g>
     <g id="text_20">
      <!-- 0.6~0.7 -->
      <g transform="translate(1043.314403 347.052773) rotate(-45) scale(0.24 -0.24)">
       <use xlink:href="#DejaVuSans-30"/>
       <use xlink:href="#DejaVuSans-2e" x="63.623047"/>
       <use xlink:href="#DejaVuSans-36" x="95.410156"/>
       <use xlink:href="#DejaVuSans-7e" x="159.033203"/>
       <use xlink:href="#DejaVuSans-30" x="242.822266"/>
       <use xlink:href="#DejaVuSans-2e" x="306.445312"/>
       <use xlink:href="#DejaVuSans-37" x="338.232422"/>
      </g>
     </g>
    </g>
    <g id="xtick_15">
     <g id="line2d_71">
      <g>
       <use xlink:href="#mdea667ae7b" x="1140.092589" y="258.96" style="stroke: #000000; stroke-width: 0.8"/>
      </g>
     </g>
     <g id="text_21">
      <!-- 0.7~0.8 -->
      <g transform="translate(1110.676505 347.052773) rotate(-45) scale(0.24 -0.24)">
       <use xlink:href="#DejaVuSans-30"/>
       <use xlink:href="#DejaVuSans-2e" x="63.623047"/>
       <use xlink:href="#DejaVuSans-37" x="95.410156"/>
       <use xlink:href="#DejaVuSans-7e" x="159.033203"/>
       <use xlink:href="#DejaVuSans-30" x="242.822266"/>
       <use xlink:href="#DejaVuSans-2e" x="306.445312"/>
       <use xlink:href="#DejaVuSans-38" x="338.232422"/>
      </g>
     </g>
    </g>
    <g id="xtick_16">
     <g id="line2d_72">
      <g>
       <use xlink:href="#mdea667ae7b" x="1207.45469" y="258.96" style="stroke: #000000; stroke-width: 0.8"/>
      </g>
     </g>
     <g id="text_22">
      <!-- 0.8~0.9 -->
      <g transform="translate(1178.038606 347.052773) rotate(-45) scale(0.24 -0.24)">
       <use xlink:href="#DejaVuSans-30"/>
       <use xlink:href="#DejaVuSans-2e" x="63.623047"/>
       <use xlink:href="#DejaVuSans-38" x="95.410156"/>
       <use xlink:href="#DejaVuSans-7e" x="159.033203"/>
       <use xlink:href="#DejaVuSans-30" x="242.822266"/>
       <use xlink:href="#DejaVuSans-2e" x="306.445312"/>
       <use xlink:href="#DejaVuSans-39" x="338.232422"/>
      </g>
     </g>
    </g>
    <g id="text_23">
     <!-- Network Overlap Ratio $\rho$ Group -->
     <g transform="translate(752.307335 375.86212) scale(0.28 -0.28)">
      <use xlink:href="#DejaVuSans-4e" transform="translate(0 0.015625)"/>
      <use xlink:href="#DejaVuSans-65" transform="translate(74.804688 0.015625)"/>
      <use xlink:href="#DejaVuSans-74" transform="translate(136.328125 0.015625)"/>
      <use xlink:href="#DejaVuSans-77" transform="translate(175.537109 0.015625)"/>
      <use xlink:href="#DejaVuSans-6f" transform="translate(257.324219 0.015625)"/>
      <use xlink:href="#DejaVuSans-72" transform="translate(318.505859 0.015625)"/>
      <use xlink:href="#DejaVuSans-6b" transform="translate(359.619141 0.015625)"/>
      <use xlink:href="#DejaVuSans-20" transform="translate(417.529297 0.015625)"/>
      <use xlink:href="#DejaVuSans-4f" transform="translate(449.316406 0.015625)"/>
      <use xlink:href="#DejaVuSans-76" transform="translate(528.027344 0.015625)"/>
      <use xlink:href="#DejaVuSans-65" transform="translate(587.207031 0.015625)"/>
      <use xlink:href="#DejaVuSans-72" transform="translate(648.730469 0.015625)"/>
      <use xlink:href="#DejaVuSans-6c" transform="translate(689.84375 0.015625)"/>
      <use xlink:href="#DejaVuSans-61" transform="translate(717.626953 0.015625)"/>
      <use xlink:href="#DejaVuSans-70" transform="translate(778.90625 0.015625)"/>
      <use xlink:href="#DejaVuSans-20" transform="translate(842.382812 0.015625)"/>
      <use xlink:href="#DejaVuSans-52" transform="translate(874.169922 0.015625)"/>
      <use xlink:href="#DejaVuSans-61" transform="translate(943.652344 0.015625)"/>
      <use xlink:href="#DejaVuSans-74" transform="translate(1004.931641 0.015625)"/>
      <use xlink:href="#DejaVuSans-69" transform="translate(1044.140625 0.015625)"/>
      <use xlink:href="#DejaVuSans-6f" transform="translate(1071.923828 0.015625)"/>
      <use xlink:href="#DejaVuSans-20" transform="translate(1133.105469 0.015625)"/>
      <use xlink:href="#DejaVuSans-Oblique-3c1" transform="translate(1164.892578 0.015625)"/>
      <use xlink:href="#DejaVuSans-20" transform="translate(1228.369141 0.015625)"/>
      <use xlink:href="#DejaVuSans-47" transform="translate(1260.15625 0.015625)"/>
      <use xlink:href="#DejaVuSans-72" transform="translate(1337.646484 0.015625)"/>
      <use xlink:href="#DejaVuSans-6f" transform="translate(1378.759766 0.015625)"/>
      <use xlink:href="#DejaVuSans-75" transform="translate(1439.941406 0.015625)"/>
      <use xlink:href="#DejaVuSans-70" transform="translate(1503.320312 0.015625)"/>
     </g>
    </g>
   </g>
   <g id="matplotlib.axis_4">
    <g id="ytick_4">
     <g id="line2d_73">
      <path d="M 682.703921 207.975652 
L 1260.67075 207.975652 
" clip-path="url(#p10738a8afe)" style="fill: none; stroke-dasharray: 2.59,1.12; stroke-dashoffset: 0; stroke: #b0b0b0; stroke-opacity: 0.6; stroke-width: 0.7"/>
     </g>
     <g id="line2d_74">
      <g>
       <use xlink:href="#m3c29d97012" x="682.703921" y="207.975652" style="stroke: #000000; stroke-width: 0.8"/>
      </g>
     </g>
    </g>
    <g id="ytick_5">
     <g id="line2d_75">
      <path d="M 682.703921 149.54087 
L 1260.67075 149.54087 
" clip-path="url(#p10738a8afe)" style="fill: none; stroke-dasharray: 2.59,1.12; stroke-dashoffset: 0; stroke: #b0b0b0; stroke-opacity: 0.6; stroke-width: 0.7"/>
     </g>
     <g id="line2d_76">
      <g>
       <use xlink:href="#m3c29d97012" x="682.703921" y="149.54087" style="stroke: #000000; stroke-width: 0.8"/>
      </g>
     </g>
    </g>
    <g id="ytick_6">
     <g id="line2d_77">
      <path d="M 682.703921 91.106087 
L 1260.67075 91.106087 
" clip-path="url(#p10738a8afe)" style="fill: none; stroke-dasharray: 2.59,1.12; stroke-dashoffset: 0; stroke: #b0b0b0; stroke-opacity: 0.6; stroke-width: 0.7"/>
     </g>
     <g id="line2d_78">
      <g>
       <use xlink:href="#m3c29d97012" x="682.703921" y="91.106087" style="stroke: #000000; stroke-width: 0.8"/>
      </g>
     </g>
    </g>
   </g>
   <g id="patch_14">
    <path d="M 708.97514 111.558261 
L 762.864821 111.558261 
L 762.864821 94.027826 
L 708.97514 94.027826 
L 708.97514 111.558261 
z
" clip-path="url(#p10738a8afe)" style="fill: #124d82; stroke: #000000; stroke-linejoin: miter"/>
   </g>
   <g id="line2d_79">
    <path d="M 735.919981 111.558261 
L 735.919981 129.088696 
" clip-path="url(#p10738a8afe)" style="fill: none; stroke: #000000"/>
   </g>
   <g id="line2d_80">
    <path d="M 735.919981 94.027826 
L 735.919981 67.732174 
" clip-path="url(#p10738a8afe)" style="fill: none; stroke: #000000"/>
   </g>
   <g id="line2d_81">
    <path d="M 722.447561 129.088696 
L 749.392401 129.088696 
" clip-path="url(#p10738a8afe)" style="fill: none; stroke: #000000; stroke-linecap: square"/>
   </g>
   <g id="line2d_82">
    <path d="M 722.447561 67.732174 
L 749.392401 67.732174 
" clip-path="url(#p10738a8afe)" style="fill: none; stroke: #000000; stroke-linecap: square"/>
   </g>
   <g id="line2d_83">
    <g clip-path="url(#p10738a8afe)">
     <use xlink:href="#m4f1a9973a2" x="735.919981" y="47.28" style="stroke: #000000"/>
    </g>
   </g>
   <g id="patch_15">
    <path d="M 776.337242 116.671304 
L 830.226923 116.671304 
L 830.226923 94.027826 
L 776.337242 94.027826 
L 776.337242 116.671304 
z
" clip-path="url(#p10738a8afe)" style="fill: #124d82; stroke: #000000; stroke-linejoin: miter"/>
   </g>
   <g id="line2d_84">
    <path d="M 803.282082 116.671304 
L 803.282082 134.932174 
" clip-path="url(#p10738a8afe)" style="fill: none; stroke: #000000"/>
   </g>
   <g id="line2d_85">
    <path d="M 803.282082 94.027826 
L 803.282082 76.497391 
" clip-path="url(#p10738a8afe)" style="fill: none; stroke: #000000"/>
   </g>
   <g id="line2d_86">
    <path d="M 789.809662 134.932174 
L 816.754502 134.932174 
" clip-path="url(#p10738a8afe)" style="fill: none; stroke: #000000; stroke-linecap: square"/>
   </g>
   <g id="line2d_87">
    <path d="M 789.809662 76.497391 
L 816.754502 76.497391 
" clip-path="url(#p10738a8afe)" style="fill: none; stroke: #000000; stroke-linecap: square"/>
   </g>
   <g id="line2d_88">
    <g clip-path="url(#p10738a8afe)">
     <use xlink:href="#m4f1a9973a2" x="803.282082" y="58.966957" style="stroke: #000000"/>
    </g>
   </g>
   <g id="patch_16">
    <path d="M 843.699343 114.48 
L 897.589024 114.48 
L 897.589024 96.949565 
L 843.699343 96.949565 
L 843.699343 114.48 
z
" clip-path="url(#p10738a8afe)" style="fill: #124d82; stroke: #000000; stroke-linejoin: miter"/>
   </g>
   <g id="line2d_89">
    <path d="M 870.644183 114.48 
L 870.644183 137.853913 
" clip-path="url(#p10738a8afe)" style="fill: none; stroke: #000000"/>
   </g>
   <g id="line2d_90">
    <path d="M 870.644183 96.949565 
L 870.644183 73.575652 
" clip-path="url(#p10738a8afe)" style="fill: none; stroke: #000000"/>
   </g>
   <g id="line2d_91">
    <path d="M 857.171763 137.853913 
L 884.116604 137.853913 
" clip-path="url(#p10738a8afe)" style="fill: none; stroke: #000000; stroke-linecap: square"/>
   </g>
   <g id="line2d_92">
    <path d="M 857.171763 73.575652 
L 884.116604 73.575652 
" clip-path="url(#p10738a8afe)" style="fill: none; stroke: #000000; stroke-linecap: square"/>
   </g>
   <g id="line2d_93">
    <g clip-path="url(#p10738a8afe)">
     <use xlink:href="#m4f1a9973a2" x="870.644183" y="149.54087" style="stroke: #000000"/>
     <use xlink:href="#m4f1a9973a2" x="870.644183" y="143.697391" style="stroke: #000000"/>
     <use xlink:href="#m4f1a9973a2" x="870.644183" y="143.697391" style="stroke: #000000"/>
     <use xlink:href="#m4f1a9973a2" x="870.644183" y="67.732174" style="stroke: #000000"/>
     <use xlink:href="#m4f1a9973a2" x="870.644183" y="64.810435" style="stroke: #000000"/>
    </g>
   </g>
   <g id="patch_17">
    <path d="M 911.061444 120.323478 
L 964.951125 120.323478 
L 964.951125 99.871304 
L 911.061444 99.871304 
L 911.061444 120.323478 
z
" clip-path="url(#p10738a8afe)" style="fill: #124d82; stroke: #000000; stroke-linejoin: miter"/>
   </g>
   <g id="line2d_94">
    <path d="M 938.006285 120.323478 
L 938.006285 137.853913 
" clip-path="url(#p10738a8afe)" style="fill: none; stroke: #000000"/>
   </g>
   <g id="line2d_95">
    <path d="M 938.006285 99.871304 
L 938.006285 76.497391 
" clip-path="url(#p10738a8afe)" style="fill: none; stroke: #000000"/>
   </g>
   <g id="line2d_96">
    <path d="M 924.533864 137.853913 
L 951.478705 137.853913 
" clip-path="url(#p10738a8afe)" style="fill: none; stroke: #000000; stroke-linecap: square"/>
   </g>
   <g id="line2d_97">
    <path d="M 924.533864 76.497391 
L 951.478705 76.497391 
" clip-path="url(#p10738a8afe)" style="fill: none; stroke: #000000; stroke-linecap: square"/>
   </g>
   <g id="line2d_98">
    <g clip-path="url(#p10738a8afe)">
     <use xlink:href="#m4f1a9973a2" x="938.006285" y="61.888696" style="stroke: #000000"/>
     <use xlink:href="#m4f1a9973a2" x="938.006285" y="67.732174" style="stroke: #000000"/>
    </g>
   </g>
   <g id="patch_18">
    <path d="M 978.423545 123.245217 
L 1032.313227 123.245217 
L 1032.313227 102.793043 
L 978.423545 102.793043 
L 978.423545 123.245217 
z
" clip-path="url(#p10738a8afe)" style="fill: #124d82; stroke: #000000; stroke-linejoin: miter"/>
   </g>
   <g id="line2d_99">
    <path d="M 1005.368386 123.245217 
L 1005.368386 149.54087 
" clip-path="url(#p10738a8afe)" style="fill: none; stroke: #000000"/>
   </g>
   <g id="line2d_100">
    <path d="M 1005.368386 102.793043 
L 1005.368386 73.575652 
" clip-path="url(#p10738a8afe)" style="fill: none; stroke: #000000"/>
   </g>
   <g id="line2d_101">
    <path d="M 991.895966 149.54087 
L 1018.840806 149.54087 
" clip-path="url(#p10738a8afe)" style="fill: none; stroke: #000000; stroke-linecap: square"/>
   </g>
   <g id="line2d_102">
    <path d="M 991.895966 73.575652 
L 1018.840806 73.575652 
" clip-path="url(#p10738a8afe)" style="fill: none; stroke: #000000; stroke-linecap: square"/>
   </g>
   <g id="line2d_103"/>
   <g id="patch_19">
    <path d="M 1045.785647 126.166957 
L 1099.675328 126.166957 
L 1099.675328 108.636522 
L 1045.785647 108.636522 
L 1045.785647 126.166957 
z
" clip-path="url(#p10738a8afe)" style="fill: #124d82; stroke: #000000; stroke-linejoin: miter"/>
   </g>
   <g id="line2d_104">
    <path d="M 1072.730487 126.166957 
L 1072.730487 149.54087 
" clip-path="url(#p10738a8afe)" style="fill: none; stroke: #000000"/>
   </g>
   <g id="line2d_105">
    <path d="M 1072.730487 108.636522 
L 1072.730487 85.262609 
" clip-path="url(#p10738a8afe)" style="fill: none; stroke: #000000"/>
   </g>
   <g id="line2d_106">
    <path d="M 1059.258067 149.54087 
L 1086.202908 149.54087 
" clip-path="url(#p10738a8afe)" style="fill: none; stroke: #000000; stroke-linecap: square"/>
   </g>
   <g id="line2d_107">
    <path d="M 1059.258067 85.262609 
L 1086.202908 85.262609 
" clip-path="url(#p10738a8afe)" style="fill: none; stroke: #000000; stroke-linecap: square"/>
   </g>
   <g id="line2d_108">
    <g clip-path="url(#p10738a8afe)">
     <use xlink:href="#m4f1a9973a2" x="1072.730487" y="76.497391" style="stroke: #000000"/>
     <use xlink:href="#m4f1a9973a2" x="1072.730487" y="64.810435" style="stroke: #000000"/>
     <use xlink:href="#m4f1a9973a2" x="1072.730487" y="76.497391" style="stroke: #000000"/>
    </g>
   </g>
   <g id="patch_20">
    <path d="M 1113.147748 129.088696 
L 1167.037429 129.088696 
L 1167.037429 114.48 
L 1113.147748 114.48 
L 1113.147748 129.088696 
z
" clip-path="url(#p10738a8afe)" style="fill: #124d82; stroke: #000000; stroke-linejoin: miter"/>
   </g>
   <g id="line2d_109">
    <path d="M 1140.092589 129.088696 
L 1140.092589 149.54087 
" clip-path="url(#p10738a8afe)" style="fill: none; stroke: #000000"/>
   </g>
   <g id="line2d_110">
    <path d="M 1140.092589 114.48 
L 1140.092589 94.027826 
" clip-path="url(#p10738a8afe)" style="fill: none; stroke: #000000"/>
   </g>
   <g id="line2d_111">
    <path d="M 1126.620168 149.54087 
L 1153.565009 149.54087 
" clip-path="url(#p10738a8afe)" style="fill: none; stroke: #000000; stroke-linecap: square"/>
   </g>
   <g id="line2d_112">
    <path d="M 1126.620168 94.027826 
L 1153.565009 94.027826 
" clip-path="url(#p10738a8afe)" style="fill: none; stroke: #000000; stroke-linecap: square"/>
   </g>
   <g id="line2d_113">
    <g clip-path="url(#p10738a8afe)">
     <use xlink:href="#m4f1a9973a2" x="1140.092589" y="152.462609" style="stroke: #000000"/>
     <use xlink:href="#m4f1a9973a2" x="1140.092589" y="155.384348" style="stroke: #000000"/>
     <use xlink:href="#m4f1a9973a2" x="1140.092589" y="91.106087" style="stroke: #000000"/>
     <use xlink:href="#m4f1a9973a2" x="1140.092589" y="88.184348" style="stroke: #000000"/>
    </g>
   </g>
   <g id="patch_21">
    <path d="M 1180.509849 137.853913 
L 1234.39953 137.853913 
L 1234.39953 123.245217 
L 1180.509849 123.245217 
L 1180.509849 137.853913 
z
" clip-path="url(#p10738a8afe)" style="fill: #124d82; stroke: #000000; stroke-linejoin: miter"/>
   </g>
   <g id="line2d_114">
    <path d="M 1207.45469 137.853913 
L 1207.45469 155.384348 
" clip-path="url(#p10738a8afe)" style="fill: none; stroke: #000000"/>
   </g>
   <g id="line2d_115">
    <path d="M 1207.45469 123.245217 
L 1207.45469 105.714783 
" clip-path="url(#p10738a8afe)" style="fill: none; stroke: #000000"/>
   </g>
   <g id="line2d_116">
    <path d="M 1193.98227 155.384348 
L 1220.92711 155.384348 
" clip-path="url(#p10738a8afe)" style="fill: none; stroke: #000000; stroke-linecap: square"/>
   </g>
   <g id="line2d_117">
    <path d="M 1193.98227 105.714783 
L 1220.92711 105.714783 
" clip-path="url(#p10738a8afe)" style="fill: none; stroke: #000000; stroke-linecap: square"/>
   </g>
   <g id="line2d_118">
    <g clip-path="url(#p10738a8afe)">
     <use xlink:href="#m4f1a9973a2" x="1207.45469" y="94.027826" style="stroke: #000000"/>
     <use xlink:href="#m4f1a9973a2" x="1207.45469" y="99.871304" style="stroke: #000000"/>
    </g>
   </g>
   <g id="line2d_119">
    <path d="M 708.97514 105.714783 
L 762.864821 105.714783 
" clip-path="url(#p10738a8afe)" style="fill: none; stroke: #c80723; stroke-width: 2"/>
   </g>
   <g id="line2d_120">
    <path d="M 776.337242 104.253913 
L 830.226923 104.253913 
" clip-path="url(#p10738a8afe)" style="fill: none; stroke: #c80723; stroke-width: 2"/>
   </g>
   <g id="line2d_121">
    <path d="M 843.699343 108.636522 
L 897.589024 108.636522 
" clip-path="url(#p10738a8afe)" style="fill: none; stroke: #c80723; stroke-width: 2"/>
   </g>
   <g id="line2d_122">
    <path d="M 911.061444 111.558261 
L 964.951125 111.558261 
" clip-path="url(#p10738a8afe)" style="fill: none; stroke: #c80723; stroke-width: 2"/>
   </g>
   <g id="line2d_123">
    <path d="M 978.423545 114.48 
L 1032.313227 114.48 
" clip-path="url(#p10738a8afe)" style="fill: none; stroke: #c80723; stroke-width: 2"/>
   </g>
   <g id="line2d_124">
    <path d="M 1045.785647 117.401739 
L 1099.675328 117.401739 
" clip-path="url(#p10738a8afe)" style="fill: none; stroke: #c80723; stroke-width: 2"/>
   </g>
   <g id="line2d_125">
    <path d="M 1113.147748 123.245217 
L 1167.037429 123.245217 
" clip-path="url(#p10738a8afe)" style="fill: none; stroke: #c80723; stroke-width: 2"/>
   </g>
   <g id="line2d_126">
    <path d="M 1180.509849 132.010435 
L 1234.39953 132.010435 
" clip-path="url(#p10738a8afe)" style="fill: none; stroke: #c80723; stroke-width: 2"/>
   </g>
   <g id="patch_22">
    <path d="M 682.703921 258.96 
L 682.703921 37.2 
" style="fill: none; stroke: #000000; stroke-width: 0.8; stroke-linejoin: miter; stroke-linecap: square"/>
   </g>
   <g id="patch_23">
    <path d="M 682.703921 258.96 
L 1260.67075 258.96 
" style="fill: none; stroke: #000000; stroke-width: 0.8; stroke-linejoin: miter; stroke-linecap: square"/>
   </g>
   <g id="text_24">
    <!-- BA Network | N=1000 -->
    <g transform="translate(807.18421 30.126563) scale(0.3 -0.3)">
     <defs>
      <path id="DejaVuSans-42" d="M 1259 2228 
L 1259 519 
L 2272 519 
Q 2781 519 3026 730 
Q 3272 941 3272 1375 
Q 3272 1813 3026 2020 
Q 2781 2228 2272 2228 
L 1259 2228 
z
M 1259 4147 
L 1259 2741 
L 2194 2741 
Q 2656 2741 2882 2914 
Q 3109 3088 3109 3444 
Q 3109 3797 2882 3972 
Q 2656 4147 2194 4147 
L 1259 4147 
z
M 628 4666 
L 2241 4666 
Q 2963 4666 3353 4366 
Q 3744 4066 3744 3513 
Q 3744 3084 3544 2831 
Q 3344 2578 2956 2516 
Q 3422 2416 3680 2098 
Q 3938 1781 3938 1306 
Q 3938 681 3513 340 
Q 3088 0 2303 0 
L 628 0 
L 628 4666 
z
" transform="scale(0.015625)"/>
      <path id="DejaVuSans-41" d="M 2188 4044 
L 1331 1722 
L 3047 1722 
L 2188 4044 
z
M 1831 4666 
L 2547 4666 
L 4325 0 
L 3669 0 
L 3244 1197 
L 1141 1197 
L 716 0 
L 50 0 
L 1831 4666 
z
" transform="scale(0.015625)"/>
     </defs>
     <use xlink:href="#DejaVuSans-42"/>
     <use xlink:href="#DejaVuSans-41" x="68.603516"/>
     <use xlink:href="#DejaVuSans-20" x="137.011719"/>
     <use xlink:href="#DejaVuSans-4e" x="168.798828"/>
     <use xlink:href="#DejaVuSans-65" x="243.603516"/>
     <use xlink:href="#DejaVuSans-74" x="305.126953"/>
     <use xlink:href="#DejaVuSans-77" x="344.335938"/>
     <use xlink:href="#DejaVuSans-6f" x="426.123047"/>
     <use xlink:href="#DejaVuSans-72" x="487.304688"/>
     <use xlink:href="#DejaVuSans-6b" x="528.417969"/>
     <use xlink:href="#DejaVuSans-20" x="586.328125"/>
     <use xlink:href="#DejaVuSans-7c" x="618.115234"/>
     <use xlink:href="#DejaVuSans-20" x="651.806641"/>
     <use xlink:href="#DejaVuSans-4e" x="683.59375"/>
     <use xlink:href="#DejaVuSans-3d" x="758.398438"/>
     <use xlink:href="#DejaVuSans-31" x="842.1875"/>
     <use xlink:href="#DejaVuSans-30" x="905.810547"/>
     <use xlink:href="#DejaVuSans-30" x="969.433594"/>
     <use xlink:href="#DejaVuSans-30" x="1033.056641"/>
    </g>
   </g>
   <g id="line2d_127">
    <path d="M 735.919981 230.60585 
L 803.282082 228.746561 
L 870.644183 229.809012 
L 938.006285 231.429249 
L 1005.368386 228.93249 
L 1072.730487 229.543399 
L 1140.092589 229.516838 
L 1207.45469 230.866633 
" clip-path="url(#p10738a8afe)" style="fill: none; stroke: #ffbd00; stroke-width: 1.5; stroke-linecap: square"/>
    <g clip-path="url(#p10738a8afe)">
     <use xlink:href="#mb6c37ce390" x="735.919981" y="230.60585" style="fill: #ffbd00; stroke: #ffbd00; stroke-linejoin: miter"/>
     <use xlink:href="#mb6c37ce390" x="803.282082" y="228.746561" style="fill: #ffbd00; stroke: #ffbd00; stroke-linejoin: miter"/>
     <use xlink:href="#mb6c37ce390" x="870.644183" y="229.809012" style="fill: #ffbd00; stroke: #ffbd00; stroke-linejoin: miter"/>
     <use xlink:href="#mb6c37ce390" x="938.006285" y="231.429249" style="fill: #ffbd00; stroke: #ffbd00; stroke-linejoin: miter"/>
     <use xlink:href="#mb6c37ce390" x="1005.368386" y="228.93249" style="fill: #ffbd00; stroke: #ffbd00; stroke-linejoin: miter"/>
     <use xlink:href="#mb6c37ce390" x="1072.730487" y="229.543399" style="fill: #ffbd00; stroke: #ffbd00; stroke-linejoin: miter"/>
     <use xlink:href="#mb6c37ce390" x="1140.092589" y="229.516838" style="fill: #ffbd00; stroke: #ffbd00; stroke-linejoin: miter"/>
     <use xlink:href="#mb6c37ce390" x="1207.45469" y="230.866633" style="fill: #ffbd00; stroke: #ffbd00; stroke-linejoin: miter"/>
    </g>
   </g>
   <g id="legend_1">
    <g id="patch_24">
     <path d="M 1009.67075 148.8 
L 1246.67075 148.8 
Q 1250.67075 148.8 1250.67075 144.8 
L 1250.67075 51.2 
Q 1250.67075 47.2 1246.67075 47.2 
L 1009.67075 47.2 
Q 1005.67075 47.2 1005.67075 51.2 
L 1005.67075 144.8 
Q 1005.67075 148.8 1009.67075 148.8 
z
" style="fill: #ffffff; opacity: 0.8; stroke: #000000; stroke-linejoin: miter"/>
    </g>
    <g id="patch_25">
     <path d="M 1013.67075 75.2 
L 1053.67075 75.2 
L 1053.67075 61.2 
L 1013.67075 61.2 
z
" style="fill: #004e94; stroke: #000000; stroke-linejoin: miter"/>
    </g>
    <g id="text_25">
     <!-- $\Delta N_{D}^{opt}$ -->
     <g transform="translate(1069.67075 75.2) scale(0.2 -0.2)">
      <defs>
       <path id="DejaVuSans-394" d="M 2188 4044 
L 906 525 
L 3472 525 
L 2188 4044 
z
M 50 0 
L 1831 4666 
L 2547 4666 
L 4325 0 
L 50 0 
z
" transform="scale(0.015625)"/>
       <path id="DejaVuSans-Oblique-4e" d="M 1081 4666 
L 1931 4666 
L 3219 666 
L 4000 4666 
L 4616 4666 
L 3706 0 
L 2853 0 
L 1569 4025 
L 788 0 
L 172 0 
L 1081 4666 
z
" transform="scale(0.015625)"/>
       <path id="DejaVuSans-Oblique-6f" d="M 1625 -91 
Q 1009 -91 651 289 
Q 294 669 294 1325 
Q 294 1706 417 2101 
Q 541 2497 738 2766 
Q 1047 3184 1428 3384 
Q 1809 3584 2291 3584 
Q 2888 3584 3255 3212 
Q 3622 2841 3622 2241 
Q 3622 1825 3500 1412 
Q 3378 1000 3181 728 
Q 2875 309 2494 109 
Q 2113 -91 1625 -91 
z
M 891 1344 
Q 891 869 1089 633 
Q 1288 397 1691 397 
Q 2269 397 2648 901 
Q 3028 1406 3028 2181 
Q 3028 2634 2825 2865 
Q 2622 3097 2228 3097 
Q 1903 3097 1650 2945 
Q 1397 2794 1197 2484 
Q 1050 2253 970 1956 
Q 891 1659 891 1344 
z
" transform="scale(0.015625)"/>
       <path id="DejaVuSans-Oblique-70" d="M 3175 2156 
Q 3175 2616 2975 2859 
Q 2775 3103 2400 3103 
Q 2144 3103 1911 2972 
Q 1678 2841 1497 2591 
Q 1319 2344 1212 1994 
Q 1106 1644 1106 1300 
Q 1106 863 1306 627 
Q 1506 391 1875 391 
Q 2147 391 2380 519 
Q 2613 647 2778 891 
Q 2956 1147 3065 1494 
Q 3175 1841 3175 2156 
z
M 1394 2969 
Q 1625 3272 1939 3428 
Q 2253 3584 2638 3584 
Q 3175 3584 3472 3232 
Q 3769 2881 3769 2247 
Q 3769 1728 3584 1258 
Q 3400 788 3053 416 
Q 2822 169 2531 39 
Q 2241 -91 1919 -91 
Q 1547 -91 1294 64 
Q 1041 219 916 525 
L 556 -1331 
L -19 -1331 
L 922 3500 
L 1497 3500 
L 1394 2969 
z
" transform="scale(0.015625)"/>
       <path id="DejaVuSans-Oblique-74" d="M 2706 3500 
L 2619 3053 
L 1472 3053 
L 1100 1153 
Q 1081 1047 1072 975 
Q 1063 903 1063 863 
Q 1063 663 1183 572 
Q 1303 481 1569 481 
L 2150 481 
L 2053 0 
L 1503 0 
Q 991 0 739 200 
Q 488 400 488 806 
Q 488 878 497 964 
Q 506 1050 525 1153 
L 897 3053 
L 409 3053 
L 500 3500 
L 978 3500 
L 1172 4494 
L 1747 4494 
L 1556 3500 
L 2706 3500 
z
" transform="scale(0.015625)"/>
       <path id="DejaVuSans-Oblique-44" d="M 1081 4666 
L 2438 4666 
Q 3519 4666 4070 4208 
Q 4622 3750 4622 2847 
Q 4622 2250 4412 1698 
Q 4203 1147 3834 769 
Q 3463 381 2891 190 
Q 2319 0 1538 0 
L 172 0 
L 1081 4666 
z
M 1613 4147 
L 909 519 
L 1734 519 
Q 2794 519 3375 1128 
Q 3956 1738 3956 2847 
Q 3956 3519 3581 3833 
Q 3206 4147 2406 4147 
L 1613 4147 
z
" transform="scale(0.015625)"/>
      </defs>
      <use xlink:href="#DejaVuSans-394" transform="translate(0 0.098438)"/>
      <use xlink:href="#DejaVuSans-Oblique-4e" transform="translate(68.408203 0.098438)"/>
      <use xlink:href="#DejaVuSans-Oblique-6f" transform="translate(150.229661 50.846875) scale(0.7)"/>
      <use xlink:href="#DejaVuSans-Oblique-70" transform="translate(193.05681 50.846875) scale(0.7)"/>
      <use xlink:href="#DejaVuSans-Oblique-74" transform="translate(237.490404 50.846875) scale(0.7)"/>
      <use xlink:href="#DejaVuSans-Oblique-44" transform="translate(143.212891 -27.245312) scale(0.7)"/>
     </g>
    </g>
    <g id="line2d_128">
     <path d="M 1013.67075 99.4 
L 1033.67075 99.4 
L 1053.67075 99.4 
" style="fill: none; stroke: #d55b00; stroke-width: 1.5; stroke-linecap: square"/>
     <defs>
      <path id="m9c6fdd2e0b" d="M 0 -3 
L -3 3 
L 3 3 
z
" style="stroke: #d55b00; stroke-linejoin: miter"/>
     </defs>
     <g>
      <use xlink:href="#m9c6fdd2e0b" x="1033.67075" y="99.4" style="fill: #d55b00; stroke: #d55b00; stroke-linejoin: miter"/>
     </g>
    </g>
    <g id="text_26">
     <!-- $\Delta N_D(CLAP-S \mid \mathcal{I})$ -->
     <g transform="translate(1069.67075 106.4) scale(0.2 -0.2)">
      <defs>
       <path id="DejaVuSans-28" d="M 1984 4856 
Q 1566 4138 1362 3434 
Q 1159 2731 1159 2009 
Q 1159 1288 1364 580 
Q 1569 -128 1984 -844 
L 1484 -844 
Q 1016 -109 783 600 
Q 550 1309 550 2009 
Q 550 2706 781 3412 
Q 1013 4119 1484 4856 
L 1984 4856 
z
" transform="scale(0.015625)"/>
       <path id="DejaVuSans-Oblique-43" d="M 4447 4306 
L 4319 3641 
Q 4019 3944 3683 4091 
Q 3347 4238 2956 4238 
Q 2422 4238 2017 3981 
Q 1613 3725 1319 3200 
Q 1131 2863 1032 2486 
Q 934 2109 934 1728 
Q 934 1091 1264 756 
Q 1594 422 2222 422 
Q 2656 422 3056 561 
Q 3456 700 3834 978 
L 3688 231 
Q 3316 72 2936 -9 
Q 2556 -91 2175 -91 
Q 1278 -91 773 396 
Q 269 884 269 1753 
Q 269 2309 461 2846 
Q 653 3384 1013 3828 
Q 1394 4300 1883 4525 
Q 2372 4750 3022 4750 
Q 3422 4750 3780 4639 
Q 4138 4528 4447 4306 
z
" transform="scale(0.015625)"/>
       <path id="DejaVuSans-Oblique-4c" d="M 1075 4666 
L 1709 4666 
L 909 525 
L 3181 525 
L 3078 0 
L 172 0 
L 1075 4666 
z
" transform="scale(0.015625)"/>
       <path id="DejaVuSans-Oblique-41" d="M 2356 4666 
L 3072 4666 
L 3938 0 
L 3278 0 
L 3084 1197 
L 984 1197 
L 325 0 
L -341 0 
L 2356 4666 
z
M 2584 4044 
L 1275 1722 
L 2988 1722 
L 2584 4044 
z
" transform="scale(0.015625)"/>
       <path id="DejaVuSans-Oblique-50" d="M 1081 4666 
L 2541 4666 
Q 3178 4666 3512 4369 
Q 3847 4072 3847 3500 
Q 3847 2731 3353 2303 
Q 2859 1875 1966 1875 
L 1172 1875 
L 806 0 
L 172 0 
L 1081 4666 
z
M 1613 4147 
L 1275 2394 
L 2069 2394 
Q 2606 2394 2893 2669 
Q 3181 2944 3181 3456 
Q 3181 3784 2986 3965 
Q 2791 4147 2438 4147 
L 1613 4147 
z
" transform="scale(0.015625)"/>
       <path id="DejaVuSans-2212" d="M 678 2272 
L 4684 2272 
L 4684 1741 
L 678 1741 
L 678 2272 
z
" transform="scale(0.015625)"/>
       <path id="DejaVuSans-Oblique-53" d="M 3859 4513 
L 3738 3897 
Q 3422 4066 3111 4152 
Q 2800 4238 2509 4238 
Q 1944 4238 1609 3991 
Q 1275 3744 1275 3334 
Q 1275 3109 1398 2989 
Q 1522 2869 2034 2731 
L 2413 2638 
Q 3053 2472 3303 2217 
Q 3553 1963 3553 1503 
Q 3553 797 2998 353 
Q 2444 -91 1538 -91 
Q 1166 -91 791 -17 
Q 416 56 38 206 
L 166 856 
Q 513 641 861 531 
Q 1209 422 1556 422 
Q 2147 422 2503 684 
Q 2859 947 2859 1369 
Q 2859 1650 2717 1795 
Q 2575 1941 2106 2059 
L 1728 2156 
Q 1081 2325 845 2545 
Q 609 2766 609 3163 
Q 609 3859 1145 4304 
Q 1681 4750 2541 4750 
Q 2875 4750 3203 4690 
Q 3531 4631 3859 4513 
z
" transform="scale(0.015625)"/>
       <path id="DejaVuSans-2223" d="M 1350 4934 
L 1850 4934 
L 1850 -1369 
L 1350 -1369 
L 1350 4934 
z
" transform="scale(0.015625)"/>
       <path id="STIXNonUnicode-Italic-e235" d="M 3782 4237 
L 3744 4083 
Q 3482 4083 3347 4067 
Q 3213 4051 3069 3977 
Q 2925 3904 2838 3753 
Q 2752 3603 2675 3334 
L 1920 710 
Q 1901 634 1901 557 
Q 1901 352 2208 352 
Q 2790 352 3283 819 
L 3398 698 
Q 3008 320 2566 160 
Q 2125 0 1549 0 
L 243 0 
L 282 154 
Q 467 154 556 160 
Q 646 166 777 201 
Q 909 237 982 310 
Q 1056 384 1139 521 
Q 1222 659 1280 870 
L 1946 3187 
Q 2061 3590 2061 3674 
Q 2061 3878 1754 3878 
Q 1523 3878 1203 3750 
Q 883 3622 678 3411 
L 570 3533 
Q 947 3904 1385 4070 
Q 1824 4237 2579 4237 
L 3782 4237 
z
" transform="scale(0.015625)"/>
       <path id="DejaVuSans-29" d="M 513 4856 
L 1013 4856 
Q 1481 4119 1714 3412 
Q 1947 2706 1947 2009 
Q 1947 1309 1714 600 
Q 1481 -109 1013 -844 
L 513 -844 
Q 928 -128 1133 580 
Q 1338 1288 1338 2009 
Q 1338 2731 1133 3434 
Q 928 4138 513 4856 
z
" transform="scale(0.015625)"/>
      </defs>
      <use xlink:href="#DejaVuSans-394" transform="translate(0 0.90625)"/>
      <use xlink:href="#DejaVuSans-Oblique-4e" transform="translate(68.408203 0.90625)"/>
      <use xlink:href="#DejaVuSans-Oblique-44" transform="translate(143.212891 -15.5) scale(0.7)"/>
      <use xlink:href="#DejaVuSans-28" transform="translate(199.848633 0.90625)"/>
      <use xlink:href="#DejaVuSans-Oblique-43" transform="translate(238.862305 0.90625)"/>
      <use xlink:href="#DejaVuSans-Oblique-4c" transform="translate(308.686523 0.90625)"/>
      <use xlink:href="#DejaVuSans-Oblique-41" transform="translate(364.399414 0.90625)"/>
      <use xlink:href="#DejaVuSans-Oblique-50" transform="translate(432.807617 0.90625)"/>
      <use xlink:href="#DejaVuSans-2212" transform="translate(512.592773 0.90625)"/>
      <use xlink:href="#DejaVuSans-Oblique-53" transform="translate(615.864258 0.90625)"/>
      <use xlink:href="#DejaVuSans-2223" transform="translate(698.823242 0.90625)"/>
      <use xlink:href="#STIXNonUnicode-Italic-e235" transform="translate(768.305664 0.90625)"/>
      <use xlink:href="#DejaVuSans-29" transform="translate(825.805649 0.90625)"/>
     </g>
    </g>
    <g id="line2d_129">
     <path d="M 1013.67075 129.4 
L 1033.67075 129.4 
L 1053.67075 129.4 
" style="fill: none; stroke: #ffbd00; stroke-width: 1.5; stroke-linecap: square"/>
     <defs>
      <path id="ma822fa99a9" d="M -3 3 
L 3 3 
L 3 -3 
L -3 -3 
z
" style="stroke: #ffbd00; stroke-linejoin: miter"/>
     </defs>
     <g>
      <use xlink:href="#ma822fa99a9" x="1033.67075" y="129.4" style="fill: #ffbd00; stroke: #ffbd00; stroke-linejoin: miter"/>
     </g>
    </g>
    <g id="text_27">
     <!-- $\Delta N_D(RSU \mid \mathcal{I})$ -->
     <g transform="translate(1069.67075 136.4) scale(0.2 -0.2)">
      <defs>
       <path id="DejaVuSans-Oblique-52" d="M 1613 4147 
L 1294 2491 
L 2106 2491 
Q 2584 2491 2879 2755 
Q 3175 3019 3175 3444 
Q 3175 3784 2976 3965 
Q 2778 4147 2406 4147 
L 1613 4147 
z
M 2772 2241 
Q 2972 2194 3105 2009 
Q 3238 1825 3413 1275 
L 3809 0 
L 3144 0 
L 2778 1197 
Q 2638 1659 2453 1815 
Q 2269 1972 1888 1972 
L 1191 1972 
L 806 0 
L 172 0 
L 1081 4666 
L 2503 4666 
Q 3150 4666 3495 4373 
Q 3841 4081 3841 3531 
Q 3841 3044 3547 2687 
Q 3253 2331 2772 2241 
z
" transform="scale(0.015625)"/>
       <path id="DejaVuSans-Oblique-55" d="M 991 4666 
L 1625 4666 
L 1075 1831 
Q 1041 1641 1027 1517 
Q 1013 1394 1013 1300 
Q 1013 869 1253 645 
Q 1494 422 1959 422 
Q 2563 422 2898 753 
Q 3234 1084 3378 1831 
L 3928 4666 
L 4563 4666 
L 4000 1753 
Q 3816 809 3300 359 
Q 2784 -91 1888 -91 
Q 1188 -91 780 261 
Q 372 613 372 1216 
Q 372 1325 387 1461 
Q 403 1597 434 1753 
L 991 4666 
z
" transform="scale(0.015625)"/>
      </defs>
      <use xlink:href="#DejaVuSans-394" transform="translate(0 0.90625)"/>
      <use xlink:href="#DejaVuSans-Oblique-4e" transform="translate(68.408203 0.90625)"/>
      <use xlink:href="#DejaVuSans-Oblique-44" transform="translate(143.212891 -15.5) scale(0.7)"/>
      <use xlink:href="#DejaVuSans-28" transform="translate(199.848633 0.90625)"/>
      <use xlink:href="#DejaVuSans-Oblique-52" transform="translate(238.862305 0.90625)"/>
      <use xlink:href="#DejaVuSans-Oblique-53" transform="translate(308.344727 0.90625)"/>
      <use xlink:href="#DejaVuSans-Oblique-55" transform="translate(371.821289 0.90625)"/>
      <use xlink:href="#DejaVuSans-2223" transform="translate(464.49707 0.90625)"/>
      <use xlink:href="#STIXNonUnicode-Italic-e235" transform="translate(533.979492 0.90625)"/>
      <use xlink:href="#DejaVuSans-29" transform="translate(591.479477 0.90625)"/>
     </g>
    </g>
   </g>
   <g id="line2d_130">
    <path d="M 735.919981 66.510356 
L 803.282082 66.855652 
L 870.644183 69.936759 
L 938.006285 73.256917 
L 1005.368386 74.903715 
L 1072.730487 79.684743 
L 1140.092589 85.342292 
L 1207.45469 95.162716 
" clip-path="url(#p10738a8afe)" style="fill: none; stroke: #d55b00; stroke-width: 1.5; stroke-linecap: square"/>
    <g clip-path="url(#p10738a8afe)">
     <use xlink:href="#m55da2c4dc0" x="735.919981" y="66.510356" style="fill: #d55b00; stroke: #d55b00; stroke-linejoin: miter"/>
     <use xlink:href="#m55da2c4dc0" x="803.282082" y="66.855652" style="fill: #d55b00; stroke: #d55b00; stroke-linejoin: miter"/>
     <use xlink:href="#m55da2c4dc0" x="870.644183" y="69.936759" style="fill: #d55b00; stroke: #d55b00; stroke-linejoin: miter"/>
     <use xlink:href="#m55da2c4dc0" x="938.006285" y="73.256917" style="fill: #d55b00; stroke: #d55b00; stroke-linejoin: miter"/>
     <use xlink:href="#m55da2c4dc0" x="1005.368386" y="74.903715" style="fill: #d55b00; stroke: #d55b00; stroke-linejoin: miter"/>
     <use xlink:href="#m55da2c4dc0" x="1072.730487" y="79.684743" style="fill: #d55b00; stroke: #d55b00; stroke-linejoin: miter"/>
     <use xlink:href="#m55da2c4dc0" x="1140.092589" y="85.342292" style="fill: #d55b00; stroke: #d55b00; stroke-linejoin: miter"/>
     <use xlink:href="#m55da2c4dc0" x="1207.45469" y="95.162716" style="fill: #d55b00; stroke: #d55b00; stroke-linejoin: miter"/>
    </g>
   </g>
  </g>
 </g>
 <defs>
  <clipPath id="p2dfdcfb41f">
   <rect x="75.83875" y="37.2" width="577.966829" height="221.76"/>
  </clipPath>
  <clipPath id="p10738a8afe">
   <rect x="682.703921" y="37.2" width="577.966829" height="221.76"/>
  </clipPath>
 </defs>
</svg>
