<?xml version="1.0" encoding="utf-8" standalone="no"?>
<!DOCTYPE svg PUBLIC "-//W3C//DTD SVG 1.1//EN"
  "http://www.w3.org/Graphics/SVG/1.1/DTD/svg11.dtd">
<svg xmlns:xlink="http://www.w3.org/1999/xlink" width="705.58075pt" height="326.79385pt" viewBox="0 0 705.58075 326.79385" xmlns="http://www.w3.org/2000/svg" version="1.1">
 <metadata>
  <rdf:RDF xmlns:dc="http://purl.org/dc/elements/1.1/" xmlns:cc="http://creativecommons.org/ns#" xmlns:rdf="http://www.w3.org/1999/02/22-rdf-syntax-ns#">
   <cc:Work>
    <dc:type rdf:resource="http://purl.org/dc/dcmitype/StillImage"/>
    <dc:date>2026-01-23T13:16:59.695688</dc:date>
    <dc:format>image/svg+xml</dc:format>
    <dc:creator>
     <cc:Agent>
      <dc:title>Matplotlib v3.7.5, https://matplotlib.org/</dc:title>
     </cc:Agent>
    </dc:creator>
   </cc:Work>
  </rdf:RDF>
 </metadata>
 <defs>
  <style type="text/css">*{stroke-linejoin: round; stroke-linecap: butt}</style>
 </defs>
 <g id="figure_1">
  <g id="patch_1">
   <path d="M -0 326.79385 
L 705.58075 326.79385 
L 705.58075 -0 
L -0 -0 
z
" style="fill: #ffffff"/>
  </g>
  <g id="axes_1">
   <g id="patch_2">
    <path d="M 52.29115 282.0648 
L 368.07835 282.0648 
L 368.07835 59.2704 
L 52.29115 59.2704 
z
" style="fill: #ffffff"/>
   </g>
   <g id="matplotlib.axis_1">
    <g id="xtick_1">
     <g id="line2d_1">
      <path d="M 66.645114 282.0648 
L 66.645114 59.2704 
" clip-path="url(#pc5206c9bc6)" style="fill: none; stroke: #cccccc; stroke-width: 0.8; stroke-linecap: round"/>
     </g>
     <g id="text_1">
      <!-- 0.0 -->
      <g style="fill: #262626" transform="translate(56.848789 299.726075) scale(0.1232 -0.1232)">
       <defs>
        <path id="DejaVuSerif-30" d="M 2034 219 
Q 2513 219 2750 744 
Q 2988 1269 2988 2328 
Q 2988 3391 2750 3916 
Q 2513 4441 2034 4441 
Q 1556 4441 1318 3916 
Q 1081 3391 1081 2328 
Q 1081 1269 1318 744 
Q 1556 219 2034 219 
z
M 2034 -91 
Q 1275 -91 848 546 
Q 422 1184 422 2328 
Q 422 3475 848 4112 
Q 1275 4750 2034 4750 
Q 2797 4750 3222 4112 
Q 3647 3475 3647 2328 
Q 3647 1184 3222 546 
Q 2797 -91 2034 -91 
z
" transform="scale(0.015625)"/>
        <path id="DejaVuSerif-2e" d="M 603 325 
Q 603 500 722 622 
Q 841 744 1019 744 
Q 1191 744 1312 622 
Q 1434 500 1434 325 
Q 1434 153 1312 31 
Q 1191 -91 1019 -91 
Q 841 -91 722 29 
Q 603 150 603 325 
z
" transform="scale(0.015625)"/>
       </defs>
       <use xlink:href="#DejaVuSerif-30"/>
       <use xlink:href="#DejaVuSerif-2e" x="63.623047"/>
       <use xlink:href="#DejaVuSerif-30" x="95.410156"/>
      </g>
     </g>
    </g>
    <g id="xtick_2">
     <g id="line2d_2">
      <path d="M 124.060968 282.0648 
L 124.060968 59.2704 
" clip-path="url(#pc5206c9bc6)" style="fill: none; stroke: #cccccc; stroke-width: 0.8; stroke-linecap: round"/>
     </g>
     <g id="text_2">
      <!-- 0.1 -->
      <g style="fill: #262626" transform="translate(114.264643 299.726075) scale(0.1232 -0.1232)">
       <defs>
        <path id="DejaVuSerif-31" d="M 909 0 
L 909 331 
L 1722 331 
L 1722 4213 
L 781 3603 
L 781 4013 
L 1919 4750 
L 2350 4750 
L 2350 331 
L 3163 331 
L 3163 0 
L 909 0 
z
" transform="scale(0.015625)"/>
       </defs>
       <use xlink:href="#DejaVuSerif-30"/>
       <use xlink:href="#DejaVuSerif-2e" x="63.623047"/>
       <use xlink:href="#DejaVuSerif-31" x="95.410156"/>
      </g>
     </g>
    </g>
    <g id="xtick_3">
     <g id="line2d_3">
      <path d="M 181.476823 282.0648 
L 181.476823 59.2704 
" clip-path="url(#pc5206c9bc6)" style="fill: none; stroke: #cccccc; stroke-width: 0.8; stroke-linecap: round"/>
     </g>
     <g id="text_3">
      <!-- 0.2 -->
      <g style="fill: #262626" transform="translate(171.680498 299.726075) scale(0.1232 -0.1232)">
       <defs>
        <path id="DejaVuSerif-32" d="M 819 3553 
L 469 3553 
L 469 4384 
Q 803 4563 1142 4656 
Q 1481 4750 1806 4750 
Q 2534 4750 2956 4397 
Q 3378 4044 3378 3438 
Q 3378 2753 2422 1800 
Q 2347 1728 2309 1691 
L 1131 513 
L 3078 513 
L 3078 1088 
L 3444 1088 
L 3444 0 
L 434 0 
L 434 341 
L 1850 1753 
Q 2319 2222 2519 2614 
Q 2719 3006 2719 3438 
Q 2719 3909 2473 4175 
Q 2228 4441 1797 4441 
Q 1350 4441 1106 4219 
Q 863 3997 819 3553 
z
" transform="scale(0.015625)"/>
       </defs>
       <use xlink:href="#DejaVuSerif-30"/>
       <use xlink:href="#DejaVuSerif-2e" x="63.623047"/>
       <use xlink:href="#DejaVuSerif-32" x="95.410156"/>
      </g>
     </g>
    </g>
    <g id="xtick_4">
     <g id="line2d_4">
      <path d="M 238.892677 282.0648 
L 238.892677 59.2704 
" clip-path="url(#pc5206c9bc6)" style="fill: none; stroke: #cccccc; stroke-width: 0.8; stroke-linecap: round"/>
     </g>
     <g id="text_4">
      <!-- 0.3 -->
      <g style="fill: #262626" transform="translate(229.096352 299.726075) scale(0.1232 -0.1232)">
       <defs>
        <path id="DejaVuSerif-33" d="M 622 4469 
Q 988 4606 1323 4678 
Q 1659 4750 1953 4750 
Q 2638 4750 3022 4454 
Q 3406 4159 3406 3634 
Q 3406 3213 3140 2930 
Q 2875 2647 2388 2547 
Q 2963 2466 3280 2130 
Q 3597 1794 3597 1259 
Q 3597 606 3158 257 
Q 2719 -91 1894 -91 
Q 1528 -91 1179 -12 
Q 831 66 488 225 
L 488 1131 
L 838 1131 
Q 869 681 1141 450 
Q 1413 219 1906 219 
Q 2384 219 2661 495 
Q 2938 772 2938 1253 
Q 2938 1803 2653 2086 
Q 2369 2369 1819 2369 
L 1522 2369 
L 1522 2688 
L 1678 2688 
Q 2225 2688 2498 2914 
Q 2772 3141 2772 3597 
Q 2772 4006 2547 4223 
Q 2322 4441 1900 4441 
Q 1478 4441 1245 4241 
Q 1013 4041 972 3647 
L 622 3647 
L 622 4469 
z
" transform="scale(0.015625)"/>
       </defs>
       <use xlink:href="#DejaVuSerif-30"/>
       <use xlink:href="#DejaVuSerif-2e" x="63.623047"/>
       <use xlink:href="#DejaVuSerif-33" x="95.410156"/>
      </g>
     </g>
    </g>
    <g id="xtick_5">
     <g id="line2d_5">
      <path d="M 296.308532 282.0648 
L 296.308532 59.2704 
" clip-path="url(#pc5206c9bc6)" style="fill: none; stroke: #cccccc; stroke-width: 0.8; stroke-linecap: round"/>
     </g>
     <g id="text_5">
      <!-- 0.4 -->
      <g style="fill: #262626" transform="translate(286.512207 299.726075) scale(0.1232 -0.1232)">
       <defs>
        <path id="DejaVuSerif-34" d="M 2234 1581 
L 2234 4063 
L 641 1581 
L 2234 1581 
z
M 3609 0 
L 1484 0 
L 1484 331 
L 2234 331 
L 2234 1247 
L 197 1247 
L 197 1588 
L 2241 4750 
L 2859 4750 
L 2859 1581 
L 3750 1581 
L 3750 1247 
L 2859 1247 
L 2859 331 
L 3609 331 
L 3609 0 
z
" transform="scale(0.015625)"/>
       </defs>
       <use xlink:href="#DejaVuSerif-30"/>
       <use xlink:href="#DejaVuSerif-2e" x="63.623047"/>
       <use xlink:href="#DejaVuSerif-34" x="95.410156"/>
      </g>
     </g>
    </g>
    <g id="xtick_6">
     <g id="line2d_6">
      <path d="M 353.724386 282.0648 
L 353.724386 59.2704 
" clip-path="url(#pc5206c9bc6)" style="fill: none; stroke: #cccccc; stroke-width: 0.8; stroke-linecap: round"/>
     </g>
     <g id="text_6">
      <!-- 0.5 -->
      <g style="fill: #262626" transform="translate(343.928061 299.726075) scale(0.1232 -0.1232)">
       <defs>
        <path id="DejaVuSerif-35" d="M 3219 4666 
L 3219 4153 
L 1081 4153 
L 1081 2816 
Q 1244 2928 1461 2984 
Q 1678 3041 1947 3041 
Q 2703 3041 3140 2622 
Q 3578 2203 3578 1478 
Q 3578 738 3136 323 
Q 2694 -91 1894 -91 
Q 1572 -91 1234 -12 
Q 897 66 544 225 
L 544 1131 
L 897 1131 
Q 925 688 1179 453 
Q 1434 219 1894 219 
Q 2388 219 2653 544 
Q 2919 869 2919 1478 
Q 2919 2084 2655 2407 
Q 2391 2731 1894 2731 
Q 1613 2731 1398 2631 
Q 1184 2531 1019 2322 
L 750 2322 
L 750 4666 
L 3219 4666 
z
" transform="scale(0.015625)"/>
       </defs>
       <use xlink:href="#DejaVuSerif-30"/>
       <use xlink:href="#DejaVuSerif-2e" x="63.623047"/>
       <use xlink:href="#DejaVuSerif-35" x="95.410156"/>
      </g>
     </g>
    </g>
    <g id="text_7">
     <!-- Fraction of Edges Removed ($p$) -->
     <g style="fill: #262626" transform="translate(104.21035 316.50265) scale(0.1344 -0.1344)">
      <defs>
       <path id="DejaVuSerif-46" d="M 353 0 
L 353 331 
L 947 331 
L 947 4331 
L 353 4331 
L 353 4666 
L 4172 4666 
L 4172 3628 
L 3788 3628 
L 3788 4281 
L 1581 4281 
L 1581 2719 
L 3175 2719 
L 3175 3303 
L 3559 3303 
L 3559 1753 
L 3175 1753 
L 3175 2338 
L 1581 2338 
L 1581 331 
L 2328 331 
L 2328 0 
L 353 0 
z
" transform="scale(0.015625)"/>
       <path id="DejaVuSerif-72" d="M 3059 3328 
L 3059 2497 
L 2728 2497 
Q 2713 2744 2591 2866 
Q 2469 2988 2234 2988 
Q 1809 2988 1582 2694 
Q 1356 2400 1356 1850 
L 1356 331 
L 2022 331 
L 2022 0 
L 263 0 
L 263 331 
L 781 331 
L 781 2994 
L 231 2994 
L 231 3322 
L 1356 3322 
L 1356 2731 
Q 1525 3078 1790 3245 
Q 2056 3413 2438 3413 
Q 2578 3413 2733 3391 
Q 2888 3369 3059 3328 
z
" transform="scale(0.015625)"/>
       <path id="DejaVuSerif-61" d="M 2547 1044 
L 2547 1747 
L 1806 1747 
Q 1378 1747 1168 1562 
Q 959 1378 959 997 
Q 959 650 1171 447 
Q 1384 244 1747 244 
Q 2106 244 2326 466 
Q 2547 688 2547 1044 
z
M 3122 2075 
L 3122 331 
L 3634 331 
L 3634 0 
L 2547 0 
L 2547 359 
Q 2356 128 2106 18 
Q 1856 -91 1522 -91 
Q 969 -91 644 203 
Q 319 497 319 997 
Q 319 1513 691 1797 
Q 1063 2081 1741 2081 
L 2547 2081 
L 2547 2309 
Q 2547 2688 2317 2895 
Q 2088 3103 1672 3103 
Q 1328 3103 1125 2947 
Q 922 2791 872 2484 
L 575 2484 
L 575 3156 
Q 875 3284 1158 3348 
Q 1441 3413 1709 3413 
Q 2400 3413 2761 3070 
Q 3122 2728 3122 2075 
z
" transform="scale(0.015625)"/>
       <path id="DejaVuSerif-63" d="M 3291 997 
Q 3169 466 2822 187 
Q 2475 -91 1925 -91 
Q 1200 -91 759 389 
Q 319 869 319 1663 
Q 319 2459 759 2936 
Q 1200 3413 1925 3413 
Q 2241 3413 2553 3339 
Q 2866 3266 3181 3116 
L 3181 2266 
L 2847 2266 
Q 2781 2703 2561 2903 
Q 2341 3103 1931 3103 
Q 1466 3103 1228 2742 
Q 991 2381 991 1663 
Q 991 944 1227 581 
Q 1463 219 1931 219 
Q 2303 219 2525 412 
Q 2747 606 2828 997 
L 3291 997 
z
" transform="scale(0.015625)"/>
       <path id="DejaVuSerif-74" d="M 691 2988 
L 184 2988 
L 184 3322 
L 691 3322 
L 691 4353 
L 1269 4353 
L 1269 3322 
L 2350 3322 
L 2350 2988 
L 1269 2988 
L 1269 878 
Q 1269 456 1350 337 
Q 1431 219 1650 219 
Q 1875 219 1978 351 
Q 2081 484 2088 781 
L 2522 781 
Q 2497 328 2275 118 
Q 2053 -91 1600 -91 
Q 1103 -91 897 129 
Q 691 350 691 878 
L 691 2988 
z
" transform="scale(0.015625)"/>
       <path id="DejaVuSerif-69" d="M 622 4353 
Q 622 4497 726 4603 
Q 831 4709 978 4709 
Q 1122 4709 1226 4603 
Q 1331 4497 1331 4353 
Q 1331 4206 1228 4103 
Q 1125 4000 978 4000 
Q 831 4000 726 4103 
Q 622 4206 622 4353 
z
M 1356 331 
L 1900 331 
L 1900 0 
L 231 0 
L 231 331 
L 781 331 
L 781 2988 
L 231 2988 
L 231 3322 
L 1356 3322 
L 1356 331 
z
" transform="scale(0.015625)"/>
       <path id="DejaVuSerif-6f" d="M 1925 219 
Q 2388 219 2623 584 
Q 2859 950 2859 1663 
Q 2859 2375 2623 2739 
Q 2388 3103 1925 3103 
Q 1463 3103 1227 2739 
Q 991 2375 991 1663 
Q 991 950 1228 584 
Q 1466 219 1925 219 
z
M 1925 -91 
Q 1200 -91 759 389 
Q 319 869 319 1663 
Q 319 2456 758 2934 
Q 1197 3413 1925 3413 
Q 2653 3413 3092 2934 
Q 3531 2456 3531 1663 
Q 3531 869 3092 389 
Q 2653 -91 1925 -91 
z
" transform="scale(0.015625)"/>
       <path id="DejaVuSerif-6e" d="M 263 0 
L 263 331 
L 781 331 
L 781 2988 
L 231 2988 
L 231 3322 
L 1356 3322 
L 1356 2731 
Q 1516 3069 1770 3241 
Q 2025 3413 2363 3413 
Q 2913 3413 3172 3097 
Q 3431 2781 3431 2113 
L 3431 331 
L 3944 331 
L 3944 0 
L 2356 0 
L 2356 331 
L 2853 331 
L 2853 1931 
Q 2853 2541 2703 2767 
Q 2553 2994 2175 2994 
Q 1775 2994 1565 2701 
Q 1356 2409 1356 1850 
L 1356 331 
L 1856 331 
L 1856 0 
L 263 0 
z
" transform="scale(0.015625)"/>
       <path id="DejaVuSerif-20" transform="scale(0.015625)"/>
       <path id="DejaVuSerif-66" d="M 2753 4078 
L 2450 4078 
Q 2447 4313 2317 4434 
Q 2188 4556 1941 4556 
Q 1619 4556 1487 4379 
Q 1356 4203 1356 3750 
L 1356 3322 
L 2284 3322 
L 2284 2988 
L 1356 2988 
L 1356 331 
L 2094 331 
L 2094 0 
L 231 0 
L 231 331 
L 781 331 
L 781 2988 
L 231 2988 
L 231 3322 
L 781 3322 
L 781 3738 
Q 781 4294 1070 4578 
Q 1359 4863 1919 4863 
Q 2128 4863 2337 4825 
Q 2547 4788 2753 4709 
L 2753 4078 
z
" transform="scale(0.015625)"/>
       <path id="DejaVuSerif-45" d="M 353 0 
L 353 331 
L 947 331 
L 947 4331 
L 353 4331 
L 353 4666 
L 4109 4666 
L 4109 3628 
L 3725 3628 
L 3725 4281 
L 1581 4281 
L 1581 2719 
L 3109 2719 
L 3109 3303 
L 3494 3303 
L 3494 1753 
L 3109 1753 
L 3109 2338 
L 1581 2338 
L 1581 384 
L 3775 384 
L 3775 1038 
L 4159 1038 
L 4159 0 
L 353 0 
z
" transform="scale(0.015625)"/>
       <path id="DejaVuSerif-64" d="M 3359 331 
L 3909 331 
L 3909 0 
L 2784 0 
L 2784 519 
Q 2616 206 2355 57 
Q 2094 -91 1709 -91 
Q 1097 -91 708 395 
Q 319 881 319 1663 
Q 319 2444 706 2928 
Q 1094 3413 1709 3413 
Q 2094 3413 2355 3264 
Q 2616 3116 2784 2803 
L 2784 4531 
L 2241 4531 
L 2241 4863 
L 3359 4863 
L 3359 331 
z
M 2784 1497 
L 2784 1825 
Q 2784 2422 2554 2737 
Q 2325 3053 1888 3053 
Q 1444 3053 1217 2703 
Q 991 2353 991 1663 
Q 991 975 1217 622 
Q 1444 269 1888 269 
Q 2325 269 2554 583 
Q 2784 897 2784 1497 
z
" transform="scale(0.015625)"/>
       <path id="DejaVuSerif-67" d="M 3359 2988 
L 3359 72 
Q 3359 -644 2965 -1033 
Q 2572 -1422 1844 -1422 
Q 1516 -1422 1216 -1362 
Q 916 -1303 641 -1184 
L 641 -488 
L 941 -488 
Q 997 -813 1206 -963 
Q 1416 -1113 1806 -1113 
Q 2313 -1113 2548 -827 
Q 2784 -541 2784 72 
L 2784 519 
Q 2616 206 2355 57 
Q 2094 -91 1709 -91 
Q 1097 -91 708 395 
Q 319 881 319 1663 
Q 319 2444 706 2928 
Q 1094 3413 1709 3413 
Q 2094 3413 2355 3264 
Q 2616 3116 2784 2803 
L 2784 3322 
L 3909 3322 
L 3909 2988 
L 3359 2988 
z
M 2784 1825 
Q 2784 2422 2554 2737 
Q 2325 3053 1888 3053 
Q 1444 3053 1217 2703 
Q 991 2353 991 1663 
Q 991 975 1217 622 
Q 1444 269 1888 269 
Q 2325 269 2554 583 
Q 2784 897 2784 1497 
L 2784 1825 
z
" transform="scale(0.015625)"/>
       <path id="DejaVuSerif-65" d="M 3469 1600 
L 991 1600 
L 991 1575 
Q 991 903 1244 561 
Q 1497 219 1991 219 
Q 2369 219 2611 417 
Q 2853 616 2950 1006 
L 3413 1006 
Q 3275 459 2904 184 
Q 2534 -91 1931 -91 
Q 1203 -91 761 389 
Q 319 869 319 1663 
Q 319 2450 753 2931 
Q 1188 3413 1894 3413 
Q 2647 3413 3050 2948 
Q 3453 2484 3469 1600 
z
M 2791 1931 
Q 2772 2513 2545 2808 
Q 2319 3103 1894 3103 
Q 1497 3103 1269 2806 
Q 1041 2509 991 1931 
L 2791 1931 
z
" transform="scale(0.015625)"/>
       <path id="DejaVuSerif-73" d="M 359 184 
L 359 959 
L 691 959 
Q 703 588 923 403 
Q 1144 219 1575 219 
Q 1963 219 2166 364 
Q 2369 509 2369 788 
Q 2369 1006 2220 1140 
Q 2072 1275 1594 1428 
L 1178 1569 
Q 750 1706 558 1912 
Q 366 2119 366 2438 
Q 366 2894 700 3153 
Q 1034 3413 1625 3413 
Q 1888 3413 2178 3344 
Q 2469 3275 2778 3144 
L 2778 2419 
L 2447 2419 
Q 2434 2741 2221 2922 
Q 2009 3103 1644 3103 
Q 1281 3103 1095 2975 
Q 909 2847 909 2591 
Q 909 2381 1050 2254 
Q 1191 2128 1613 1997 
L 2069 1856 
Q 2541 1709 2748 1489 
Q 2956 1269 2956 922 
Q 2956 450 2595 179 
Q 2234 -91 1600 -91 
Q 1278 -91 972 -22 
Q 666 47 359 184 
z
" transform="scale(0.015625)"/>
       <path id="DejaVuSerif-52" d="M 3066 2316 
Q 3284 2256 3442 2114 
Q 3600 1972 3725 1716 
L 4403 331 
L 4972 331 
L 4972 0 
L 3872 0 
L 3144 1484 
Q 2934 1916 2759 2042 
Q 2584 2169 2278 2169 
L 1581 2169 
L 1581 331 
L 2241 331 
L 2241 0 
L 353 0 
L 353 331 
L 947 331 
L 947 4331 
L 353 4331 
L 353 4666 
L 2719 4666 
Q 3400 4666 3770 4341 
Q 4141 4016 4141 3419 
Q 4141 2938 3870 2661 
Q 3600 2384 3066 2316 
z
M 1581 2503 
L 2503 2503 
Q 2975 2503 3200 2726 
Q 3425 2950 3425 3419 
Q 3425 3888 3200 4109 
Q 2975 4331 2503 4331 
L 1581 4331 
L 1581 2503 
z
" transform="scale(0.015625)"/>
       <path id="DejaVuSerif-6d" d="M 3316 2675 
Q 3481 3041 3739 3227 
Q 3997 3413 4341 3413 
Q 4863 3413 5119 3089 
Q 5375 2766 5375 2113 
L 5375 331 
L 5894 331 
L 5894 0 
L 4300 0 
L 4300 331 
L 4800 331 
L 4800 2047 
Q 4800 2556 4650 2772 
Q 4500 2988 4153 2988 
Q 3769 2988 3567 2697 
Q 3366 2406 3366 1850 
L 3366 331 
L 3866 331 
L 3866 0 
L 2291 0 
L 2291 331 
L 2791 331 
L 2791 2069 
Q 2791 2566 2641 2777 
Q 2491 2988 2144 2988 
Q 1759 2988 1557 2697 
Q 1356 2406 1356 1850 
L 1356 331 
L 1856 331 
L 1856 0 
L 263 0 
L 263 331 
L 781 331 
L 781 2994 
L 231 2994 
L 231 3322 
L 1356 3322 
L 1356 2731 
Q 1516 3063 1762 3238 
Q 2009 3413 2322 3413 
Q 2709 3413 2968 3220 
Q 3228 3028 3316 2675 
z
" transform="scale(0.015625)"/>
       <path id="DejaVuSerif-76" d="M 1581 0 
L 359 2988 
L -19 2988 
L -19 3322 
L 1509 3322 
L 1509 2988 
L 978 2988 
L 1913 703 
L 2847 2988 
L 2350 2988 
L 2350 3322 
L 3597 3322 
L 3597 2988 
L 3225 2988 
L 2003 0 
L 1581 0 
z
" transform="scale(0.015625)"/>
       <path id="DejaVuSerif-28" d="M 2041 -997 
Q 1281 -656 893 83 
Q 506 822 506 1931 
Q 506 3044 893 3783 
Q 1281 4522 2041 4863 
L 2041 4556 
Q 1559 4225 1350 3623 
Q 1141 3022 1141 1931 
Q 1141 844 1350 242 
Q 1559 -359 2041 -691 
L 2041 -997 
z
" transform="scale(0.015625)"/>
       <path id="DejaVuSans-Oblique-70" d="M 3175 2156 
Q 3175 2616 2975 2859 
Q 2775 3103 2400 3103 
Q 2144 3103 1911 2972 
Q 1678 2841 1497 2591 
Q 1319 2344 1212 1994 
Q 1106 1644 1106 1300 
Q 1106 863 1306 627 
Q 1506 391 1875 391 
Q 2147 391 2380 519 
Q 2613 647 2778 891 
Q 2956 1147 3065 1494 
Q 3175 1841 3175 2156 
z
M 1394 2969 
Q 1625 3272 1939 3428 
Q 2253 3584 2638 3584 
Q 3175 3584 3472 3232 
Q 3769 2881 3769 2247 
Q 3769 1728 3584 1258 
Q 3400 788 3053 416 
Q 2822 169 2531 39 
Q 2241 -91 1919 -91 
Q 1547 -91 1294 64 
Q 1041 219 916 525 
L 556 -1331 
L -19 -1331 
L 922 3500 
L 1497 3500 
L 1394 2969 
z
" transform="scale(0.015625)"/>
       <path id="DejaVuSerif-29" d="M 453 -997 
L 453 -691 
Q 934 -359 1145 242 
Q 1356 844 1356 1931 
Q 1356 3022 1145 3623 
Q 934 4225 453 4556 
L 453 4863 
Q 1216 4522 1603 3783 
Q 1991 3044 1991 1931 
Q 1991 822 1603 83 
Q 1216 -656 453 -997 
z
" transform="scale(0.015625)"/>
      </defs>
      <use xlink:href="#DejaVuSerif-46" transform="translate(0 0.015625)"/>
      <use xlink:href="#DejaVuSerif-72" transform="translate(69.384766 0.015625)"/>
      <use xlink:href="#DejaVuSerif-61" transform="translate(117.1875 0.015625)"/>
      <use xlink:href="#DejaVuSerif-63" transform="translate(176.806641 0.015625)"/>
      <use xlink:href="#DejaVuSerif-74" transform="translate(232.8125 0.015625)"/>
      <use xlink:href="#DejaVuSerif-69" transform="translate(272.998047 0.015625)"/>
      <use xlink:href="#DejaVuSerif-6f" transform="translate(304.980469 0.015625)"/>
      <use xlink:href="#DejaVuSerif-6e" transform="translate(365.185547 0.015625)"/>
      <use xlink:href="#DejaVuSerif-20" transform="translate(429.589844 0.015625)"/>
      <use xlink:href="#DejaVuSerif-6f" transform="translate(461.376953 0.015625)"/>
      <use xlink:href="#DejaVuSerif-66" transform="translate(521.582031 0.015625)"/>
      <use xlink:href="#DejaVuSerif-20" transform="translate(558.59375 0.015625)"/>
      <use xlink:href="#DejaVuSerif-45" transform="translate(590.380859 0.015625)"/>
      <use xlink:href="#DejaVuSerif-64" transform="translate(663.378906 0.015625)"/>
      <use xlink:href="#DejaVuSerif-67" transform="translate(727.392578 0.015625)"/>
      <use xlink:href="#DejaVuSerif-65" transform="translate(791.40625 0.015625)"/>
      <use xlink:href="#DejaVuSerif-73" transform="translate(850.585938 0.015625)"/>
      <use xlink:href="#DejaVuSerif-20" transform="translate(901.904297 0.015625)"/>
      <use xlink:href="#DejaVuSerif-52" transform="translate(933.691406 0.015625)"/>
      <use xlink:href="#DejaVuSerif-65" transform="translate(1008.984375 0.015625)"/>
      <use xlink:href="#DejaVuSerif-6d" transform="translate(1068.164062 0.015625)"/>
      <use xlink:href="#DejaVuSerif-6f" transform="translate(1162.988281 0.015625)"/>
      <use xlink:href="#DejaVuSerif-76" transform="translate(1223.193359 0.015625)"/>
      <use xlink:href="#DejaVuSerif-65" transform="translate(1279.6875 0.015625)"/>
      <use xlink:href="#DejaVuSerif-64" transform="translate(1338.867188 0.015625)"/>
      <use xlink:href="#DejaVuSerif-20" transform="translate(1402.880859 0.015625)"/>
      <use xlink:href="#DejaVuSerif-28" transform="translate(1434.667969 0.015625)"/>
      <use xlink:href="#DejaVuSans-Oblique-70" transform="translate(1473.681641 0.015625)"/>
      <use xlink:href="#DejaVuSerif-29" transform="translate(1537.158203 0.015625)"/>
     </g>
    </g>
   </g>
   <g id="matplotlib.axis_2">
    <g id="ytick_1">
     <g id="line2d_7">
      <path d="M 52.29115 271.937782 
L 368.07835 271.937782 
" clip-path="url(#pc5206c9bc6)" style="fill: none; stroke: #cccccc; stroke-width: 0.8; stroke-linecap: round"/>
     </g>
     <g id="text_8">
      <!-- 0.0 -->
      <g style="fill: #262626" transform="translate(24.3985 276.618419) scale(0.1232 -0.1232)">
       <use xlink:href="#DejaVuSerif-30"/>
       <use xlink:href="#DejaVuSerif-2e" x="63.623047"/>
       <use xlink:href="#DejaVuSerif-30" x="95.410156"/>
      </g>
     </g>
    </g>
    <g id="ytick_2">
     <g id="line2d_8">
      <path d="M 52.29115 231.429709 
L 368.07835 231.429709 
" clip-path="url(#pc5206c9bc6)" style="fill: none; stroke: #cccccc; stroke-width: 0.8; stroke-linecap: round"/>
     </g>
     <g id="text_9">
      <!-- 0.2 -->
      <g style="fill: #262626" transform="translate(24.3985 236.110347) scale(0.1232 -0.1232)">
       <use xlink:href="#DejaVuSerif-30"/>
       <use xlink:href="#DejaVuSerif-2e" x="63.623047"/>
       <use xlink:href="#DejaVuSerif-32" x="95.410156"/>
      </g>
     </g>
    </g>
    <g id="ytick_3">
     <g id="line2d_9">
      <path d="M 52.29115 190.921636 
L 368.07835 190.921636 
" clip-path="url(#pc5206c9bc6)" style="fill: none; stroke: #cccccc; stroke-width: 0.8; stroke-linecap: round"/>
     </g>
     <g id="text_10">
      <!-- 0.4 -->
      <g style="fill: #262626" transform="translate(24.3985 195.602274) scale(0.1232 -0.1232)">
       <use xlink:href="#DejaVuSerif-30"/>
       <use xlink:href="#DejaVuSerif-2e" x="63.623047"/>
       <use xlink:href="#DejaVuSerif-34" x="95.410156"/>
      </g>
     </g>
    </g>
    <g id="ytick_4">
     <g id="line2d_10">
      <path d="M 52.29115 150.413564 
L 368.07835 150.413564 
" clip-path="url(#pc5206c9bc6)" style="fill: none; stroke: #cccccc; stroke-width: 0.8; stroke-linecap: round"/>
     </g>
     <g id="text_11">
      <!-- 0.6 -->
      <g style="fill: #262626" transform="translate(24.3985 155.094201) scale(0.1232 -0.1232)">
       <defs>
        <path id="DejaVuSerif-36" d="M 2094 219 
Q 2534 219 2771 542 
Q 3009 866 3009 1472 
Q 3009 2078 2771 2401 
Q 2534 2725 2094 2725 
Q 1647 2725 1412 2412 
Q 1178 2100 1178 1509 
Q 1178 888 1415 553 
Q 1653 219 2094 219 
z
M 1075 2569 
Q 1288 2803 1556 2918 
Q 1825 3034 2163 3034 
Q 2859 3034 3264 2615 
Q 3669 2197 3669 1472 
Q 3669 763 3233 336 
Q 2797 -91 2069 -91 
Q 1278 -91 853 498 
Q 428 1088 428 2181 
Q 428 3406 931 4078 
Q 1434 4750 2350 4750 
Q 2597 4750 2869 4703 
Q 3141 4656 3425 4563 
L 3425 3794 
L 3072 3794 
Q 3034 4109 2831 4275 
Q 2628 4441 2284 4441 
Q 1678 4441 1381 3981 
Q 1084 3522 1075 2569 
z
" transform="scale(0.015625)"/>
       </defs>
       <use xlink:href="#DejaVuSerif-30"/>
       <use xlink:href="#DejaVuSerif-2e" x="63.623047"/>
       <use xlink:href="#DejaVuSerif-36" x="95.410156"/>
      </g>
     </g>
    </g>
    <g id="ytick_5">
     <g id="line2d_11">
      <path d="M 52.29115 109.905491 
L 368.07835 109.905491 
" clip-path="url(#pc5206c9bc6)" style="fill: none; stroke: #cccccc; stroke-width: 0.8; stroke-linecap: round"/>
     </g>
     <g id="text_12">
      <!-- 0.8 -->
      <g style="fill: #262626" transform="translate(24.3985 114.586128) scale(0.1232 -0.1232)">
       <defs>
        <path id="DejaVuSerif-38" d="M 2981 1275 
Q 2981 1775 2732 2051 
Q 2484 2328 2034 2328 
Q 1584 2328 1336 2051 
Q 1088 1775 1088 1275 
Q 1088 772 1336 495 
Q 1584 219 2034 219 
Q 2484 219 2732 495 
Q 2981 772 2981 1275 
z
M 2853 3541 
Q 2853 3966 2637 4203 
Q 2422 4441 2034 4441 
Q 1650 4441 1433 4203 
Q 1216 3966 1216 3541 
Q 1216 3113 1433 2875 
Q 1650 2638 2034 2638 
Q 2422 2638 2637 2875 
Q 2853 3113 2853 3541 
z
M 2516 2484 
Q 3047 2413 3344 2092 
Q 3641 1772 3641 1275 
Q 3641 619 3225 264 
Q 2809 -91 2034 -91 
Q 1263 -91 845 264 
Q 428 619 428 1275 
Q 428 1772 725 2092 
Q 1022 2413 1556 2484 
Q 1084 2569 832 2842 
Q 581 3116 581 3541 
Q 581 4103 968 4426 
Q 1356 4750 2034 4750 
Q 2713 4750 3100 4426 
Q 3488 4103 3488 3541 
Q 3488 3116 3236 2842 
Q 2984 2569 2516 2484 
z
" transform="scale(0.015625)"/>
       </defs>
       <use xlink:href="#DejaVuSerif-30"/>
       <use xlink:href="#DejaVuSerif-2e" x="63.623047"/>
       <use xlink:href="#DejaVuSerif-38" x="95.410156"/>
      </g>
     </g>
    </g>
    <g id="ytick_6">
     <g id="line2d_12">
      <path d="M 52.29115 69.397418 
L 368.07835 69.397418 
" clip-path="url(#pc5206c9bc6)" style="fill: none; stroke: #cccccc; stroke-width: 0.8; stroke-linecap: round"/>
     </g>
     <g id="text_13">
      <!-- 1.0 -->
      <g style="fill: #262626" transform="translate(24.3985 74.078056) scale(0.1232 -0.1232)">
       <use xlink:href="#DejaVuSerif-31"/>
       <use xlink:href="#DejaVuSerif-2e" x="63.623047"/>
       <use xlink:href="#DejaVuSerif-30" x="95.410156"/>
      </g>
     </g>
    </g>
    <g id="text_14">
     <!-- Jaccard Similarity -->
     <g style="fill: #262626" transform="translate(17.4123 231.8406) rotate(-90) scale(0.1344 -0.1344)">
      <defs>
       <path id="DejaVuSerif-4a" d="M -538 -1119 
L -538 -384 
L -181 -384 
Q -172 -694 -34 -845 
Q 103 -997 378 -997 
Q 750 -997 897 -762 
Q 1044 -528 1044 153 
L 1044 4331 
L 319 4331 
L 319 4666 
L 2272 4666 
L 2272 4331 
L 1678 4331 
L 1678 128 
Q 1678 -644 1368 -987 
Q 1059 -1331 372 -1331 
Q 150 -1331 -79 -1278 
Q -309 -1225 -538 -1119 
z
" transform="scale(0.015625)"/>
       <path id="DejaVuSerif-53" d="M 594 225 
L 594 1288 
L 953 1284 
Q 969 753 1261 498 
Q 1553 244 2150 244 
Q 2706 244 2998 464 
Q 3291 684 3291 1106 
Q 3291 1444 3114 1625 
Q 2938 1806 2369 1978 
L 1753 2163 
Q 1084 2366 811 2669 
Q 538 2972 538 3500 
Q 538 4094 959 4422 
Q 1381 4750 2144 4750 
Q 2469 4750 2856 4679 
Q 3244 4609 3681 4475 
L 3681 3481 
L 3328 3481 
Q 3275 3975 2998 4195 
Q 2722 4416 2156 4416 
Q 1663 4416 1405 4214 
Q 1147 4013 1147 3628 
Q 1147 3294 1340 3103 
Q 1534 2913 2163 2725 
L 2741 2553 
Q 3375 2363 3645 2067 
Q 3916 1772 3916 1275 
Q 3916 597 3481 253 
Q 3047 -91 2188 -91 
Q 1803 -91 1404 -12 
Q 1006 66 594 225 
z
" transform="scale(0.015625)"/>
       <path id="DejaVuSerif-6c" d="M 1313 331 
L 1856 331 
L 1856 0 
L 184 0 
L 184 331 
L 738 331 
L 738 4531 
L 184 4531 
L 184 4863 
L 1313 4863 
L 1313 331 
z
" transform="scale(0.015625)"/>
       <path id="DejaVuSerif-79" d="M 1381 -609 
L 1600 -56 
L 359 2988 
L -19 2988 
L -19 3322 
L 1509 3322 
L 1509 2988 
L 978 2988 
L 1913 703 
L 2847 2988 
L 2350 2988 
L 2350 3322 
L 3597 3322 
L 3597 2988 
L 3225 2988 
L 1703 -750 
Q 1547 -1138 1356 -1280 
Q 1166 -1422 819 -1422 
Q 672 -1422 517 -1397 
Q 363 -1372 206 -1325 
L 206 -691 
L 500 -691 
Q 519 -903 608 -995 
Q 697 -1088 884 -1088 
Q 1056 -1088 1161 -992 
Q 1266 -897 1381 -609 
z
" transform="scale(0.015625)"/>
      </defs>
      <use xlink:href="#DejaVuSerif-4a"/>
      <use xlink:href="#DejaVuSerif-61" x="40.087891"/>
      <use xlink:href="#DejaVuSerif-63" x="99.707031"/>
      <use xlink:href="#DejaVuSerif-63" x="155.712891"/>
      <use xlink:href="#DejaVuSerif-61" x="211.71875"/>
      <use xlink:href="#DejaVuSerif-72" x="271.337891"/>
      <use xlink:href="#DejaVuSerif-64" x="319.140625"/>
      <use xlink:href="#DejaVuSerif-20" x="383.154297"/>
      <use xlink:href="#DejaVuSerif-53" x="414.941406"/>
      <use xlink:href="#DejaVuSerif-69" x="483.447266"/>
      <use xlink:href="#DejaVuSerif-6d" x="515.429688"/>
      <use xlink:href="#DejaVuSerif-69" x="610.253906"/>
      <use xlink:href="#DejaVuSerif-6c" x="642.236328"/>
      <use xlink:href="#DejaVuSerif-61" x="674.21875"/>
      <use xlink:href="#DejaVuSerif-72" x="733.837891"/>
      <use xlink:href="#DejaVuSerif-69" x="781.640625"/>
      <use xlink:href="#DejaVuSerif-74" x="813.623047"/>
      <use xlink:href="#DejaVuSerif-79" x="853.808594"/>
     </g>
    </g>
   </g>
   <g id="PolyCollection_1">
    <defs>
     <path id="mc233b83c0e" d="M 66.645114 -217.858325 
L 66.645114 -214.150013 
L 95.353041 -203.022446 
L 124.060968 -192.743522 
L 152.768895 -185.433334 
L 181.476823 -176.908512 
L 210.18475 -169.827093 
L 238.892677 -163.263621 
L 267.600605 -157.150902 
L 296.308532 -152.965456 
L 325.016459 -149.156836 
L 353.724386 -144.244726 
L 353.724386 -147.356657 
L 353.724386 -147.356657 
L 325.016459 -151.872902 
L 296.308532 -156.152631 
L 267.600605 -159.932439 
L 238.892677 -164.987543 
L 210.18475 -174.476458 
L 181.476823 -181.723352 
L 152.768895 -190.93985 
L 124.060968 -196.146859 
L 95.353041 -207.912175 
L 66.645114 -217.858325 
z
" style="stroke: #c80723; stroke-opacity: 0.2; stroke-width: 0.8"/>
    </defs>
    <g clip-path="url(#pc5206c9bc6)">
     <use xlink:href="#mc233b83c0e" x="0" y="326.79385" style="fill: #c80723; fill-opacity: 0.2; stroke: #c80723; stroke-opacity: 0.2; stroke-width: 0.8"/>
    </g>
   </g>
   <g id="PolyCollection_2">
    <defs>
     <path id="m2f86d81127" d="M 66.645114 -195.388801 
L 66.645114 -192.387051 
L 95.353041 -184.323565 
L 124.060968 -179.274487 
L 152.768895 -175.207527 
L 181.476823 -169.228434 
L 210.18475 -165.228363 
L 238.892677 -161.387641 
L 267.600605 -158.700538 
L 296.308532 -153.866963 
L 325.016459 -151.054487 
L 353.724386 -148.214973 
L 353.724386 -150.641558 
L 353.724386 -150.641558 
L 325.016459 -153.639206 
L 296.308532 -157.082241 
L 267.600605 -161.092692 
L 238.892677 -163.859342 
L 210.18475 -169.532751 
L 181.476823 -171.608486 
L 152.768895 -177.708951 
L 124.060968 -181.921791 
L 95.353041 -189.72324 
L 66.645114 -195.388801 
z
" style="stroke: #004e94; stroke-opacity: 0.2; stroke-width: 0.8"/>
    </defs>
    <g clip-path="url(#pc5206c9bc6)">
     <use xlink:href="#m2f86d81127" x="0" y="326.79385" style="fill: #004e94; fill-opacity: 0.2; stroke: #004e94; stroke-opacity: 0.2; stroke-width: 0.8"/>
    </g>
   </g>
   <g id="line2d_13">
    <path d="M 66.645114 110.660966 
L 95.353041 121.391555 
L 124.060968 132.43203 
L 152.768895 138.747239 
L 181.476823 147.391661 
L 210.18475 154.679064 
L 238.892677 162.632824 
L 267.600605 168.105464 
L 296.308532 172.182602 
L 325.016459 176.249612 
L 353.724386 180.912092 
" clip-path="url(#pc5206c9bc6)" style="fill: none; stroke: #c80723; stroke-width: 2.5; stroke-linecap: round"/>
    <defs>
     <path id="m9c746964bf" d="M 0 4.5 
C 1.193414 4.5 2.338109 4.025852 3.181981 3.181981 
C 4.025852 2.338109 4.5 1.193414 4.5 0 
C 4.5 -1.193414 4.025852 -2.338109 3.181981 -3.181981 
C 2.338109 -4.025852 1.193414 -4.5 0 -4.5 
C -1.193414 -4.5 -2.338109 -4.025852 -3.181981 -3.181981 
C -4.025852 -2.338109 -4.5 -1.193414 -4.5 0 
C -4.5 1.193414 -4.025852 2.338109 -3.181981 3.181981 
C -2.338109 4.025852 -1.193414 4.5 0 4.5 
z
" style="stroke: #ffffff; stroke-width: 0.75"/>
    </defs>
    <g clip-path="url(#pc5206c9bc6)">
     <use xlink:href="#m9c746964bf" x="66.645114" y="110.660966" style="fill: #c80723; stroke: #ffffff; stroke-width: 0.75"/>
     <use xlink:href="#m9c746964bf" x="95.353041" y="121.391555" style="fill: #c80723; stroke: #ffffff; stroke-width: 0.75"/>
     <use xlink:href="#m9c746964bf" x="124.060968" y="132.43203" style="fill: #c80723; stroke: #ffffff; stroke-width: 0.75"/>
     <use xlink:href="#m9c746964bf" x="152.768895" y="138.747239" style="fill: #c80723; stroke: #ffffff; stroke-width: 0.75"/>
     <use xlink:href="#m9c746964bf" x="181.476823" y="147.391661" style="fill: #c80723; stroke: #ffffff; stroke-width: 0.75"/>
     <use xlink:href="#m9c746964bf" x="210.18475" y="154.679064" style="fill: #c80723; stroke: #ffffff; stroke-width: 0.75"/>
     <use xlink:href="#m9c746964bf" x="238.892677" y="162.632824" style="fill: #c80723; stroke: #ffffff; stroke-width: 0.75"/>
     <use xlink:href="#m9c746964bf" x="267.600605" y="168.105464" style="fill: #c80723; stroke: #ffffff; stroke-width: 0.75"/>
     <use xlink:href="#m9c746964bf" x="296.308532" y="172.182602" style="fill: #c80723; stroke: #ffffff; stroke-width: 0.75"/>
     <use xlink:href="#m9c746964bf" x="325.016459" y="176.249612" style="fill: #c80723; stroke: #ffffff; stroke-width: 0.75"/>
     <use xlink:href="#m9c746964bf" x="353.724386" y="180.912092" style="fill: #c80723; stroke: #ffffff; stroke-width: 0.75"/>
    </g>
   </g>
   <g id="line2d_14">
    <path d="M 66.645114 132.810781 
L 95.353041 139.796398 
L 124.060968 146.253385 
L 152.768895 150.348751 
L 181.476823 156.356098 
L 210.18475 159.540032 
L 238.892677 164.299731 
L 267.600605 166.983391 
L 296.308532 171.31978 
L 325.016459 174.392317 
L 353.724386 177.329153 
" clip-path="url(#pc5206c9bc6)" style="fill: none; stroke: #004e94; stroke-width: 2.5; stroke-linecap: round"/>
    <defs>
     <path id="m65e2d1c560" d="M -2.25 4.5 
L 0 2.25 
L 2.25 4.5 
L 4.5 2.25 
L 2.25 0 
L 4.5 -2.25 
L 2.25 -4.5 
L 0 -2.25 
L -2.25 -4.5 
L -4.5 -2.25 
L -2.25 0 
L -4.5 2.25 
z
" style="stroke: #ffffff; stroke-width: 0.75; stroke-linejoin: miter"/>
    </defs>
    <g clip-path="url(#pc5206c9bc6)">
     <use xlink:href="#m65e2d1c560" x="66.645114" y="132.810781" style="fill: #004e94; stroke: #ffffff; stroke-width: 0.75; stroke-linejoin: miter"/>
     <use xlink:href="#m65e2d1c560" x="95.353041" y="139.796398" style="fill: #004e94; stroke: #ffffff; stroke-width: 0.75; stroke-linejoin: miter"/>
     <use xlink:href="#m65e2d1c560" x="124.060968" y="146.253385" style="fill: #004e94; stroke: #ffffff; stroke-width: 0.75; stroke-linejoin: miter"/>
     <use xlink:href="#m65e2d1c560" x="152.768895" y="150.348751" style="fill: #004e94; stroke: #ffffff; stroke-width: 0.75; stroke-linejoin: miter"/>
     <use xlink:href="#m65e2d1c560" x="181.476823" y="156.356098" style="fill: #004e94; stroke: #ffffff; stroke-width: 0.75; stroke-linejoin: miter"/>
     <use xlink:href="#m65e2d1c560" x="210.18475" y="159.540032" style="fill: #004e94; stroke: #ffffff; stroke-width: 0.75; stroke-linejoin: miter"/>
     <use xlink:href="#m65e2d1c560" x="238.892677" y="164.299731" style="fill: #004e94; stroke: #ffffff; stroke-width: 0.75; stroke-linejoin: miter"/>
     <use xlink:href="#m65e2d1c560" x="267.600605" y="166.983391" style="fill: #004e94; stroke: #ffffff; stroke-width: 0.75; stroke-linejoin: miter"/>
     <use xlink:href="#m65e2d1c560" x="296.308532" y="171.31978" style="fill: #004e94; stroke: #ffffff; stroke-width: 0.75; stroke-linejoin: miter"/>
     <use xlink:href="#m65e2d1c560" x="325.016459" y="174.392317" style="fill: #004e94; stroke: #ffffff; stroke-width: 0.75; stroke-linejoin: miter"/>
     <use xlink:href="#m65e2d1c560" x="353.724386" y="177.329153" style="fill: #004e94; stroke: #ffffff; stroke-width: 0.75; stroke-linejoin: miter"/>
    </g>
   </g>
   <g id="line2d_15"/>
   <g id="line2d_16"/>
   <g id="patch_3">
    <path d="M 52.29115 282.0648 
L 52.29115 59.2704 
" style="fill: none; stroke: #cccccc; stroke-linejoin: miter; stroke-linecap: square"/>
   </g>
   <g id="patch_4">
    <path d="M 368.07835 282.0648 
L 368.07835 59.2704 
" style="fill: none; stroke: #cccccc; stroke-linejoin: miter; stroke-linecap: square"/>
   </g>
   <g id="patch_5">
    <path d="M 52.29115 282.0648 
L 368.07835 282.0648 
" style="fill: none; stroke: #cccccc; stroke-linejoin: miter; stroke-linecap: square"/>
   </g>
   <g id="patch_6">
    <path d="M 52.29115 59.2704 
L 368.07835 59.2704 
" style="fill: none; stroke: #cccccc; stroke-linejoin: miter; stroke-linecap: square"/>
   </g>
   <g id="legend_1">
    <g id="patch_7">
     <path d="M 273.3106 105.2933 
L 359.45435 105.2933 
Q 361.91835 105.2933 361.91835 102.8293 
L 361.91835 67.8944 
Q 361.91835 65.4304 359.45435 65.4304 
L 273.3106 65.4304 
Q 270.8466 65.4304 270.8466 67.8944 
L 270.8466 102.8293 
Q 270.8466 105.2933 273.3106 105.2933 
z
" style="fill: #ffffff; opacity: 0.8; stroke: #cccccc; stroke-width: 0.8; stroke-linejoin: miter"/>
    </g>
    <g id="line2d_17">
     <path d="M 275.7746 75.407675 
L 288.0946 75.407675 
L 300.4146 75.407675 
" style="fill: none; stroke: #c80723; stroke-width: 2.5; stroke-linecap: round"/>
     <g>
      <use xlink:href="#m9c746964bf" x="288.0946" y="75.407675" style="fill: #c80723; stroke: #ffffff; stroke-width: 0.75"/>
     </g>
    </g>
    <g id="text_15">
     <!-- CLAP-S -->
     <g style="fill: #262626" transform="translate(310.2706 79.719675) scale(0.1232 -0.1232)">
      <defs>
       <path id="DejaVuSerif-43" d="M 4513 1234 
Q 4306 581 3820 245 
Q 3334 -91 2591 -91 
Q 2134 -91 1743 65 
Q 1353 222 1050 525 
Q 700 875 529 1320 
Q 359 1766 359 2328 
Q 359 3416 987 4083 
Q 1616 4750 2644 4750 
Q 3025 4750 3456 4650 
Q 3888 4550 4384 4347 
L 4384 3272 
L 4031 3272 
Q 3916 3859 3567 4137 
Q 3219 4416 2591 4416 
Q 1844 4416 1459 3886 
Q 1075 3356 1075 2328 
Q 1075 1303 1459 773 
Q 1844 244 2591 244 
Q 3113 244 3450 492 
Q 3788 741 3938 1234 
L 4513 1234 
z
" transform="scale(0.015625)"/>
       <path id="DejaVuSerif-4c" d="M 353 0 
L 353 331 
L 947 331 
L 947 4331 
L 353 4331 
L 353 4666 
L 2175 4666 
L 2175 4331 
L 1581 4331 
L 1581 384 
L 3713 384 
L 3713 1166 
L 4097 1166 
L 4097 0 
L 353 0 
z
" transform="scale(0.015625)"/>
       <path id="DejaVuSerif-41" d="M 1281 1691 
L 2994 1691 
L 2138 3909 
L 1281 1691 
z
M -38 0 
L -38 331 
L 372 331 
L 2034 4666 
L 2559 4666 
L 4225 331 
L 4684 331 
L 4684 0 
L 2988 0 
L 2988 331 
L 3506 331 
L 3116 1356 
L 1153 1356 
L 763 331 
L 1275 331 
L 1275 0 
L -38 0 
z
" transform="scale(0.015625)"/>
       <path id="DejaVuSerif-50" d="M 1581 2375 
L 2406 2375 
Q 2872 2375 3115 2626 
Q 3359 2878 3359 3353 
Q 3359 3831 3115 4081 
Q 2872 4331 2406 4331 
L 1581 4331 
L 1581 2375 
z
M 353 0 
L 353 331 
L 947 331 
L 947 4331 
L 353 4331 
L 353 4666 
L 2559 4666 
Q 3259 4666 3668 4311 
Q 4078 3956 4078 3353 
Q 4078 2753 3668 2397 
Q 3259 2041 2559 2041 
L 1581 2041 
L 1581 331 
L 2303 331 
L 2303 0 
L 353 0 
z
" transform="scale(0.015625)"/>
       <path id="DejaVuSerif-2d" d="M 281 1959 
L 1881 1959 
L 1881 1472 
L 281 1472 
L 281 1959 
z
" transform="scale(0.015625)"/>
      </defs>
      <use xlink:href="#DejaVuSerif-43"/>
      <use xlink:href="#DejaVuSerif-4c" x="76.513672"/>
      <use xlink:href="#DejaVuSerif-41" x="142.919922"/>
      <use xlink:href="#DejaVuSerif-50" x="215.136719"/>
      <use xlink:href="#DejaVuSerif-2d" x="276.921875"/>
      <use xlink:href="#DejaVuSerif-53" x="310.710938"/>
     </g>
    </g>
    <g id="line2d_18">
     <path d="M 275.7746 93.491125 
L 288.0946 93.491125 
L 300.4146 93.491125 
" style="fill: none; stroke: #004e94; stroke-width: 2.5; stroke-linecap: round"/>
     <g>
      <use xlink:href="#m65e2d1c560" x="288.0946" y="93.491125" style="fill: #004e94; stroke: #ffffff; stroke-width: 0.75; stroke-linejoin: miter"/>
     </g>
    </g>
    <g id="text_16">
     <!-- RSU -->
     <g style="fill: #262626" transform="translate(310.2706 97.803125) scale(0.1232 -0.1232)">
      <defs>
       <path id="DejaVuSerif-55" d="M 897 4331 
L 300 4331 
L 300 4666 
L 2125 4666 
L 2125 4331 
L 1528 4331 
L 1528 1919 
Q 1528 1025 1820 672 
Q 2113 319 2828 319 
Q 3544 319 3836 672 
Q 4128 1025 4128 1919 
L 4128 4331 
L 3531 4331 
L 3531 4666 
L 5106 4666 
L 5106 4331 
L 4513 4331 
L 4513 1856 
Q 4513 791 4103 350 
Q 3694 -91 2713 -91 
Q 1731 -91 1314 353 
Q 897 797 897 1856 
L 897 4331 
z
" transform="scale(0.015625)"/>
      </defs>
      <use xlink:href="#DejaVuSerif-52"/>
      <use xlink:href="#DejaVuSerif-53" x="75.292969"/>
      <use xlink:href="#DejaVuSerif-55" x="143.798828"/>
     </g>
    </g>
   </g>
  </g>
  <g id="axes_2">
   <g id="patch_8">
    <path d="M 382.59355 282.0648 
L 698.38075 282.0648 
L 698.38075 59.2704 
L 382.59355 59.2704 
z
" style="fill: #ffffff"/>
   </g>
   <g id="matplotlib.axis_3">
    <g id="xtick_7">
     <g id="line2d_19">
      <path d="M 396.947514 282.0648 
L 396.947514 59.2704 
" clip-path="url(#p3bdb18df36)" style="fill: none; stroke: #cccccc; stroke-width: 0.8; stroke-linecap: round"/>
     </g>
     <g id="text_17">
      <!-- 0.0 -->
      <g style="fill: #262626" transform="translate(387.151189 299.726075) scale(0.1232 -0.1232)">
       <use xlink:href="#DejaVuSerif-30"/>
       <use xlink:href="#DejaVuSerif-2e" x="63.623047"/>
       <use xlink:href="#DejaVuSerif-30" x="95.410156"/>
      </g>
     </g>
    </g>
    <g id="xtick_8">
     <g id="line2d_20">
      <path d="M 454.363368 282.0648 
L 454.363368 59.2704 
" clip-path="url(#p3bdb18df36)" style="fill: none; stroke: #cccccc; stroke-width: 0.8; stroke-linecap: round"/>
     </g>
     <g id="text_18">
      <!-- 0.1 -->
      <g style="fill: #262626" transform="translate(444.567043 299.726075) scale(0.1232 -0.1232)">
       <use xlink:href="#DejaVuSerif-30"/>
       <use xlink:href="#DejaVuSerif-2e" x="63.623047"/>
       <use xlink:href="#DejaVuSerif-31" x="95.410156"/>
      </g>
     </g>
    </g>
    <g id="xtick_9">
     <g id="line2d_21">
      <path d="M 511.779223 282.0648 
L 511.779223 59.2704 
" clip-path="url(#p3bdb18df36)" style="fill: none; stroke: #cccccc; stroke-width: 0.8; stroke-linecap: round"/>
     </g>
     <g id="text_19">
      <!-- 0.2 -->
      <g style="fill: #262626" transform="translate(501.982898 299.726075) scale(0.1232 -0.1232)">
       <use xlink:href="#DejaVuSerif-30"/>
       <use xlink:href="#DejaVuSerif-2e" x="63.623047"/>
       <use xlink:href="#DejaVuSerif-32" x="95.410156"/>
      </g>
     </g>
    </g>
    <g id="xtick_10">
     <g id="line2d_22">
      <path d="M 569.195077 282.0648 
L 569.195077 59.2704 
" clip-path="url(#p3bdb18df36)" style="fill: none; stroke: #cccccc; stroke-width: 0.8; stroke-linecap: round"/>
     </g>
     <g id="text_20">
      <!-- 0.3 -->
      <g style="fill: #262626" transform="translate(559.398752 299.726075) scale(0.1232 -0.1232)">
       <use xlink:href="#DejaVuSerif-30"/>
       <use xlink:href="#DejaVuSerif-2e" x="63.623047"/>
       <use xlink:href="#DejaVuSerif-33" x="95.410156"/>
      </g>
     </g>
    </g>
    <g id="xtick_11">
     <g id="line2d_23">
      <path d="M 626.610932 282.0648 
L 626.610932 59.2704 
" clip-path="url(#p3bdb18df36)" style="fill: none; stroke: #cccccc; stroke-width: 0.8; stroke-linecap: round"/>
     </g>
     <g id="text_21">
      <!-- 0.4 -->
      <g style="fill: #262626" transform="translate(616.814607 299.726075) scale(0.1232 -0.1232)">
       <use xlink:href="#DejaVuSerif-30"/>
       <use xlink:href="#DejaVuSerif-2e" x="63.623047"/>
       <use xlink:href="#DejaVuSerif-34" x="95.410156"/>
      </g>
     </g>
    </g>
    <g id="xtick_12">
     <g id="line2d_24">
      <path d="M 684.026786 282.0648 
L 684.026786 59.2704 
" clip-path="url(#p3bdb18df36)" style="fill: none; stroke: #cccccc; stroke-width: 0.8; stroke-linecap: round"/>
     </g>
     <g id="text_22">
      <!-- 0.5 -->
      <g style="fill: #262626" transform="translate(674.230461 299.726075) scale(0.1232 -0.1232)">
       <use xlink:href="#DejaVuSerif-30"/>
       <use xlink:href="#DejaVuSerif-2e" x="63.623047"/>
       <use xlink:href="#DejaVuSerif-35" x="95.410156"/>
      </g>
     </g>
    </g>
    <g id="text_23">
     <!-- Fraction of Edges Removed ($p$) -->
     <g style="fill: #262626" transform="translate(434.51275 316.50265) scale(0.1344 -0.1344)">
      <use xlink:href="#DejaVuSerif-46" transform="translate(0 0.015625)"/>
      <use xlink:href="#DejaVuSerif-72" transform="translate(69.384766 0.015625)"/>
      <use xlink:href="#DejaVuSerif-61" transform="translate(117.1875 0.015625)"/>
      <use xlink:href="#DejaVuSerif-63" transform="translate(176.806641 0.015625)"/>
      <use xlink:href="#DejaVuSerif-74" transform="translate(232.8125 0.015625)"/>
      <use xlink:href="#DejaVuSerif-69" transform="translate(272.998047 0.015625)"/>
      <use xlink:href="#DejaVuSerif-6f" transform="translate(304.980469 0.015625)"/>
      <use xlink:href="#DejaVuSerif-6e" transform="translate(365.185547 0.015625)"/>
      <use xlink:href="#DejaVuSerif-20" transform="translate(429.589844 0.015625)"/>
      <use xlink:href="#DejaVuSerif-6f" transform="translate(461.376953 0.015625)"/>
      <use xlink:href="#DejaVuSerif-66" transform="translate(521.582031 0.015625)"/>
      <use xlink:href="#DejaVuSerif-20" transform="translate(558.59375 0.015625)"/>
      <use xlink:href="#DejaVuSerif-45" transform="translate(590.380859 0.015625)"/>
      <use xlink:href="#DejaVuSerif-64" transform="translate(663.378906 0.015625)"/>
      <use xlink:href="#DejaVuSerif-67" transform="translate(727.392578 0.015625)"/>
      <use xlink:href="#DejaVuSerif-65" transform="translate(791.40625 0.015625)"/>
      <use xlink:href="#DejaVuSerif-73" transform="translate(850.585938 0.015625)"/>
      <use xlink:href="#DejaVuSerif-20" transform="translate(901.904297 0.015625)"/>
      <use xlink:href="#DejaVuSerif-52" transform="translate(933.691406 0.015625)"/>
      <use xlink:href="#DejaVuSerif-65" transform="translate(1008.984375 0.015625)"/>
      <use xlink:href="#DejaVuSerif-6d" transform="translate(1068.164062 0.015625)"/>
      <use xlink:href="#DejaVuSerif-6f" transform="translate(1162.988281 0.015625)"/>
      <use xlink:href="#DejaVuSerif-76" transform="translate(1223.193359 0.015625)"/>
      <use xlink:href="#DejaVuSerif-65" transform="translate(1279.6875 0.015625)"/>
      <use xlink:href="#DejaVuSerif-64" transform="translate(1338.867188 0.015625)"/>
      <use xlink:href="#DejaVuSerif-20" transform="translate(1402.880859 0.015625)"/>
      <use xlink:href="#DejaVuSerif-28" transform="translate(1434.667969 0.015625)"/>
      <use xlink:href="#DejaVuSans-Oblique-70" transform="translate(1473.681641 0.015625)"/>
      <use xlink:href="#DejaVuSerif-29" transform="translate(1537.158203 0.015625)"/>
     </g>
    </g>
   </g>
   <g id="matplotlib.axis_4">
    <g id="ytick_7">
     <g id="line2d_25">
      <path d="M 382.59355 271.937782 
L 698.38075 271.937782 
" clip-path="url(#p3bdb18df36)" style="fill: none; stroke: #cccccc; stroke-width: 0.8; stroke-linecap: round"/>
     </g>
    </g>
    <g id="ytick_8">
     <g id="line2d_26">
      <path d="M 382.59355 231.429709 
L 698.38075 231.429709 
" clip-path="url(#p3bdb18df36)" style="fill: none; stroke: #cccccc; stroke-width: 0.8; stroke-linecap: round"/>
     </g>
    </g>
    <g id="ytick_9">
     <g id="line2d_27">
      <path d="M 382.59355 190.921636 
L 698.38075 190.921636 
" clip-path="url(#p3bdb18df36)" style="fill: none; stroke: #cccccc; stroke-width: 0.8; stroke-linecap: round"/>
     </g>
    </g>
    <g id="ytick_10">
     <g id="line2d_28">
      <path d="M 382.59355 150.413564 
L 698.38075 150.413564 
" clip-path="url(#p3bdb18df36)" style="fill: none; stroke: #cccccc; stroke-width: 0.8; stroke-linecap: round"/>
     </g>
    </g>
    <g id="ytick_11">
     <g id="line2d_29">
      <path d="M 382.59355 109.905491 
L 698.38075 109.905491 
" clip-path="url(#p3bdb18df36)" style="fill: none; stroke: #cccccc; stroke-width: 0.8; stroke-linecap: round"/>
     </g>
    </g>
    <g id="ytick_12">
     <g id="line2d_30">
      <path d="M 382.59355 69.397418 
L 698.38075 69.397418 
" clip-path="url(#p3bdb18df36)" style="fill: none; stroke: #cccccc; stroke-width: 0.8; stroke-linecap: round"/>
     </g>
    </g>
   </g>
   <g id="PolyCollection_3">
    <defs>
     <path id="m7a01b23bc2" d="M 396.947514 -235.489312 
L 396.947514 -231.505697 
L 425.655441 -224.333743 
L 454.363368 -215.579695 
L 483.071295 -208.255734 
L 511.779223 -204.241688 
L 540.48715 -201.079932 
L 569.195077 -194.904628 
L 597.903005 -190.26134 
L 626.610932 -186.472822 
L 655.318859 -182.164687 
L 684.026786 -180.420967 
L 684.026786 -183.400639 
L 684.026786 -183.400639 
L 655.318859 -184.700898 
L 626.610932 -188.672613 
L 597.903005 -194.432861 
L 569.195077 -197.734117 
L 540.48715 -202.769473 
L 511.779223 -207.389267 
L 483.071295 -212.149168 
L 454.363368 -218.357131 
L 425.655441 -227.898757 
L 396.947514 -235.489312 
z
" style="stroke: #c80723; stroke-opacity: 0.2; stroke-width: 0.8"/>
    </defs>
    <g clip-path="url(#p3bdb18df36)">
     <use xlink:href="#m7a01b23bc2" x="0" y="326.79385" style="fill: #c80723; fill-opacity: 0.2; stroke: #c80723; stroke-opacity: 0.2; stroke-width: 0.8"/>
    </g>
   </g>
   <g id="PolyCollection_4">
    <defs>
     <path id="m80f7842dce" d="M 396.947514 -213.874812 
L 396.947514 -212.101925 
L 425.655441 -206.149517 
L 454.363368 -204.150545 
L 483.071295 -202.357961 
L 511.779223 -200.326532 
L 540.48715 -195.933432 
L 569.195077 -195.022101 
L 597.903005 -192.068962 
L 626.610932 -190.438005 
L 655.318859 -187.386279 
L 684.026786 -185.079192 
L 684.026786 -187.580819 
L 684.026786 -187.580819 
L 655.318859 -190.159259 
L 626.610932 -193.195339 
L 597.903005 -194.651706 
L 569.195077 -196.836914 
L 540.48715 -198.994171 
L 511.779223 -202.633568 
L 483.071295 -204.61654 
L 454.363368 -207.695255 
L 425.655441 -210.016215 
L 396.947514 -213.874812 
z
" style="stroke: #004e94; stroke-opacity: 0.2; stroke-width: 0.8"/>
    </defs>
    <g clip-path="url(#p3bdb18df36)">
     <use xlink:href="#m80f7842dce" x="0" y="326.79385" style="fill: #004e94; fill-opacity: 0.2; stroke: #004e94; stroke-opacity: 0.2; stroke-width: 0.8"/>
    </g>
   </g>
   <g id="line2d_31">
    <path d="M 396.947514 93.262749 
L 425.655441 100.738514 
L 454.363368 109.749535 
L 483.071295 116.589323 
L 511.779223 120.968246 
L 540.48715 124.901579 
L 569.195077 130.716513 
L 597.903005 134.589085 
L 626.610932 139.271818 
L 655.318859 143.330727 
L 684.026786 144.979406 
" clip-path="url(#p3bdb18df36)" style="fill: none; stroke: #c80723; stroke-width: 2.5; stroke-linecap: round"/>
    <g clip-path="url(#p3bdb18df36)">
     <use xlink:href="#m9c746964bf" x="396.947514" y="93.262749" style="fill: #c80723; stroke: #ffffff; stroke-width: 0.75"/>
     <use xlink:href="#m9c746964bf" x="425.655441" y="100.738514" style="fill: #c80723; stroke: #ffffff; stroke-width: 0.75"/>
     <use xlink:href="#m9c746964bf" x="454.363368" y="109.749535" style="fill: #c80723; stroke: #ffffff; stroke-width: 0.75"/>
     <use xlink:href="#m9c746964bf" x="483.071295" y="116.589323" style="fill: #c80723; stroke: #ffffff; stroke-width: 0.75"/>
     <use xlink:href="#m9c746964bf" x="511.779223" y="120.968246" style="fill: #c80723; stroke: #ffffff; stroke-width: 0.75"/>
     <use xlink:href="#m9c746964bf" x="540.48715" y="124.901579" style="fill: #c80723; stroke: #ffffff; stroke-width: 0.75"/>
     <use xlink:href="#m9c746964bf" x="569.195077" y="130.716513" style="fill: #c80723; stroke: #ffffff; stroke-width: 0.75"/>
     <use xlink:href="#m9c746964bf" x="597.903005" y="134.589085" style="fill: #c80723; stroke: #ffffff; stroke-width: 0.75"/>
     <use xlink:href="#m9c746964bf" x="626.610932" y="139.271818" style="fill: #c80723; stroke: #ffffff; stroke-width: 0.75"/>
     <use xlink:href="#m9c746964bf" x="655.318859" y="143.330727" style="fill: #c80723; stroke: #ffffff; stroke-width: 0.75"/>
     <use xlink:href="#m9c746964bf" x="684.026786" y="144.979406" style="fill: #c80723; stroke: #ffffff; stroke-width: 0.75"/>
    </g>
   </g>
   <g id="line2d_32">
    <path d="M 396.947514 113.79224 
L 425.655441 118.562066 
L 454.363368 120.911534 
L 483.071295 123.291384 
L 511.779223 125.292482 
L 540.48715 129.430382 
L 569.195077 130.884622 
L 597.903005 133.580434 
L 626.610932 134.955683 
L 655.318859 137.995814 
L 684.026786 140.519467 
" clip-path="url(#p3bdb18df36)" style="fill: none; stroke: #004e94; stroke-width: 2.5; stroke-linecap: round"/>
    <g clip-path="url(#p3bdb18df36)">
     <use xlink:href="#m65e2d1c560" x="396.947514" y="113.79224" style="fill: #004e94; stroke: #ffffff; stroke-width: 0.75; stroke-linejoin: miter"/>
     <use xlink:href="#m65e2d1c560" x="425.655441" y="118.562066" style="fill: #004e94; stroke: #ffffff; stroke-width: 0.75; stroke-linejoin: miter"/>
     <use xlink:href="#m65e2d1c560" x="454.363368" y="120.911534" style="fill: #004e94; stroke: #ffffff; stroke-width: 0.75; stroke-linejoin: miter"/>
     <use xlink:href="#m65e2d1c560" x="483.071295" y="123.291384" style="fill: #004e94; stroke: #ffffff; stroke-width: 0.75; stroke-linejoin: miter"/>
     <use xlink:href="#m65e2d1c560" x="511.779223" y="125.292482" style="fill: #004e94; stroke: #ffffff; stroke-width: 0.75; stroke-linejoin: miter"/>
     <use xlink:href="#m65e2d1c560" x="540.48715" y="129.430382" style="fill: #004e94; stroke: #ffffff; stroke-width: 0.75; stroke-linejoin: miter"/>
     <use xlink:href="#m65e2d1c560" x="569.195077" y="130.884622" style="fill: #004e94; stroke: #ffffff; stroke-width: 0.75; stroke-linejoin: miter"/>
     <use xlink:href="#m65e2d1c560" x="597.903005" y="133.580434" style="fill: #004e94; stroke: #ffffff; stroke-width: 0.75; stroke-linejoin: miter"/>
     <use xlink:href="#m65e2d1c560" x="626.610932" y="134.955683" style="fill: #004e94; stroke: #ffffff; stroke-width: 0.75; stroke-linejoin: miter"/>
     <use xlink:href="#m65e2d1c560" x="655.318859" y="137.995814" style="fill: #004e94; stroke: #ffffff; stroke-width: 0.75; stroke-linejoin: miter"/>
     <use xlink:href="#m65e2d1c560" x="684.026786" y="140.519467" style="fill: #004e94; stroke: #ffffff; stroke-width: 0.75; stroke-linejoin: miter"/>
    </g>
   </g>
   <g id="line2d_33"/>
   <g id="line2d_34"/>
   <g id="patch_9">
    <path d="M 382.59355 282.0648 
L 382.59355 59.2704 
" style="fill: none; stroke: #cccccc; stroke-linejoin: miter; stroke-linecap: square"/>
   </g>
   <g id="patch_10">
    <path d="M 698.38075 282.0648 
L 698.38075 59.2704 
" style="fill: none; stroke: #cccccc; stroke-linejoin: miter; stroke-linecap: square"/>
   </g>
   <g id="patch_11">
    <path d="M 382.59355 282.0648 
L 698.38075 282.0648 
" style="fill: none; stroke: #cccccc; stroke-linejoin: miter; stroke-linecap: square"/>
   </g>
   <g id="patch_12">
    <path d="M 382.59355 59.2704 
L 698.38075 59.2704 
" style="fill: none; stroke: #cccccc; stroke-linejoin: miter; stroke-linecap: square"/>
   </g>
   <g id="legend_2">
    <g id="patch_13">
     <path d="M 603.613 105.2933 
L 689.75675 105.2933 
Q 692.22075 105.2933 692.22075 102.8293 
L 692.22075 67.8944 
Q 692.22075 65.4304 689.75675 65.4304 
L 603.613 65.4304 
Q 601.149 65.4304 601.149 67.8944 
L 601.149 102.8293 
Q 601.149 105.2933 603.613 105.2933 
z
" style="fill: #ffffff; opacity: 0.8; stroke: #cccccc; stroke-width: 0.8; stroke-linejoin: miter"/>
    </g>
    <g id="line2d_35">
     <path d="M 606.077 75.407675 
L 618.397 75.407675 
L 630.717 75.407675 
" style="fill: none; stroke: #c80723; stroke-width: 2.5; stroke-linecap: round"/>
     <g>
      <use xlink:href="#m9c746964bf" x="618.397" y="75.407675" style="fill: #c80723; stroke: #ffffff; stroke-width: 0.75"/>
     </g>
    </g>
    <g id="text_24">
     <!-- CLAP-S -->
     <g style="fill: #262626" transform="translate(640.573 79.719675) scale(0.1232 -0.1232)">
      <use xlink:href="#DejaVuSerif-43"/>
      <use xlink:href="#DejaVuSerif-4c" x="76.513672"/>
      <use xlink:href="#DejaVuSerif-41" x="142.919922"/>
      <use xlink:href="#DejaVuSerif-50" x="215.136719"/>
      <use xlink:href="#DejaVuSerif-2d" x="276.921875"/>
      <use xlink:href="#DejaVuSerif-53" x="310.710938"/>
     </g>
    </g>
    <g id="line2d_36">
     <path d="M 606.077 93.491125 
L 618.397 93.491125 
L 630.717 93.491125 
" style="fill: none; stroke: #004e94; stroke-width: 2.5; stroke-linecap: round"/>
     <g>
      <use xlink:href="#m65e2d1c560" x="618.397" y="93.491125" style="fill: #004e94; stroke: #ffffff; stroke-width: 0.75; stroke-linejoin: miter"/>
     </g>
    </g>
    <g id="text_25">
     <!-- RSU -->
     <g style="fill: #262626" transform="translate(640.573 97.803125) scale(0.1232 -0.1232)">
      <use xlink:href="#DejaVuSerif-52"/>
      <use xlink:href="#DejaVuSerif-53" x="75.292969"/>
      <use xlink:href="#DejaVuSerif-55" x="143.798828"/>
     </g>
    </g>
   </g>
  </g>
  <g id="text_26">
   <!-- Robustness: Set Similarity vs. Perturbation -->
   <g style="fill: #262626" transform="translate(155.9872 20.877187) scale(0.18 -0.18)">
    <defs>
     <path id="DejaVuSerif-62" d="M 738 331 
L 738 4531 
L 184 4531 
L 184 4863 
L 1313 4863 
L 1313 2803 
Q 1481 3116 1742 3264 
Q 2003 3413 2388 3413 
Q 3000 3413 3387 2928 
Q 3775 2444 3775 1663 
Q 3775 881 3387 395 
Q 3000 -91 2388 -91 
Q 2003 -91 1742 57 
Q 1481 206 1313 519 
L 1313 0 
L 184 0 
L 184 331 
L 738 331 
z
M 1313 1497 
Q 1313 897 1542 583 
Q 1772 269 2209 269 
Q 2650 269 2876 622 
Q 3103 975 3103 1663 
Q 3103 2353 2876 2703 
Q 2650 3053 2209 3053 
Q 1772 3053 1542 2737 
Q 1313 2422 1313 1825 
L 1313 1497 
z
" transform="scale(0.015625)"/>
     <path id="DejaVuSerif-75" d="M 2266 3322 
L 3341 3322 
L 3341 331 
L 3884 331 
L 3884 0 
L 2766 0 
L 2766 588 
Q 2606 256 2353 82 
Q 2100 -91 1766 -91 
Q 1213 -91 952 223 
Q 691 538 691 1209 
L 691 2988 
L 172 2988 
L 172 3322 
L 1269 3322 
L 1269 1388 
Q 1269 781 1417 556 
Q 1566 331 1947 331 
Q 2347 331 2556 625 
Q 2766 919 2766 1478 
L 2766 2988 
L 2266 2988 
L 2266 3322 
z
" transform="scale(0.015625)"/>
     <path id="DejaVuSerif-3a" d="M 666 325 
Q 666 500 786 622 
Q 906 744 1081 744 
Q 1256 744 1376 622 
Q 1497 500 1497 325 
Q 1497 150 1378 29 
Q 1259 -91 1081 -91 
Q 903 -91 784 29 
Q 666 150 666 325 
z
M 666 2363 
Q 666 2538 786 2658 
Q 906 2778 1081 2778 
Q 1259 2778 1378 2659 
Q 1497 2541 1497 2363 
Q 1497 2184 1378 2065 
Q 1259 1947 1081 1947 
Q 906 1947 786 2067 
Q 666 2188 666 2363 
z
" transform="scale(0.015625)"/>
    </defs>
    <use xlink:href="#DejaVuSerif-52"/>
    <use xlink:href="#DejaVuSerif-6f" x="75.292969"/>
    <use xlink:href="#DejaVuSerif-62" x="135.498047"/>
    <use xlink:href="#DejaVuSerif-75" x="199.511719"/>
    <use xlink:href="#DejaVuSerif-73" x="263.916016"/>
    <use xlink:href="#DejaVuSerif-74" x="315.234375"/>
    <use xlink:href="#DejaVuSerif-6e" x="355.419922"/>
    <use xlink:href="#DejaVuSerif-65" x="419.824219"/>
    <use xlink:href="#DejaVuSerif-73" x="479.003906"/>
    <use xlink:href="#DejaVuSerif-73" x="530.322266"/>
    <use xlink:href="#DejaVuSerif-3a" x="581.640625"/>
    <use xlink:href="#DejaVuSerif-20" x="615.332031"/>
    <use xlink:href="#DejaVuSerif-53" x="647.119141"/>
    <use xlink:href="#DejaVuSerif-65" x="715.625"/>
    <use xlink:href="#DejaVuSerif-74" x="774.804688"/>
    <use xlink:href="#DejaVuSerif-20" x="814.990234"/>
    <use xlink:href="#DejaVuSerif-53" x="846.777344"/>
    <use xlink:href="#DejaVuSerif-69" x="915.283203"/>
    <use xlink:href="#DejaVuSerif-6d" x="947.265625"/>
    <use xlink:href="#DejaVuSerif-69" x="1042.089844"/>
    <use xlink:href="#DejaVuSerif-6c" x="1074.072266"/>
    <use xlink:href="#DejaVuSerif-61" x="1106.054688"/>
    <use xlink:href="#DejaVuSerif-72" x="1165.673828"/>
    <use xlink:href="#DejaVuSerif-69" x="1213.476562"/>
    <use xlink:href="#DejaVuSerif-74" x="1245.458984"/>
    <use xlink:href="#DejaVuSerif-79" x="1285.644531"/>
    <use xlink:href="#DejaVuSerif-20" x="1342.138672"/>
    <use xlink:href="#DejaVuSerif-76" x="1373.925781"/>
    <use xlink:href="#DejaVuSerif-73" x="1430.419922"/>
    <use xlink:href="#DejaVuSerif-2e" x="1481.738281"/>
    <use xlink:href="#DejaVuSerif-20" x="1513.525391"/>
    <use xlink:href="#DejaVuSerif-50" x="1545.3125"/>
    <use xlink:href="#DejaVuSerif-65" x="1608.097656"/>
    <use xlink:href="#DejaVuSerif-72" x="1667.277344"/>
    <use xlink:href="#DejaVuSerif-74" x="1715.080078"/>
    <use xlink:href="#DejaVuSerif-75" x="1755.265625"/>
    <use xlink:href="#DejaVuSerif-72" x="1819.669922"/>
    <use xlink:href="#DejaVuSerif-62" x="1867.472656"/>
    <use xlink:href="#DejaVuSerif-61" x="1931.486328"/>
    <use xlink:href="#DejaVuSerif-74" x="1991.105469"/>
    <use xlink:href="#DejaVuSerif-69" x="2031.291016"/>
    <use xlink:href="#DejaVuSerif-6f" x="2063.273438"/>
    <use xlink:href="#DejaVuSerif-6e" x="2123.478516"/>
   </g>
  </g>
 </g>
 <defs>
  <clipPath id="pc5206c9bc6">
   <rect x="52.29115" y="59.2704" width="315.7872" height="222.7944"/>
  </clipPath>
  <clipPath id="p3bdb18df36">
   <rect x="382.59355" y="59.2704" width="315.7872" height="222.7944"/>
  </clipPath>
 </defs>
</svg>
