<?xml version="1.0" encoding="utf-8" standalone="no"?>
<!DOCTYPE svg PUBLIC "-//W3C//DTD SVG 1.1//EN"
  "http://www.w3.org/Graphics/SVG/1.1/DTD/svg11.dtd">
<svg xmlns:xlink="http://www.w3.org/1999/xlink" width="705.38965pt" height="326.79385pt" viewBox="0 0 705.38965 326.79385" xmlns="http://www.w3.org/2000/svg" version="1.1">
 <metadata>
  <rdf:RDF xmlns:dc="http://purl.org/dc/elements/1.1/" xmlns:cc="http://creativecommons.org/ns#" xmlns:rdf="http://www.w3.org/1999/02/22-rdf-syntax-ns#">
   <cc:Work>
    <dc:type rdf:resource="http://purl.org/dc/dcmitype/StillImage"/>
    <dc:date>2026-01-23T13:16:29.335012</dc:date>
    <dc:format>image/svg+xml</dc:format>
    <dc:creator>
     <cc:Agent>
      <dc:title>Matplotlib v3.7.5, https://matplotlib.org/</dc:title>
     </cc:Agent>
    </dc:creator>
   </cc:Work>
  </rdf:RDF>
 </metadata>
 <defs>
  <style type="text/css">*{stroke-linejoin: round; stroke-linecap: butt}</style>
 </defs>
 <g id="figure_1">
  <g id="patch_1">
   <path d="M 0 326.79385 
L 705.38965 326.79385 
L 705.38965 -0 
L 0 -0 
z
" style="fill: #ffffff"/>
  </g>
  <g id="axes_1">
   <g id="patch_2">
    <path d="M 52.10005 282.0648 
L 367.88725 282.0648 
L 367.88725 77.5104 
L 52.10005 77.5104 
z
" style="fill: #ffffff"/>
   </g>
   <g id="matplotlib.axis_1">
    <g id="xtick_1">
     <g id="line2d_1">
      <path d="M 66.454014 282.0648 
L 66.454014 77.5104 
" clip-path="url(#p9227380ac1)" style="fill: none; stroke: #cccccc; stroke-width: 0.8; stroke-linecap: round"/>
     </g>
     <g id="text_1">
      <!-- 0.0 -->
      <g style="fill: #262626" transform="translate(56.657689 299.726075) scale(0.1232 -0.1232)">
       <defs>
        <path id="DejaVuSerif-30" d="M 2034 219 
Q 2513 219 2750 744 
Q 2988 1269 2988 2328 
Q 2988 3391 2750 3916 
Q 2513 4441 2034 4441 
Q 1556 4441 1318 3916 
Q 1081 3391 1081 2328 
Q 1081 1269 1318 744 
Q 1556 219 2034 219 
z
M 2034 -91 
Q 1275 -91 848 546 
Q 422 1184 422 2328 
Q 422 3475 848 4112 
Q 1275 4750 2034 4750 
Q 2797 4750 3222 4112 
Q 3647 3475 3647 2328 
Q 3647 1184 3222 546 
Q 2797 -91 2034 -91 
z
" transform="scale(0.015625)"/>
        <path id="DejaVuSerif-2e" d="M 603 325 
Q 603 500 722 622 
Q 841 744 1019 744 
Q 1191 744 1312 622 
Q 1434 500 1434 325 
Q 1434 153 1312 31 
Q 1191 -91 1019 -91 
Q 841 -91 722 29 
Q 603 150 603 325 
z
" transform="scale(0.015625)"/>
       </defs>
       <use xlink:href="#DejaVuSerif-30"/>
       <use xlink:href="#DejaVuSerif-2e" x="63.623047"/>
       <use xlink:href="#DejaVuSerif-30" x="95.410156"/>
      </g>
     </g>
    </g>
    <g id="xtick_2">
     <g id="line2d_2">
      <path d="M 123.869868 282.0648 
L 123.869868 77.5104 
" clip-path="url(#p9227380ac1)" style="fill: none; stroke: #cccccc; stroke-width: 0.8; stroke-linecap: round"/>
     </g>
     <g id="text_2">
      <!-- 0.1 -->
      <g style="fill: #262626" transform="translate(114.073543 299.726075) scale(0.1232 -0.1232)">
       <defs>
        <path id="DejaVuSerif-31" d="M 909 0 
L 909 331 
L 1722 331 
L 1722 4213 
L 781 3603 
L 781 4013 
L 1919 4750 
L 2350 4750 
L 2350 331 
L 3163 331 
L 3163 0 
L 909 0 
z
" transform="scale(0.015625)"/>
       </defs>
       <use xlink:href="#DejaVuSerif-30"/>
       <use xlink:href="#DejaVuSerif-2e" x="63.623047"/>
       <use xlink:href="#DejaVuSerif-31" x="95.410156"/>
      </g>
     </g>
    </g>
    <g id="xtick_3">
     <g id="line2d_3">
      <path d="M 181.285723 282.0648 
L 181.285723 77.5104 
" clip-path="url(#p9227380ac1)" style="fill: none; stroke: #cccccc; stroke-width: 0.8; stroke-linecap: round"/>
     </g>
     <g id="text_3">
      <!-- 0.2 -->
      <g style="fill: #262626" transform="translate(171.489398 299.726075) scale(0.1232 -0.1232)">
       <defs>
        <path id="DejaVuSerif-32" d="M 819 3553 
L 469 3553 
L 469 4384 
Q 803 4563 1142 4656 
Q 1481 4750 1806 4750 
Q 2534 4750 2956 4397 
Q 3378 4044 3378 3438 
Q 3378 2753 2422 1800 
Q 2347 1728 2309 1691 
L 1131 513 
L 3078 513 
L 3078 1088 
L 3444 1088 
L 3444 0 
L 434 0 
L 434 341 
L 1850 1753 
Q 2319 2222 2519 2614 
Q 2719 3006 2719 3438 
Q 2719 3909 2473 4175 
Q 2228 4441 1797 4441 
Q 1350 4441 1106 4219 
Q 863 3997 819 3553 
z
" transform="scale(0.015625)"/>
       </defs>
       <use xlink:href="#DejaVuSerif-30"/>
       <use xlink:href="#DejaVuSerif-2e" x="63.623047"/>
       <use xlink:href="#DejaVuSerif-32" x="95.410156"/>
      </g>
     </g>
    </g>
    <g id="xtick_4">
     <g id="line2d_4">
      <path d="M 238.701577 282.0648 
L 238.701577 77.5104 
" clip-path="url(#p9227380ac1)" style="fill: none; stroke: #cccccc; stroke-width: 0.8; stroke-linecap: round"/>
     </g>
     <g id="text_4">
      <!-- 0.3 -->
      <g style="fill: #262626" transform="translate(228.905252 299.726075) scale(0.1232 -0.1232)">
       <defs>
        <path id="DejaVuSerif-33" d="M 622 4469 
Q 988 4606 1323 4678 
Q 1659 4750 1953 4750 
Q 2638 4750 3022 4454 
Q 3406 4159 3406 3634 
Q 3406 3213 3140 2930 
Q 2875 2647 2388 2547 
Q 2963 2466 3280 2130 
Q 3597 1794 3597 1259 
Q 3597 606 3158 257 
Q 2719 -91 1894 -91 
Q 1528 -91 1179 -12 
Q 831 66 488 225 
L 488 1131 
L 838 1131 
Q 869 681 1141 450 
Q 1413 219 1906 219 
Q 2384 219 2661 495 
Q 2938 772 2938 1253 
Q 2938 1803 2653 2086 
Q 2369 2369 1819 2369 
L 1522 2369 
L 1522 2688 
L 1678 2688 
Q 2225 2688 2498 2914 
Q 2772 3141 2772 3597 
Q 2772 4006 2547 4223 
Q 2322 4441 1900 4441 
Q 1478 4441 1245 4241 
Q 1013 4041 972 3647 
L 622 3647 
L 622 4469 
z
" transform="scale(0.015625)"/>
       </defs>
       <use xlink:href="#DejaVuSerif-30"/>
       <use xlink:href="#DejaVuSerif-2e" x="63.623047"/>
       <use xlink:href="#DejaVuSerif-33" x="95.410156"/>
      </g>
     </g>
    </g>
    <g id="xtick_5">
     <g id="line2d_5">
      <path d="M 296.117432 282.0648 
L 296.117432 77.5104 
" clip-path="url(#p9227380ac1)" style="fill: none; stroke: #cccccc; stroke-width: 0.8; stroke-linecap: round"/>
     </g>
     <g id="text_5">
      <!-- 0.4 -->
      <g style="fill: #262626" transform="translate(286.321107 299.726075) scale(0.1232 -0.1232)">
       <defs>
        <path id="DejaVuSerif-34" d="M 2234 1581 
L 2234 4063 
L 641 1581 
L 2234 1581 
z
M 3609 0 
L 1484 0 
L 1484 331 
L 2234 331 
L 2234 1247 
L 197 1247 
L 197 1588 
L 2241 4750 
L 2859 4750 
L 2859 1581 
L 3750 1581 
L 3750 1247 
L 2859 1247 
L 2859 331 
L 3609 331 
L 3609 0 
z
" transform="scale(0.015625)"/>
       </defs>
       <use xlink:href="#DejaVuSerif-30"/>
       <use xlink:href="#DejaVuSerif-2e" x="63.623047"/>
       <use xlink:href="#DejaVuSerif-34" x="95.410156"/>
      </g>
     </g>
    </g>
    <g id="xtick_6">
     <g id="line2d_6">
      <path d="M 353.533286 282.0648 
L 353.533286 77.5104 
" clip-path="url(#p9227380ac1)" style="fill: none; stroke: #cccccc; stroke-width: 0.8; stroke-linecap: round"/>
     </g>
     <g id="text_6">
      <!-- 0.5 -->
      <g style="fill: #262626" transform="translate(343.736961 299.726075) scale(0.1232 -0.1232)">
       <defs>
        <path id="DejaVuSerif-35" d="M 3219 4666 
L 3219 4153 
L 1081 4153 
L 1081 2816 
Q 1244 2928 1461 2984 
Q 1678 3041 1947 3041 
Q 2703 3041 3140 2622 
Q 3578 2203 3578 1478 
Q 3578 738 3136 323 
Q 2694 -91 1894 -91 
Q 1572 -91 1234 -12 
Q 897 66 544 225 
L 544 1131 
L 897 1131 
Q 925 688 1179 453 
Q 1434 219 1894 219 
Q 2388 219 2653 544 
Q 2919 869 2919 1478 
Q 2919 2084 2655 2407 
Q 2391 2731 1894 2731 
Q 1613 2731 1398 2631 
Q 1184 2531 1019 2322 
L 750 2322 
L 750 4666 
L 3219 4666 
z
" transform="scale(0.015625)"/>
       </defs>
       <use xlink:href="#DejaVuSerif-30"/>
       <use xlink:href="#DejaVuSerif-2e" x="63.623047"/>
       <use xlink:href="#DejaVuSerif-35" x="95.410156"/>
      </g>
     </g>
    </g>
    <g id="text_7">
     <!-- Fraction of Edges Removed ($p$) -->
     <g style="fill: #262626" transform="translate(104.01925 316.50265) scale(0.1344 -0.1344)">
      <defs>
       <path id="DejaVuSerif-46" d="M 353 0 
L 353 331 
L 947 331 
L 947 4331 
L 353 4331 
L 353 4666 
L 4172 4666 
L 4172 3628 
L 3788 3628 
L 3788 4281 
L 1581 4281 
L 1581 2719 
L 3175 2719 
L 3175 3303 
L 3559 3303 
L 3559 1753 
L 3175 1753 
L 3175 2338 
L 1581 2338 
L 1581 331 
L 2328 331 
L 2328 0 
L 353 0 
z
" transform="scale(0.015625)"/>
       <path id="DejaVuSerif-72" d="M 3059 3328 
L 3059 2497 
L 2728 2497 
Q 2713 2744 2591 2866 
Q 2469 2988 2234 2988 
Q 1809 2988 1582 2694 
Q 1356 2400 1356 1850 
L 1356 331 
L 2022 331 
L 2022 0 
L 263 0 
L 263 331 
L 781 331 
L 781 2994 
L 231 2994 
L 231 3322 
L 1356 3322 
L 1356 2731 
Q 1525 3078 1790 3245 
Q 2056 3413 2438 3413 
Q 2578 3413 2733 3391 
Q 2888 3369 3059 3328 
z
" transform="scale(0.015625)"/>
       <path id="DejaVuSerif-61" d="M 2547 1044 
L 2547 1747 
L 1806 1747 
Q 1378 1747 1168 1562 
Q 959 1378 959 997 
Q 959 650 1171 447 
Q 1384 244 1747 244 
Q 2106 244 2326 466 
Q 2547 688 2547 1044 
z
M 3122 2075 
L 3122 331 
L 3634 331 
L 3634 0 
L 2547 0 
L 2547 359 
Q 2356 128 2106 18 
Q 1856 -91 1522 -91 
Q 969 -91 644 203 
Q 319 497 319 997 
Q 319 1513 691 1797 
Q 1063 2081 1741 2081 
L 2547 2081 
L 2547 2309 
Q 2547 2688 2317 2895 
Q 2088 3103 1672 3103 
Q 1328 3103 1125 2947 
Q 922 2791 872 2484 
L 575 2484 
L 575 3156 
Q 875 3284 1158 3348 
Q 1441 3413 1709 3413 
Q 2400 3413 2761 3070 
Q 3122 2728 3122 2075 
z
" transform="scale(0.015625)"/>
       <path id="DejaVuSerif-63" d="M 3291 997 
Q 3169 466 2822 187 
Q 2475 -91 1925 -91 
Q 1200 -91 759 389 
Q 319 869 319 1663 
Q 319 2459 759 2936 
Q 1200 3413 1925 3413 
Q 2241 3413 2553 3339 
Q 2866 3266 3181 3116 
L 3181 2266 
L 2847 2266 
Q 2781 2703 2561 2903 
Q 2341 3103 1931 3103 
Q 1466 3103 1228 2742 
Q 991 2381 991 1663 
Q 991 944 1227 581 
Q 1463 219 1931 219 
Q 2303 219 2525 412 
Q 2747 606 2828 997 
L 3291 997 
z
" transform="scale(0.015625)"/>
       <path id="DejaVuSerif-74" d="M 691 2988 
L 184 2988 
L 184 3322 
L 691 3322 
L 691 4353 
L 1269 4353 
L 1269 3322 
L 2350 3322 
L 2350 2988 
L 1269 2988 
L 1269 878 
Q 1269 456 1350 337 
Q 1431 219 1650 219 
Q 1875 219 1978 351 
Q 2081 484 2088 781 
L 2522 781 
Q 2497 328 2275 118 
Q 2053 -91 1600 -91 
Q 1103 -91 897 129 
Q 691 350 691 878 
L 691 2988 
z
" transform="scale(0.015625)"/>
       <path id="DejaVuSerif-69" d="M 622 4353 
Q 622 4497 726 4603 
Q 831 4709 978 4709 
Q 1122 4709 1226 4603 
Q 1331 4497 1331 4353 
Q 1331 4206 1228 4103 
Q 1125 4000 978 4000 
Q 831 4000 726 4103 
Q 622 4206 622 4353 
z
M 1356 331 
L 1900 331 
L 1900 0 
L 231 0 
L 231 331 
L 781 331 
L 781 2988 
L 231 2988 
L 231 3322 
L 1356 3322 
L 1356 331 
z
" transform="scale(0.015625)"/>
       <path id="DejaVuSerif-6f" d="M 1925 219 
Q 2388 219 2623 584 
Q 2859 950 2859 1663 
Q 2859 2375 2623 2739 
Q 2388 3103 1925 3103 
Q 1463 3103 1227 2739 
Q 991 2375 991 1663 
Q 991 950 1228 584 
Q 1466 219 1925 219 
z
M 1925 -91 
Q 1200 -91 759 389 
Q 319 869 319 1663 
Q 319 2456 758 2934 
Q 1197 3413 1925 3413 
Q 2653 3413 3092 2934 
Q 3531 2456 3531 1663 
Q 3531 869 3092 389 
Q 2653 -91 1925 -91 
z
" transform="scale(0.015625)"/>
       <path id="DejaVuSerif-6e" d="M 263 0 
L 263 331 
L 781 331 
L 781 2988 
L 231 2988 
L 231 3322 
L 1356 3322 
L 1356 2731 
Q 1516 3069 1770 3241 
Q 2025 3413 2363 3413 
Q 2913 3413 3172 3097 
Q 3431 2781 3431 2113 
L 3431 331 
L 3944 331 
L 3944 0 
L 2356 0 
L 2356 331 
L 2853 331 
L 2853 1931 
Q 2853 2541 2703 2767 
Q 2553 2994 2175 2994 
Q 1775 2994 1565 2701 
Q 1356 2409 1356 1850 
L 1356 331 
L 1856 331 
L 1856 0 
L 263 0 
z
" transform="scale(0.015625)"/>
       <path id="DejaVuSerif-20" transform="scale(0.015625)"/>
       <path id="DejaVuSerif-66" d="M 2753 4078 
L 2450 4078 
Q 2447 4313 2317 4434 
Q 2188 4556 1941 4556 
Q 1619 4556 1487 4379 
Q 1356 4203 1356 3750 
L 1356 3322 
L 2284 3322 
L 2284 2988 
L 1356 2988 
L 1356 331 
L 2094 331 
L 2094 0 
L 231 0 
L 231 331 
L 781 331 
L 781 2988 
L 231 2988 
L 231 3322 
L 781 3322 
L 781 3738 
Q 781 4294 1070 4578 
Q 1359 4863 1919 4863 
Q 2128 4863 2337 4825 
Q 2547 4788 2753 4709 
L 2753 4078 
z
" transform="scale(0.015625)"/>
       <path id="DejaVuSerif-45" d="M 353 0 
L 353 331 
L 947 331 
L 947 4331 
L 353 4331 
L 353 4666 
L 4109 4666 
L 4109 3628 
L 3725 3628 
L 3725 4281 
L 1581 4281 
L 1581 2719 
L 3109 2719 
L 3109 3303 
L 3494 3303 
L 3494 1753 
L 3109 1753 
L 3109 2338 
L 1581 2338 
L 1581 384 
L 3775 384 
L 3775 1038 
L 4159 1038 
L 4159 0 
L 353 0 
z
" transform="scale(0.015625)"/>
       <path id="DejaVuSerif-64" d="M 3359 331 
L 3909 331 
L 3909 0 
L 2784 0 
L 2784 519 
Q 2616 206 2355 57 
Q 2094 -91 1709 -91 
Q 1097 -91 708 395 
Q 319 881 319 1663 
Q 319 2444 706 2928 
Q 1094 3413 1709 3413 
Q 2094 3413 2355 3264 
Q 2616 3116 2784 2803 
L 2784 4531 
L 2241 4531 
L 2241 4863 
L 3359 4863 
L 3359 331 
z
M 2784 1497 
L 2784 1825 
Q 2784 2422 2554 2737 
Q 2325 3053 1888 3053 
Q 1444 3053 1217 2703 
Q 991 2353 991 1663 
Q 991 975 1217 622 
Q 1444 269 1888 269 
Q 2325 269 2554 583 
Q 2784 897 2784 1497 
z
" transform="scale(0.015625)"/>
       <path id="DejaVuSerif-67" d="M 3359 2988 
L 3359 72 
Q 3359 -644 2965 -1033 
Q 2572 -1422 1844 -1422 
Q 1516 -1422 1216 -1362 
Q 916 -1303 641 -1184 
L 641 -488 
L 941 -488 
Q 997 -813 1206 -963 
Q 1416 -1113 1806 -1113 
Q 2313 -1113 2548 -827 
Q 2784 -541 2784 72 
L 2784 519 
Q 2616 206 2355 57 
Q 2094 -91 1709 -91 
Q 1097 -91 708 395 
Q 319 881 319 1663 
Q 319 2444 706 2928 
Q 1094 3413 1709 3413 
Q 2094 3413 2355 3264 
Q 2616 3116 2784 2803 
L 2784 3322 
L 3909 3322 
L 3909 2988 
L 3359 2988 
z
M 2784 1825 
Q 2784 2422 2554 2737 
Q 2325 3053 1888 3053 
Q 1444 3053 1217 2703 
Q 991 2353 991 1663 
Q 991 975 1217 622 
Q 1444 269 1888 269 
Q 2325 269 2554 583 
Q 2784 897 2784 1497 
L 2784 1825 
z
" transform="scale(0.015625)"/>
       <path id="DejaVuSerif-65" d="M 3469 1600 
L 991 1600 
L 991 1575 
Q 991 903 1244 561 
Q 1497 219 1991 219 
Q 2369 219 2611 417 
Q 2853 616 2950 1006 
L 3413 1006 
Q 3275 459 2904 184 
Q 2534 -91 1931 -91 
Q 1203 -91 761 389 
Q 319 869 319 1663 
Q 319 2450 753 2931 
Q 1188 3413 1894 3413 
Q 2647 3413 3050 2948 
Q 3453 2484 3469 1600 
z
M 2791 1931 
Q 2772 2513 2545 2808 
Q 2319 3103 1894 3103 
Q 1497 3103 1269 2806 
Q 1041 2509 991 1931 
L 2791 1931 
z
" transform="scale(0.015625)"/>
       <path id="DejaVuSerif-73" d="M 359 184 
L 359 959 
L 691 959 
Q 703 588 923 403 
Q 1144 219 1575 219 
Q 1963 219 2166 364 
Q 2369 509 2369 788 
Q 2369 1006 2220 1140 
Q 2072 1275 1594 1428 
L 1178 1569 
Q 750 1706 558 1912 
Q 366 2119 366 2438 
Q 366 2894 700 3153 
Q 1034 3413 1625 3413 
Q 1888 3413 2178 3344 
Q 2469 3275 2778 3144 
L 2778 2419 
L 2447 2419 
Q 2434 2741 2221 2922 
Q 2009 3103 1644 3103 
Q 1281 3103 1095 2975 
Q 909 2847 909 2591 
Q 909 2381 1050 2254 
Q 1191 2128 1613 1997 
L 2069 1856 
Q 2541 1709 2748 1489 
Q 2956 1269 2956 922 
Q 2956 450 2595 179 
Q 2234 -91 1600 -91 
Q 1278 -91 972 -22 
Q 666 47 359 184 
z
" transform="scale(0.015625)"/>
       <path id="DejaVuSerif-52" d="M 3066 2316 
Q 3284 2256 3442 2114 
Q 3600 1972 3725 1716 
L 4403 331 
L 4972 331 
L 4972 0 
L 3872 0 
L 3144 1484 
Q 2934 1916 2759 2042 
Q 2584 2169 2278 2169 
L 1581 2169 
L 1581 331 
L 2241 331 
L 2241 0 
L 353 0 
L 353 331 
L 947 331 
L 947 4331 
L 353 4331 
L 353 4666 
L 2719 4666 
Q 3400 4666 3770 4341 
Q 4141 4016 4141 3419 
Q 4141 2938 3870 2661 
Q 3600 2384 3066 2316 
z
M 1581 2503 
L 2503 2503 
Q 2975 2503 3200 2726 
Q 3425 2950 3425 3419 
Q 3425 3888 3200 4109 
Q 2975 4331 2503 4331 
L 1581 4331 
L 1581 2503 
z
" transform="scale(0.015625)"/>
       <path id="DejaVuSerif-6d" d="M 3316 2675 
Q 3481 3041 3739 3227 
Q 3997 3413 4341 3413 
Q 4863 3413 5119 3089 
Q 5375 2766 5375 2113 
L 5375 331 
L 5894 331 
L 5894 0 
L 4300 0 
L 4300 331 
L 4800 331 
L 4800 2047 
Q 4800 2556 4650 2772 
Q 4500 2988 4153 2988 
Q 3769 2988 3567 2697 
Q 3366 2406 3366 1850 
L 3366 331 
L 3866 331 
L 3866 0 
L 2291 0 
L 2291 331 
L 2791 331 
L 2791 2069 
Q 2791 2566 2641 2777 
Q 2491 2988 2144 2988 
Q 1759 2988 1557 2697 
Q 1356 2406 1356 1850 
L 1356 331 
L 1856 331 
L 1856 0 
L 263 0 
L 263 331 
L 781 331 
L 781 2994 
L 231 2994 
L 231 3322 
L 1356 3322 
L 1356 2731 
Q 1516 3063 1762 3238 
Q 2009 3413 2322 3413 
Q 2709 3413 2968 3220 
Q 3228 3028 3316 2675 
z
" transform="scale(0.015625)"/>
       <path id="DejaVuSerif-76" d="M 1581 0 
L 359 2988 
L -19 2988 
L -19 3322 
L 1509 3322 
L 1509 2988 
L 978 2988 
L 1913 703 
L 2847 2988 
L 2350 2988 
L 2350 3322 
L 3597 3322 
L 3597 2988 
L 3225 2988 
L 2003 0 
L 1581 0 
z
" transform="scale(0.015625)"/>
       <path id="DejaVuSerif-28" d="M 2041 -997 
Q 1281 -656 893 83 
Q 506 822 506 1931 
Q 506 3044 893 3783 
Q 1281 4522 2041 4863 
L 2041 4556 
Q 1559 4225 1350 3623 
Q 1141 3022 1141 1931 
Q 1141 844 1350 242 
Q 1559 -359 2041 -691 
L 2041 -997 
z
" transform="scale(0.015625)"/>
       <path id="DejaVuSans-Oblique-70" d="M 3175 2156 
Q 3175 2616 2975 2859 
Q 2775 3103 2400 3103 
Q 2144 3103 1911 2972 
Q 1678 2841 1497 2591 
Q 1319 2344 1212 1994 
Q 1106 1644 1106 1300 
Q 1106 863 1306 627 
Q 1506 391 1875 391 
Q 2147 391 2380 519 
Q 2613 647 2778 891 
Q 2956 1147 3065 1494 
Q 3175 1841 3175 2156 
z
M 1394 2969 
Q 1625 3272 1939 3428 
Q 2253 3584 2638 3584 
Q 3175 3584 3472 3232 
Q 3769 2881 3769 2247 
Q 3769 1728 3584 1258 
Q 3400 788 3053 416 
Q 2822 169 2531 39 
Q 2241 -91 1919 -91 
Q 1547 -91 1294 64 
Q 1041 219 916 525 
L 556 -1331 
L -19 -1331 
L 922 3500 
L 1497 3500 
L 1394 2969 
z
" transform="scale(0.015625)"/>
       <path id="DejaVuSerif-29" d="M 453 -997 
L 453 -691 
Q 934 -359 1145 242 
Q 1356 844 1356 1931 
Q 1356 3022 1145 3623 
Q 934 4225 453 4556 
L 453 4863 
Q 1216 4522 1603 3783 
Q 1991 3044 1991 1931 
Q 1991 822 1603 83 
Q 1216 -656 453 -997 
z
" transform="scale(0.015625)"/>
      </defs>
      <use xlink:href="#DejaVuSerif-46" transform="translate(0 0.015625)"/>
      <use xlink:href="#DejaVuSerif-72" transform="translate(69.384766 0.015625)"/>
      <use xlink:href="#DejaVuSerif-61" transform="translate(117.1875 0.015625)"/>
      <use xlink:href="#DejaVuSerif-63" transform="translate(176.806641 0.015625)"/>
      <use xlink:href="#DejaVuSerif-74" transform="translate(232.8125 0.015625)"/>
      <use xlink:href="#DejaVuSerif-69" transform="translate(272.998047 0.015625)"/>
      <use xlink:href="#DejaVuSerif-6f" transform="translate(304.980469 0.015625)"/>
      <use xlink:href="#DejaVuSerif-6e" transform="translate(365.185547 0.015625)"/>
      <use xlink:href="#DejaVuSerif-20" transform="translate(429.589844 0.015625)"/>
      <use xlink:href="#DejaVuSerif-6f" transform="translate(461.376953 0.015625)"/>
      <use xlink:href="#DejaVuSerif-66" transform="translate(521.582031 0.015625)"/>
      <use xlink:href="#DejaVuSerif-20" transform="translate(558.59375 0.015625)"/>
      <use xlink:href="#DejaVuSerif-45" transform="translate(590.380859 0.015625)"/>
      <use xlink:href="#DejaVuSerif-64" transform="translate(663.378906 0.015625)"/>
      <use xlink:href="#DejaVuSerif-67" transform="translate(727.392578 0.015625)"/>
      <use xlink:href="#DejaVuSerif-65" transform="translate(791.40625 0.015625)"/>
      <use xlink:href="#DejaVuSerif-73" transform="translate(850.585938 0.015625)"/>
      <use xlink:href="#DejaVuSerif-20" transform="translate(901.904297 0.015625)"/>
      <use xlink:href="#DejaVuSerif-52" transform="translate(933.691406 0.015625)"/>
      <use xlink:href="#DejaVuSerif-65" transform="translate(1008.984375 0.015625)"/>
      <use xlink:href="#DejaVuSerif-6d" transform="translate(1068.164062 0.015625)"/>
      <use xlink:href="#DejaVuSerif-6f" transform="translate(1162.988281 0.015625)"/>
      <use xlink:href="#DejaVuSerif-76" transform="translate(1223.193359 0.015625)"/>
      <use xlink:href="#DejaVuSerif-65" transform="translate(1279.6875 0.015625)"/>
      <use xlink:href="#DejaVuSerif-64" transform="translate(1338.867188 0.015625)"/>
      <use xlink:href="#DejaVuSerif-20" transform="translate(1402.880859 0.015625)"/>
      <use xlink:href="#DejaVuSerif-28" transform="translate(1434.667969 0.015625)"/>
      <use xlink:href="#DejaVuSans-Oblique-70" transform="translate(1473.681641 0.015625)"/>
      <use xlink:href="#DejaVuSerif-29" transform="translate(1537.158203 0.015625)"/>
     </g>
    </g>
   </g>
   <g id="matplotlib.axis_2">
    <g id="ytick_1">
     <g id="line2d_7">
      <path d="M 52.10005 272.766873 
L 367.88725 272.766873 
" clip-path="url(#p9227380ac1)" style="fill: none; stroke: #cccccc; stroke-width: 0.8; stroke-linecap: round"/>
     </g>
     <g id="text_8">
      <!-- 0.0 -->
      <g style="fill: #262626" transform="translate(24.2074 277.44751) scale(0.1232 -0.1232)">
       <use xlink:href="#DejaVuSerif-30"/>
       <use xlink:href="#DejaVuSerif-2e" x="63.623047"/>
       <use xlink:href="#DejaVuSerif-30" x="95.410156"/>
      </g>
     </g>
    </g>
    <g id="ytick_2">
     <g id="line2d_8">
      <path d="M 52.10005 235.575164 
L 367.88725 235.575164 
" clip-path="url(#p9227380ac1)" style="fill: none; stroke: #cccccc; stroke-width: 0.8; stroke-linecap: round"/>
     </g>
     <g id="text_9">
      <!-- 0.2 -->
      <g style="fill: #262626" transform="translate(24.2074 240.255801) scale(0.1232 -0.1232)">
       <use xlink:href="#DejaVuSerif-30"/>
       <use xlink:href="#DejaVuSerif-2e" x="63.623047"/>
       <use xlink:href="#DejaVuSerif-32" x="95.410156"/>
      </g>
     </g>
    </g>
    <g id="ytick_3">
     <g id="line2d_9">
      <path d="M 52.10005 198.383455 
L 367.88725 198.383455 
" clip-path="url(#p9227380ac1)" style="fill: none; stroke: #cccccc; stroke-width: 0.8; stroke-linecap: round"/>
     </g>
     <g id="text_10">
      <!-- 0.4 -->
      <g style="fill: #262626" transform="translate(24.2074 203.064092) scale(0.1232 -0.1232)">
       <use xlink:href="#DejaVuSerif-30"/>
       <use xlink:href="#DejaVuSerif-2e" x="63.623047"/>
       <use xlink:href="#DejaVuSerif-34" x="95.410156"/>
      </g>
     </g>
    </g>
    <g id="ytick_4">
     <g id="line2d_10">
      <path d="M 52.10005 161.191745 
L 367.88725 161.191745 
" clip-path="url(#p9227380ac1)" style="fill: none; stroke: #cccccc; stroke-width: 0.8; stroke-linecap: round"/>
     </g>
     <g id="text_11">
      <!-- 0.6 -->
      <g style="fill: #262626" transform="translate(24.2074 165.872383) scale(0.1232 -0.1232)">
       <defs>
        <path id="DejaVuSerif-36" d="M 2094 219 
Q 2534 219 2771 542 
Q 3009 866 3009 1472 
Q 3009 2078 2771 2401 
Q 2534 2725 2094 2725 
Q 1647 2725 1412 2412 
Q 1178 2100 1178 1509 
Q 1178 888 1415 553 
Q 1653 219 2094 219 
z
M 1075 2569 
Q 1288 2803 1556 2918 
Q 1825 3034 2163 3034 
Q 2859 3034 3264 2615 
Q 3669 2197 3669 1472 
Q 3669 763 3233 336 
Q 2797 -91 2069 -91 
Q 1278 -91 853 498 
Q 428 1088 428 2181 
Q 428 3406 931 4078 
Q 1434 4750 2350 4750 
Q 2597 4750 2869 4703 
Q 3141 4656 3425 4563 
L 3425 3794 
L 3072 3794 
Q 3034 4109 2831 4275 
Q 2628 4441 2284 4441 
Q 1678 4441 1381 3981 
Q 1084 3522 1075 2569 
z
" transform="scale(0.015625)"/>
       </defs>
       <use xlink:href="#DejaVuSerif-30"/>
       <use xlink:href="#DejaVuSerif-2e" x="63.623047"/>
       <use xlink:href="#DejaVuSerif-36" x="95.410156"/>
      </g>
     </g>
    </g>
    <g id="ytick_5">
     <g id="line2d_11">
      <path d="M 52.10005 124.000036 
L 367.88725 124.000036 
" clip-path="url(#p9227380ac1)" style="fill: none; stroke: #cccccc; stroke-width: 0.8; stroke-linecap: round"/>
     </g>
     <g id="text_12">
      <!-- 0.8 -->
      <g style="fill: #262626" transform="translate(24.2074 128.680674) scale(0.1232 -0.1232)">
       <defs>
        <path id="DejaVuSerif-38" d="M 2981 1275 
Q 2981 1775 2732 2051 
Q 2484 2328 2034 2328 
Q 1584 2328 1336 2051 
Q 1088 1775 1088 1275 
Q 1088 772 1336 495 
Q 1584 219 2034 219 
Q 2484 219 2732 495 
Q 2981 772 2981 1275 
z
M 2853 3541 
Q 2853 3966 2637 4203 
Q 2422 4441 2034 4441 
Q 1650 4441 1433 4203 
Q 1216 3966 1216 3541 
Q 1216 3113 1433 2875 
Q 1650 2638 2034 2638 
Q 2422 2638 2637 2875 
Q 2853 3113 2853 3541 
z
M 2516 2484 
Q 3047 2413 3344 2092 
Q 3641 1772 3641 1275 
Q 3641 619 3225 264 
Q 2809 -91 2034 -91 
Q 1263 -91 845 264 
Q 428 619 428 1275 
Q 428 1772 725 2092 
Q 1022 2413 1556 2484 
Q 1084 2569 832 2842 
Q 581 3116 581 3541 
Q 581 4103 968 4426 
Q 1356 4750 2034 4750 
Q 2713 4750 3100 4426 
Q 3488 4103 3488 3541 
Q 3488 3116 3236 2842 
Q 2984 2569 2516 2484 
z
" transform="scale(0.015625)"/>
       </defs>
       <use xlink:href="#DejaVuSerif-30"/>
       <use xlink:href="#DejaVuSerif-2e" x="63.623047"/>
       <use xlink:href="#DejaVuSerif-38" x="95.410156"/>
      </g>
     </g>
    </g>
    <g id="ytick_6">
     <g id="line2d_12">
      <path d="M 52.10005 86.808327 
L 367.88725 86.808327 
" clip-path="url(#p9227380ac1)" style="fill: none; stroke: #cccccc; stroke-width: 0.8; stroke-linecap: round"/>
     </g>
     <g id="text_13">
      <!-- 1.0 -->
      <g style="fill: #262626" transform="translate(24.2074 91.488965) scale(0.1232 -0.1232)">
       <use xlink:href="#DejaVuSerif-31"/>
       <use xlink:href="#DejaVuSerif-2e" x="63.623047"/>
       <use xlink:href="#DejaVuSerif-30" x="95.410156"/>
      </g>
     </g>
    </g>
    <g id="text_14">
     <!-- Retention Rate -->
     <g style="fill: #262626" transform="translate(17.4123 231.0864) rotate(-90) scale(0.1344 -0.1344)">
      <use xlink:href="#DejaVuSerif-52"/>
      <use xlink:href="#DejaVuSerif-65" x="75.292969"/>
      <use xlink:href="#DejaVuSerif-74" x="134.472656"/>
      <use xlink:href="#DejaVuSerif-65" x="174.658203"/>
      <use xlink:href="#DejaVuSerif-6e" x="233.837891"/>
      <use xlink:href="#DejaVuSerif-74" x="298.242188"/>
      <use xlink:href="#DejaVuSerif-69" x="338.427734"/>
      <use xlink:href="#DejaVuSerif-6f" x="370.410156"/>
      <use xlink:href="#DejaVuSerif-6e" x="430.615234"/>
      <use xlink:href="#DejaVuSerif-20" x="495.019531"/>
      <use xlink:href="#DejaVuSerif-52" x="526.806641"/>
      <use xlink:href="#DejaVuSerif-61" x="604.349609"/>
      <use xlink:href="#DejaVuSerif-74" x="663.96875"/>
      <use xlink:href="#DejaVuSerif-65" x="704.154297"/>
     </g>
    </g>
   </g>
   <g id="PolyCollection_1">
    <defs>
     <path id="m3292749fa0" d="M 66.454014 -219.846259 
L 66.454014 -217.620288 
L 95.161941 -205.172177 
L 123.869868 -193.371108 
L 152.577795 -185.610872 
L 181.285723 -176.249951 
L 209.99365 -168.056106 
L 238.701577 -160.752213 
L 267.409505 -154.289967 
L 296.117432 -149.51855 
L 324.825359 -144.763497 
L 353.533286 -139.463492 
L 353.533286 -141.952315 
L 353.533286 -141.952315 
L 324.825359 -146.729683 
L 296.117432 -151.709235 
L 267.409505 -156.218776 
L 238.701577 -161.975959 
L 209.99365 -171.262869 
L 181.285723 -179.805711 
L 152.577795 -189.490432 
L 123.869868 -196.073318 
L 95.161941 -208.318781 
L 66.454014 -219.846259 
z
" style="stroke: #c80723; stroke-opacity: 0.2; stroke-width: 0.8"/>
    </defs>
    <g clip-path="url(#p9227380ac1)">
     <use xlink:href="#m3292749fa0" x="0" y="326.79385" style="fill: #c80723; fill-opacity: 0.2; stroke: #c80723; stroke-opacity: 0.2; stroke-width: 0.8"/>
    </g>
   </g>
   <g id="PolyCollection_2">
    <defs>
     <path id="m43cd56c09a" d="M 66.454014 -207.132459 
L 66.454014 -204.642195 
L 95.161941 -193.40658 
L 123.869868 -185.214966 
L 152.577795 -179.701249 
L 181.285723 -171.573001 
L 209.99365 -166.005495 
L 238.701577 -161.070202 
L 267.409505 -156.750431 
L 296.117432 -151.249638 
L 324.825359 -147.725817 
L 353.533286 -144.175728 
L 353.533286 -146.030014 
L 353.533286 -146.030014 
L 324.825359 -149.563273 
L 296.117432 -153.894433 
L 267.409505 -158.493002 
L 238.701577 -162.996872 
L 209.99365 -169.401377 
L 181.285723 -174.080001 
L 152.577795 -181.908995 
L 123.869868 -187.119786 
L 95.161941 -197.462429 
L 66.454014 -207.132459 
z
" style="stroke: #004e94; stroke-opacity: 0.2; stroke-width: 0.8"/>
    </defs>
    <g clip-path="url(#p9227380ac1)">
     <use xlink:href="#m43cd56c09a" x="0" y="326.79385" style="fill: #004e94; fill-opacity: 0.2; stroke: #004e94; stroke-opacity: 0.2; stroke-width: 0.8"/>
    </g>
   </g>
   <g id="line2d_13">
    <path d="M 66.454014 107.918341 
L 95.161941 120.005647 
L 123.869868 132.143161 
L 152.577795 139.257935 
L 181.285723 148.806906 
L 209.99365 157.069045 
L 238.701577 165.347919 
L 267.409505 171.460376 
L 296.117432 176.271124 
L 324.825359 181.109765 
L 353.533286 186.015352 
" clip-path="url(#p9227380ac1)" style="fill: none; stroke: #c80723; stroke-width: 2.5; stroke-linecap: round"/>
    <defs>
     <path id="m184440a2a7" d="M 0 4.5 
C 1.193414 4.5 2.338109 4.025852 3.181981 3.181981 
C 4.025852 2.338109 4.5 1.193414 4.5 0 
C 4.5 -1.193414 4.025852 -2.338109 3.181981 -3.181981 
C 2.338109 -4.025852 1.193414 -4.5 0 -4.5 
C -1.193414 -4.5 -2.338109 -4.025852 -3.181981 -3.181981 
C -4.025852 -2.338109 -4.5 -1.193414 -4.5 0 
C -4.5 1.193414 -4.025852 2.338109 -3.181981 3.181981 
C -2.338109 4.025852 -1.193414 4.5 0 4.5 
z
" style="stroke: #ffffff; stroke-width: 0.75"/>
    </defs>
    <g clip-path="url(#p9227380ac1)">
     <use xlink:href="#m184440a2a7" x="66.454014" y="107.918341" style="fill: #c80723; stroke: #ffffff; stroke-width: 0.75"/>
     <use xlink:href="#m184440a2a7" x="95.161941" y="120.005647" style="fill: #c80723; stroke: #ffffff; stroke-width: 0.75"/>
     <use xlink:href="#m184440a2a7" x="123.869868" y="132.143161" style="fill: #c80723; stroke: #ffffff; stroke-width: 0.75"/>
     <use xlink:href="#m184440a2a7" x="152.577795" y="139.257935" style="fill: #c80723; stroke: #ffffff; stroke-width: 0.75"/>
     <use xlink:href="#m184440a2a7" x="181.285723" y="148.806906" style="fill: #c80723; stroke: #ffffff; stroke-width: 0.75"/>
     <use xlink:href="#m184440a2a7" x="209.99365" y="157.069045" style="fill: #c80723; stroke: #ffffff; stroke-width: 0.75"/>
     <use xlink:href="#m184440a2a7" x="238.701577" y="165.347919" style="fill: #c80723; stroke: #ffffff; stroke-width: 0.75"/>
     <use xlink:href="#m184440a2a7" x="267.409505" y="171.460376" style="fill: #c80723; stroke: #ffffff; stroke-width: 0.75"/>
     <use xlink:href="#m184440a2a7" x="296.117432" y="176.271124" style="fill: #c80723; stroke: #ffffff; stroke-width: 0.75"/>
     <use xlink:href="#m184440a2a7" x="324.825359" y="181.109765" style="fill: #c80723; stroke: #ffffff; stroke-width: 0.75"/>
     <use xlink:href="#m184440a2a7" x="353.533286" y="186.015352" style="fill: #c80723; stroke: #ffffff; stroke-width: 0.75"/>
    </g>
   </g>
   <g id="line2d_14">
    <path d="M 66.454014 120.937299 
L 95.161941 131.401186 
L 123.869868 140.591258 
L 152.577795 146.032405 
L 181.285723 153.81663 
L 209.99365 159.181534 
L 238.701577 164.812358 
L 267.409505 169.163788 
L 296.117432 174.175371 
L 324.825359 178.12699 
L 353.533286 181.710411 
" clip-path="url(#p9227380ac1)" style="fill: none; stroke: #004e94; stroke-width: 2.5; stroke-linecap: round"/>
    <defs>
     <path id="m1829e265ef" d="M -2.25 4.5 
L 0 2.25 
L 2.25 4.5 
L 4.5 2.25 
L 2.25 0 
L 4.5 -2.25 
L 2.25 -4.5 
L 0 -2.25 
L -2.25 -4.5 
L -4.5 -2.25 
L -2.25 0 
L -4.5 2.25 
z
" style="stroke: #ffffff; stroke-width: 0.75; stroke-linejoin: miter"/>
    </defs>
    <g clip-path="url(#p9227380ac1)">
     <use xlink:href="#m1829e265ef" x="66.454014" y="120.937299" style="fill: #004e94; stroke: #ffffff; stroke-width: 0.75; stroke-linejoin: miter"/>
     <use xlink:href="#m1829e265ef" x="95.161941" y="131.401186" style="fill: #004e94; stroke: #ffffff; stroke-width: 0.75; stroke-linejoin: miter"/>
     <use xlink:href="#m1829e265ef" x="123.869868" y="140.591258" style="fill: #004e94; stroke: #ffffff; stroke-width: 0.75; stroke-linejoin: miter"/>
     <use xlink:href="#m1829e265ef" x="152.577795" y="146.032405" style="fill: #004e94; stroke: #ffffff; stroke-width: 0.75; stroke-linejoin: miter"/>
     <use xlink:href="#m1829e265ef" x="181.285723" y="153.81663" style="fill: #004e94; stroke: #ffffff; stroke-width: 0.75; stroke-linejoin: miter"/>
     <use xlink:href="#m1829e265ef" x="209.99365" y="159.181534" style="fill: #004e94; stroke: #ffffff; stroke-width: 0.75; stroke-linejoin: miter"/>
     <use xlink:href="#m1829e265ef" x="238.701577" y="164.812358" style="fill: #004e94; stroke: #ffffff; stroke-width: 0.75; stroke-linejoin: miter"/>
     <use xlink:href="#m1829e265ef" x="267.409505" y="169.163788" style="fill: #004e94; stroke: #ffffff; stroke-width: 0.75; stroke-linejoin: miter"/>
     <use xlink:href="#m1829e265ef" x="296.117432" y="174.175371" style="fill: #004e94; stroke: #ffffff; stroke-width: 0.75; stroke-linejoin: miter"/>
     <use xlink:href="#m1829e265ef" x="324.825359" y="178.12699" style="fill: #004e94; stroke: #ffffff; stroke-width: 0.75; stroke-linejoin: miter"/>
     <use xlink:href="#m1829e265ef" x="353.533286" y="181.710411" style="fill: #004e94; stroke: #ffffff; stroke-width: 0.75; stroke-linejoin: miter"/>
    </g>
   </g>
   <g id="line2d_15"/>
   <g id="line2d_16"/>
   <g id="patch_3">
    <path d="M 52.10005 282.0648 
L 52.10005 77.5104 
" style="fill: none; stroke: #cccccc; stroke-linejoin: miter; stroke-linecap: square"/>
   </g>
   <g id="patch_4">
    <path d="M 367.88725 282.0648 
L 367.88725 77.5104 
" style="fill: none; stroke: #cccccc; stroke-linejoin: miter; stroke-linecap: square"/>
   </g>
   <g id="patch_5">
    <path d="M 52.10005 282.0648 
L 367.88725 282.0648 
" style="fill: none; stroke: #cccccc; stroke-linejoin: miter; stroke-linecap: square"/>
   </g>
   <g id="patch_6">
    <path d="M 52.10005 77.5104 
L 367.88725 77.5104 
" style="fill: none; stroke: #cccccc; stroke-linejoin: miter; stroke-linecap: square"/>
   </g>
   <g id="text_15">
    <!-- ER Network -->
    <g style="fill: #262626" transform="translate(156.3849 71.5104) scale(0.16 -0.16)">
     <defs>
      <path id="DejaVuSerif-Bold-45" d="M 300 0 
L 300 378 
L 897 378 
L 897 4288 
L 300 4288 
L 300 4666 
L 4494 4666 
L 4494 3566 
L 4063 3566 
L 4063 4238 
L 2100 4238 
L 2100 2741 
L 3322 2741 
L 3322 3334 
L 3750 3334 
L 3750 1722 
L 3322 1722 
L 3322 2316 
L 2100 2316 
L 2100 428 
L 4122 428 
L 4122 1100 
L 4550 1100 
L 4550 0 
L 300 0 
z
" transform="scale(0.015625)"/>
      <path id="DejaVuSerif-Bold-52" d="M 3397 2278 
Q 3675 2238 3865 2094 
Q 4056 1950 4197 1678 
L 4878 378 
L 5356 378 
L 5356 0 
L 3822 0 
L 3078 1409 
Q 2863 1847 2711 1967 
Q 2559 2088 2291 2088 
L 2100 2088 
L 2100 378 
L 2700 378 
L 2700 0 
L 300 0 
L 300 378 
L 897 378 
L 897 4288 
L 300 4288 
L 300 4666 
L 2963 4666 
Q 3775 4666 4217 4339 
Q 4659 4013 4659 3413 
Q 4659 2925 4345 2642 
Q 4031 2359 3397 2278 
z
M 2100 2463 
L 2509 2463 
Q 2947 2463 3183 2700 
Q 3419 2938 3419 3378 
Q 3419 3819 3183 4053 
Q 2947 4288 2509 4288 
L 2100 4288 
L 2100 2463 
z
" transform="scale(0.015625)"/>
      <path id="DejaVuSerif-Bold-20" transform="scale(0.015625)"/>
      <path id="DejaVuSerif-Bold-4e" d="M 281 0 
L 281 378 
L 878 378 
L 878 4288 
L 281 4288 
L 281 4666 
L 1741 4666 
L 4556 1363 
L 4556 4288 
L 3963 4288 
L 3963 4666 
L 5594 4666 
L 5594 4288 
L 4997 4288 
L 4997 0 
L 4178 0 
L 1319 3372 
L 1319 378 
L 1913 378 
L 1913 0 
L 281 0 
z
" transform="scale(0.015625)"/>
      <path id="DejaVuSerif-Bold-65" d="M 2566 1875 
Q 2566 2531 2444 2795 
Q 2322 3059 2028 3059 
Q 1744 3059 1620 2800 
Q 1497 2541 1497 1931 
L 1497 1875 
L 2566 1875 
z
M 3781 1503 
L 1497 1503 
L 1497 1478 
Q 1497 834 1690 548 
Q 1884 263 2316 263 
Q 2675 263 2897 453 
Q 3119 644 3181 1006 
L 3700 1006 
Q 3566 441 3166 175 
Q 2766 -91 2047 -91 
Q 1184 -91 723 364 
Q 263 819 263 1663 
Q 263 2488 734 2950 
Q 1206 3413 2047 3413 
Q 2872 3413 3312 2927 
Q 3753 2441 3781 1503 
z
" transform="scale(0.015625)"/>
      <path id="DejaVuSerif-Bold-74" d="M 634 2944 
L 153 2944 
L 153 3322 
L 634 3322 
L 634 4353 
L 1741 4353 
L 1741 3322 
L 2663 3322 
L 2663 2944 
L 1741 2944 
L 1741 909 
Q 1741 475 1809 369 
Q 1878 263 2059 263 
Q 2259 263 2356 397 
Q 2453 531 2459 813 
L 2925 813 
Q 2897 313 2651 111 
Q 2406 -91 1806 -91 
Q 1122 -91 878 123 
Q 634 338 634 909 
L 634 2944 
z
" transform="scale(0.015625)"/>
      <path id="DejaVuSerif-Bold-77" d="M 3450 3322 
L 4206 1106 
L 4831 2944 
L 4397 2944 
L 4397 3322 
L 5638 3322 
L 5638 2944 
L 5247 2944 
L 4244 0 
L 3481 0 
L 2778 2081 
L 2069 0 
L 1313 0 
L 306 2944 
L -56 2944 
L -56 3322 
L 1825 3322 
L 1825 2944 
L 1434 2944 
L 2047 1147 
L 2791 3322 
L 3450 3322 
z
" transform="scale(0.015625)"/>
      <path id="DejaVuSerif-Bold-6f" d="M 2138 263 
Q 2488 263 2630 563 
Q 2772 863 2772 1663 
Q 2772 2463 2631 2761 
Q 2491 3059 2138 3059 
Q 1784 3059 1640 2757 
Q 1497 2456 1497 1663 
Q 1497 869 1640 566 
Q 1784 263 2138 263 
z
M 2138 -91 
Q 1259 -91 761 376 
Q 263 844 263 1663 
Q 263 2484 761 2948 
Q 1259 3413 2138 3413 
Q 3019 3413 3516 2948 
Q 4013 2484 4013 1663 
Q 4013 844 3514 376 
Q 3016 -91 2138 -91 
z
" transform="scale(0.015625)"/>
      <path id="DejaVuSerif-Bold-72" d="M 3438 3359 
L 3438 2369 
L 3084 2369 
Q 3066 2634 2941 2764 
Q 2816 2894 2578 2894 
Q 2216 2894 2006 2575 
Q 1797 2256 1797 1691 
L 1797 378 
L 2400 378 
L 2400 0 
L 219 0 
L 219 378 
L 691 378 
L 691 2944 
L 184 2944 
L 184 3322 
L 1797 3322 
L 1797 2731 
Q 1959 3078 2226 3245 
Q 2494 3413 2881 3413 
Q 2978 3413 3117 3398 
Q 3256 3384 3438 3359 
z
" transform="scale(0.015625)"/>
      <path id="DejaVuSerif-Bold-6b" d="M 2216 0 
L 219 0 
L 219 378 
L 691 378 
L 691 4488 
L 219 4488 
L 219 4863 
L 1797 4863 
L 1797 1741 
L 3138 2944 
L 2741 2944 
L 2741 3322 
L 4256 3322 
L 4256 2944 
L 3641 2944 
L 2784 2175 
L 4184 378 
L 4544 378 
L 4544 0 
L 2638 0 
L 2638 378 
L 3028 378 
L 2106 1563 
L 1797 1288 
L 1797 378 
L 2216 378 
L 2216 0 
z
" transform="scale(0.015625)"/>
     </defs>
     <use xlink:href="#DejaVuSerif-Bold-45"/>
     <use xlink:href="#DejaVuSerif-Bold-52" x="76.220703"/>
     <use xlink:href="#DejaVuSerif-Bold-20" x="159.326172"/>
     <use xlink:href="#DejaVuSerif-Bold-4e" x="194.140625"/>
     <use xlink:href="#DejaVuSerif-Bold-65" x="285.546875"/>
     <use xlink:href="#DejaVuSerif-Bold-74" x="349.169922"/>
     <use xlink:href="#DejaVuSerif-Bold-77" x="395.361328"/>
     <use xlink:href="#DejaVuSerif-Bold-6f" x="481.445312"/>
     <use xlink:href="#DejaVuSerif-Bold-72" x="548.144531"/>
     <use xlink:href="#DejaVuSerif-Bold-6b" x="600.830078"/>
    </g>
   </g>
   <g id="legend_1">
    <g id="patch_7">
     <path d="M 273.1195 123.5333 
L 359.26325 123.5333 
Q 361.72725 123.5333 361.72725 121.0693 
L 361.72725 86.1344 
Q 361.72725 83.6704 359.26325 83.6704 
L 273.1195 83.6704 
Q 270.6555 83.6704 270.6555 86.1344 
L 270.6555 121.0693 
Q 270.6555 123.5333 273.1195 123.5333 
z
" style="fill: #ffffff; opacity: 0.8; stroke: #cccccc; stroke-width: 0.8; stroke-linejoin: miter"/>
    </g>
    <g id="line2d_17">
     <path d="M 275.5835 93.647675 
L 287.9035 93.647675 
L 300.2235 93.647675 
" style="fill: none; stroke: #c80723; stroke-width: 2.5; stroke-linecap: round"/>
     <g>
      <use xlink:href="#m184440a2a7" x="287.9035" y="93.647675" style="fill: #c80723; stroke: #ffffff; stroke-width: 0.75"/>
     </g>
    </g>
    <g id="text_16">
     <!-- CLAP-S -->
     <g style="fill: #262626" transform="translate(310.0795 97.959675) scale(0.1232 -0.1232)">
      <defs>
       <path id="DejaVuSerif-43" d="M 4513 1234 
Q 4306 581 3820 245 
Q 3334 -91 2591 -91 
Q 2134 -91 1743 65 
Q 1353 222 1050 525 
Q 700 875 529 1320 
Q 359 1766 359 2328 
Q 359 3416 987 4083 
Q 1616 4750 2644 4750 
Q 3025 4750 3456 4650 
Q 3888 4550 4384 4347 
L 4384 3272 
L 4031 3272 
Q 3916 3859 3567 4137 
Q 3219 4416 2591 4416 
Q 1844 4416 1459 3886 
Q 1075 3356 1075 2328 
Q 1075 1303 1459 773 
Q 1844 244 2591 244 
Q 3113 244 3450 492 
Q 3788 741 3938 1234 
L 4513 1234 
z
" transform="scale(0.015625)"/>
       <path id="DejaVuSerif-4c" d="M 353 0 
L 353 331 
L 947 331 
L 947 4331 
L 353 4331 
L 353 4666 
L 2175 4666 
L 2175 4331 
L 1581 4331 
L 1581 384 
L 3713 384 
L 3713 1166 
L 4097 1166 
L 4097 0 
L 353 0 
z
" transform="scale(0.015625)"/>
       <path id="DejaVuSerif-41" d="M 1281 1691 
L 2994 1691 
L 2138 3909 
L 1281 1691 
z
M -38 0 
L -38 331 
L 372 331 
L 2034 4666 
L 2559 4666 
L 4225 331 
L 4684 331 
L 4684 0 
L 2988 0 
L 2988 331 
L 3506 331 
L 3116 1356 
L 1153 1356 
L 763 331 
L 1275 331 
L 1275 0 
L -38 0 
z
" transform="scale(0.015625)"/>
       <path id="DejaVuSerif-50" d="M 1581 2375 
L 2406 2375 
Q 2872 2375 3115 2626 
Q 3359 2878 3359 3353 
Q 3359 3831 3115 4081 
Q 2872 4331 2406 4331 
L 1581 4331 
L 1581 2375 
z
M 353 0 
L 353 331 
L 947 331 
L 947 4331 
L 353 4331 
L 353 4666 
L 2559 4666 
Q 3259 4666 3668 4311 
Q 4078 3956 4078 3353 
Q 4078 2753 3668 2397 
Q 3259 2041 2559 2041 
L 1581 2041 
L 1581 331 
L 2303 331 
L 2303 0 
L 353 0 
z
" transform="scale(0.015625)"/>
       <path id="DejaVuSerif-2d" d="M 281 1959 
L 1881 1959 
L 1881 1472 
L 281 1472 
L 281 1959 
z
" transform="scale(0.015625)"/>
       <path id="DejaVuSerif-53" d="M 594 225 
L 594 1288 
L 953 1284 
Q 969 753 1261 498 
Q 1553 244 2150 244 
Q 2706 244 2998 464 
Q 3291 684 3291 1106 
Q 3291 1444 3114 1625 
Q 2938 1806 2369 1978 
L 1753 2163 
Q 1084 2366 811 2669 
Q 538 2972 538 3500 
Q 538 4094 959 4422 
Q 1381 4750 2144 4750 
Q 2469 4750 2856 4679 
Q 3244 4609 3681 4475 
L 3681 3481 
L 3328 3481 
Q 3275 3975 2998 4195 
Q 2722 4416 2156 4416 
Q 1663 4416 1405 4214 
Q 1147 4013 1147 3628 
Q 1147 3294 1340 3103 
Q 1534 2913 2163 2725 
L 2741 2553 
Q 3375 2363 3645 2067 
Q 3916 1772 3916 1275 
Q 3916 597 3481 253 
Q 3047 -91 2188 -91 
Q 1803 -91 1404 -12 
Q 1006 66 594 225 
z
" transform="scale(0.015625)"/>
      </defs>
      <use xlink:href="#DejaVuSerif-43"/>
      <use xlink:href="#DejaVuSerif-4c" x="76.513672"/>
      <use xlink:href="#DejaVuSerif-41" x="142.919922"/>
      <use xlink:href="#DejaVuSerif-50" x="215.136719"/>
      <use xlink:href="#DejaVuSerif-2d" x="276.921875"/>
      <use xlink:href="#DejaVuSerif-53" x="310.710938"/>
     </g>
    </g>
    <g id="line2d_18">
     <path d="M 275.5835 111.731125 
L 287.9035 111.731125 
L 300.2235 111.731125 
" style="fill: none; stroke: #004e94; stroke-width: 2.5; stroke-linecap: round"/>
     <g>
      <use xlink:href="#m1829e265ef" x="287.9035" y="111.731125" style="fill: #004e94; stroke: #ffffff; stroke-width: 0.75; stroke-linejoin: miter"/>
     </g>
    </g>
    <g id="text_17">
     <!-- RSU -->
     <g style="fill: #262626" transform="translate(310.0795 116.043125) scale(0.1232 -0.1232)">
      <defs>
       <path id="DejaVuSerif-55" d="M 897 4331 
L 300 4331 
L 300 4666 
L 2125 4666 
L 2125 4331 
L 1528 4331 
L 1528 1919 
Q 1528 1025 1820 672 
Q 2113 319 2828 319 
Q 3544 319 3836 672 
Q 4128 1025 4128 1919 
L 4128 4331 
L 3531 4331 
L 3531 4666 
L 5106 4666 
L 5106 4331 
L 4513 4331 
L 4513 1856 
Q 4513 791 4103 350 
Q 3694 -91 2713 -91 
Q 1731 -91 1314 353 
Q 897 797 897 1856 
L 897 4331 
z
" transform="scale(0.015625)"/>
      </defs>
      <use xlink:href="#DejaVuSerif-52"/>
      <use xlink:href="#DejaVuSerif-53" x="75.292969"/>
      <use xlink:href="#DejaVuSerif-55" x="143.798828"/>
     </g>
    </g>
   </g>
  </g>
  <g id="axes_2">
   <g id="patch_8">
    <path d="M 382.40245 282.0648 
L 698.18965 282.0648 
L 698.18965 77.5104 
L 382.40245 77.5104 
z
" style="fill: #ffffff"/>
   </g>
   <g id="matplotlib.axis_3">
    <g id="xtick_7">
     <g id="line2d_19">
      <path d="M 396.756414 282.0648 
L 396.756414 77.5104 
" clip-path="url(#p77b62f62b3)" style="fill: none; stroke: #cccccc; stroke-width: 0.8; stroke-linecap: round"/>
     </g>
     <g id="text_18">
      <!-- 0.0 -->
      <g style="fill: #262626" transform="translate(386.960089 299.726075) scale(0.1232 -0.1232)">
       <use xlink:href="#DejaVuSerif-30"/>
       <use xlink:href="#DejaVuSerif-2e" x="63.623047"/>
       <use xlink:href="#DejaVuSerif-30" x="95.410156"/>
      </g>
     </g>
    </g>
    <g id="xtick_8">
     <g id="line2d_20">
      <path d="M 454.172268 282.0648 
L 454.172268 77.5104 
" clip-path="url(#p77b62f62b3)" style="fill: none; stroke: #cccccc; stroke-width: 0.8; stroke-linecap: round"/>
     </g>
     <g id="text_19">
      <!-- 0.1 -->
      <g style="fill: #262626" transform="translate(444.375943 299.726075) scale(0.1232 -0.1232)">
       <use xlink:href="#DejaVuSerif-30"/>
       <use xlink:href="#DejaVuSerif-2e" x="63.623047"/>
       <use xlink:href="#DejaVuSerif-31" x="95.410156"/>
      </g>
     </g>
    </g>
    <g id="xtick_9">
     <g id="line2d_21">
      <path d="M 511.588123 282.0648 
L 511.588123 77.5104 
" clip-path="url(#p77b62f62b3)" style="fill: none; stroke: #cccccc; stroke-width: 0.8; stroke-linecap: round"/>
     </g>
     <g id="text_20">
      <!-- 0.2 -->
      <g style="fill: #262626" transform="translate(501.791798 299.726075) scale(0.1232 -0.1232)">
       <use xlink:href="#DejaVuSerif-30"/>
       <use xlink:href="#DejaVuSerif-2e" x="63.623047"/>
       <use xlink:href="#DejaVuSerif-32" x="95.410156"/>
      </g>
     </g>
    </g>
    <g id="xtick_10">
     <g id="line2d_22">
      <path d="M 569.003977 282.0648 
L 569.003977 77.5104 
" clip-path="url(#p77b62f62b3)" style="fill: none; stroke: #cccccc; stroke-width: 0.8; stroke-linecap: round"/>
     </g>
     <g id="text_21">
      <!-- 0.3 -->
      <g style="fill: #262626" transform="translate(559.207652 299.726075) scale(0.1232 -0.1232)">
       <use xlink:href="#DejaVuSerif-30"/>
       <use xlink:href="#DejaVuSerif-2e" x="63.623047"/>
       <use xlink:href="#DejaVuSerif-33" x="95.410156"/>
      </g>
     </g>
    </g>
    <g id="xtick_11">
     <g id="line2d_23">
      <path d="M 626.419832 282.0648 
L 626.419832 77.5104 
" clip-path="url(#p77b62f62b3)" style="fill: none; stroke: #cccccc; stroke-width: 0.8; stroke-linecap: round"/>
     </g>
     <g id="text_22">
      <!-- 0.4 -->
      <g style="fill: #262626" transform="translate(616.623507 299.726075) scale(0.1232 -0.1232)">
       <use xlink:href="#DejaVuSerif-30"/>
       <use xlink:href="#DejaVuSerif-2e" x="63.623047"/>
       <use xlink:href="#DejaVuSerif-34" x="95.410156"/>
      </g>
     </g>
    </g>
    <g id="xtick_12">
     <g id="line2d_24">
      <path d="M 683.835686 282.0648 
L 683.835686 77.5104 
" clip-path="url(#p77b62f62b3)" style="fill: none; stroke: #cccccc; stroke-width: 0.8; stroke-linecap: round"/>
     </g>
     <g id="text_23">
      <!-- 0.5 -->
      <g style="fill: #262626" transform="translate(674.039361 299.726075) scale(0.1232 -0.1232)">
       <use xlink:href="#DejaVuSerif-30"/>
       <use xlink:href="#DejaVuSerif-2e" x="63.623047"/>
       <use xlink:href="#DejaVuSerif-35" x="95.410156"/>
      </g>
     </g>
    </g>
    <g id="text_24">
     <!-- Fraction of Edges Removed ($p$) -->
     <g style="fill: #262626" transform="translate(434.32165 316.50265) scale(0.1344 -0.1344)">
      <use xlink:href="#DejaVuSerif-46" transform="translate(0 0.015625)"/>
      <use xlink:href="#DejaVuSerif-72" transform="translate(69.384766 0.015625)"/>
      <use xlink:href="#DejaVuSerif-61" transform="translate(117.1875 0.015625)"/>
      <use xlink:href="#DejaVuSerif-63" transform="translate(176.806641 0.015625)"/>
      <use xlink:href="#DejaVuSerif-74" transform="translate(232.8125 0.015625)"/>
      <use xlink:href="#DejaVuSerif-69" transform="translate(272.998047 0.015625)"/>
      <use xlink:href="#DejaVuSerif-6f" transform="translate(304.980469 0.015625)"/>
      <use xlink:href="#DejaVuSerif-6e" transform="translate(365.185547 0.015625)"/>
      <use xlink:href="#DejaVuSerif-20" transform="translate(429.589844 0.015625)"/>
      <use xlink:href="#DejaVuSerif-6f" transform="translate(461.376953 0.015625)"/>
      <use xlink:href="#DejaVuSerif-66" transform="translate(521.582031 0.015625)"/>
      <use xlink:href="#DejaVuSerif-20" transform="translate(558.59375 0.015625)"/>
      <use xlink:href="#DejaVuSerif-45" transform="translate(590.380859 0.015625)"/>
      <use xlink:href="#DejaVuSerif-64" transform="translate(663.378906 0.015625)"/>
      <use xlink:href="#DejaVuSerif-67" transform="translate(727.392578 0.015625)"/>
      <use xlink:href="#DejaVuSerif-65" transform="translate(791.40625 0.015625)"/>
      <use xlink:href="#DejaVuSerif-73" transform="translate(850.585938 0.015625)"/>
      <use xlink:href="#DejaVuSerif-20" transform="translate(901.904297 0.015625)"/>
      <use xlink:href="#DejaVuSerif-52" transform="translate(933.691406 0.015625)"/>
      <use xlink:href="#DejaVuSerif-65" transform="translate(1008.984375 0.015625)"/>
      <use xlink:href="#DejaVuSerif-6d" transform="translate(1068.164062 0.015625)"/>
      <use xlink:href="#DejaVuSerif-6f" transform="translate(1162.988281 0.015625)"/>
      <use xlink:href="#DejaVuSerif-76" transform="translate(1223.193359 0.015625)"/>
      <use xlink:href="#DejaVuSerif-65" transform="translate(1279.6875 0.015625)"/>
      <use xlink:href="#DejaVuSerif-64" transform="translate(1338.867188 0.015625)"/>
      <use xlink:href="#DejaVuSerif-20" transform="translate(1402.880859 0.015625)"/>
      <use xlink:href="#DejaVuSerif-28" transform="translate(1434.667969 0.015625)"/>
      <use xlink:href="#DejaVuSans-Oblique-70" transform="translate(1473.681641 0.015625)"/>
      <use xlink:href="#DejaVuSerif-29" transform="translate(1537.158203 0.015625)"/>
     </g>
    </g>
   </g>
   <g id="matplotlib.axis_4">
    <g id="ytick_7">
     <g id="line2d_25">
      <path d="M 382.40245 272.766873 
L 698.18965 272.766873 
" clip-path="url(#p77b62f62b3)" style="fill: none; stroke: #cccccc; stroke-width: 0.8; stroke-linecap: round"/>
     </g>
    </g>
    <g id="ytick_8">
     <g id="line2d_26">
      <path d="M 382.40245 235.575164 
L 698.18965 235.575164 
" clip-path="url(#p77b62f62b3)" style="fill: none; stroke: #cccccc; stroke-width: 0.8; stroke-linecap: round"/>
     </g>
    </g>
    <g id="ytick_9">
     <g id="line2d_27">
      <path d="M 382.40245 198.383455 
L 698.18965 198.383455 
" clip-path="url(#p77b62f62b3)" style="fill: none; stroke: #cccccc; stroke-width: 0.8; stroke-linecap: round"/>
     </g>
    </g>
    <g id="ytick_10">
     <g id="line2d_28">
      <path d="M 382.40245 161.191745 
L 698.18965 161.191745 
" clip-path="url(#p77b62f62b3)" style="fill: none; stroke: #cccccc; stroke-width: 0.8; stroke-linecap: round"/>
     </g>
    </g>
    <g id="ytick_11">
     <g id="line2d_29">
      <path d="M 382.40245 124.000036 
L 698.18965 124.000036 
" clip-path="url(#p77b62f62b3)" style="fill: none; stroke: #cccccc; stroke-width: 0.8; stroke-linecap: round"/>
     </g>
    </g>
    <g id="ytick_12">
     <g id="line2d_30">
      <path d="M 382.40245 86.808327 
L 698.18965 86.808327 
" clip-path="url(#p77b62f62b3)" style="fill: none; stroke: #cccccc; stroke-width: 0.8; stroke-linecap: round"/>
     </g>
    </g>
   </g>
   <g id="PolyCollection_3">
    <defs>
     <path id="m066e81d60f" d="M 396.756414 -229.343115 
L 396.756414 -227.273397 
L 425.464341 -220.180752 
L 454.172268 -211.670638 
L 482.880195 -204.615835 
L 511.588123 -199.816571 
L 540.29605 -195.072768 
L 569.003977 -189.183508 
L 597.711905 -183.863094 
L 626.419832 -179.833187 
L 655.127759 -175.206584 
L 683.835686 -172.387546 
L 683.835686 -174.961445 
L 683.835686 -174.961445 
L 655.127759 -177.09067 
L 626.419832 -181.654139 
L 597.711905 -187.04689 
L 569.003977 -191.199391 
L 540.29605 -196.527197 
L 511.588123 -202.033708 
L 482.880195 -207.586105 
L 454.172268 -213.625945 
L 425.464341 -222.236059 
L 396.756414 -229.343115 
z
" style="stroke: #c80723; stroke-opacity: 0.2; stroke-width: 0.8"/>
    </defs>
    <g clip-path="url(#p77b62f62b3)">
     <use xlink:href="#m066e81d60f" x="0" y="326.79385" style="fill: #c80723; fill-opacity: 0.2; stroke: #c80723; stroke-opacity: 0.2; stroke-width: 0.8"/>
    </g>
   </g>
   <g id="PolyCollection_4">
    <defs>
     <path id="m557967a84c" d="M 396.756414 -216.975059 
L 396.756414 -215.743409 
L 425.464341 -209.560659 
L 454.172268 -206.033119 
L 482.880195 -202.706181 
L 511.588123 -199.022481 
L 540.29605 -193.5553 
L 569.003977 -191.602503 
L 597.711905 -187.825638 
L 626.419832 -185.315152 
L 655.127759 -181.494029 
L 683.835686 -178.916643 
L 683.835686 -180.700776 
L 683.835686 -180.700776 
L 655.127759 -183.699916 
L 626.419832 -187.442982 
L 597.711905 -190.186661 
L 569.003977 -193.051724 
L 540.29605 -196.114322 
L 511.588123 -200.618192 
L 482.880195 -204.038202 
L 454.172268 -208.321013 
L 425.464341 -212.138231 
L 396.756414 -216.975059 
z
" style="stroke: #004e94; stroke-opacity: 0.2; stroke-width: 0.8"/>
    </defs>
    <g clip-path="url(#p77b62f62b3)">
     <use xlink:href="#m557967a84c" x="0" y="326.79385" style="fill: #004e94; fill-opacity: 0.2; stroke: #004e94; stroke-opacity: 0.2; stroke-width: 0.8"/>
    </g>
   </g>
   <g id="line2d_31">
    <path d="M 396.756414 98.466068 
L 425.464341 105.755643 
L 454.172268 114.146093 
L 482.880195 120.62117 
L 511.588123 125.984214 
L 540.29605 131.008814 
L 569.003977 136.751214 
L 597.711905 141.359267 
L 626.419832 146.062158 
L 655.127759 150.644177 
L 683.835686 153.18437 
" clip-path="url(#p77b62f62b3)" style="fill: none; stroke: #c80723; stroke-width: 2.5; stroke-linecap: round"/>
    <g clip-path="url(#p77b62f62b3)">
     <use xlink:href="#m184440a2a7" x="396.756414" y="98.466068" style="fill: #c80723; stroke: #ffffff; stroke-width: 0.75"/>
     <use xlink:href="#m184440a2a7" x="425.464341" y="105.755643" style="fill: #c80723; stroke: #ffffff; stroke-width: 0.75"/>
     <use xlink:href="#m184440a2a7" x="454.172268" y="114.146093" style="fill: #c80723; stroke: #ffffff; stroke-width: 0.75"/>
     <use xlink:href="#m184440a2a7" x="482.880195" y="120.62117" style="fill: #c80723; stroke: #ffffff; stroke-width: 0.75"/>
     <use xlink:href="#m184440a2a7" x="511.588123" y="125.984214" style="fill: #c80723; stroke: #ffffff; stroke-width: 0.75"/>
     <use xlink:href="#m184440a2a7" x="540.29605" y="131.008814" style="fill: #c80723; stroke: #ffffff; stroke-width: 0.75"/>
     <use xlink:href="#m184440a2a7" x="569.003977" y="136.751214" style="fill: #c80723; stroke: #ffffff; stroke-width: 0.75"/>
     <use xlink:href="#m184440a2a7" x="597.711905" y="141.359267" style="fill: #c80723; stroke: #ffffff; stroke-width: 0.75"/>
     <use xlink:href="#m184440a2a7" x="626.419832" y="146.062158" style="fill: #c80723; stroke: #ffffff; stroke-width: 0.75"/>
     <use xlink:href="#m184440a2a7" x="655.127759" y="150.644177" style="fill: #c80723; stroke: #ffffff; stroke-width: 0.75"/>
     <use xlink:href="#m184440a2a7" x="683.835686" y="153.18437" style="fill: #c80723; stroke: #ffffff; stroke-width: 0.75"/>
    </g>
   </g>
   <g id="line2d_32">
    <path d="M 396.756414 110.402748 
L 425.464341 115.86249 
L 454.172268 119.641168 
L 482.880195 123.421705 
L 511.588123 127.014424 
L 540.29605 131.942326 
L 569.003977 134.449047 
L 597.711905 137.865106 
L 626.419832 140.462946 
L 655.127759 144.157943 
L 683.835686 147.096088 
" clip-path="url(#p77b62f62b3)" style="fill: none; stroke: #004e94; stroke-width: 2.5; stroke-linecap: round"/>
    <g clip-path="url(#p77b62f62b3)">
     <use xlink:href="#m1829e265ef" x="396.756414" y="110.402748" style="fill: #004e94; stroke: #ffffff; stroke-width: 0.75; stroke-linejoin: miter"/>
     <use xlink:href="#m1829e265ef" x="425.464341" y="115.86249" style="fill: #004e94; stroke: #ffffff; stroke-width: 0.75; stroke-linejoin: miter"/>
     <use xlink:href="#m1829e265ef" x="454.172268" y="119.641168" style="fill: #004e94; stroke: #ffffff; stroke-width: 0.75; stroke-linejoin: miter"/>
     <use xlink:href="#m1829e265ef" x="482.880195" y="123.421705" style="fill: #004e94; stroke: #ffffff; stroke-width: 0.75; stroke-linejoin: miter"/>
     <use xlink:href="#m1829e265ef" x="511.588123" y="127.014424" style="fill: #004e94; stroke: #ffffff; stroke-width: 0.75; stroke-linejoin: miter"/>
     <use xlink:href="#m1829e265ef" x="540.29605" y="131.942326" style="fill: #004e94; stroke: #ffffff; stroke-width: 0.75; stroke-linejoin: miter"/>
     <use xlink:href="#m1829e265ef" x="569.003977" y="134.449047" style="fill: #004e94; stroke: #ffffff; stroke-width: 0.75; stroke-linejoin: miter"/>
     <use xlink:href="#m1829e265ef" x="597.711905" y="137.865106" style="fill: #004e94; stroke: #ffffff; stroke-width: 0.75; stroke-linejoin: miter"/>
     <use xlink:href="#m1829e265ef" x="626.419832" y="140.462946" style="fill: #004e94; stroke: #ffffff; stroke-width: 0.75; stroke-linejoin: miter"/>
     <use xlink:href="#m1829e265ef" x="655.127759" y="144.157943" style="fill: #004e94; stroke: #ffffff; stroke-width: 0.75; stroke-linejoin: miter"/>
     <use xlink:href="#m1829e265ef" x="683.835686" y="147.096088" style="fill: #004e94; stroke: #ffffff; stroke-width: 0.75; stroke-linejoin: miter"/>
    </g>
   </g>
   <g id="line2d_33"/>
   <g id="line2d_34"/>
   <g id="patch_9">
    <path d="M 382.40245 282.0648 
L 382.40245 77.5104 
" style="fill: none; stroke: #cccccc; stroke-linejoin: miter; stroke-linecap: square"/>
   </g>
   <g id="patch_10">
    <path d="M 698.18965 282.0648 
L 698.18965 77.5104 
" style="fill: none; stroke: #cccccc; stroke-linejoin: miter; stroke-linecap: square"/>
   </g>
   <g id="patch_11">
    <path d="M 382.40245 282.0648 
L 698.18965 282.0648 
" style="fill: none; stroke: #cccccc; stroke-linejoin: miter; stroke-linecap: square"/>
   </g>
   <g id="patch_12">
    <path d="M 382.40245 77.5104 
L 698.18965 77.5104 
" style="fill: none; stroke: #cccccc; stroke-linejoin: miter; stroke-linecap: square"/>
   </g>
   <g id="text_25">
    <!-- BA Network -->
    <g style="fill: #262626" transform="translate(486.4648 71.5104) scale(0.16 -0.16)">
     <defs>
      <path id="DejaVuSerif-Bold-42" d="M 300 0 
L 300 378 
L 897 378 
L 897 4288 
L 300 4288 
L 300 4666 
L 3066 4666 
Q 3919 4666 4347 4378 
Q 4775 4091 4775 3513 
Q 4775 3097 4479 2853 
Q 4184 2609 3603 2547 
Q 4306 2481 4681 2172 
Q 5056 1863 5056 1350 
Q 5056 656 4532 328 
Q 4009 0 2894 0 
L 300 0 
z
M 2100 2719 
L 2509 2719 
Q 3047 2719 3306 2914 
Q 3566 3109 3566 3513 
Q 3566 3919 3314 4103 
Q 3063 4288 2509 4288 
L 2100 4288 
L 2100 2719 
z
M 2100 378 
L 2547 378 
Q 3144 378 3431 615 
Q 3719 853 3719 1350 
Q 3719 1850 3428 2097 
Q 3138 2344 2547 2344 
L 2100 2344 
L 2100 378 
z
" transform="scale(0.015625)"/>
      <path id="DejaVuSerif-Bold-41" d="M -50 0 
L -50 378 
L 331 378 
L 2088 4666 
L 2834 4666 
L 4594 378 
L 5038 378 
L 5038 0 
L 2853 0 
L 2853 378 
L 3309 378 
L 2925 1331 
L 1172 1331 
L 781 378 
L 1338 378 
L 1338 0 
L -50 0 
z
M 1325 1709 
L 2772 1709 
L 2053 3494 
L 1325 1709 
z
" transform="scale(0.015625)"/>
     </defs>
     <use xlink:href="#DejaVuSerif-Bold-42"/>
     <use xlink:href="#DejaVuSerif-Bold-41" x="84.521484"/>
     <use xlink:href="#DejaVuSerif-Bold-20" x="162.109375"/>
     <use xlink:href="#DejaVuSerif-Bold-4e" x="196.923828"/>
     <use xlink:href="#DejaVuSerif-Bold-65" x="288.330078"/>
     <use xlink:href="#DejaVuSerif-Bold-74" x="351.953125"/>
     <use xlink:href="#DejaVuSerif-Bold-77" x="398.144531"/>
     <use xlink:href="#DejaVuSerif-Bold-6f" x="484.228516"/>
     <use xlink:href="#DejaVuSerif-Bold-72" x="550.927734"/>
     <use xlink:href="#DejaVuSerif-Bold-6b" x="603.613281"/>
    </g>
   </g>
   <g id="legend_2">
    <g id="patch_13">
     <path d="M 603.4219 123.5333 
L 689.56565 123.5333 
Q 692.02965 123.5333 692.02965 121.0693 
L 692.02965 86.1344 
Q 692.02965 83.6704 689.56565 83.6704 
L 603.4219 83.6704 
Q 600.9579 83.6704 600.9579 86.1344 
L 600.9579 121.0693 
Q 600.9579 123.5333 603.4219 123.5333 
z
" style="fill: #ffffff; opacity: 0.8; stroke: #cccccc; stroke-width: 0.8; stroke-linejoin: miter"/>
    </g>
    <g id="line2d_35">
     <path d="M 605.8859 93.647675 
L 618.2059 93.647675 
L 630.5259 93.647675 
" style="fill: none; stroke: #c80723; stroke-width: 2.5; stroke-linecap: round"/>
     <g>
      <use xlink:href="#m184440a2a7" x="618.2059" y="93.647675" style="fill: #c80723; stroke: #ffffff; stroke-width: 0.75"/>
     </g>
    </g>
    <g id="text_26">
     <!-- CLAP-S -->
     <g style="fill: #262626" transform="translate(640.3819 97.959675) scale(0.1232 -0.1232)">
      <use xlink:href="#DejaVuSerif-43"/>
      <use xlink:href="#DejaVuSerif-4c" x="76.513672"/>
      <use xlink:href="#DejaVuSerif-41" x="142.919922"/>
      <use xlink:href="#DejaVuSerif-50" x="215.136719"/>
      <use xlink:href="#DejaVuSerif-2d" x="276.921875"/>
      <use xlink:href="#DejaVuSerif-53" x="310.710938"/>
     </g>
    </g>
    <g id="line2d_36">
     <path d="M 605.8859 111.731125 
L 618.2059 111.731125 
L 630.5259 111.731125 
" style="fill: none; stroke: #004e94; stroke-width: 2.5; stroke-linecap: round"/>
     <g>
      <use xlink:href="#m1829e265ef" x="618.2059" y="111.731125" style="fill: #004e94; stroke: #ffffff; stroke-width: 0.75; stroke-linejoin: miter"/>
     </g>
    </g>
    <g id="text_27">
     <!-- RSU -->
     <g style="fill: #262626" transform="translate(640.3819 116.043125) scale(0.1232 -0.1232)">
      <use xlink:href="#DejaVuSerif-52"/>
      <use xlink:href="#DejaVuSerif-53" x="75.292969"/>
      <use xlink:href="#DejaVuSerif-55" x="143.798828"/>
     </g>
    </g>
   </g>
  </g>
  <g id="text_28">
   <!-- Robustness: Driver Retention vs. Perturbation -->
   <g style="fill: #262626" transform="translate(141.825006 20.877187) scale(0.18 -0.18)">
    <defs>
     <path id="DejaVuSerif-62" d="M 738 331 
L 738 4531 
L 184 4531 
L 184 4863 
L 1313 4863 
L 1313 2803 
Q 1481 3116 1742 3264 
Q 2003 3413 2388 3413 
Q 3000 3413 3387 2928 
Q 3775 2444 3775 1663 
Q 3775 881 3387 395 
Q 3000 -91 2388 -91 
Q 2003 -91 1742 57 
Q 1481 206 1313 519 
L 1313 0 
L 184 0 
L 184 331 
L 738 331 
z
M 1313 1497 
Q 1313 897 1542 583 
Q 1772 269 2209 269 
Q 2650 269 2876 622 
Q 3103 975 3103 1663 
Q 3103 2353 2876 2703 
Q 2650 3053 2209 3053 
Q 1772 3053 1542 2737 
Q 1313 2422 1313 1825 
L 1313 1497 
z
" transform="scale(0.015625)"/>
     <path id="DejaVuSerif-75" d="M 2266 3322 
L 3341 3322 
L 3341 331 
L 3884 331 
L 3884 0 
L 2766 0 
L 2766 588 
Q 2606 256 2353 82 
Q 2100 -91 1766 -91 
Q 1213 -91 952 223 
Q 691 538 691 1209 
L 691 2988 
L 172 2988 
L 172 3322 
L 1269 3322 
L 1269 1388 
Q 1269 781 1417 556 
Q 1566 331 1947 331 
Q 2347 331 2556 625 
Q 2766 919 2766 1478 
L 2766 2988 
L 2266 2988 
L 2266 3322 
z
" transform="scale(0.015625)"/>
     <path id="DejaVuSerif-3a" d="M 666 325 
Q 666 500 786 622 
Q 906 744 1081 744 
Q 1256 744 1376 622 
Q 1497 500 1497 325 
Q 1497 150 1378 29 
Q 1259 -91 1081 -91 
Q 903 -91 784 29 
Q 666 150 666 325 
z
M 666 2363 
Q 666 2538 786 2658 
Q 906 2778 1081 2778 
Q 1259 2778 1378 2659 
Q 1497 2541 1497 2363 
Q 1497 2184 1378 2065 
Q 1259 1947 1081 1947 
Q 906 1947 786 2067 
Q 666 2188 666 2363 
z
" transform="scale(0.015625)"/>
     <path id="DejaVuSerif-44" d="M 1581 331 
L 2163 331 
Q 3072 331 3558 850 
Q 4044 1369 4044 2338 
Q 4044 3306 3559 3818 
Q 3075 4331 2163 4331 
L 1581 4331 
L 1581 331 
z
M 353 0 
L 353 331 
L 947 331 
L 947 4331 
L 353 4331 
L 353 4666 
L 2209 4666 
Q 3416 4666 4089 4050 
Q 4763 3434 4763 2338 
Q 4763 1238 4088 619 
Q 3413 0 2209 0 
L 353 0 
z
" transform="scale(0.015625)"/>
    </defs>
    <use xlink:href="#DejaVuSerif-52"/>
    <use xlink:href="#DejaVuSerif-6f" x="75.292969"/>
    <use xlink:href="#DejaVuSerif-62" x="135.498047"/>
    <use xlink:href="#DejaVuSerif-75" x="199.511719"/>
    <use xlink:href="#DejaVuSerif-73" x="263.916016"/>
    <use xlink:href="#DejaVuSerif-74" x="315.234375"/>
    <use xlink:href="#DejaVuSerif-6e" x="355.419922"/>
    <use xlink:href="#DejaVuSerif-65" x="419.824219"/>
    <use xlink:href="#DejaVuSerif-73" x="479.003906"/>
    <use xlink:href="#DejaVuSerif-73" x="530.322266"/>
    <use xlink:href="#DejaVuSerif-3a" x="581.640625"/>
    <use xlink:href="#DejaVuSerif-20" x="615.332031"/>
    <use xlink:href="#DejaVuSerif-44" x="647.119141"/>
    <use xlink:href="#DejaVuSerif-72" x="727.294922"/>
    <use xlink:href="#DejaVuSerif-69" x="775.097656"/>
    <use xlink:href="#DejaVuSerif-76" x="807.080078"/>
    <use xlink:href="#DejaVuSerif-65" x="863.574219"/>
    <use xlink:href="#DejaVuSerif-72" x="922.753906"/>
    <use xlink:href="#DejaVuSerif-20" x="970.556641"/>
    <use xlink:href="#DejaVuSerif-52" x="1002.34375"/>
    <use xlink:href="#DejaVuSerif-65" x="1077.636719"/>
    <use xlink:href="#DejaVuSerif-74" x="1136.816406"/>
    <use xlink:href="#DejaVuSerif-65" x="1177.001953"/>
    <use xlink:href="#DejaVuSerif-6e" x="1236.181641"/>
    <use xlink:href="#DejaVuSerif-74" x="1300.585938"/>
    <use xlink:href="#DejaVuSerif-69" x="1340.771484"/>
    <use xlink:href="#DejaVuSerif-6f" x="1372.753906"/>
    <use xlink:href="#DejaVuSerif-6e" x="1432.958984"/>
    <use xlink:href="#DejaVuSerif-20" x="1497.363281"/>
    <use xlink:href="#DejaVuSerif-76" x="1529.150391"/>
    <use xlink:href="#DejaVuSerif-73" x="1585.644531"/>
    <use xlink:href="#DejaVuSerif-2e" x="1636.962891"/>
    <use xlink:href="#DejaVuSerif-20" x="1668.75"/>
    <use xlink:href="#DejaVuSerif-50" x="1700.537109"/>
    <use xlink:href="#DejaVuSerif-65" x="1763.322266"/>
    <use xlink:href="#DejaVuSerif-72" x="1822.501953"/>
    <use xlink:href="#DejaVuSerif-74" x="1870.304688"/>
    <use xlink:href="#DejaVuSerif-75" x="1910.490234"/>
    <use xlink:href="#DejaVuSerif-72" x="1974.894531"/>
    <use xlink:href="#DejaVuSerif-62" x="2022.697266"/>
    <use xlink:href="#DejaVuSerif-61" x="2086.710938"/>
    <use xlink:href="#DejaVuSerif-74" x="2146.330078"/>
    <use xlink:href="#DejaVuSerif-69" x="2186.515625"/>
    <use xlink:href="#DejaVuSerif-6f" x="2218.498047"/>
    <use xlink:href="#DejaVuSerif-6e" x="2278.703125"/>
   </g>
  </g>
 </g>
 <defs>
  <clipPath id="p9227380ac1">
   <rect x="52.10005" y="77.5104" width="315.7872" height="204.5544"/>
  </clipPath>
  <clipPath id="p77b62f62b3">
   <rect x="382.40245" y="77.5104" width="315.7872" height="204.5544"/>
  </clipPath>
 </defs>
</svg>
